G04 #@! TF.GenerationSoftware,KiCad,Pcbnew,(5.99.0-8645-g8b3dea7107)*
G04 #@! TF.CreationDate,2021-02-11T22:48:24-08:00*
G04 #@! TF.ProjectId,bomu,626f6d75-2e6b-4696-9361-645f70636258,rev?*
G04 #@! TF.SameCoordinates,PX7de9b10PY86ff218*
G04 #@! TF.FileFunction,Copper,L4,Inr*
G04 #@! TF.FilePolarity,Positive*
%FSLAX46Y46*%
G04 Gerber Fmt 4.6, Leading zero omitted, Abs format (unit mm)*
G04 Created by KiCad (PCBNEW (5.99.0-8645-g8b3dea7107)) date 2021-02-11 22:48:24*
%MOMM*%
%LPD*%
G01*
G04 APERTURE LIST*
G04 #@! TA.AperFunction,ViaPad*
%ADD10C,0.508000*%
G04 #@! TD*
G04 #@! TA.AperFunction,ViaPad*
%ADD11C,0.200000*%
G04 #@! TD*
G04 #@! TA.AperFunction,Conductor*
%ADD12C,0.254000*%
G04 #@! TD*
G04 #@! TA.AperFunction,Conductor*
%ADD13C,0.127000*%
G04 #@! TD*
G04 APERTURE END LIST*
D10*
X11861800Y7874000D03*
X4902200Y8128000D03*
D11*
X6299200Y7391400D03*
X6045200Y6375400D03*
X3780000Y3810000D03*
X2692400Y2590800D03*
D10*
X2438400Y7518400D03*
X609600Y990600D03*
X12268200Y8991600D03*
D11*
X1600200Y4826000D03*
X4343400Y7391400D03*
X3632200Y7391400D03*
X5270000Y6020000D03*
X6680200Y2667000D03*
X1930400Y2489200D03*
X5765800Y5960000D03*
X4880000Y4020000D03*
D10*
X2971800Y584200D03*
X2463800Y584200D03*
X1955800Y584200D03*
X1447800Y584200D03*
D11*
X3120000Y3910000D03*
X2790000Y3890000D03*
X2108200Y5207000D03*
D10*
X7772400Y8534400D03*
D11*
X5250000Y6360000D03*
D10*
X6273800Y8534400D03*
D11*
X5260000Y6730000D03*
D10*
X4546600Y3657600D03*
D11*
X2159000Y5943600D03*
D10*
X4394200Y5689600D03*
D11*
X2710000Y5900000D03*
D10*
X11407140Y8450580D03*
D11*
X4830000Y6760000D03*
X4470000Y6740000D03*
D10*
X10355580Y8389620D03*
D11*
X3760000Y3430000D03*
X4140000Y3880000D03*
D12*
X6299200Y6527800D02*
X6299200Y7391400D01*
X6045200Y6375400D02*
X6146800Y6375400D01*
X6146800Y6375400D02*
X6299200Y6527800D01*
X2692400Y3276600D02*
X2692400Y2590800D01*
X3678400Y3708400D02*
X3124200Y3708400D01*
X3780000Y3810000D02*
X3678400Y3708400D01*
X3678400Y3708400D02*
X3657600Y3708400D01*
X3124200Y3708400D02*
X2692400Y3276600D01*
X5010000Y4150000D02*
X4880000Y4020000D01*
X5010000Y4857600D02*
X5010000Y4150000D01*
X5765800Y5613400D02*
X5010000Y4857600D01*
X5765800Y5960000D02*
X5765800Y5613400D01*
D13*
X7772400Y8534400D02*
X7696200Y8458200D01*
X7137400Y7973794D02*
X6883606Y7720000D01*
X5590000Y7340000D02*
X5590000Y6700000D01*
X7137400Y8458200D02*
X7137400Y7973794D01*
X5970000Y7720000D02*
X5590000Y7340000D01*
X7696200Y8458200D02*
X7137400Y8458200D01*
X5590000Y6700000D02*
X5250000Y6360000D01*
X6883606Y7720000D02*
X5970000Y7720000D01*
X5260000Y6779600D02*
X5260000Y6730000D01*
X6883400Y8079006D02*
X6779994Y7975600D01*
X5687794Y7975600D02*
X5029200Y7317006D01*
X5029200Y7317006D02*
X5029200Y7010400D01*
X6883400Y8458200D02*
X6883400Y8079006D01*
X6350000Y8458200D02*
X6883400Y8458200D01*
X5029200Y7010400D02*
X5260000Y6779600D01*
X6779994Y7975600D02*
X5687794Y7975600D01*
X6273800Y8534400D02*
X6350000Y8458200D01*
X4546600Y3657600D02*
X4546600Y3962400D01*
X4546600Y3962400D02*
X3886200Y4622800D01*
X2324100Y5395694D02*
X2324100Y5778500D01*
X2324100Y5778500D02*
X2159000Y5943600D01*
X3096994Y4622800D02*
X2324100Y5395694D01*
X3886200Y4622800D02*
X3096994Y4622800D01*
X4737100Y5346700D02*
X4267200Y4876800D01*
X3202206Y4876800D02*
X2578100Y5500906D01*
X2710000Y5900000D02*
X2699600Y5900000D01*
X2578100Y5500906D02*
X2578100Y5778500D01*
X2699600Y5900000D02*
X2578100Y5778500D01*
X4394200Y5689600D02*
X4737100Y5346700D01*
X4267200Y4876800D02*
X3202206Y4876800D01*
X4439920Y8318500D02*
X4439920Y7881620D01*
X11407140Y8077200D02*
X11051540Y7721600D01*
X4439920Y7881620D02*
X4714240Y7607300D01*
X4714240Y6875760D02*
X4830000Y6760000D01*
X4714240Y7607300D02*
X4714240Y6875760D01*
X7950200Y8938260D02*
X5059680Y8938260D01*
X11407140Y8450580D02*
X11407140Y8077200D01*
X5059680Y8938260D02*
X4439920Y8318500D01*
X8219440Y8669020D02*
X7950200Y8938260D01*
X8460740Y7721600D02*
X8219440Y7962900D01*
X8219440Y7962900D02*
X8219440Y8669020D01*
X11051540Y7721600D02*
X8460740Y7721600D01*
X4975860Y9149080D02*
X9596120Y9149080D01*
X9596120Y9149080D02*
X10355580Y8389620D01*
X4053840Y7239000D02*
X4053840Y8227060D01*
X4333240Y6959600D02*
X4053840Y7239000D01*
X4333240Y6873240D02*
X4466480Y6740000D01*
X4466480Y6740000D02*
X4470000Y6740000D01*
X4053840Y8227060D02*
X4975860Y9149080D01*
X4333240Y6873240D02*
X4333240Y6959600D01*
M02*
