G04 #@! TF.GenerationSoftware,KiCad,Pcbnew,(5.99.0-8258-g1ec6beaf04)*
G04 #@! TF.CreationDate,2021-01-21T00:32:18-08:00*
G04 #@! TF.ProjectId,bomu,626f6d75-2e6b-4696-9361-645f70636258,rev?*
G04 #@! TF.SameCoordinates,Original*
G04 #@! TF.FileFunction,Copper,L1,Top*
G04 #@! TF.FilePolarity,Positive*
%FSLAX46Y46*%
G04 Gerber Fmt 4.6, Leading zero omitted, Abs format (unit mm)*
G04 Created by KiCad (PCBNEW (5.99.0-8258-g1ec6beaf04)) date 2021-01-21 00:32:18*
%MOMM*%
%LPD*%
G01*
G04 APERTURE LIST*
G04 #@! TA.AperFunction,SMDPad,CuDef*
%ADD10R,0.800000X0.800000*%
G04 #@! TD*
G04 #@! TA.AperFunction,ViaPad*
%ADD11C,0.508000*%
G04 #@! TD*
G04 #@! TA.AperFunction,ViaPad*
%ADD12C,0.200000*%
G04 #@! TD*
G04 #@! TA.AperFunction,Conductor*
%ADD13C,0.254000*%
G04 #@! TD*
G04 #@! TA.AperFunction,Conductor*
%ADD14C,0.381000*%
G04 #@! TD*
G04 APERTURE END LIST*
G36*
X133105200Y-139980200D02*
G01*
X132105200Y-139980200D01*
X132105200Y-138980200D01*
X133105200Y-138980200D01*
X133105200Y-139980200D01*
G37*
G36*
X133105200Y-134730300D02*
G01*
X132105200Y-134730300D01*
X132105200Y-133730300D01*
X133105200Y-133730300D01*
X133105200Y-134730300D01*
G37*
G36*
X133105200Y-133730300D02*
G01*
X132105200Y-133730300D01*
X132105400Y-133489700D01*
X133106160Y-132481320D01*
X133105200Y-133730300D01*
G37*
G36*
X133106160Y-141229180D02*
G01*
X132105400Y-140220800D01*
X132105200Y-139980200D01*
X133105200Y-139980200D01*
X133106160Y-141229180D01*
G37*
G04 #@! TA.AperFunction,SMDPad,CuDef*
G36*
X140605200Y-134730200D02*
G01*
X133105200Y-134730200D01*
X133105200Y-132480200D01*
X140605200Y-132480200D01*
X140605200Y-134730200D01*
G37*
G04 #@! TD.AperFunction*
G04 #@! TA.AperFunction,SMDPad,CuDef*
G36*
X140605200Y-136730200D02*
G01*
X133105200Y-136730200D01*
X133105200Y-134980200D01*
X140605200Y-134980200D01*
X140605200Y-136730200D01*
G37*
G04 #@! TD.AperFunction*
G04 #@! TA.AperFunction,SMDPad,CuDef*
G36*
X140605200Y-138746200D02*
G01*
X133105200Y-138746200D01*
X133105200Y-136996200D01*
X140605200Y-136996200D01*
X140605200Y-138746200D01*
G37*
G04 #@! TD.AperFunction*
G04 #@! TA.AperFunction,SMDPad,CuDef*
G36*
X140605200Y-141230200D02*
G01*
X133105200Y-141230200D01*
X133105200Y-138980200D01*
X140605200Y-138980200D01*
X140605200Y-141230200D01*
G37*
G04 #@! TD.AperFunction*
D10*
X144170400Y-132870000D03*
X142240000Y-132877200D03*
X141274800Y-132877200D03*
X143205200Y-132851800D03*
X144195800Y-133934200D03*
X141274800Y-133908800D03*
X142240000Y-133908800D03*
D11*
X143891000Y-133680200D03*
X136931400Y-133426200D03*
X144297400Y-132562600D03*
X135001000Y-140970000D03*
X134493000Y-140970000D03*
X133985000Y-140970000D03*
X133477000Y-140970000D03*
X142240000Y-133134100D03*
X143205200Y-132562600D03*
X141274800Y-132562600D03*
X136575800Y-137896600D03*
X136423400Y-135864600D03*
D12*
X141046200Y-134112000D03*
X142240000Y-134112000D03*
D13*
X144145000Y-133934200D02*
X143891000Y-133680200D01*
X144195800Y-133934200D02*
X144145000Y-133934200D01*
X136855200Y-133502400D02*
X136931400Y-133426200D01*
X136855200Y-133605200D02*
X136855200Y-133502400D01*
X144170400Y-132689600D02*
X144297400Y-132562600D01*
X144170400Y-132870000D02*
X144170400Y-132689600D01*
D14*
X136855200Y-140105200D02*
X136855200Y-140157200D01*
X136042400Y-140970000D02*
X135001000Y-140970000D01*
X136855200Y-140157200D02*
X136042400Y-140970000D01*
D13*
X136855200Y-137871200D02*
X136448800Y-137871200D01*
X136448800Y-137871200D02*
X136423400Y-137845800D01*
X136855200Y-135855200D02*
X136432800Y-135855200D01*
X136432800Y-135855200D02*
X136423400Y-135864600D01*
X141249400Y-133908800D02*
X141046200Y-134112000D01*
X141274800Y-133908800D02*
X141249400Y-133908800D01*
X142240000Y-133908800D02*
X142240000Y-134112000D01*
M02*
