G04 #@! TF.GenerationSoftware,KiCad,Pcbnew,(5.99.0-8645-g8b3dea7107)*
G04 #@! TF.CreationDate,2021-02-11T22:48:25-08:00*
G04 #@! TF.ProjectId,bomu,626f6d75-2e6b-4696-9361-645f70636258,rev?*
G04 #@! TF.SameCoordinates,PX7de9b10PY86ff218*
G04 #@! TF.FileFunction,Legend,Bot*
G04 #@! TF.FilePolarity,Positive*
%FSLAX46Y46*%
G04 Gerber Fmt 4.6, Leading zero omitted, Abs format (unit mm)*
G04 Created by KiCad (PCBNEW (5.99.0-8645-g8b3dea7107)) date 2021-02-11 22:48:25*
%MOMM*%
%LPD*%
G01*
G04 APERTURE LIST*
%ADD10C,0.120000*%
%ADD11C,0.127000*%
%ADD12C,0.200000*%
%ADD13C,0.050000*%
G04 APERTURE END LIST*
D10*
X12443590Y1968429D02*
X12443590Y2254143D01*
X12443590Y2111286D02*
X11943590Y2111286D01*
X12015019Y2158905D01*
X12062638Y2206524D01*
X12086447Y2254143D01*
X12395971Y1754143D02*
X12419780Y1730334D01*
X12443590Y1754143D01*
X12419780Y1777953D01*
X12395971Y1754143D01*
X12443590Y1754143D01*
X11943590Y1420810D02*
X11943590Y1373191D01*
X11967400Y1325572D01*
X11991209Y1301762D01*
X12038828Y1277953D01*
X12134066Y1254143D01*
X12253114Y1254143D01*
X12348352Y1277953D01*
X12395971Y1301762D01*
X12419780Y1325572D01*
X12443590Y1373191D01*
X12443590Y1420810D01*
X12419780Y1468429D01*
X12395971Y1492239D01*
X12348352Y1516048D01*
X12253114Y1539858D01*
X12134066Y1539858D01*
X12038828Y1516048D01*
X11991209Y1492239D01*
X11967400Y1468429D01*
X11943590Y1420810D01*
X12395971Y1039858D02*
X12419780Y1016048D01*
X12443590Y1039858D01*
X12419780Y1063667D01*
X12395971Y1039858D01*
X12443590Y1039858D01*
X11943590Y706524D02*
X11943590Y658905D01*
X11967400Y611286D01*
X11991209Y587477D01*
X12038828Y563667D01*
X12134066Y539858D01*
X12253114Y539858D01*
X12348352Y563667D01*
X12395971Y587477D01*
X12419780Y611286D01*
X12443590Y658905D01*
X12443590Y706524D01*
X12419780Y754143D01*
X12395971Y777953D01*
X12348352Y801762D01*
X12253114Y825572D01*
X12134066Y825572D01*
X12038828Y801762D01*
X11991209Y777953D01*
X11967400Y754143D01*
X11943590Y706524D01*
D11*
X5977800Y3089999D02*
X4982800Y3089999D01*
X5977800Y7069999D02*
X5977800Y6074999D01*
X4982800Y7069999D02*
X5977800Y7069999D01*
X1997800Y7069999D02*
X2992800Y7069999D01*
X1997800Y3089999D02*
X1997800Y4084999D01*
X2992800Y3089999D02*
X1997800Y3089999D01*
X5977800Y4084999D02*
X5977800Y3089999D01*
X1997800Y6074999D02*
X1997800Y7069999D01*
D12*
X5937800Y3229999D02*
G75*
G03*
X5937800Y3229999I-100000J0D01*
G01*
D10*
X6037580Y3675380D02*
X6286500Y3675380D01*
X6037580Y3675380D02*
X6037580Y4137660D01*
D13*
X8650419Y7950200D02*
G75*
G03*
X8650419Y7950200I-141419J0D01*
G01*
D11*
X11061800Y5749800D02*
X11061800Y3749800D01*
X12661800Y5749800D02*
X12661800Y3749800D01*
D12*
X11541800Y2344800D02*
G75*
G03*
X11541800Y2344800I-100000J0D01*
G01*
M02*
