G04 #@! TF.GenerationSoftware,KiCad,Pcbnew,(5.1.8-0-10_14)*
G04 #@! TF.CreationDate,2020-12-26T22:42:20-08:00*
G04 #@! TF.ProjectId,bomu,626f6d75-2e6b-4696-9361-645f70636258,rev?*
G04 #@! TF.SameCoordinates,Original*
G04 #@! TF.FileFunction,Legend,Bot*
G04 #@! TF.FilePolarity,Positive*
%FSLAX46Y46*%
G04 Gerber Fmt 4.6, Leading zero omitted, Abs format (unit mm)*
G04 Created by KiCad (PCBNEW (5.1.8-0-10_14)) date 2020-12-26 22:42:20*
%MOMM*%
%LPD*%
G01*
G04 APERTURE LIST*
%ADD10C,0.250000*%
%ADD11C,0.050000*%
%ADD12C,0.200000*%
%ADD13C,0.127000*%
%ADD14C,0.120000*%
G04 APERTURE END LIST*
D10*
X142328757Y-139733280D02*
X142900185Y-139733280D01*
X142614471Y-139733280D02*
X142614471Y-138733280D01*
X142709709Y-138876138D01*
X142804947Y-138971376D01*
X142900185Y-139018995D01*
X141900185Y-139638042D02*
X141852566Y-139685661D01*
X141900185Y-139733280D01*
X141947804Y-139685661D01*
X141900185Y-139638042D01*
X141900185Y-139733280D01*
X141233519Y-138733280D02*
X141138280Y-138733280D01*
X141043042Y-138780900D01*
X140995423Y-138828519D01*
X140947804Y-138923757D01*
X140900185Y-139114233D01*
X140900185Y-139352328D01*
X140947804Y-139542804D01*
X140995423Y-139638042D01*
X141043042Y-139685661D01*
X141138280Y-139733280D01*
X141233519Y-139733280D01*
X141328757Y-139685661D01*
X141376376Y-139638042D01*
X141423995Y-139542804D01*
X141471614Y-139352328D01*
X141471614Y-139114233D01*
X141423995Y-138923757D01*
X141376376Y-138828519D01*
X141328757Y-138780900D01*
X141233519Y-138733280D01*
X140471614Y-139638042D02*
X140423995Y-139685661D01*
X140471614Y-139733280D01*
X140519233Y-139685661D01*
X140471614Y-139638042D01*
X140471614Y-139733280D01*
X139804947Y-138733280D02*
X139709709Y-138733280D01*
X139614471Y-138780900D01*
X139566852Y-138828519D01*
X139519233Y-138923757D01*
X139471614Y-139114233D01*
X139471614Y-139352328D01*
X139519233Y-139542804D01*
X139566852Y-139638042D01*
X139614471Y-139685661D01*
X139709709Y-139733280D01*
X139804947Y-139733280D01*
X139900185Y-139685661D01*
X139947804Y-139638042D01*
X139995423Y-139542804D01*
X140043042Y-139352328D01*
X140043042Y-139114233D01*
X139995423Y-138923757D01*
X139947804Y-138828519D01*
X139900185Y-138780900D01*
X139804947Y-138733280D01*
D11*
X140679619Y-133604000D02*
G75*
G03*
X140679619Y-133604000I-141419J0D01*
G01*
D12*
X138200400Y-138517001D02*
G75*
G03*
X138200400Y-138517001I-100000J0D01*
G01*
D13*
X138007000Y-137469201D02*
X138007000Y-138464201D01*
X138007000Y-138464201D02*
X137012000Y-138464201D01*
X135022000Y-138464201D02*
X134027000Y-138464201D01*
X134027000Y-138464201D02*
X134027000Y-137469201D01*
X134027000Y-135479201D02*
X134027000Y-134484201D01*
X134027000Y-134484201D02*
X135022000Y-134484201D01*
X137012000Y-134484201D02*
X138007000Y-134484201D01*
X138007000Y-134484201D02*
X138007000Y-135479201D01*
D14*
X138066780Y-137878820D02*
X138066780Y-137416540D01*
X138066780Y-137878820D02*
X138315700Y-137878820D01*
D13*
X144691000Y-135804400D02*
X144691000Y-137804400D01*
X143091000Y-135804400D02*
X143091000Y-137804400D01*
D12*
X143571000Y-139209400D02*
G75*
G03*
X143571000Y-139209400I-100000J0D01*
G01*
M02*
