G04 #@! TF.GenerationSoftware,KiCad,Pcbnew,(5.1.8-0-10_14)*
G04 #@! TF.CreationDate,2020-12-26T22:42:20-08:00*
G04 #@! TF.ProjectId,bomu,626f6d75-2e6b-4696-9361-645f70636258,rev?*
G04 #@! TF.SameCoordinates,Original*
G04 #@! TF.FileFunction,Copper,L6,Bot*
G04 #@! TF.FilePolarity,Positive*
%FSLAX46Y46*%
G04 Gerber Fmt 4.6, Leading zero omitted, Abs format (unit mm)*
G04 Created by KiCad (PCBNEW (5.1.8-0-10_14)) date 2020-12-26 22:42:20*
%MOMM*%
%LPD*%
G01*
G04 APERTURE LIST*
G04 #@! TA.AperFunction,SMDPad,CuDef*
%ADD10R,0.800000X0.800000*%
G04 #@! TD*
G04 #@! TA.AperFunction,SMDPad,CuDef*
%ADD11R,0.750000X1.400000*%
G04 #@! TD*
G04 #@! TA.AperFunction,SMDPad,CuDef*
%ADD12C,0.200000*%
G04 #@! TD*
G04 #@! TA.AperFunction,SMDPad,CuDef*
%ADD13R,0.740000X0.840000*%
G04 #@! TD*
G04 #@! TA.AperFunction,SMDPad,CuDef*
%ADD14R,0.650000X0.800000*%
G04 #@! TD*
G04 #@! TA.AperFunction,SMDPad,CuDef*
%ADD15R,1.600000X0.800000*%
G04 #@! TD*
G04 #@! TA.AperFunction,ViaPad*
%ADD16C,0.200000*%
G04 #@! TD*
G04 #@! TA.AperFunction,ViaPad*
%ADD17C,0.508000*%
G04 #@! TD*
G04 #@! TA.AperFunction,Conductor*
%ADD18C,0.101600*%
G04 #@! TD*
G04 #@! TA.AperFunction,Conductor*
%ADD19C,0.254000*%
G04 #@! TD*
G04 #@! TA.AperFunction,Conductor*
%ADD20C,0.127000*%
G04 #@! TD*
G04 #@! TA.AperFunction,Conductor*
%ADD21C,0.213000*%
G04 #@! TD*
G04 #@! TA.AperFunction,Conductor*
%ADD22C,0.330200*%
G04 #@! TD*
G04 #@! TA.AperFunction,Conductor*
%ADD23C,0.381000*%
G04 #@! TD*
G04 #@! TA.AperFunction,Conductor*
%ADD24C,0.316000*%
G04 #@! TD*
G04 #@! TA.AperFunction,Conductor*
%ADD25C,0.100000*%
G04 #@! TD*
G04 APERTURE END LIST*
G04 #@! TA.AperFunction,SMDPad,CuDef*
G36*
G01*
X138330000Y-140706940D02*
X138530000Y-140706940D01*
G75*
G02*
X138630000Y-140806940I0J-100000D01*
G01*
X138630000Y-141066940D01*
G75*
G02*
X138530000Y-141166940I-100000J0D01*
G01*
X138330000Y-141166940D01*
G75*
G02*
X138230000Y-141066940I0J100000D01*
G01*
X138230000Y-140806940D01*
G75*
G02*
X138330000Y-140706940I100000J0D01*
G01*
G37*
G04 #@! TD.AperFunction*
G04 #@! TA.AperFunction,SMDPad,CuDef*
G36*
G01*
X138283250Y-140190440D02*
X138576750Y-140190440D01*
G75*
G02*
X138630000Y-140243690I0J-53250D01*
G01*
X138630000Y-140350190D01*
G75*
G02*
X138576750Y-140403440I-53250J0D01*
G01*
X138283250Y-140403440D01*
G75*
G02*
X138230000Y-140350190I0J53250D01*
G01*
X138230000Y-140243690D01*
G75*
G02*
X138283250Y-140190440I53250J0D01*
G01*
G37*
G04 #@! TD.AperFunction*
G04 #@! TA.AperFunction,SMDPad,CuDef*
G36*
G01*
X137816680Y-140243690D02*
X137816680Y-140350190D01*
G75*
G02*
X137763430Y-140403440I-53250J0D01*
G01*
X137409930Y-140403440D01*
G75*
G02*
X137356680Y-140350190I0J53250D01*
G01*
X137356680Y-140243690D01*
G75*
G02*
X137409930Y-140190440I53250J0D01*
G01*
X137763430Y-140190440D01*
G75*
G02*
X137816680Y-140243690I0J-53250D01*
G01*
G37*
G04 #@! TD.AperFunction*
G04 #@! TA.AperFunction,SMDPad,CuDef*
G36*
G01*
X137176680Y-140243690D02*
X137176680Y-140350190D01*
G75*
G02*
X137123430Y-140403440I-53250J0D01*
G01*
X136769930Y-140403440D01*
G75*
G02*
X136716680Y-140350190I0J53250D01*
G01*
X136716680Y-140243690D01*
G75*
G02*
X136769930Y-140190440I53250J0D01*
G01*
X137123430Y-140190440D01*
G75*
G02*
X137176680Y-140243690I0J-53250D01*
G01*
G37*
G04 #@! TD.AperFunction*
G04 #@! TA.AperFunction,SMDPad,CuDef*
G36*
G01*
X136298720Y-139776770D02*
X136298720Y-140070270D01*
G75*
G02*
X136245470Y-140123520I-53250J0D01*
G01*
X136138970Y-140123520D01*
G75*
G02*
X136085720Y-140070270I0J53250D01*
G01*
X136085720Y-139776770D01*
G75*
G02*
X136138970Y-139723520I53250J0D01*
G01*
X136245470Y-139723520D01*
G75*
G02*
X136298720Y-139776770I0J-53250D01*
G01*
G37*
G04 #@! TD.AperFunction*
G04 #@! TA.AperFunction,SMDPad,CuDef*
G36*
G01*
X135782220Y-139823520D02*
X135782220Y-140023520D01*
G75*
G02*
X135682220Y-140123520I-100000J0D01*
G01*
X135422220Y-140123520D01*
G75*
G02*
X135322220Y-140023520I0J100000D01*
G01*
X135322220Y-139823520D01*
G75*
G02*
X135422220Y-139723520I100000J0D01*
G01*
X135682220Y-139723520D01*
G75*
G02*
X135782220Y-139823520I0J-100000D01*
G01*
G37*
G04 #@! TD.AperFunction*
G04 #@! TA.AperFunction,SMDPad,CuDef*
G36*
G01*
X136245510Y-138929280D02*
X136139010Y-138929280D01*
G75*
G02*
X136085760Y-138876030I0J53250D01*
G01*
X136085760Y-138522530D01*
G75*
G02*
X136139010Y-138469280I53250J0D01*
G01*
X136245510Y-138469280D01*
G75*
G02*
X136298760Y-138522530I0J-53250D01*
G01*
X136298760Y-138876030D01*
G75*
G02*
X136245510Y-138929280I-53250J0D01*
G01*
G37*
G04 #@! TD.AperFunction*
G04 #@! TA.AperFunction,SMDPad,CuDef*
G36*
G01*
X136245510Y-139569280D02*
X136139010Y-139569280D01*
G75*
G02*
X136085760Y-139516030I0J53250D01*
G01*
X136085760Y-139162530D01*
G75*
G02*
X136139010Y-139109280I53250J0D01*
G01*
X136245510Y-139109280D01*
G75*
G02*
X136298760Y-139162530I0J-53250D01*
G01*
X136298760Y-139516030D01*
G75*
G02*
X136245510Y-139569280I-53250J0D01*
G01*
G37*
G04 #@! TD.AperFunction*
D10*
X142240000Y-132854700D03*
X143205200Y-132854700D03*
X144170400Y-132870000D03*
X144195800Y-133934200D03*
D11*
X138309600Y-133019800D03*
X139769600Y-133019800D03*
D12*
X137592000Y-138049201D03*
X137592000Y-137699201D03*
X137592000Y-137349201D03*
X137592000Y-136999201D03*
X137592000Y-136649201D03*
X137592000Y-136299201D03*
X137592000Y-135949201D03*
X137592000Y-135599201D03*
X137592000Y-135249201D03*
X137592000Y-134899201D03*
X137242000Y-137349201D03*
X137242000Y-136999201D03*
X137242000Y-136649201D03*
X137242000Y-136299201D03*
X137242000Y-135949201D03*
X137242000Y-135599201D03*
X137242000Y-135249201D03*
X137242000Y-134899201D03*
X136892000Y-138049201D03*
X136892000Y-137699201D03*
X136892000Y-136999201D03*
X136892000Y-136649201D03*
X136892000Y-136299201D03*
X136892000Y-135949201D03*
X136892000Y-135599201D03*
X136892000Y-135249201D03*
X136892000Y-134899201D03*
X136542000Y-137349201D03*
X136542000Y-136999201D03*
X136542000Y-136649201D03*
X136542000Y-136299201D03*
X136542000Y-135949201D03*
X136542000Y-135599201D03*
X136542000Y-135249201D03*
X136542000Y-134899201D03*
X136192000Y-138049201D03*
X136192000Y-137699201D03*
X136192000Y-137349201D03*
X136192000Y-136999201D03*
X136192000Y-136649201D03*
X136192000Y-136299201D03*
X136192000Y-135949201D03*
X136192000Y-135599201D03*
X136192000Y-135249201D03*
X136192000Y-134899201D03*
X135842000Y-138049201D03*
X135842000Y-137699201D03*
X135842000Y-137349201D03*
X135842000Y-136999201D03*
X135842000Y-136649201D03*
X135842000Y-136299201D03*
X135842000Y-135949201D03*
X135842000Y-135599201D03*
X135842000Y-135249201D03*
X135842000Y-134899201D03*
X135492000Y-138049201D03*
X135492000Y-137699201D03*
X135492000Y-137349201D03*
X135492000Y-136999201D03*
X135492000Y-136649201D03*
X135492000Y-136299201D03*
X135492000Y-135949201D03*
X135492000Y-135599201D03*
X135492000Y-135249201D03*
X135492000Y-134899201D03*
X135142000Y-138049201D03*
X135142000Y-137699201D03*
X135142000Y-136999201D03*
X135142000Y-136649201D03*
X135142000Y-136299201D03*
X135142000Y-135949201D03*
X135142000Y-135599201D03*
X135142000Y-135249201D03*
X135142000Y-134899201D03*
X134792000Y-138049201D03*
X134792000Y-137699201D03*
X134792000Y-137349201D03*
X134792000Y-136999201D03*
X134792000Y-136649201D03*
X134792000Y-136299201D03*
X134792000Y-135949201D03*
X134792000Y-135599201D03*
X134792000Y-135249201D03*
X134792000Y-134899201D03*
X134442000Y-138049201D03*
X134442000Y-137699201D03*
X134442000Y-137349201D03*
X134442000Y-136999201D03*
X134442000Y-136649201D03*
X134442000Y-136299201D03*
X134442000Y-135949201D03*
X134442000Y-135599201D03*
X134442000Y-135249201D03*
X134442000Y-134899201D03*
D13*
X139833200Y-135810000D03*
X138703200Y-135810000D03*
X138703200Y-137240000D03*
X139833200Y-137240000D03*
G04 #@! TA.AperFunction,SMDPad,CuDef*
G36*
G01*
X133056800Y-140158800D02*
X133056800Y-140358800D01*
G75*
G02*
X132956800Y-140458800I-100000J0D01*
G01*
X132696800Y-140458800D01*
G75*
G02*
X132596800Y-140358800I0J100000D01*
G01*
X132596800Y-140158800D01*
G75*
G02*
X132696800Y-140058800I100000J0D01*
G01*
X132956800Y-140058800D01*
G75*
G02*
X133056800Y-140158800I0J-100000D01*
G01*
G37*
G04 #@! TD.AperFunction*
G04 #@! TA.AperFunction,SMDPad,CuDef*
G36*
G01*
X133696800Y-140158800D02*
X133696800Y-140358800D01*
G75*
G02*
X133596800Y-140458800I-100000J0D01*
G01*
X133336800Y-140458800D01*
G75*
G02*
X133236800Y-140358800I0J100000D01*
G01*
X133236800Y-140158800D01*
G75*
G02*
X133336800Y-140058800I100000J0D01*
G01*
X133596800Y-140058800D01*
G75*
G02*
X133696800Y-140158800I0J-100000D01*
G01*
G37*
G04 #@! TD.AperFunction*
G04 #@! TA.AperFunction,SMDPad,CuDef*
G36*
G01*
X137478600Y-139012600D02*
X137478600Y-138812600D01*
G75*
G02*
X137578600Y-138712600I100000J0D01*
G01*
X137838600Y-138712600D01*
G75*
G02*
X137938600Y-138812600I0J-100000D01*
G01*
X137938600Y-139012600D01*
G75*
G02*
X137838600Y-139112600I-100000J0D01*
G01*
X137578600Y-139112600D01*
G75*
G02*
X137478600Y-139012600I0J100000D01*
G01*
G37*
G04 #@! TD.AperFunction*
G04 #@! TA.AperFunction,SMDPad,CuDef*
G36*
G01*
X136838600Y-139012600D02*
X136838600Y-138812600D01*
G75*
G02*
X136938600Y-138712600I100000J0D01*
G01*
X137198600Y-138712600D01*
G75*
G02*
X137298600Y-138812600I0J-100000D01*
G01*
X137298600Y-139012600D01*
G75*
G02*
X137198600Y-139112600I-100000J0D01*
G01*
X136938600Y-139112600D01*
G75*
G02*
X136838600Y-139012600I0J100000D01*
G01*
G37*
G04 #@! TD.AperFunction*
G04 #@! TA.AperFunction,SMDPad,CuDef*
G36*
G01*
X138799400Y-139012600D02*
X138799400Y-138812600D01*
G75*
G02*
X138899400Y-138712600I100000J0D01*
G01*
X139159400Y-138712600D01*
G75*
G02*
X139259400Y-138812600I0J-100000D01*
G01*
X139259400Y-139012600D01*
G75*
G02*
X139159400Y-139112600I-100000J0D01*
G01*
X138899400Y-139112600D01*
G75*
G02*
X138799400Y-139012600I0J100000D01*
G01*
G37*
G04 #@! TD.AperFunction*
G04 #@! TA.AperFunction,SMDPad,CuDef*
G36*
G01*
X138159400Y-139012600D02*
X138159400Y-138812600D01*
G75*
G02*
X138259400Y-138712600I100000J0D01*
G01*
X138519400Y-138712600D01*
G75*
G02*
X138619400Y-138812600I0J-100000D01*
G01*
X138619400Y-139012600D01*
G75*
G02*
X138519400Y-139112600I-100000J0D01*
G01*
X138259400Y-139112600D01*
G75*
G02*
X138159400Y-139012600I0J100000D01*
G01*
G37*
G04 #@! TD.AperFunction*
G04 #@! TA.AperFunction,SMDPad,CuDef*
G36*
G01*
X133437800Y-138965000D02*
X133437800Y-139165000D01*
G75*
G02*
X133337800Y-139265000I-100000J0D01*
G01*
X133077800Y-139265000D01*
G75*
G02*
X132977800Y-139165000I0J100000D01*
G01*
X132977800Y-138965000D01*
G75*
G02*
X133077800Y-138865000I100000J0D01*
G01*
X133337800Y-138865000D01*
G75*
G02*
X133437800Y-138965000I0J-100000D01*
G01*
G37*
G04 #@! TD.AperFunction*
G04 #@! TA.AperFunction,SMDPad,CuDef*
G36*
G01*
X134077800Y-138965000D02*
X134077800Y-139165000D01*
G75*
G02*
X133977800Y-139265000I-100000J0D01*
G01*
X133717800Y-139265000D01*
G75*
G02*
X133617800Y-139165000I0J100000D01*
G01*
X133617800Y-138965000D01*
G75*
G02*
X133717800Y-138865000I100000J0D01*
G01*
X133977800Y-138865000D01*
G75*
G02*
X134077800Y-138965000I0J-100000D01*
G01*
G37*
G04 #@! TD.AperFunction*
G04 #@! TA.AperFunction,SMDPad,CuDef*
G36*
G01*
X133504000Y-136411800D02*
X133704000Y-136411800D01*
G75*
G02*
X133804000Y-136511800I0J-100000D01*
G01*
X133804000Y-136771800D01*
G75*
G02*
X133704000Y-136871800I-100000J0D01*
G01*
X133504000Y-136871800D01*
G75*
G02*
X133404000Y-136771800I0J100000D01*
G01*
X133404000Y-136511800D01*
G75*
G02*
X133504000Y-136411800I100000J0D01*
G01*
G37*
G04 #@! TD.AperFunction*
G04 #@! TA.AperFunction,SMDPad,CuDef*
G36*
G01*
X133504000Y-135771800D02*
X133704000Y-135771800D01*
G75*
G02*
X133804000Y-135871800I0J-100000D01*
G01*
X133804000Y-136131800D01*
G75*
G02*
X133704000Y-136231800I-100000J0D01*
G01*
X133504000Y-136231800D01*
G75*
G02*
X133404000Y-136131800I0J100000D01*
G01*
X133404000Y-135871800D01*
G75*
G02*
X133504000Y-135771800I100000J0D01*
G01*
G37*
G04 #@! TD.AperFunction*
G04 #@! TA.AperFunction,SMDPad,CuDef*
G36*
G01*
X136272600Y-133795602D02*
X136472600Y-133795602D01*
G75*
G02*
X136572600Y-133895602I0J-100000D01*
G01*
X136572600Y-134155602D01*
G75*
G02*
X136472600Y-134255602I-100000J0D01*
G01*
X136272600Y-134255602D01*
G75*
G02*
X136172600Y-134155602I0J100000D01*
G01*
X136172600Y-133895602D01*
G75*
G02*
X136272600Y-133795602I100000J0D01*
G01*
G37*
G04 #@! TD.AperFunction*
G04 #@! TA.AperFunction,SMDPad,CuDef*
G36*
G01*
X136272600Y-133155602D02*
X136472600Y-133155602D01*
G75*
G02*
X136572600Y-133255602I0J-100000D01*
G01*
X136572600Y-133515602D01*
G75*
G02*
X136472600Y-133615602I-100000J0D01*
G01*
X136272600Y-133615602D01*
G75*
G02*
X136172600Y-133515602I0J100000D01*
G01*
X136172600Y-133255602D01*
G75*
G02*
X136272600Y-133155602I100000J0D01*
G01*
G37*
G04 #@! TD.AperFunction*
G04 #@! TA.AperFunction,SMDPad,CuDef*
G36*
G01*
X135761400Y-133615600D02*
X135561400Y-133615600D01*
G75*
G02*
X135461400Y-133515600I0J100000D01*
G01*
X135461400Y-133255600D01*
G75*
G02*
X135561400Y-133155600I100000J0D01*
G01*
X135761400Y-133155600D01*
G75*
G02*
X135861400Y-133255600I0J-100000D01*
G01*
X135861400Y-133515600D01*
G75*
G02*
X135761400Y-133615600I-100000J0D01*
G01*
G37*
G04 #@! TD.AperFunction*
G04 #@! TA.AperFunction,SMDPad,CuDef*
G36*
G01*
X135761400Y-134255600D02*
X135561400Y-134255600D01*
G75*
G02*
X135461400Y-134155600I0J100000D01*
G01*
X135461400Y-133895600D01*
G75*
G02*
X135561400Y-133795600I100000J0D01*
G01*
X135761400Y-133795600D01*
G75*
G02*
X135861400Y-133895600I0J-100000D01*
G01*
X135861400Y-134155600D01*
G75*
G02*
X135761400Y-134255600I-100000J0D01*
G01*
G37*
G04 #@! TD.AperFunction*
G04 #@! TA.AperFunction,SMDPad,CuDef*
G36*
G01*
X135050200Y-133615600D02*
X134850200Y-133615600D01*
G75*
G02*
X134750200Y-133515600I0J100000D01*
G01*
X134750200Y-133255600D01*
G75*
G02*
X134850200Y-133155600I100000J0D01*
G01*
X135050200Y-133155600D01*
G75*
G02*
X135150200Y-133255600I0J-100000D01*
G01*
X135150200Y-133515600D01*
G75*
G02*
X135050200Y-133615600I-100000J0D01*
G01*
G37*
G04 #@! TD.AperFunction*
G04 #@! TA.AperFunction,SMDPad,CuDef*
G36*
G01*
X135050200Y-134255600D02*
X134850200Y-134255600D01*
G75*
G02*
X134750200Y-134155600I0J100000D01*
G01*
X134750200Y-133895600D01*
G75*
G02*
X134850200Y-133795600I100000J0D01*
G01*
X135050200Y-133795600D01*
G75*
G02*
X135150200Y-133895600I0J-100000D01*
G01*
X135150200Y-134155600D01*
G75*
G02*
X135050200Y-134255600I-100000J0D01*
G01*
G37*
G04 #@! TD.AperFunction*
G04 #@! TA.AperFunction,SMDPad,CuDef*
G36*
G01*
X134339000Y-133615600D02*
X134139000Y-133615600D01*
G75*
G02*
X134039000Y-133515600I0J100000D01*
G01*
X134039000Y-133255600D01*
G75*
G02*
X134139000Y-133155600I100000J0D01*
G01*
X134339000Y-133155600D01*
G75*
G02*
X134439000Y-133255600I0J-100000D01*
G01*
X134439000Y-133515600D01*
G75*
G02*
X134339000Y-133615600I-100000J0D01*
G01*
G37*
G04 #@! TD.AperFunction*
G04 #@! TA.AperFunction,SMDPad,CuDef*
G36*
G01*
X134339000Y-134255600D02*
X134139000Y-134255600D01*
G75*
G02*
X134039000Y-134155600I0J100000D01*
G01*
X134039000Y-133895600D01*
G75*
G02*
X134139000Y-133795600I100000J0D01*
G01*
X134339000Y-133795600D01*
G75*
G02*
X134439000Y-133895600I0J-100000D01*
G01*
X134439000Y-134155600D01*
G75*
G02*
X134339000Y-134255600I-100000J0D01*
G01*
G37*
G04 #@! TD.AperFunction*
G04 #@! TA.AperFunction,SMDPad,CuDef*
G36*
G01*
X137441000Y-132932000D02*
X137641000Y-132932000D01*
G75*
G02*
X137741000Y-133032000I0J-100000D01*
G01*
X137741000Y-133292000D01*
G75*
G02*
X137641000Y-133392000I-100000J0D01*
G01*
X137441000Y-133392000D01*
G75*
G02*
X137341000Y-133292000I0J100000D01*
G01*
X137341000Y-133032000D01*
G75*
G02*
X137441000Y-132932000I100000J0D01*
G01*
G37*
G04 #@! TD.AperFunction*
G04 #@! TA.AperFunction,SMDPad,CuDef*
G36*
G01*
X137441000Y-132292000D02*
X137641000Y-132292000D01*
G75*
G02*
X137741000Y-132392000I0J-100000D01*
G01*
X137741000Y-132652000D01*
G75*
G02*
X137641000Y-132752000I-100000J0D01*
G01*
X137441000Y-132752000D01*
G75*
G02*
X137341000Y-132652000I0J100000D01*
G01*
X137341000Y-132392000D01*
G75*
G02*
X137441000Y-132292000I100000J0D01*
G01*
G37*
G04 #@! TD.AperFunction*
G04 #@! TA.AperFunction,SMDPad,CuDef*
G36*
G01*
X140739800Y-132767200D02*
X140539800Y-132767200D01*
G75*
G02*
X140439800Y-132667200I0J100000D01*
G01*
X140439800Y-132407200D01*
G75*
G02*
X140539800Y-132307200I100000J0D01*
G01*
X140739800Y-132307200D01*
G75*
G02*
X140839800Y-132407200I0J-100000D01*
G01*
X140839800Y-132667200D01*
G75*
G02*
X140739800Y-132767200I-100000J0D01*
G01*
G37*
G04 #@! TD.AperFunction*
G04 #@! TA.AperFunction,SMDPad,CuDef*
G36*
G01*
X140739800Y-133407200D02*
X140539800Y-133407200D01*
G75*
G02*
X140439800Y-133307200I0J100000D01*
G01*
X140439800Y-133047200D01*
G75*
G02*
X140539800Y-132947200I100000J0D01*
G01*
X140739800Y-132947200D01*
G75*
G02*
X140839800Y-133047200I0J-100000D01*
G01*
X140839800Y-133307200D01*
G75*
G02*
X140739800Y-133407200I-100000J0D01*
G01*
G37*
G04 #@! TD.AperFunction*
G04 #@! TA.AperFunction,SMDPad,CuDef*
G36*
G01*
X138975000Y-134672400D02*
X138975000Y-134872400D01*
G75*
G02*
X138875000Y-134972400I-100000J0D01*
G01*
X138615000Y-134972400D01*
G75*
G02*
X138515000Y-134872400I0J100000D01*
G01*
X138515000Y-134672400D01*
G75*
G02*
X138615000Y-134572400I100000J0D01*
G01*
X138875000Y-134572400D01*
G75*
G02*
X138975000Y-134672400I0J-100000D01*
G01*
G37*
G04 #@! TD.AperFunction*
G04 #@! TA.AperFunction,SMDPad,CuDef*
G36*
G01*
X139615000Y-134672400D02*
X139615000Y-134872400D01*
G75*
G02*
X139515000Y-134972400I-100000J0D01*
G01*
X139255000Y-134972400D01*
G75*
G02*
X139155000Y-134872400I0J100000D01*
G01*
X139155000Y-134672400D01*
G75*
G02*
X139255000Y-134572400I100000J0D01*
G01*
X139515000Y-134572400D01*
G75*
G02*
X139615000Y-134672400I0J-100000D01*
G01*
G37*
G04 #@! TD.AperFunction*
G04 #@! TA.AperFunction,SMDPad,CuDef*
G36*
G01*
X139155000Y-138377600D02*
X139155000Y-138177600D01*
G75*
G02*
X139255000Y-138077600I100000J0D01*
G01*
X139515000Y-138077600D01*
G75*
G02*
X139615000Y-138177600I0J-100000D01*
G01*
X139615000Y-138377600D01*
G75*
G02*
X139515000Y-138477600I-100000J0D01*
G01*
X139255000Y-138477600D01*
G75*
G02*
X139155000Y-138377600I0J100000D01*
G01*
G37*
G04 #@! TD.AperFunction*
G04 #@! TA.AperFunction,SMDPad,CuDef*
G36*
G01*
X138515000Y-138377600D02*
X138515000Y-138177600D01*
G75*
G02*
X138615000Y-138077600I100000J0D01*
G01*
X138875000Y-138077600D01*
G75*
G02*
X138975000Y-138177600I0J-100000D01*
G01*
X138975000Y-138377600D01*
G75*
G02*
X138875000Y-138477600I-100000J0D01*
G01*
X138615000Y-138477600D01*
G75*
G02*
X138515000Y-138377600I0J100000D01*
G01*
G37*
G04 #@! TD.AperFunction*
G04 #@! TA.AperFunction,SMDPad,CuDef*
G36*
G01*
X135014800Y-139165000D02*
X135014800Y-138965000D01*
G75*
G02*
X135114800Y-138865000I100000J0D01*
G01*
X135374800Y-138865000D01*
G75*
G02*
X135474800Y-138965000I0J-100000D01*
G01*
X135474800Y-139165000D01*
G75*
G02*
X135374800Y-139265000I-100000J0D01*
G01*
X135114800Y-139265000D01*
G75*
G02*
X135014800Y-139165000I0J100000D01*
G01*
G37*
G04 #@! TD.AperFunction*
G04 #@! TA.AperFunction,SMDPad,CuDef*
G36*
G01*
X134374800Y-139165000D02*
X134374800Y-138965000D01*
G75*
G02*
X134474800Y-138865000I100000J0D01*
G01*
X134734800Y-138865000D01*
G75*
G02*
X134834800Y-138965000I0J-100000D01*
G01*
X134834800Y-139165000D01*
G75*
G02*
X134734800Y-139265000I-100000J0D01*
G01*
X134474800Y-139265000D01*
G75*
G02*
X134374800Y-139165000I0J100000D01*
G01*
G37*
G04 #@! TD.AperFunction*
G04 #@! TA.AperFunction,SMDPad,CuDef*
G36*
G01*
X138850200Y-134262800D02*
X138850200Y-134062800D01*
G75*
G02*
X138950200Y-133962800I100000J0D01*
G01*
X139210200Y-133962800D01*
G75*
G02*
X139310200Y-134062800I0J-100000D01*
G01*
X139310200Y-134262800D01*
G75*
G02*
X139210200Y-134362800I-100000J0D01*
G01*
X138950200Y-134362800D01*
G75*
G02*
X138850200Y-134262800I0J100000D01*
G01*
G37*
G04 #@! TD.AperFunction*
G04 #@! TA.AperFunction,SMDPad,CuDef*
G36*
G01*
X138210200Y-134262800D02*
X138210200Y-134062800D01*
G75*
G02*
X138310200Y-133962800I100000J0D01*
G01*
X138570200Y-133962800D01*
G75*
G02*
X138670200Y-134062800I0J-100000D01*
G01*
X138670200Y-134262800D01*
G75*
G02*
X138570200Y-134362800I-100000J0D01*
G01*
X138310200Y-134362800D01*
G75*
G02*
X138210200Y-134262800I0J100000D01*
G01*
G37*
G04 #@! TD.AperFunction*
D14*
X144366000Y-138404400D03*
X143416000Y-138404400D03*
D15*
X143891000Y-135204400D03*
D16*
X135737600Y-138480800D03*
X136652000Y-138836400D03*
X136652000Y-139166600D03*
X136848818Y-139376182D03*
X137414000Y-139827000D03*
X137668000Y-139827000D03*
X137947400Y-139827000D03*
X138303000Y-139827000D03*
X138658600Y-139827000D03*
X139014200Y-139827000D03*
D17*
X143891000Y-133680200D03*
D16*
X136652000Y-138480800D03*
D17*
X136931400Y-133426200D03*
D16*
X134213600Y-134889240D03*
X139954000Y-137464800D03*
X138760200Y-135991600D03*
X135382000Y-139054840D03*
X133070600Y-139080240D03*
X137388600Y-135803640D03*
X137058400Y-139573000D03*
X139369800Y-139827000D03*
X139725400Y-139827000D03*
X140335000Y-139420600D03*
X140004800Y-139446000D03*
X140995400Y-139420600D03*
X144653000Y-139242800D03*
X144602200Y-139598400D03*
X144551400Y-139954000D03*
X144500600Y-140309600D03*
X144449800Y-140665200D03*
X144373600Y-141020800D03*
X144170400Y-141224000D03*
X143814800Y-141224000D03*
X143687800Y-140944600D03*
X143433800Y-140665200D03*
X142036800Y-140690600D03*
X141325600Y-139420600D03*
X141655800Y-139420600D03*
X141986000Y-139420600D03*
X142316200Y-139420600D03*
X142646400Y-139420600D03*
X142900400Y-139420600D03*
X142900400Y-139065000D03*
X142722600Y-138887200D03*
X142074900Y-140335000D03*
X142341600Y-140335000D03*
X142697200Y-140335000D03*
X143027400Y-140335000D03*
X143332200Y-140284200D03*
X143586200Y-140055600D03*
X143814800Y-139827000D03*
X143891000Y-139547600D03*
X143891000Y-139217400D03*
X143992600Y-138963400D03*
X144322800Y-138963400D03*
X144653000Y-138963400D03*
X142519400Y-140487400D03*
X142875000Y-140487400D03*
X143179800Y-140538200D03*
X142265400Y-140563600D03*
X141833600Y-140893800D03*
X141655800Y-141224000D03*
X141325600Y-141224000D03*
X140970000Y-141224000D03*
X140462000Y-141224000D03*
X139954000Y-141224000D03*
X139446000Y-141224000D03*
X138938000Y-141224000D03*
X138430000Y-141224000D03*
X137922000Y-141224000D03*
X137414000Y-141224000D03*
X136906000Y-141224000D03*
X136398000Y-141224000D03*
X135890000Y-141224000D03*
X135636000Y-141224000D03*
X135636000Y-140970000D03*
X135636000Y-140716000D03*
X135382000Y-140462000D03*
X135128000Y-140208000D03*
X134874000Y-140208000D03*
X134620000Y-140208000D03*
X134366000Y-140208000D03*
X134112000Y-140208000D03*
X134112000Y-139954000D03*
X135382000Y-138480800D03*
X134874000Y-138480800D03*
X134366000Y-138480800D03*
X134112000Y-139700000D03*
X134366000Y-139700000D03*
X134620000Y-139700000D03*
X134874000Y-139700000D03*
X135128000Y-139446000D03*
X136652000Y-140970000D03*
X134874000Y-139954000D03*
X134366000Y-139954000D03*
X136398000Y-140970000D03*
X136144000Y-140970000D03*
X135890000Y-140970000D03*
X134620000Y-139954000D03*
X136906000Y-140970000D03*
X137414000Y-140970000D03*
X137922000Y-140970000D03*
X138430000Y-140970000D03*
X138938000Y-140970000D03*
X139446000Y-140970000D03*
X139954000Y-140970000D03*
X140462000Y-140970000D03*
X140970000Y-140970000D03*
X141478000Y-140970000D03*
X137160000Y-140970000D03*
X137668000Y-140970000D03*
X138176000Y-140970000D03*
X138684000Y-140970000D03*
X139192000Y-140970000D03*
X139700000Y-140970000D03*
X140208000Y-140970000D03*
X140716000Y-140970000D03*
X141224000Y-140970000D03*
X144018000Y-140970000D03*
X144018000Y-140462000D03*
X144018000Y-139954000D03*
X144018000Y-140208000D03*
X144018000Y-140716000D03*
X144018000Y-139700000D03*
X144272000Y-139700000D03*
X144272000Y-139446000D03*
X144018000Y-139446000D03*
X144272000Y-139192000D03*
X144526000Y-139446000D03*
X144272000Y-139954000D03*
X144272000Y-140208000D03*
X144272000Y-140462000D03*
X144272000Y-140716000D03*
X143764000Y-140716000D03*
X143764000Y-140462000D03*
X143764000Y-140208000D03*
X143510000Y-140462000D03*
X141605000Y-140728700D03*
X135382000Y-139446000D03*
X135382000Y-138684000D03*
X141732000Y-138887200D03*
X141224000Y-138887200D03*
X140716000Y-138887200D03*
X140462000Y-138887200D03*
X140970000Y-138887200D03*
X141478000Y-138887200D03*
X141986000Y-138887200D03*
X142240000Y-138887200D03*
X142494000Y-138887200D03*
X140462000Y-138430000D03*
X140462000Y-137922000D03*
X140462000Y-137414000D03*
X140462000Y-136906000D03*
X140462000Y-136398000D03*
X140462000Y-135890000D03*
X140462000Y-135382000D03*
X140462000Y-134874000D03*
X140716000Y-134620000D03*
X140970000Y-134620000D03*
X141224000Y-134620000D03*
X141478000Y-134620000D03*
X141732000Y-134620000D03*
X141986000Y-134620000D03*
X142240000Y-134620000D03*
X142494000Y-134620000D03*
X142748000Y-134620000D03*
X143002000Y-134620000D03*
X140462000Y-135128000D03*
X140462000Y-135636000D03*
X140462000Y-136144000D03*
X140462000Y-136652000D03*
X140462000Y-137160000D03*
X140462000Y-137668000D03*
X140462000Y-138176000D03*
X140462000Y-138684000D03*
X140462000Y-134620000D03*
X143256000Y-134620000D03*
X143510000Y-134620000D03*
X143764000Y-134620000D03*
X144018000Y-134620000D03*
X144272000Y-134620000D03*
X144526000Y-134620000D03*
X142494000Y-139192000D03*
X141986000Y-139192000D03*
X141478000Y-139192000D03*
X140970000Y-139192000D03*
X140462000Y-139192000D03*
X140462000Y-134112000D03*
X140970000Y-134112000D03*
X141478000Y-134112000D03*
X141986000Y-134112000D03*
X142494000Y-134112000D03*
X143002000Y-134112000D03*
X143510000Y-134112000D03*
X144018000Y-134112000D03*
X144526000Y-134112000D03*
X144272000Y-134366000D03*
X143764000Y-134366000D03*
X143256000Y-134366000D03*
X142748000Y-134366000D03*
X142240000Y-134366000D03*
X141732000Y-134366000D03*
X141224000Y-134366000D03*
X140716000Y-134366000D03*
X140208000Y-134366000D03*
X140208000Y-134874000D03*
X139954000Y-134620000D03*
X133858000Y-139700000D03*
X133350000Y-139700000D03*
X132842000Y-139700000D03*
X132334000Y-139700000D03*
X132334000Y-139192000D03*
X132334000Y-138684000D03*
X132334000Y-138176000D03*
X132334000Y-137668000D03*
X132334000Y-137160000D03*
X132334000Y-136652000D03*
X132334000Y-136144000D03*
X132334000Y-135636000D03*
X132334000Y-135128000D03*
X132334000Y-134620000D03*
X132334000Y-134112000D03*
X132334000Y-133604000D03*
X132334000Y-133096000D03*
X132334000Y-132588000D03*
X132842000Y-132588000D03*
X133350000Y-132588000D03*
X133858000Y-132588000D03*
X134366000Y-132588000D03*
X134874000Y-132588000D03*
X135382000Y-132588000D03*
X135890000Y-132588000D03*
X136398000Y-132588000D03*
X139369800Y-139192000D03*
X139369800Y-139446000D03*
X139700000Y-139446000D03*
X139700000Y-139192000D03*
X139700000Y-138938000D03*
X139954000Y-138684000D03*
X139954000Y-138938000D03*
X139954000Y-139192000D03*
X140208000Y-139192000D03*
X140208000Y-138938000D03*
X140208000Y-138684000D03*
X140208000Y-138430000D03*
X140208000Y-138176000D03*
X140208000Y-137922000D03*
X140208000Y-137668000D03*
X140208000Y-137414000D03*
X140208000Y-137160000D03*
X140208000Y-136906000D03*
X140208000Y-136652000D03*
X140716000Y-139192000D03*
X141224000Y-139192000D03*
X141732000Y-139192000D03*
X142240000Y-139192000D03*
X142748000Y-139192000D03*
X138938000Y-139446000D03*
X138430000Y-139446000D03*
X137922000Y-139446000D03*
X137414000Y-139446000D03*
X137160000Y-139192000D03*
X136906000Y-138938000D03*
X136906000Y-138684000D03*
X133070600Y-135991600D03*
X133604000Y-135991600D03*
X134112000Y-133350000D03*
X134620000Y-133350000D03*
X135128000Y-133350000D03*
X135636000Y-133350000D03*
X136144000Y-133350000D03*
X139954000Y-134112000D03*
X139446000Y-134112000D03*
X137922000Y-134112000D03*
X137922000Y-134620000D03*
X138430000Y-134620000D03*
X138938000Y-134620000D03*
X138938000Y-134112000D03*
X139192000Y-134366000D03*
X139700000Y-134366000D03*
X137668000Y-134366000D03*
X137668000Y-133858000D03*
X137160000Y-133858000D03*
X137414000Y-134112000D03*
X137160000Y-134366000D03*
X136652000Y-139496800D03*
X136652000Y-139827000D03*
X136906000Y-139827000D03*
X137160000Y-139827000D03*
X140081000Y-139827000D03*
X140462000Y-139827000D03*
X140843000Y-139827000D03*
X141224000Y-139827000D03*
X141478000Y-139573000D03*
X135737600Y-138811000D03*
X135737600Y-139192000D03*
X135737600Y-140335000D03*
X135890000Y-140589000D03*
X136144000Y-140716000D03*
X136474200Y-140766800D03*
X136779000Y-140766800D03*
X137033000Y-140766800D03*
X137287000Y-140766800D03*
X137541000Y-140766800D03*
X137795000Y-140766800D03*
X138049000Y-140766800D03*
X138303000Y-140766800D03*
X138557000Y-140766800D03*
X138811000Y-140766800D03*
X139065000Y-140766800D03*
X139319000Y-140766800D03*
X139573000Y-140766800D03*
X139827000Y-140766800D03*
X140081000Y-140766800D03*
X140335000Y-140766800D03*
X140589000Y-140766800D03*
X140843000Y-140766800D03*
X141097000Y-140766800D03*
X141351000Y-140766800D03*
X141859000Y-140550900D03*
X135737600Y-139573000D03*
X135737600Y-139954000D03*
X135128000Y-139954000D03*
X135128000Y-139700000D03*
X135382000Y-139700000D03*
X135382000Y-139954000D03*
X135382000Y-140208000D03*
X138074400Y-135178800D03*
X138328400Y-134162800D03*
X134721600Y-138963400D03*
X135686800Y-137845800D03*
D17*
X134950200Y-134162800D03*
X132638800Y-140258800D03*
X144297400Y-132562600D03*
D16*
X133629400Y-136728200D03*
X138277600Y-138912600D03*
X135661400Y-134162800D03*
X137414000Y-135432800D03*
X136372600Y-134162800D03*
X133959600Y-139065000D03*
X137033000Y-137515600D03*
X137795000Y-135432800D03*
D17*
X135001000Y-140970000D03*
X134493000Y-140970000D03*
X133985000Y-140970000D03*
X133477000Y-140970000D03*
D16*
X135267700Y-137515600D03*
X134975600Y-137515600D03*
X134137400Y-136347200D03*
D17*
X139801600Y-133019800D03*
D16*
X137414000Y-135077200D03*
D17*
X138303000Y-133019800D03*
D16*
X137414000Y-134721600D03*
X134188200Y-135610600D03*
X134620000Y-135763000D03*
X136743440Y-134670800D03*
D17*
X143436340Y-133103620D03*
D16*
X136362440Y-134680960D03*
D17*
X142384780Y-133164580D03*
D18*
X135492000Y-135599201D02*
X135842000Y-135599201D01*
X135842000Y-135599201D02*
X136192000Y-135599201D01*
X136192000Y-135599201D02*
X136542000Y-135599201D01*
X135492000Y-135949201D02*
X135842000Y-135949201D01*
X135842000Y-135949201D02*
X136192000Y-135949201D01*
X136192000Y-135949201D02*
X136542000Y-135949201D01*
X135492000Y-136299201D02*
X135842000Y-136299201D01*
X135842000Y-136299201D02*
X136192000Y-136299201D01*
X136192000Y-136299201D02*
X136542000Y-136299201D01*
X135492000Y-136649201D02*
X135842000Y-136649201D01*
X135842000Y-136649201D02*
X136192000Y-136649201D01*
X136192000Y-136649201D02*
X136542000Y-136649201D01*
X135492000Y-136999201D02*
X135842000Y-136999201D01*
X135842000Y-136999201D02*
X136192000Y-136999201D01*
X136192000Y-136999201D02*
X136542000Y-136999201D01*
X136892000Y-136999201D02*
X136542000Y-136999201D01*
X136542000Y-136999201D02*
X136542000Y-137349201D01*
X137243039Y-135949201D02*
X137388600Y-135803640D01*
X137242000Y-135949201D02*
X137243039Y-135949201D01*
X135492000Y-136999201D02*
X135492000Y-136649201D01*
X136542000Y-136649201D02*
X136542000Y-136299201D01*
X135492000Y-136299201D02*
X135492000Y-135949201D01*
X136542000Y-135949201D02*
X136542000Y-135599201D01*
X137242000Y-135949201D02*
X137242000Y-135946600D01*
D19*
X133085840Y-139065000D02*
X133070600Y-139080240D01*
X133207800Y-139065000D02*
X133085840Y-139065000D01*
X135371840Y-139065000D02*
X135382000Y-139054840D01*
X135244800Y-139065000D02*
X135371840Y-139065000D01*
X138745000Y-134772400D02*
X138745000Y-134711400D01*
X139080200Y-134376200D02*
X139080200Y-134162800D01*
X138745000Y-134711400D02*
X139080200Y-134376200D01*
X139960200Y-137240002D02*
X139960200Y-137090000D01*
X139960200Y-137458600D02*
X139954000Y-137464800D01*
X139960200Y-137240002D02*
X139960200Y-137458600D01*
X136753399Y-138683799D02*
X136753399Y-138049201D01*
D20*
X136753399Y-138049201D02*
X136892000Y-138049201D01*
D19*
X138861800Y-138394400D02*
X138745000Y-138277600D01*
X138861800Y-138684000D02*
X138861800Y-138394400D01*
X139029400Y-138851600D02*
X138861800Y-138684000D01*
X139029400Y-138912600D02*
X139029400Y-138851600D01*
D20*
X134223561Y-134899201D02*
X134213600Y-134889240D01*
X134442000Y-134899201D02*
X134223561Y-134899201D01*
D19*
X136890802Y-133385602D02*
X136931400Y-133426200D01*
X136372600Y-133385602D02*
X136890802Y-133385602D01*
X136372598Y-133385600D02*
X136372600Y-133385602D01*
X135661400Y-133385600D02*
X136372598Y-133385600D01*
X134950200Y-133385600D02*
X135661400Y-133385600D01*
X134239000Y-133385600D02*
X134950200Y-133385600D01*
X136982200Y-138912600D02*
X136753399Y-138683799D01*
X137068600Y-138912600D02*
X136982200Y-138912600D01*
X137068600Y-138912600D02*
X137068600Y-139278400D01*
X137068600Y-139278400D02*
X137312400Y-139522200D01*
X137312400Y-139522200D02*
X138887200Y-139522200D01*
X139029400Y-139380000D02*
X139029400Y-138912600D01*
X138887200Y-139522200D02*
X139029400Y-139380000D01*
X143891000Y-135204400D02*
X143891000Y-134594600D01*
X143891000Y-134594600D02*
X143459200Y-134162800D01*
X140639800Y-132537200D02*
X141198600Y-132537200D01*
X141198600Y-132537200D02*
X141579600Y-132918200D01*
X141579600Y-132918200D02*
X141579600Y-134162800D01*
X141579600Y-134162800D02*
X139080200Y-134162800D01*
X143459200Y-134162800D02*
X141579600Y-134162800D01*
X143891000Y-133731000D02*
X143459200Y-134162800D01*
X143891000Y-133680200D02*
X143891000Y-133731000D01*
X136652000Y-137947400D02*
X136652000Y-137947802D01*
X136652000Y-137947802D02*
X136753399Y-138049201D01*
X136542000Y-137837400D02*
X136652000Y-137947400D01*
X136542000Y-137349201D02*
X136542000Y-137837400D01*
X138745000Y-135498800D02*
X138745000Y-134772400D01*
X138734800Y-135509000D02*
X138745000Y-135498800D01*
X138931800Y-135706000D02*
X138734800Y-135509000D01*
X138931800Y-135810002D02*
X138931800Y-135706000D01*
X133080800Y-136001800D02*
X133070600Y-135991600D01*
X133604000Y-136001800D02*
X133080800Y-136001800D01*
X135991600Y-141071600D02*
X135636000Y-140716000D01*
X141655800Y-141071600D02*
X135991600Y-141071600D01*
X142265400Y-140462000D02*
X141655800Y-141071600D01*
X143891000Y-140462000D02*
X142265400Y-140462000D01*
X144366000Y-139987000D02*
X143891000Y-140462000D01*
X144366000Y-138404400D02*
X144366000Y-139987000D01*
X137043200Y-132522000D02*
X137541000Y-132522000D01*
X136931400Y-132633800D02*
X137043200Y-132522000D01*
X136931400Y-133426200D02*
X136931400Y-132633800D01*
X135636000Y-140007300D02*
X135552220Y-139923520D01*
X135636000Y-140716000D02*
X135636000Y-140007300D01*
X135552220Y-139372420D02*
X135244800Y-139065000D01*
X135552220Y-139923520D02*
X135552220Y-139372420D01*
X133207800Y-139065000D02*
X133207800Y-139481600D01*
X133426200Y-139700000D02*
X134620000Y-139700000D01*
X133207800Y-139481600D02*
X133426200Y-139700000D01*
X134620000Y-139700000D02*
X134975600Y-139700000D01*
X135199120Y-139923520D02*
X135552220Y-139923520D01*
X134975600Y-139700000D02*
X135199120Y-139923520D01*
D21*
X143108680Y-139882880D02*
X143416000Y-139575560D01*
X141843760Y-139882880D02*
X143108680Y-139882880D01*
X143416000Y-139575560D02*
X143416000Y-138404400D01*
X141429700Y-140296940D02*
X141843760Y-139882880D01*
X137586680Y-140296940D02*
X138430000Y-140296940D01*
X138430000Y-140296940D02*
X141429700Y-140296940D01*
X136192260Y-139923480D02*
X136192220Y-139923520D01*
X136192260Y-139339280D02*
X136192260Y-139923480D01*
X136192220Y-139923520D02*
X136192220Y-140139380D01*
X136349780Y-140296940D02*
X136946680Y-140296940D01*
X136192220Y-140139380D02*
X136349780Y-140296940D01*
D18*
X137592000Y-134899201D02*
X137996402Y-134899201D01*
X138074400Y-134977199D02*
X138074400Y-135178800D01*
X137996402Y-134899201D02*
X138074400Y-134977199D01*
X135833399Y-137699201D02*
X135686800Y-137845800D01*
X135842000Y-137699201D02*
X135833399Y-137699201D01*
X134620000Y-139065000D02*
X134721600Y-138963400D01*
X134604800Y-139065000D02*
X134620000Y-139065000D01*
D20*
X134442000Y-135249201D02*
X134080801Y-135249201D01*
X134080801Y-135249201D02*
X133883400Y-135051800D01*
X133883400Y-135051800D02*
X133883400Y-134747000D01*
X134239000Y-134391400D02*
X134239000Y-134025600D01*
X133883400Y-134747000D02*
X134239000Y-134391400D01*
D22*
X134792000Y-135249201D02*
X134792000Y-134899201D01*
D23*
X132826800Y-140258800D02*
X132638800Y-140258800D01*
D22*
X134792000Y-134448000D02*
X134797800Y-134442200D01*
X134792000Y-134899201D02*
X134792000Y-134448000D01*
D24*
X134792000Y-134321000D02*
X134950200Y-134162800D01*
X134792000Y-134448000D02*
X134792000Y-134321000D01*
X134950200Y-134025600D02*
X134950200Y-134162800D01*
D20*
X137242000Y-137349201D02*
X137250199Y-137349201D01*
X137247599Y-135599201D02*
X137414000Y-135432800D01*
X137242000Y-135599201D02*
X137247599Y-135599201D01*
X135142000Y-134899201D02*
X135142000Y-134758400D01*
X135661400Y-134162800D02*
X135559800Y-134162800D01*
X135142000Y-134580600D02*
X135142000Y-134758400D01*
X135559800Y-134162800D02*
X135142000Y-134580600D01*
X136372600Y-134025602D02*
X136372600Y-134162800D01*
X138455400Y-139039600D02*
X138475799Y-139039600D01*
X134442000Y-138049201D02*
X134187999Y-138049201D01*
X133847800Y-138389400D02*
X133847800Y-139065000D01*
X134187999Y-138049201D02*
X133847800Y-138389400D01*
X133847800Y-139065000D02*
X133959600Y-139065000D01*
X138049000Y-138430000D02*
X138277600Y-138658600D01*
X137242000Y-137349201D02*
X137242000Y-137699200D01*
X137515600Y-138430000D02*
X138049000Y-138430000D01*
X137337800Y-138252200D02*
X137515600Y-138430000D01*
X138277600Y-138658600D02*
X138277600Y-138912600D01*
X137337800Y-137795000D02*
X137337800Y-138252200D01*
X137242000Y-137699200D02*
X137337800Y-137795000D01*
X138389400Y-138912600D02*
X138277600Y-138912600D01*
X133611401Y-136649201D02*
X133604000Y-136641800D01*
X134442000Y-136649201D02*
X133611401Y-136649201D01*
X133629400Y-136667200D02*
X133604000Y-136641800D01*
X133629400Y-136728200D02*
X133629400Y-136667200D01*
D19*
X144170400Y-132689600D02*
X144297400Y-132562600D01*
X144170400Y-132870000D02*
X144170400Y-132689600D01*
D18*
X137134600Y-138353800D02*
X137261600Y-138480800D01*
X136892000Y-137704800D02*
X137134600Y-137947400D01*
X137134600Y-137947400D02*
X137134600Y-138353800D01*
X136892000Y-137699201D02*
X136892000Y-137704800D01*
X137276800Y-138480800D02*
X137708600Y-138912600D01*
X137261600Y-138480800D02*
X137276800Y-138480800D01*
X137628599Y-135599201D02*
X137795000Y-135432800D01*
X137592000Y-135599201D02*
X137628599Y-135599201D01*
X136892000Y-137656600D02*
X137033000Y-137515600D01*
X136892000Y-137699201D02*
X136892000Y-137656600D01*
D21*
X136192000Y-138699020D02*
X136192260Y-138699280D01*
X136192000Y-138049201D02*
X136192000Y-138699020D01*
D23*
X133466800Y-140959800D02*
X133477000Y-140970000D01*
X133466800Y-140258800D02*
X133466800Y-140959800D01*
X133477000Y-140970000D02*
X133985000Y-140970000D01*
X133985000Y-140970000D02*
X134493000Y-140970000D01*
X134493000Y-140970000D02*
X135001000Y-140970000D01*
D18*
X135267700Y-137573501D02*
X135142000Y-137699201D01*
X135267700Y-137515600D02*
X135267700Y-137573501D01*
X134975600Y-137515601D02*
X134792000Y-137699201D01*
X134975600Y-137515600D02*
X134975600Y-137515601D01*
X134185399Y-136299201D02*
X134137400Y-136347200D01*
X134442000Y-136299201D02*
X134185399Y-136299201D01*
D20*
X139086598Y-137240002D02*
X138931800Y-137240002D01*
X139217400Y-137109200D02*
X139086598Y-137240002D01*
X139217400Y-136728200D02*
X139217400Y-137109200D01*
X139166600Y-136677400D02*
X139217400Y-136728200D01*
X138150600Y-136677400D02*
X139166600Y-136677400D01*
X138099800Y-136728200D02*
X138150600Y-136677400D01*
X138099800Y-137796806D02*
X138099800Y-136728200D01*
X137640000Y-138001201D02*
X137895405Y-138001201D01*
X137895405Y-138001201D02*
X138099800Y-137796806D01*
X137592000Y-138049201D02*
X137640000Y-138001201D01*
D19*
X139385000Y-138109920D02*
X139385000Y-138277600D01*
X139062460Y-137787380D02*
X139385000Y-138109920D01*
X139062460Y-137487660D02*
X139062460Y-137787380D01*
X138830200Y-137255400D02*
X139062460Y-137487660D01*
X139385000Y-135194000D02*
X139385000Y-134772400D01*
X139960200Y-135769200D02*
X139385000Y-135194000D01*
D20*
X139496800Y-136423400D02*
X140061800Y-135858400D01*
X138023600Y-136423400D02*
X139496800Y-136423400D01*
X137790193Y-137747201D02*
X137896600Y-137640794D01*
X137896600Y-136550400D02*
X138023600Y-136423400D01*
X137896600Y-137640794D02*
X137896600Y-136550400D01*
X140061800Y-135858400D02*
X140061800Y-135810002D01*
X137640000Y-137747201D02*
X137790193Y-137747201D01*
X137592000Y-137699201D02*
X137640000Y-137747201D01*
D18*
X137242000Y-135249200D02*
X137414000Y-135077200D01*
X137242000Y-135249201D02*
X137242000Y-135249200D01*
D19*
X140639800Y-133177200D02*
X140639800Y-133299200D01*
X139959000Y-133177200D02*
X140639800Y-133177200D01*
X139801600Y-133019800D02*
X139959000Y-133177200D01*
D20*
X139801600Y-133019800D02*
X139769600Y-133019800D01*
D19*
X137541000Y-133197600D02*
X137464800Y-133273800D01*
X137541000Y-133162000D02*
X137541000Y-133197600D01*
X138160800Y-133162000D02*
X137541000Y-133162000D01*
X138303000Y-133019800D02*
X138160800Y-133162000D01*
D18*
X137242000Y-134893600D02*
X137414000Y-134721600D01*
X137242000Y-134899201D02*
X137242000Y-134893600D01*
D20*
X138309600Y-133019800D02*
X138303000Y-133019800D01*
D18*
X134199599Y-135599201D02*
X134188200Y-135610600D01*
X134442000Y-135599201D02*
X134199599Y-135599201D01*
X134783799Y-135599201D02*
X134620000Y-135763000D01*
X134792000Y-135599201D02*
X134783799Y-135599201D01*
D19*
X143205200Y-132872480D02*
X143436340Y-133103620D01*
X143205200Y-132854700D02*
X143205200Y-132872480D01*
D18*
X136892000Y-134819360D02*
X136743440Y-134670800D01*
X136892000Y-134899201D02*
X136892000Y-134819360D01*
D19*
X142240000Y-133019800D02*
X142384780Y-133164580D01*
X142240000Y-132854700D02*
X142240000Y-133019800D01*
D18*
X136542000Y-134860520D02*
X136362440Y-134680960D01*
X136542000Y-134899201D02*
X136542000Y-134860520D01*
D25*
X137683391Y-132415800D02*
X137683391Y-132684966D01*
X137641000Y-132680791D01*
X137441000Y-132680791D01*
X137372483Y-132687539D01*
X137306598Y-132707525D01*
X137245879Y-132739980D01*
X137192658Y-132783658D01*
X137148980Y-132836879D01*
X137116525Y-132897598D01*
X137096539Y-132963483D01*
X137089791Y-133032000D01*
X137089791Y-133235070D01*
X137085977Y-133273800D01*
X137093255Y-133347705D01*
X137096249Y-133357576D01*
X137096539Y-133360517D01*
X137116525Y-133426402D01*
X137148980Y-133487121D01*
X137192658Y-133540342D01*
X137245879Y-133584020D01*
X137253501Y-133588094D01*
X137254337Y-133588780D01*
X137319831Y-133623788D01*
X137390895Y-133645345D01*
X137464800Y-133652623D01*
X137538705Y-133645345D01*
X137545746Y-133643209D01*
X137641000Y-133643209D01*
X137683391Y-133639034D01*
X137683391Y-133719800D01*
X137688218Y-133768808D01*
X137702513Y-133815934D01*
X137725727Y-133859364D01*
X137756968Y-133897432D01*
X137795036Y-133928673D01*
X137838466Y-133951887D01*
X137885592Y-133966182D01*
X137934600Y-133971009D01*
X137972799Y-133971009D01*
X137965739Y-133994283D01*
X137958991Y-134062800D01*
X137958991Y-134262800D01*
X137965739Y-134331317D01*
X137985725Y-134397202D01*
X138018180Y-134457921D01*
X138061858Y-134511142D01*
X138115079Y-134554820D01*
X138175798Y-134587275D01*
X138241683Y-134607261D01*
X138310200Y-134614009D01*
X138570200Y-134614009D01*
X138638717Y-134607261D01*
X138704602Y-134587275D01*
X138765321Y-134554820D01*
X138818542Y-134511142D01*
X138862220Y-134457921D01*
X138894675Y-134397202D01*
X138914661Y-134331317D01*
X138921409Y-134262800D01*
X138921409Y-134062800D01*
X138914661Y-133994283D01*
X138894675Y-133928398D01*
X138871855Y-133885706D01*
X138893473Y-133859364D01*
X138916687Y-133815934D01*
X138930982Y-133768808D01*
X138935809Y-133719800D01*
X138935809Y-132415800D01*
X139143391Y-132415800D01*
X139143391Y-133719800D01*
X139148218Y-133768808D01*
X139162513Y-133815934D01*
X139185727Y-133859364D01*
X139216968Y-133897432D01*
X139255036Y-133928673D01*
X139298466Y-133951887D01*
X139345592Y-133966182D01*
X139394600Y-133971009D01*
X140144600Y-133971009D01*
X140193608Y-133966182D01*
X140240734Y-133951887D01*
X140284164Y-133928673D01*
X140322232Y-133897432D01*
X140353473Y-133859364D01*
X140376687Y-133815934D01*
X140390982Y-133768808D01*
X140395809Y-133719800D01*
X140395809Y-133626550D01*
X140405398Y-133631675D01*
X140471283Y-133651661D01*
X140518224Y-133656284D01*
X140565896Y-133670745D01*
X140639800Y-133678024D01*
X140713705Y-133670745D01*
X140761378Y-133656284D01*
X140808317Y-133651661D01*
X140874202Y-133631675D01*
X140934921Y-133599220D01*
X140988142Y-133555542D01*
X141031820Y-133502321D01*
X141064275Y-133441602D01*
X141084261Y-133375717D01*
X141091009Y-133307200D01*
X141091009Y-133047200D01*
X141084261Y-132978683D01*
X141064275Y-132912798D01*
X141031820Y-132852079D01*
X140988142Y-132798858D01*
X140934921Y-132755180D01*
X140874202Y-132722725D01*
X140808317Y-132702739D01*
X140739800Y-132695991D01*
X140539800Y-132695991D01*
X140471283Y-132702739D01*
X140405398Y-132722725D01*
X140395809Y-132727850D01*
X140395809Y-132415800D01*
X141592622Y-132415801D01*
X141588791Y-132454700D01*
X141588791Y-133254700D01*
X141593618Y-133303708D01*
X141607913Y-133350834D01*
X141631127Y-133394264D01*
X141662368Y-133432332D01*
X141700436Y-133463573D01*
X141743866Y-133486787D01*
X141790992Y-133501082D01*
X141840000Y-133505909D01*
X142013344Y-133505909D01*
X142063498Y-133556063D01*
X142146046Y-133611219D01*
X142237769Y-133649212D01*
X142335140Y-133668580D01*
X142434420Y-133668580D01*
X142531791Y-133649212D01*
X142623514Y-133611219D01*
X142706062Y-133556063D01*
X142760608Y-133501517D01*
X142805200Y-133505909D01*
X143131231Y-133505909D01*
X143197606Y-133550259D01*
X143289329Y-133588252D01*
X143386700Y-133607620D01*
X143485980Y-133607620D01*
X143583351Y-133588252D01*
X143675074Y-133550259D01*
X143725212Y-133516758D01*
X143770400Y-133521209D01*
X144570400Y-133521209D01*
X144581362Y-133520129D01*
X144587924Y-133585749D01*
X144588821Y-133596708D01*
X144589263Y-133599139D01*
X144589509Y-133601599D01*
X144591672Y-133612386D01*
X144609040Y-133707912D01*
X144617840Y-133804716D01*
X144627780Y-133923988D01*
X144628821Y-133936708D01*
X144628856Y-133936900D01*
X144628872Y-133937093D01*
X144631157Y-133949556D01*
X144648855Y-134046897D01*
X144656629Y-134140178D01*
X144656629Y-134140181D01*
X144666629Y-134260178D01*
X144666629Y-134260181D01*
X144676629Y-134380178D01*
X144676629Y-134380181D01*
X144686629Y-134500178D01*
X144686629Y-134500181D01*
X144697676Y-134632743D01*
X144706642Y-134749304D01*
X144706629Y-134750181D01*
X144707677Y-134762755D01*
X144708224Y-134769871D01*
X140588905Y-134777733D01*
X140579152Y-134778712D01*
X140569778Y-134781576D01*
X140561142Y-134786213D01*
X140553577Y-134792445D01*
X140547374Y-134800034D01*
X140542770Y-134808687D01*
X140539942Y-134818072D01*
X140539000Y-134827733D01*
X140539000Y-138785600D01*
X140539961Y-138795355D01*
X140542806Y-138804734D01*
X140547427Y-138813379D01*
X140553645Y-138820955D01*
X140561221Y-138827173D01*
X140569866Y-138831794D01*
X140579245Y-138834639D01*
X140589000Y-138835600D01*
X142842864Y-138835600D01*
X142844618Y-138853408D01*
X142858913Y-138900534D01*
X142882127Y-138943964D01*
X142913368Y-138982032D01*
X142951436Y-139013273D01*
X142994866Y-139036487D01*
X143041992Y-139050782D01*
X143059500Y-139052506D01*
X143059500Y-139427893D01*
X142961014Y-139526380D01*
X141861261Y-139526380D01*
X141843759Y-139524656D01*
X141826257Y-139526380D01*
X141826256Y-139526380D01*
X141773874Y-139531539D01*
X141706674Y-139551924D01*
X141644741Y-139585028D01*
X141590457Y-139629577D01*
X141579295Y-139643178D01*
X141282034Y-139940440D01*
X138589025Y-139940440D01*
X138576750Y-139939231D01*
X138283250Y-139939231D01*
X138270975Y-139940440D01*
X137775705Y-139940440D01*
X137763430Y-139939231D01*
X137409930Y-139939231D01*
X137368651Y-139943297D01*
X137367875Y-139943061D01*
X137358120Y-139942100D01*
X137177780Y-139942100D01*
X137168025Y-139943061D01*
X137166626Y-139943485D01*
X137123430Y-139939231D01*
X136769930Y-139939231D01*
X136757655Y-139940440D01*
X136549929Y-139940440D01*
X136549929Y-139929115D01*
X136550484Y-139923480D01*
X136549929Y-139917845D01*
X136549929Y-139776770D01*
X136548760Y-139764901D01*
X136548760Y-139528305D01*
X136549969Y-139516030D01*
X136549969Y-139162530D01*
X136546517Y-139127476D01*
X136548640Y-139120475D01*
X136549601Y-139110721D01*
X136549600Y-138930381D01*
X136548639Y-138920626D01*
X136546327Y-138913005D01*
X136549969Y-138876030D01*
X136549969Y-138704509D01*
X136550484Y-138699280D01*
X136549969Y-138694051D01*
X136549969Y-138522530D01*
X136548500Y-138507615D01*
X136548500Y-138031697D01*
X136543341Y-137979315D01*
X136522956Y-137912115D01*
X136499722Y-137868646D01*
X136502166Y-137864988D01*
X136528550Y-137801292D01*
X136542000Y-137733673D01*
X136555450Y-137801292D01*
X136581834Y-137864988D01*
X136620137Y-137922313D01*
X136668888Y-137971064D01*
X136726213Y-138009367D01*
X136789909Y-138035751D01*
X136799455Y-138037650D01*
X136833800Y-138071995D01*
X136833800Y-138339028D01*
X136832345Y-138353800D01*
X136838153Y-138412767D01*
X136855353Y-138469467D01*
X136866667Y-138490633D01*
X136883285Y-138521724D01*
X136920874Y-138567527D01*
X136932350Y-138576945D01*
X137038451Y-138683046D01*
X137047873Y-138694527D01*
X137093676Y-138732116D01*
X137113107Y-138742502D01*
X137227391Y-138856786D01*
X137227391Y-139012600D01*
X137234139Y-139081117D01*
X137254125Y-139147002D01*
X137286580Y-139207721D01*
X137330258Y-139260942D01*
X137383479Y-139304620D01*
X137444198Y-139337075D01*
X137510083Y-139357061D01*
X137578600Y-139363809D01*
X137838600Y-139363809D01*
X137907117Y-139357061D01*
X137973002Y-139337075D01*
X138033721Y-139304620D01*
X138049000Y-139292081D01*
X138064279Y-139304620D01*
X138124998Y-139337075D01*
X138190883Y-139357061D01*
X138259400Y-139363809D01*
X138519400Y-139363809D01*
X138587917Y-139357061D01*
X138653802Y-139337075D01*
X138714521Y-139304620D01*
X138767742Y-139260942D01*
X138811420Y-139207721D01*
X138843875Y-139147002D01*
X138863861Y-139081117D01*
X138870609Y-139012600D01*
X138870609Y-138812600D01*
X138863861Y-138744083D01*
X138843875Y-138678198D01*
X138811420Y-138617479D01*
X138767742Y-138564258D01*
X138714521Y-138520580D01*
X138653802Y-138488125D01*
X138587917Y-138468139D01*
X138521479Y-138461596D01*
X138500350Y-138435850D01*
X138488394Y-138426038D01*
X138281566Y-138219211D01*
X138271750Y-138207250D01*
X138224014Y-138168074D01*
X138190044Y-138149917D01*
X138310589Y-138029372D01*
X138322550Y-138019556D01*
X138361726Y-137971820D01*
X138390837Y-137917357D01*
X138392702Y-137911209D01*
X138706059Y-137911209D01*
X138712472Y-137932350D01*
X138743414Y-137990237D01*
X138747480Y-137997843D01*
X138782786Y-138040864D01*
X138782789Y-138040867D01*
X138794592Y-138055249D01*
X138808974Y-138067052D01*
X138905201Y-138163279D01*
X138903791Y-138177600D01*
X138903791Y-138377600D01*
X138910539Y-138446117D01*
X138930525Y-138512002D01*
X138962980Y-138572721D01*
X139006658Y-138625942D01*
X139059879Y-138669620D01*
X139120598Y-138702075D01*
X139186483Y-138722061D01*
X139255000Y-138728809D01*
X139515000Y-138728809D01*
X139583517Y-138722061D01*
X139649402Y-138702075D01*
X139710121Y-138669620D01*
X139763342Y-138625942D01*
X139807020Y-138572721D01*
X139839475Y-138512002D01*
X139859461Y-138446117D01*
X139866209Y-138377600D01*
X139866209Y-138177600D01*
X139859461Y-138109083D01*
X139839475Y-138043198D01*
X139807020Y-137982479D01*
X139763342Y-137929258D01*
X139710121Y-137885580D01*
X139671769Y-137865080D01*
X139652869Y-137842051D01*
X139638482Y-137830244D01*
X139439460Y-137631222D01*
X139439460Y-137506168D01*
X139441283Y-137487659D01*
X139439460Y-137469150D01*
X139439460Y-137469141D01*
X139434005Y-137413755D01*
X139415897Y-137354058D01*
X139428188Y-137341767D01*
X139440150Y-137331950D01*
X139479326Y-137284214D01*
X139508437Y-137229751D01*
X139526363Y-137170657D01*
X139530900Y-137124592D01*
X139532416Y-137109200D01*
X139530900Y-137093808D01*
X139530900Y-136743591D01*
X139531749Y-136734974D01*
X139558257Y-136732363D01*
X139617351Y-136714437D01*
X139671814Y-136685326D01*
X139719550Y-136646150D01*
X139729367Y-136634188D01*
X139882346Y-136481209D01*
X140203200Y-136481209D01*
X140252208Y-136476382D01*
X140299334Y-136462087D01*
X140342764Y-136438873D01*
X140380832Y-136407632D01*
X140412073Y-136369564D01*
X140435287Y-136326134D01*
X140449582Y-136279008D01*
X140454409Y-136230000D01*
X140454409Y-135390000D01*
X140449582Y-135340992D01*
X140435287Y-135293866D01*
X140412073Y-135250436D01*
X140380832Y-135212368D01*
X140342764Y-135181127D01*
X140299334Y-135157913D01*
X140252208Y-135143618D01*
X140203200Y-135138791D01*
X139862949Y-135138791D01*
X139800105Y-135075947D01*
X139807020Y-135067521D01*
X139839475Y-135006802D01*
X139859461Y-134940917D01*
X139866209Y-134872400D01*
X139866209Y-134672400D01*
X139859461Y-134603883D01*
X139839475Y-134537998D01*
X139807020Y-134477279D01*
X139763342Y-134424058D01*
X139710121Y-134380380D01*
X139649402Y-134347925D01*
X139583517Y-134327939D01*
X139515000Y-134321191D01*
X139255000Y-134321191D01*
X139186483Y-134327939D01*
X139120598Y-134347925D01*
X139059879Y-134380380D01*
X139006658Y-134424058D01*
X138962980Y-134477279D01*
X138930525Y-134537998D01*
X138910539Y-134603883D01*
X138903791Y-134672400D01*
X138903791Y-134872400D01*
X138910539Y-134940917D01*
X138930525Y-135006802D01*
X138962980Y-135067521D01*
X139006658Y-135120742D01*
X139008000Y-135121843D01*
X139008000Y-135175488D01*
X139006177Y-135194000D01*
X139008000Y-135212512D01*
X139008000Y-135212518D01*
X139012370Y-135256887D01*
X139013455Y-135267905D01*
X139029954Y-135322295D01*
X139035012Y-135338969D01*
X139070019Y-135404462D01*
X139117131Y-135461869D01*
X139131519Y-135473677D01*
X139211991Y-135554149D01*
X139211991Y-136109900D01*
X138038983Y-136109900D01*
X138023599Y-136108385D01*
X138008215Y-136109900D01*
X138008208Y-136109900D01*
X137962143Y-136114437D01*
X137903049Y-136132363D01*
X137901881Y-136132987D01*
X137896010Y-136124201D01*
X137902166Y-136114988D01*
X137928550Y-136051292D01*
X137942000Y-135983673D01*
X137942000Y-135914729D01*
X137928550Y-135847110D01*
X137902166Y-135783414D01*
X137896010Y-135774201D01*
X137900078Y-135768113D01*
X137960787Y-135742966D01*
X138018112Y-135704663D01*
X138066863Y-135655912D01*
X138105166Y-135598587D01*
X138131550Y-135534891D01*
X138133746Y-135523852D01*
X138176491Y-135515350D01*
X138240187Y-135488966D01*
X138297512Y-135450663D01*
X138346263Y-135401912D01*
X138384566Y-135344587D01*
X138410950Y-135280891D01*
X138424400Y-135213272D01*
X138424400Y-135144328D01*
X138410950Y-135076709D01*
X138384566Y-135013013D01*
X138375200Y-134998996D01*
X138375200Y-134991971D01*
X138376655Y-134977199D01*
X138370847Y-134918232D01*
X138368778Y-134911413D01*
X138353647Y-134861531D01*
X138325716Y-134809275D01*
X138288127Y-134763472D01*
X138276647Y-134754051D01*
X138219551Y-134696955D01*
X138210129Y-134685474D01*
X138164326Y-134647885D01*
X138112070Y-134619954D01*
X138055369Y-134602754D01*
X138049694Y-134602195D01*
X137996402Y-134596946D01*
X137981630Y-134598401D01*
X137771804Y-134598401D01*
X137757787Y-134589035D01*
X137733814Y-134579105D01*
X137724166Y-134555813D01*
X137685863Y-134498488D01*
X137637112Y-134449737D01*
X137579787Y-134411434D01*
X137516091Y-134385050D01*
X137448472Y-134371600D01*
X137379528Y-134371600D01*
X137311909Y-134385050D01*
X137248213Y-134411434D01*
X137190888Y-134449737D01*
X137142137Y-134498488D01*
X137103834Y-134555813D01*
X137092943Y-134582105D01*
X137083890Y-134585855D01*
X137083279Y-134585244D01*
X137079990Y-134568709D01*
X137053606Y-134505013D01*
X137015303Y-134447688D01*
X136966552Y-134398937D01*
X136909227Y-134360634D01*
X136845531Y-134334250D01*
X136780355Y-134321286D01*
X136797075Y-134290004D01*
X136817061Y-134224119D01*
X136823809Y-134155602D01*
X136823809Y-133895602D01*
X136817061Y-133827085D01*
X136797075Y-133761200D01*
X136764620Y-133700481D01*
X136720942Y-133647260D01*
X136667721Y-133603582D01*
X136607002Y-133571127D01*
X136541117Y-133551141D01*
X136472600Y-133544393D01*
X136272600Y-133544393D01*
X136204083Y-133551141D01*
X136138198Y-133571127D01*
X136077479Y-133603582D01*
X136024258Y-133647260D01*
X136017001Y-133656103D01*
X136009742Y-133647258D01*
X135956521Y-133603580D01*
X135895802Y-133571125D01*
X135829917Y-133551139D01*
X135761400Y-133544391D01*
X135561400Y-133544391D01*
X135492883Y-133551139D01*
X135426998Y-133571125D01*
X135366279Y-133603580D01*
X135313058Y-133647258D01*
X135305800Y-133656102D01*
X135298542Y-133647258D01*
X135245321Y-133603580D01*
X135184602Y-133571125D01*
X135118717Y-133551139D01*
X135050200Y-133544391D01*
X134850200Y-133544391D01*
X134781683Y-133551139D01*
X134715798Y-133571125D01*
X134655079Y-133603580D01*
X134601858Y-133647258D01*
X134594600Y-133656102D01*
X134587342Y-133647258D01*
X134534121Y-133603580D01*
X134473402Y-133571125D01*
X134407517Y-133551139D01*
X134339000Y-133544391D01*
X134139000Y-133544391D01*
X134070483Y-133551139D01*
X134004598Y-133571125D01*
X133943879Y-133603580D01*
X133890658Y-133647258D01*
X133846980Y-133700479D01*
X133814525Y-133761198D01*
X133794539Y-133827083D01*
X133787791Y-133895600D01*
X133787791Y-134155600D01*
X133794539Y-134224117D01*
X133814525Y-134290002D01*
X133843268Y-134343776D01*
X133672607Y-134514438D01*
X133660651Y-134524250D01*
X133650839Y-134536206D01*
X133621474Y-134571987D01*
X133613303Y-134587275D01*
X133592363Y-134626449D01*
X133574437Y-134685543D01*
X133572649Y-134703693D01*
X133568384Y-134747000D01*
X133569900Y-134762392D01*
X133569900Y-135036408D01*
X133568384Y-135051800D01*
X133573379Y-135102515D01*
X133574437Y-135113256D01*
X133592363Y-135172350D01*
X133621474Y-135226813D01*
X133660650Y-135274550D01*
X133672612Y-135284367D01*
X133848234Y-135459989D01*
X133858051Y-135471951D01*
X133864575Y-135477305D01*
X133851650Y-135508509D01*
X133838200Y-135576128D01*
X133838200Y-135645072D01*
X133851650Y-135712691D01*
X133878034Y-135776387D01*
X133916337Y-135833712D01*
X133965088Y-135882463D01*
X134022413Y-135920766D01*
X134086109Y-135947150D01*
X134092000Y-135948322D01*
X134092000Y-135983673D01*
X134095004Y-135998776D01*
X134035309Y-136010650D01*
X133971613Y-136037034D01*
X133914288Y-136075337D01*
X133865537Y-136124088D01*
X133827234Y-136181413D01*
X133826305Y-136183655D01*
X133772517Y-136167339D01*
X133704000Y-136160591D01*
X133504000Y-136160591D01*
X133435483Y-136167339D01*
X133369598Y-136187325D01*
X133308879Y-136219780D01*
X133255658Y-136263458D01*
X133211980Y-136316679D01*
X133179525Y-136377398D01*
X133159539Y-136443283D01*
X133152791Y-136511800D01*
X133152791Y-136771800D01*
X133159539Y-136840317D01*
X133179525Y-136906202D01*
X133211980Y-136966921D01*
X133255658Y-137020142D01*
X133308879Y-137063820D01*
X133369598Y-137096275D01*
X133435483Y-137116261D01*
X133504000Y-137123009D01*
X133704000Y-137123009D01*
X133772517Y-137116261D01*
X133838402Y-137096275D01*
X133899121Y-137063820D01*
X133952342Y-137020142D01*
X133996020Y-136966921D01*
X133998276Y-136962701D01*
X134092403Y-136962701D01*
X134092000Y-136964729D01*
X134092000Y-137033673D01*
X134105450Y-137101292D01*
X134131834Y-137164988D01*
X134137990Y-137174201D01*
X134131834Y-137183414D01*
X134105450Y-137247110D01*
X134092000Y-137314729D01*
X134092000Y-137383673D01*
X134105450Y-137451292D01*
X134131834Y-137514988D01*
X134137990Y-137524201D01*
X134131834Y-137533414D01*
X134105450Y-137597110D01*
X134092000Y-137664729D01*
X134092000Y-137733673D01*
X134095197Y-137749746D01*
X134067448Y-137758164D01*
X134012985Y-137787275D01*
X133965249Y-137826451D01*
X133955437Y-137838407D01*
X133637012Y-138156833D01*
X133625050Y-138166650D01*
X133585874Y-138214387D01*
X133556763Y-138268850D01*
X133542394Y-138316217D01*
X133538837Y-138327944D01*
X133532784Y-138389400D01*
X133534300Y-138404792D01*
X133534300Y-138666768D01*
X133522679Y-138672980D01*
X133469458Y-138716658D01*
X133425780Y-138769879D01*
X133393325Y-138830598D01*
X133373339Y-138896483D01*
X133366591Y-138965000D01*
X133366591Y-139165000D01*
X133373339Y-139233517D01*
X133393325Y-139299402D01*
X133425780Y-139360121D01*
X133469458Y-139413342D01*
X133522679Y-139457020D01*
X133583398Y-139489475D01*
X133649283Y-139509461D01*
X133717800Y-139516209D01*
X133977800Y-139516209D01*
X134046317Y-139509461D01*
X134112202Y-139489475D01*
X134172921Y-139457020D01*
X134226142Y-139413342D01*
X134226300Y-139413149D01*
X134226458Y-139413342D01*
X134279679Y-139457020D01*
X134340398Y-139489475D01*
X134406283Y-139509461D01*
X134474800Y-139516209D01*
X134734800Y-139516209D01*
X134803317Y-139509461D01*
X134869202Y-139489475D01*
X134929921Y-139457020D01*
X134983142Y-139413342D01*
X135026820Y-139360121D01*
X135059275Y-139299402D01*
X135079261Y-139233517D01*
X135086009Y-139165000D01*
X135086009Y-138965000D01*
X135079261Y-138896483D01*
X135059275Y-138830598D01*
X135026820Y-138769879D01*
X134983142Y-138716658D01*
X134929921Y-138672980D01*
X134869202Y-138640525D01*
X134803317Y-138620539D01*
X134780828Y-138618324D01*
X134756072Y-138613400D01*
X134687128Y-138613400D01*
X134685162Y-138613791D01*
X134474800Y-138613791D01*
X134406283Y-138620539D01*
X134340398Y-138640525D01*
X134279679Y-138672980D01*
X134226458Y-138716658D01*
X134226300Y-138716851D01*
X134226142Y-138716658D01*
X134172921Y-138672980D01*
X134161300Y-138666768D01*
X134161300Y-138519255D01*
X134308016Y-138372540D01*
X134339909Y-138385751D01*
X134407528Y-138399201D01*
X134476472Y-138399201D01*
X134544091Y-138385751D01*
X134607787Y-138359367D01*
X134617000Y-138353211D01*
X134626213Y-138359367D01*
X134689909Y-138385751D01*
X134757528Y-138399201D01*
X134826472Y-138399201D01*
X134894091Y-138385751D01*
X134957787Y-138359367D01*
X134967000Y-138353211D01*
X134976213Y-138359367D01*
X135039909Y-138385751D01*
X135107528Y-138399201D01*
X135176472Y-138399201D01*
X135244091Y-138385751D01*
X135307787Y-138359367D01*
X135317000Y-138353211D01*
X135326213Y-138359367D01*
X135389909Y-138385751D01*
X135457528Y-138399201D01*
X135526472Y-138399201D01*
X135594091Y-138385751D01*
X135657787Y-138359367D01*
X135667000Y-138353211D01*
X135676213Y-138359367D01*
X135739909Y-138385751D01*
X135807528Y-138399201D01*
X135835501Y-138399201D01*
X135835501Y-138512887D01*
X135834551Y-138522530D01*
X135834551Y-138691152D01*
X135833776Y-138699020D01*
X135834551Y-138706888D01*
X135834551Y-138876030D01*
X135840000Y-138931356D01*
X135840000Y-139107204D01*
X135834551Y-139162530D01*
X135834551Y-139516030D01*
X135835760Y-139528309D01*
X135835761Y-139764081D01*
X135834511Y-139776770D01*
X135834511Y-139918292D01*
X135833996Y-139923520D01*
X135834511Y-139928748D01*
X135834511Y-140070270D01*
X135835720Y-140082545D01*
X135835720Y-140121878D01*
X135833996Y-140139380D01*
X135835720Y-140156882D01*
X135835720Y-140156884D01*
X135840879Y-140209266D01*
X135861264Y-140276466D01*
X135894368Y-140338399D01*
X135938918Y-140392683D01*
X135952518Y-140403844D01*
X136085311Y-140536637D01*
X136096477Y-140550243D01*
X136147074Y-140591766D01*
X136150761Y-140594792D01*
X136212296Y-140627683D01*
X136212694Y-140627896D01*
X136279894Y-140648281D01*
X136332276Y-140653440D01*
X136332277Y-140653440D01*
X136349779Y-140655164D01*
X136367281Y-140653440D01*
X136757655Y-140653440D01*
X136769930Y-140654649D01*
X137123430Y-140654649D01*
X137166825Y-140650375D01*
X137168025Y-140650739D01*
X137177780Y-140651700D01*
X137358120Y-140651700D01*
X137367875Y-140650739D01*
X137368452Y-140650564D01*
X137409930Y-140654649D01*
X137763430Y-140654649D01*
X137775705Y-140653440D01*
X138270975Y-140653440D01*
X138283250Y-140654649D01*
X138576750Y-140654649D01*
X138589025Y-140653440D01*
X141412198Y-140653440D01*
X141429700Y-140655164D01*
X141447202Y-140653440D01*
X141447204Y-140653440D01*
X141499586Y-140648281D01*
X141566786Y-140627896D01*
X141628719Y-140594792D01*
X141683003Y-140550243D01*
X141694169Y-140536637D01*
X141991427Y-140239380D01*
X143091178Y-140239380D01*
X143108680Y-140241104D01*
X143126182Y-140239380D01*
X143126184Y-140239380D01*
X143178566Y-140234221D01*
X143245766Y-140213836D01*
X143307699Y-140180732D01*
X143361983Y-140136183D01*
X143373149Y-140122578D01*
X143655707Y-139840020D01*
X143669302Y-139828863D01*
X143713852Y-139774579D01*
X143746956Y-139712646D01*
X143767341Y-139645446D01*
X143772500Y-139593064D01*
X143772500Y-139593063D01*
X143774224Y-139575561D01*
X143772500Y-139558059D01*
X143772500Y-139052506D01*
X143790008Y-139050782D01*
X143837134Y-139036487D01*
X143880564Y-139013273D01*
X143918632Y-138982032D01*
X143949873Y-138943964D01*
X143973087Y-138900534D01*
X143987382Y-138853408D01*
X143989136Y-138835600D01*
X144714614Y-138835600D01*
X144708799Y-138905381D01*
X144708646Y-138906246D01*
X144707677Y-138918845D01*
X144706629Y-138931419D01*
X144706642Y-138932296D01*
X144697676Y-139048857D01*
X144686707Y-139180489D01*
X144676629Y-139301419D01*
X144666974Y-139417284D01*
X144657150Y-139535168D01*
X144648855Y-139634703D01*
X144631157Y-139732044D01*
X144628872Y-139744507D01*
X144628856Y-139744700D01*
X144628821Y-139744892D01*
X144627807Y-139757284D01*
X144617840Y-139876884D01*
X144609040Y-139973688D01*
X144591672Y-140069214D01*
X144589509Y-140080001D01*
X144589263Y-140082461D01*
X144588821Y-140084892D01*
X144587924Y-140095851D01*
X144579263Y-140182460D01*
X144561672Y-140279214D01*
X144559509Y-140290001D01*
X144559263Y-140292461D01*
X144558821Y-140294892D01*
X144557924Y-140305851D01*
X144549504Y-140390054D01*
X144534789Y-140463626D01*
X144534789Y-140463628D01*
X144511853Y-140578307D01*
X144509509Y-140590001D01*
X144509503Y-140590057D01*
X144509493Y-140590109D01*
X144508340Y-140601693D01*
X144499796Y-140687134D01*
X144485642Y-140750826D01*
X144484789Y-140753628D01*
X144482714Y-140764001D01*
X144480420Y-140774326D01*
X144480068Y-140777233D01*
X144463427Y-140860440D01*
X144447405Y-140924527D01*
X144446278Y-140927964D01*
X144444136Y-140937602D01*
X144441736Y-140947203D01*
X144441206Y-140950789D01*
X144428928Y-141006040D01*
X144428391Y-141007292D01*
X144423072Y-141032393D01*
X144420420Y-141044326D01*
X144420256Y-141045680D01*
X144419974Y-141047011D01*
X144418624Y-141059159D01*
X144415540Y-141084633D01*
X144415643Y-141085988D01*
X144410525Y-141132046D01*
X144398286Y-141181003D01*
X144377087Y-141265800D01*
X143773350Y-141265800D01*
X143734235Y-141142494D01*
X143724414Y-141119579D01*
X143714919Y-141096542D01*
X143713097Y-141093173D01*
X143713093Y-141093164D01*
X143713088Y-141093157D01*
X143637876Y-140956344D01*
X143623775Y-140935751D01*
X143610000Y-140915018D01*
X143607553Y-140912059D01*
X143507193Y-140792455D01*
X143489387Y-140775018D01*
X143471822Y-140757331D01*
X143468847Y-140754904D01*
X143347167Y-140657071D01*
X143326324Y-140643431D01*
X143305648Y-140629486D01*
X143302262Y-140627686D01*
X143302258Y-140627683D01*
X143302254Y-140627681D01*
X143163891Y-140555347D01*
X143140801Y-140546018D01*
X143117806Y-140536352D01*
X143114130Y-140535242D01*
X142964349Y-140491159D01*
X142939894Y-140486494D01*
X142915452Y-140481477D01*
X142911630Y-140481102D01*
X142756139Y-140466951D01*
X142731215Y-140467125D01*
X142706290Y-140466951D01*
X142702479Y-140467325D01*
X142702471Y-140467325D01*
X142702464Y-140467326D01*
X142547191Y-140483647D01*
X142522761Y-140488661D01*
X142498295Y-140493329D01*
X142494623Y-140494437D01*
X142494617Y-140494438D01*
X142494611Y-140494440D01*
X142345469Y-140540607D01*
X142322528Y-140550251D01*
X142299381Y-140559603D01*
X142295991Y-140561406D01*
X142158649Y-140635667D01*
X142137981Y-140649607D01*
X142117130Y-140663252D01*
X142114154Y-140665679D01*
X141993852Y-140765202D01*
X141976301Y-140782876D01*
X141958481Y-140800327D01*
X141956033Y-140803285D01*
X141857353Y-140924279D01*
X141843550Y-140945054D01*
X141829479Y-140965604D01*
X141827657Y-140968974D01*
X141827652Y-140968982D01*
X141827652Y-140968983D01*
X141754353Y-141106839D01*
X141744860Y-141129870D01*
X141735036Y-141152792D01*
X141733901Y-141156457D01*
X141733901Y-141156459D01*
X141733900Y-141156461D01*
X141700889Y-141265800D01*
X135409509Y-141265800D01*
X135447639Y-141208734D01*
X135485632Y-141117011D01*
X135505000Y-141019640D01*
X135505000Y-140920360D01*
X135485632Y-140822989D01*
X135447639Y-140731266D01*
X135392483Y-140648718D01*
X135322282Y-140578517D01*
X135239734Y-140523361D01*
X135148011Y-140485368D01*
X135050640Y-140466000D01*
X134951360Y-140466000D01*
X134853989Y-140485368D01*
X134762266Y-140523361D01*
X134753078Y-140529500D01*
X134740922Y-140529500D01*
X134731734Y-140523361D01*
X134640011Y-140485368D01*
X134542640Y-140466000D01*
X134443360Y-140466000D01*
X134345989Y-140485368D01*
X134254266Y-140523361D01*
X134245078Y-140529500D01*
X134232922Y-140529500D01*
X134223734Y-140523361D01*
X134132011Y-140485368D01*
X134034640Y-140466000D01*
X133935360Y-140466000D01*
X133929152Y-140467235D01*
X133941261Y-140427317D01*
X133948009Y-140358800D01*
X133948009Y-140158800D01*
X133941261Y-140090283D01*
X133921275Y-140024398D01*
X133888820Y-139963679D01*
X133845142Y-139910458D01*
X133791921Y-139866780D01*
X133731202Y-139834325D01*
X133665317Y-139814339D01*
X133596800Y-139807591D01*
X133336800Y-139807591D01*
X133268283Y-139814339D01*
X133202398Y-139834325D01*
X133146800Y-139864043D01*
X133091202Y-139834325D01*
X133025317Y-139814339D01*
X132956800Y-139807591D01*
X132866501Y-139807591D01*
X132785811Y-139774168D01*
X132688440Y-139754800D01*
X132589160Y-139754800D01*
X132491789Y-139774168D01*
X132400066Y-139812161D01*
X132336800Y-139854433D01*
X132336800Y-132654253D01*
X132342379Y-132597355D01*
X132354998Y-132555557D01*
X132375490Y-132517018D01*
X132403081Y-132483188D01*
X132436720Y-132455360D01*
X132475121Y-132434596D01*
X132516821Y-132421688D01*
X132572849Y-132415799D01*
X137683391Y-132415800D01*
G04 #@! TA.AperFunction,Conductor*
G36*
X137683391Y-132415800D02*
G01*
X137683391Y-132684966D01*
X137641000Y-132680791D01*
X137441000Y-132680791D01*
X137372483Y-132687539D01*
X137306598Y-132707525D01*
X137245879Y-132739980D01*
X137192658Y-132783658D01*
X137148980Y-132836879D01*
X137116525Y-132897598D01*
X137096539Y-132963483D01*
X137089791Y-133032000D01*
X137089791Y-133235070D01*
X137085977Y-133273800D01*
X137093255Y-133347705D01*
X137096249Y-133357576D01*
X137096539Y-133360517D01*
X137116525Y-133426402D01*
X137148980Y-133487121D01*
X137192658Y-133540342D01*
X137245879Y-133584020D01*
X137253501Y-133588094D01*
X137254337Y-133588780D01*
X137319831Y-133623788D01*
X137390895Y-133645345D01*
X137464800Y-133652623D01*
X137538705Y-133645345D01*
X137545746Y-133643209D01*
X137641000Y-133643209D01*
X137683391Y-133639034D01*
X137683391Y-133719800D01*
X137688218Y-133768808D01*
X137702513Y-133815934D01*
X137725727Y-133859364D01*
X137756968Y-133897432D01*
X137795036Y-133928673D01*
X137838466Y-133951887D01*
X137885592Y-133966182D01*
X137934600Y-133971009D01*
X137972799Y-133971009D01*
X137965739Y-133994283D01*
X137958991Y-134062800D01*
X137958991Y-134262800D01*
X137965739Y-134331317D01*
X137985725Y-134397202D01*
X138018180Y-134457921D01*
X138061858Y-134511142D01*
X138115079Y-134554820D01*
X138175798Y-134587275D01*
X138241683Y-134607261D01*
X138310200Y-134614009D01*
X138570200Y-134614009D01*
X138638717Y-134607261D01*
X138704602Y-134587275D01*
X138765321Y-134554820D01*
X138818542Y-134511142D01*
X138862220Y-134457921D01*
X138894675Y-134397202D01*
X138914661Y-134331317D01*
X138921409Y-134262800D01*
X138921409Y-134062800D01*
X138914661Y-133994283D01*
X138894675Y-133928398D01*
X138871855Y-133885706D01*
X138893473Y-133859364D01*
X138916687Y-133815934D01*
X138930982Y-133768808D01*
X138935809Y-133719800D01*
X138935809Y-132415800D01*
X139143391Y-132415800D01*
X139143391Y-133719800D01*
X139148218Y-133768808D01*
X139162513Y-133815934D01*
X139185727Y-133859364D01*
X139216968Y-133897432D01*
X139255036Y-133928673D01*
X139298466Y-133951887D01*
X139345592Y-133966182D01*
X139394600Y-133971009D01*
X140144600Y-133971009D01*
X140193608Y-133966182D01*
X140240734Y-133951887D01*
X140284164Y-133928673D01*
X140322232Y-133897432D01*
X140353473Y-133859364D01*
X140376687Y-133815934D01*
X140390982Y-133768808D01*
X140395809Y-133719800D01*
X140395809Y-133626550D01*
X140405398Y-133631675D01*
X140471283Y-133651661D01*
X140518224Y-133656284D01*
X140565896Y-133670745D01*
X140639800Y-133678024D01*
X140713705Y-133670745D01*
X140761378Y-133656284D01*
X140808317Y-133651661D01*
X140874202Y-133631675D01*
X140934921Y-133599220D01*
X140988142Y-133555542D01*
X141031820Y-133502321D01*
X141064275Y-133441602D01*
X141084261Y-133375717D01*
X141091009Y-133307200D01*
X141091009Y-133047200D01*
X141084261Y-132978683D01*
X141064275Y-132912798D01*
X141031820Y-132852079D01*
X140988142Y-132798858D01*
X140934921Y-132755180D01*
X140874202Y-132722725D01*
X140808317Y-132702739D01*
X140739800Y-132695991D01*
X140539800Y-132695991D01*
X140471283Y-132702739D01*
X140405398Y-132722725D01*
X140395809Y-132727850D01*
X140395809Y-132415800D01*
X141592622Y-132415801D01*
X141588791Y-132454700D01*
X141588791Y-133254700D01*
X141593618Y-133303708D01*
X141607913Y-133350834D01*
X141631127Y-133394264D01*
X141662368Y-133432332D01*
X141700436Y-133463573D01*
X141743866Y-133486787D01*
X141790992Y-133501082D01*
X141840000Y-133505909D01*
X142013344Y-133505909D01*
X142063498Y-133556063D01*
X142146046Y-133611219D01*
X142237769Y-133649212D01*
X142335140Y-133668580D01*
X142434420Y-133668580D01*
X142531791Y-133649212D01*
X142623514Y-133611219D01*
X142706062Y-133556063D01*
X142760608Y-133501517D01*
X142805200Y-133505909D01*
X143131231Y-133505909D01*
X143197606Y-133550259D01*
X143289329Y-133588252D01*
X143386700Y-133607620D01*
X143485980Y-133607620D01*
X143583351Y-133588252D01*
X143675074Y-133550259D01*
X143725212Y-133516758D01*
X143770400Y-133521209D01*
X144570400Y-133521209D01*
X144581362Y-133520129D01*
X144587924Y-133585749D01*
X144588821Y-133596708D01*
X144589263Y-133599139D01*
X144589509Y-133601599D01*
X144591672Y-133612386D01*
X144609040Y-133707912D01*
X144617840Y-133804716D01*
X144627780Y-133923988D01*
X144628821Y-133936708D01*
X144628856Y-133936900D01*
X144628872Y-133937093D01*
X144631157Y-133949556D01*
X144648855Y-134046897D01*
X144656629Y-134140178D01*
X144656629Y-134140181D01*
X144666629Y-134260178D01*
X144666629Y-134260181D01*
X144676629Y-134380178D01*
X144676629Y-134380181D01*
X144686629Y-134500178D01*
X144686629Y-134500181D01*
X144697676Y-134632743D01*
X144706642Y-134749304D01*
X144706629Y-134750181D01*
X144707677Y-134762755D01*
X144708224Y-134769871D01*
X140588905Y-134777733D01*
X140579152Y-134778712D01*
X140569778Y-134781576D01*
X140561142Y-134786213D01*
X140553577Y-134792445D01*
X140547374Y-134800034D01*
X140542770Y-134808687D01*
X140539942Y-134818072D01*
X140539000Y-134827733D01*
X140539000Y-138785600D01*
X140539961Y-138795355D01*
X140542806Y-138804734D01*
X140547427Y-138813379D01*
X140553645Y-138820955D01*
X140561221Y-138827173D01*
X140569866Y-138831794D01*
X140579245Y-138834639D01*
X140589000Y-138835600D01*
X142842864Y-138835600D01*
X142844618Y-138853408D01*
X142858913Y-138900534D01*
X142882127Y-138943964D01*
X142913368Y-138982032D01*
X142951436Y-139013273D01*
X142994866Y-139036487D01*
X143041992Y-139050782D01*
X143059500Y-139052506D01*
X143059500Y-139427893D01*
X142961014Y-139526380D01*
X141861261Y-139526380D01*
X141843759Y-139524656D01*
X141826257Y-139526380D01*
X141826256Y-139526380D01*
X141773874Y-139531539D01*
X141706674Y-139551924D01*
X141644741Y-139585028D01*
X141590457Y-139629577D01*
X141579295Y-139643178D01*
X141282034Y-139940440D01*
X138589025Y-139940440D01*
X138576750Y-139939231D01*
X138283250Y-139939231D01*
X138270975Y-139940440D01*
X137775705Y-139940440D01*
X137763430Y-139939231D01*
X137409930Y-139939231D01*
X137368651Y-139943297D01*
X137367875Y-139943061D01*
X137358120Y-139942100D01*
X137177780Y-139942100D01*
X137168025Y-139943061D01*
X137166626Y-139943485D01*
X137123430Y-139939231D01*
X136769930Y-139939231D01*
X136757655Y-139940440D01*
X136549929Y-139940440D01*
X136549929Y-139929115D01*
X136550484Y-139923480D01*
X136549929Y-139917845D01*
X136549929Y-139776770D01*
X136548760Y-139764901D01*
X136548760Y-139528305D01*
X136549969Y-139516030D01*
X136549969Y-139162530D01*
X136546517Y-139127476D01*
X136548640Y-139120475D01*
X136549601Y-139110721D01*
X136549600Y-138930381D01*
X136548639Y-138920626D01*
X136546327Y-138913005D01*
X136549969Y-138876030D01*
X136549969Y-138704509D01*
X136550484Y-138699280D01*
X136549969Y-138694051D01*
X136549969Y-138522530D01*
X136548500Y-138507615D01*
X136548500Y-138031697D01*
X136543341Y-137979315D01*
X136522956Y-137912115D01*
X136499722Y-137868646D01*
X136502166Y-137864988D01*
X136528550Y-137801292D01*
X136542000Y-137733673D01*
X136555450Y-137801292D01*
X136581834Y-137864988D01*
X136620137Y-137922313D01*
X136668888Y-137971064D01*
X136726213Y-138009367D01*
X136789909Y-138035751D01*
X136799455Y-138037650D01*
X136833800Y-138071995D01*
X136833800Y-138339028D01*
X136832345Y-138353800D01*
X136838153Y-138412767D01*
X136855353Y-138469467D01*
X136866667Y-138490633D01*
X136883285Y-138521724D01*
X136920874Y-138567527D01*
X136932350Y-138576945D01*
X137038451Y-138683046D01*
X137047873Y-138694527D01*
X137093676Y-138732116D01*
X137113107Y-138742502D01*
X137227391Y-138856786D01*
X137227391Y-139012600D01*
X137234139Y-139081117D01*
X137254125Y-139147002D01*
X137286580Y-139207721D01*
X137330258Y-139260942D01*
X137383479Y-139304620D01*
X137444198Y-139337075D01*
X137510083Y-139357061D01*
X137578600Y-139363809D01*
X137838600Y-139363809D01*
X137907117Y-139357061D01*
X137973002Y-139337075D01*
X138033721Y-139304620D01*
X138049000Y-139292081D01*
X138064279Y-139304620D01*
X138124998Y-139337075D01*
X138190883Y-139357061D01*
X138259400Y-139363809D01*
X138519400Y-139363809D01*
X138587917Y-139357061D01*
X138653802Y-139337075D01*
X138714521Y-139304620D01*
X138767742Y-139260942D01*
X138811420Y-139207721D01*
X138843875Y-139147002D01*
X138863861Y-139081117D01*
X138870609Y-139012600D01*
X138870609Y-138812600D01*
X138863861Y-138744083D01*
X138843875Y-138678198D01*
X138811420Y-138617479D01*
X138767742Y-138564258D01*
X138714521Y-138520580D01*
X138653802Y-138488125D01*
X138587917Y-138468139D01*
X138521479Y-138461596D01*
X138500350Y-138435850D01*
X138488394Y-138426038D01*
X138281566Y-138219211D01*
X138271750Y-138207250D01*
X138224014Y-138168074D01*
X138190044Y-138149917D01*
X138310589Y-138029372D01*
X138322550Y-138019556D01*
X138361726Y-137971820D01*
X138390837Y-137917357D01*
X138392702Y-137911209D01*
X138706059Y-137911209D01*
X138712472Y-137932350D01*
X138743414Y-137990237D01*
X138747480Y-137997843D01*
X138782786Y-138040864D01*
X138782789Y-138040867D01*
X138794592Y-138055249D01*
X138808974Y-138067052D01*
X138905201Y-138163279D01*
X138903791Y-138177600D01*
X138903791Y-138377600D01*
X138910539Y-138446117D01*
X138930525Y-138512002D01*
X138962980Y-138572721D01*
X139006658Y-138625942D01*
X139059879Y-138669620D01*
X139120598Y-138702075D01*
X139186483Y-138722061D01*
X139255000Y-138728809D01*
X139515000Y-138728809D01*
X139583517Y-138722061D01*
X139649402Y-138702075D01*
X139710121Y-138669620D01*
X139763342Y-138625942D01*
X139807020Y-138572721D01*
X139839475Y-138512002D01*
X139859461Y-138446117D01*
X139866209Y-138377600D01*
X139866209Y-138177600D01*
X139859461Y-138109083D01*
X139839475Y-138043198D01*
X139807020Y-137982479D01*
X139763342Y-137929258D01*
X139710121Y-137885580D01*
X139671769Y-137865080D01*
X139652869Y-137842051D01*
X139638482Y-137830244D01*
X139439460Y-137631222D01*
X139439460Y-137506168D01*
X139441283Y-137487659D01*
X139439460Y-137469150D01*
X139439460Y-137469141D01*
X139434005Y-137413755D01*
X139415897Y-137354058D01*
X139428188Y-137341767D01*
X139440150Y-137331950D01*
X139479326Y-137284214D01*
X139508437Y-137229751D01*
X139526363Y-137170657D01*
X139530900Y-137124592D01*
X139532416Y-137109200D01*
X139530900Y-137093808D01*
X139530900Y-136743591D01*
X139531749Y-136734974D01*
X139558257Y-136732363D01*
X139617351Y-136714437D01*
X139671814Y-136685326D01*
X139719550Y-136646150D01*
X139729367Y-136634188D01*
X139882346Y-136481209D01*
X140203200Y-136481209D01*
X140252208Y-136476382D01*
X140299334Y-136462087D01*
X140342764Y-136438873D01*
X140380832Y-136407632D01*
X140412073Y-136369564D01*
X140435287Y-136326134D01*
X140449582Y-136279008D01*
X140454409Y-136230000D01*
X140454409Y-135390000D01*
X140449582Y-135340992D01*
X140435287Y-135293866D01*
X140412073Y-135250436D01*
X140380832Y-135212368D01*
X140342764Y-135181127D01*
X140299334Y-135157913D01*
X140252208Y-135143618D01*
X140203200Y-135138791D01*
X139862949Y-135138791D01*
X139800105Y-135075947D01*
X139807020Y-135067521D01*
X139839475Y-135006802D01*
X139859461Y-134940917D01*
X139866209Y-134872400D01*
X139866209Y-134672400D01*
X139859461Y-134603883D01*
X139839475Y-134537998D01*
X139807020Y-134477279D01*
X139763342Y-134424058D01*
X139710121Y-134380380D01*
X139649402Y-134347925D01*
X139583517Y-134327939D01*
X139515000Y-134321191D01*
X139255000Y-134321191D01*
X139186483Y-134327939D01*
X139120598Y-134347925D01*
X139059879Y-134380380D01*
X139006658Y-134424058D01*
X138962980Y-134477279D01*
X138930525Y-134537998D01*
X138910539Y-134603883D01*
X138903791Y-134672400D01*
X138903791Y-134872400D01*
X138910539Y-134940917D01*
X138930525Y-135006802D01*
X138962980Y-135067521D01*
X139006658Y-135120742D01*
X139008000Y-135121843D01*
X139008000Y-135175488D01*
X139006177Y-135194000D01*
X139008000Y-135212512D01*
X139008000Y-135212518D01*
X139012370Y-135256887D01*
X139013455Y-135267905D01*
X139029954Y-135322295D01*
X139035012Y-135338969D01*
X139070019Y-135404462D01*
X139117131Y-135461869D01*
X139131519Y-135473677D01*
X139211991Y-135554149D01*
X139211991Y-136109900D01*
X138038983Y-136109900D01*
X138023599Y-136108385D01*
X138008215Y-136109900D01*
X138008208Y-136109900D01*
X137962143Y-136114437D01*
X137903049Y-136132363D01*
X137901881Y-136132987D01*
X137896010Y-136124201D01*
X137902166Y-136114988D01*
X137928550Y-136051292D01*
X137942000Y-135983673D01*
X137942000Y-135914729D01*
X137928550Y-135847110D01*
X137902166Y-135783414D01*
X137896010Y-135774201D01*
X137900078Y-135768113D01*
X137960787Y-135742966D01*
X138018112Y-135704663D01*
X138066863Y-135655912D01*
X138105166Y-135598587D01*
X138131550Y-135534891D01*
X138133746Y-135523852D01*
X138176491Y-135515350D01*
X138240187Y-135488966D01*
X138297512Y-135450663D01*
X138346263Y-135401912D01*
X138384566Y-135344587D01*
X138410950Y-135280891D01*
X138424400Y-135213272D01*
X138424400Y-135144328D01*
X138410950Y-135076709D01*
X138384566Y-135013013D01*
X138375200Y-134998996D01*
X138375200Y-134991971D01*
X138376655Y-134977199D01*
X138370847Y-134918232D01*
X138368778Y-134911413D01*
X138353647Y-134861531D01*
X138325716Y-134809275D01*
X138288127Y-134763472D01*
X138276647Y-134754051D01*
X138219551Y-134696955D01*
X138210129Y-134685474D01*
X138164326Y-134647885D01*
X138112070Y-134619954D01*
X138055369Y-134602754D01*
X138049694Y-134602195D01*
X137996402Y-134596946D01*
X137981630Y-134598401D01*
X137771804Y-134598401D01*
X137757787Y-134589035D01*
X137733814Y-134579105D01*
X137724166Y-134555813D01*
X137685863Y-134498488D01*
X137637112Y-134449737D01*
X137579787Y-134411434D01*
X137516091Y-134385050D01*
X137448472Y-134371600D01*
X137379528Y-134371600D01*
X137311909Y-134385050D01*
X137248213Y-134411434D01*
X137190888Y-134449737D01*
X137142137Y-134498488D01*
X137103834Y-134555813D01*
X137092943Y-134582105D01*
X137083890Y-134585855D01*
X137083279Y-134585244D01*
X137079990Y-134568709D01*
X137053606Y-134505013D01*
X137015303Y-134447688D01*
X136966552Y-134398937D01*
X136909227Y-134360634D01*
X136845531Y-134334250D01*
X136780355Y-134321286D01*
X136797075Y-134290004D01*
X136817061Y-134224119D01*
X136823809Y-134155602D01*
X136823809Y-133895602D01*
X136817061Y-133827085D01*
X136797075Y-133761200D01*
X136764620Y-133700481D01*
X136720942Y-133647260D01*
X136667721Y-133603582D01*
X136607002Y-133571127D01*
X136541117Y-133551141D01*
X136472600Y-133544393D01*
X136272600Y-133544393D01*
X136204083Y-133551141D01*
X136138198Y-133571127D01*
X136077479Y-133603582D01*
X136024258Y-133647260D01*
X136017001Y-133656103D01*
X136009742Y-133647258D01*
X135956521Y-133603580D01*
X135895802Y-133571125D01*
X135829917Y-133551139D01*
X135761400Y-133544391D01*
X135561400Y-133544391D01*
X135492883Y-133551139D01*
X135426998Y-133571125D01*
X135366279Y-133603580D01*
X135313058Y-133647258D01*
X135305800Y-133656102D01*
X135298542Y-133647258D01*
X135245321Y-133603580D01*
X135184602Y-133571125D01*
X135118717Y-133551139D01*
X135050200Y-133544391D01*
X134850200Y-133544391D01*
X134781683Y-133551139D01*
X134715798Y-133571125D01*
X134655079Y-133603580D01*
X134601858Y-133647258D01*
X134594600Y-133656102D01*
X134587342Y-133647258D01*
X134534121Y-133603580D01*
X134473402Y-133571125D01*
X134407517Y-133551139D01*
X134339000Y-133544391D01*
X134139000Y-133544391D01*
X134070483Y-133551139D01*
X134004598Y-133571125D01*
X133943879Y-133603580D01*
X133890658Y-133647258D01*
X133846980Y-133700479D01*
X133814525Y-133761198D01*
X133794539Y-133827083D01*
X133787791Y-133895600D01*
X133787791Y-134155600D01*
X133794539Y-134224117D01*
X133814525Y-134290002D01*
X133843268Y-134343776D01*
X133672607Y-134514438D01*
X133660651Y-134524250D01*
X133650839Y-134536206D01*
X133621474Y-134571987D01*
X133613303Y-134587275D01*
X133592363Y-134626449D01*
X133574437Y-134685543D01*
X133572649Y-134703693D01*
X133568384Y-134747000D01*
X133569900Y-134762392D01*
X133569900Y-135036408D01*
X133568384Y-135051800D01*
X133573379Y-135102515D01*
X133574437Y-135113256D01*
X133592363Y-135172350D01*
X133621474Y-135226813D01*
X133660650Y-135274550D01*
X133672612Y-135284367D01*
X133848234Y-135459989D01*
X133858051Y-135471951D01*
X133864575Y-135477305D01*
X133851650Y-135508509D01*
X133838200Y-135576128D01*
X133838200Y-135645072D01*
X133851650Y-135712691D01*
X133878034Y-135776387D01*
X133916337Y-135833712D01*
X133965088Y-135882463D01*
X134022413Y-135920766D01*
X134086109Y-135947150D01*
X134092000Y-135948322D01*
X134092000Y-135983673D01*
X134095004Y-135998776D01*
X134035309Y-136010650D01*
X133971613Y-136037034D01*
X133914288Y-136075337D01*
X133865537Y-136124088D01*
X133827234Y-136181413D01*
X133826305Y-136183655D01*
X133772517Y-136167339D01*
X133704000Y-136160591D01*
X133504000Y-136160591D01*
X133435483Y-136167339D01*
X133369598Y-136187325D01*
X133308879Y-136219780D01*
X133255658Y-136263458D01*
X133211980Y-136316679D01*
X133179525Y-136377398D01*
X133159539Y-136443283D01*
X133152791Y-136511800D01*
X133152791Y-136771800D01*
X133159539Y-136840317D01*
X133179525Y-136906202D01*
X133211980Y-136966921D01*
X133255658Y-137020142D01*
X133308879Y-137063820D01*
X133369598Y-137096275D01*
X133435483Y-137116261D01*
X133504000Y-137123009D01*
X133704000Y-137123009D01*
X133772517Y-137116261D01*
X133838402Y-137096275D01*
X133899121Y-137063820D01*
X133952342Y-137020142D01*
X133996020Y-136966921D01*
X133998276Y-136962701D01*
X134092403Y-136962701D01*
X134092000Y-136964729D01*
X134092000Y-137033673D01*
X134105450Y-137101292D01*
X134131834Y-137164988D01*
X134137990Y-137174201D01*
X134131834Y-137183414D01*
X134105450Y-137247110D01*
X134092000Y-137314729D01*
X134092000Y-137383673D01*
X134105450Y-137451292D01*
X134131834Y-137514988D01*
X134137990Y-137524201D01*
X134131834Y-137533414D01*
X134105450Y-137597110D01*
X134092000Y-137664729D01*
X134092000Y-137733673D01*
X134095197Y-137749746D01*
X134067448Y-137758164D01*
X134012985Y-137787275D01*
X133965249Y-137826451D01*
X133955437Y-137838407D01*
X133637012Y-138156833D01*
X133625050Y-138166650D01*
X133585874Y-138214387D01*
X133556763Y-138268850D01*
X133542394Y-138316217D01*
X133538837Y-138327944D01*
X133532784Y-138389400D01*
X133534300Y-138404792D01*
X133534300Y-138666768D01*
X133522679Y-138672980D01*
X133469458Y-138716658D01*
X133425780Y-138769879D01*
X133393325Y-138830598D01*
X133373339Y-138896483D01*
X133366591Y-138965000D01*
X133366591Y-139165000D01*
X133373339Y-139233517D01*
X133393325Y-139299402D01*
X133425780Y-139360121D01*
X133469458Y-139413342D01*
X133522679Y-139457020D01*
X133583398Y-139489475D01*
X133649283Y-139509461D01*
X133717800Y-139516209D01*
X133977800Y-139516209D01*
X134046317Y-139509461D01*
X134112202Y-139489475D01*
X134172921Y-139457020D01*
X134226142Y-139413342D01*
X134226300Y-139413149D01*
X134226458Y-139413342D01*
X134279679Y-139457020D01*
X134340398Y-139489475D01*
X134406283Y-139509461D01*
X134474800Y-139516209D01*
X134734800Y-139516209D01*
X134803317Y-139509461D01*
X134869202Y-139489475D01*
X134929921Y-139457020D01*
X134983142Y-139413342D01*
X135026820Y-139360121D01*
X135059275Y-139299402D01*
X135079261Y-139233517D01*
X135086009Y-139165000D01*
X135086009Y-138965000D01*
X135079261Y-138896483D01*
X135059275Y-138830598D01*
X135026820Y-138769879D01*
X134983142Y-138716658D01*
X134929921Y-138672980D01*
X134869202Y-138640525D01*
X134803317Y-138620539D01*
X134780828Y-138618324D01*
X134756072Y-138613400D01*
X134687128Y-138613400D01*
X134685162Y-138613791D01*
X134474800Y-138613791D01*
X134406283Y-138620539D01*
X134340398Y-138640525D01*
X134279679Y-138672980D01*
X134226458Y-138716658D01*
X134226300Y-138716851D01*
X134226142Y-138716658D01*
X134172921Y-138672980D01*
X134161300Y-138666768D01*
X134161300Y-138519255D01*
X134308016Y-138372540D01*
X134339909Y-138385751D01*
X134407528Y-138399201D01*
X134476472Y-138399201D01*
X134544091Y-138385751D01*
X134607787Y-138359367D01*
X134617000Y-138353211D01*
X134626213Y-138359367D01*
X134689909Y-138385751D01*
X134757528Y-138399201D01*
X134826472Y-138399201D01*
X134894091Y-138385751D01*
X134957787Y-138359367D01*
X134967000Y-138353211D01*
X134976213Y-138359367D01*
X135039909Y-138385751D01*
X135107528Y-138399201D01*
X135176472Y-138399201D01*
X135244091Y-138385751D01*
X135307787Y-138359367D01*
X135317000Y-138353211D01*
X135326213Y-138359367D01*
X135389909Y-138385751D01*
X135457528Y-138399201D01*
X135526472Y-138399201D01*
X135594091Y-138385751D01*
X135657787Y-138359367D01*
X135667000Y-138353211D01*
X135676213Y-138359367D01*
X135739909Y-138385751D01*
X135807528Y-138399201D01*
X135835501Y-138399201D01*
X135835501Y-138512887D01*
X135834551Y-138522530D01*
X135834551Y-138691152D01*
X135833776Y-138699020D01*
X135834551Y-138706888D01*
X135834551Y-138876030D01*
X135840000Y-138931356D01*
X135840000Y-139107204D01*
X135834551Y-139162530D01*
X135834551Y-139516030D01*
X135835760Y-139528309D01*
X135835761Y-139764081D01*
X135834511Y-139776770D01*
X135834511Y-139918292D01*
X135833996Y-139923520D01*
X135834511Y-139928748D01*
X135834511Y-140070270D01*
X135835720Y-140082545D01*
X135835720Y-140121878D01*
X135833996Y-140139380D01*
X135835720Y-140156882D01*
X135835720Y-140156884D01*
X135840879Y-140209266D01*
X135861264Y-140276466D01*
X135894368Y-140338399D01*
X135938918Y-140392683D01*
X135952518Y-140403844D01*
X136085311Y-140536637D01*
X136096477Y-140550243D01*
X136147074Y-140591766D01*
X136150761Y-140594792D01*
X136212296Y-140627683D01*
X136212694Y-140627896D01*
X136279894Y-140648281D01*
X136332276Y-140653440D01*
X136332277Y-140653440D01*
X136349779Y-140655164D01*
X136367281Y-140653440D01*
X136757655Y-140653440D01*
X136769930Y-140654649D01*
X137123430Y-140654649D01*
X137166825Y-140650375D01*
X137168025Y-140650739D01*
X137177780Y-140651700D01*
X137358120Y-140651700D01*
X137367875Y-140650739D01*
X137368452Y-140650564D01*
X137409930Y-140654649D01*
X137763430Y-140654649D01*
X137775705Y-140653440D01*
X138270975Y-140653440D01*
X138283250Y-140654649D01*
X138576750Y-140654649D01*
X138589025Y-140653440D01*
X141412198Y-140653440D01*
X141429700Y-140655164D01*
X141447202Y-140653440D01*
X141447204Y-140653440D01*
X141499586Y-140648281D01*
X141566786Y-140627896D01*
X141628719Y-140594792D01*
X141683003Y-140550243D01*
X141694169Y-140536637D01*
X141991427Y-140239380D01*
X143091178Y-140239380D01*
X143108680Y-140241104D01*
X143126182Y-140239380D01*
X143126184Y-140239380D01*
X143178566Y-140234221D01*
X143245766Y-140213836D01*
X143307699Y-140180732D01*
X143361983Y-140136183D01*
X143373149Y-140122578D01*
X143655707Y-139840020D01*
X143669302Y-139828863D01*
X143713852Y-139774579D01*
X143746956Y-139712646D01*
X143767341Y-139645446D01*
X143772500Y-139593064D01*
X143772500Y-139593063D01*
X143774224Y-139575561D01*
X143772500Y-139558059D01*
X143772500Y-139052506D01*
X143790008Y-139050782D01*
X143837134Y-139036487D01*
X143880564Y-139013273D01*
X143918632Y-138982032D01*
X143949873Y-138943964D01*
X143973087Y-138900534D01*
X143987382Y-138853408D01*
X143989136Y-138835600D01*
X144714614Y-138835600D01*
X144708799Y-138905381D01*
X144708646Y-138906246D01*
X144707677Y-138918845D01*
X144706629Y-138931419D01*
X144706642Y-138932296D01*
X144697676Y-139048857D01*
X144686707Y-139180489D01*
X144676629Y-139301419D01*
X144666974Y-139417284D01*
X144657150Y-139535168D01*
X144648855Y-139634703D01*
X144631157Y-139732044D01*
X144628872Y-139744507D01*
X144628856Y-139744700D01*
X144628821Y-139744892D01*
X144627807Y-139757284D01*
X144617840Y-139876884D01*
X144609040Y-139973688D01*
X144591672Y-140069214D01*
X144589509Y-140080001D01*
X144589263Y-140082461D01*
X144588821Y-140084892D01*
X144587924Y-140095851D01*
X144579263Y-140182460D01*
X144561672Y-140279214D01*
X144559509Y-140290001D01*
X144559263Y-140292461D01*
X144558821Y-140294892D01*
X144557924Y-140305851D01*
X144549504Y-140390054D01*
X144534789Y-140463626D01*
X144534789Y-140463628D01*
X144511853Y-140578307D01*
X144509509Y-140590001D01*
X144509503Y-140590057D01*
X144509493Y-140590109D01*
X144508340Y-140601693D01*
X144499796Y-140687134D01*
X144485642Y-140750826D01*
X144484789Y-140753628D01*
X144482714Y-140764001D01*
X144480420Y-140774326D01*
X144480068Y-140777233D01*
X144463427Y-140860440D01*
X144447405Y-140924527D01*
X144446278Y-140927964D01*
X144444136Y-140937602D01*
X144441736Y-140947203D01*
X144441206Y-140950789D01*
X144428928Y-141006040D01*
X144428391Y-141007292D01*
X144423072Y-141032393D01*
X144420420Y-141044326D01*
X144420256Y-141045680D01*
X144419974Y-141047011D01*
X144418624Y-141059159D01*
X144415540Y-141084633D01*
X144415643Y-141085988D01*
X144410525Y-141132046D01*
X144398286Y-141181003D01*
X144377087Y-141265800D01*
X143773350Y-141265800D01*
X143734235Y-141142494D01*
X143724414Y-141119579D01*
X143714919Y-141096542D01*
X143713097Y-141093173D01*
X143713093Y-141093164D01*
X143713088Y-141093157D01*
X143637876Y-140956344D01*
X143623775Y-140935751D01*
X143610000Y-140915018D01*
X143607553Y-140912059D01*
X143507193Y-140792455D01*
X143489387Y-140775018D01*
X143471822Y-140757331D01*
X143468847Y-140754904D01*
X143347167Y-140657071D01*
X143326324Y-140643431D01*
X143305648Y-140629486D01*
X143302262Y-140627686D01*
X143302258Y-140627683D01*
X143302254Y-140627681D01*
X143163891Y-140555347D01*
X143140801Y-140546018D01*
X143117806Y-140536352D01*
X143114130Y-140535242D01*
X142964349Y-140491159D01*
X142939894Y-140486494D01*
X142915452Y-140481477D01*
X142911630Y-140481102D01*
X142756139Y-140466951D01*
X142731215Y-140467125D01*
X142706290Y-140466951D01*
X142702479Y-140467325D01*
X142702471Y-140467325D01*
X142702464Y-140467326D01*
X142547191Y-140483647D01*
X142522761Y-140488661D01*
X142498295Y-140493329D01*
X142494623Y-140494437D01*
X142494617Y-140494438D01*
X142494611Y-140494440D01*
X142345469Y-140540607D01*
X142322528Y-140550251D01*
X142299381Y-140559603D01*
X142295991Y-140561406D01*
X142158649Y-140635667D01*
X142137981Y-140649607D01*
X142117130Y-140663252D01*
X142114154Y-140665679D01*
X141993852Y-140765202D01*
X141976301Y-140782876D01*
X141958481Y-140800327D01*
X141956033Y-140803285D01*
X141857353Y-140924279D01*
X141843550Y-140945054D01*
X141829479Y-140965604D01*
X141827657Y-140968974D01*
X141827652Y-140968982D01*
X141827652Y-140968983D01*
X141754353Y-141106839D01*
X141744860Y-141129870D01*
X141735036Y-141152792D01*
X141733901Y-141156457D01*
X141733901Y-141156459D01*
X141733900Y-141156461D01*
X141700889Y-141265800D01*
X135409509Y-141265800D01*
X135447639Y-141208734D01*
X135485632Y-141117011D01*
X135505000Y-141019640D01*
X135505000Y-140920360D01*
X135485632Y-140822989D01*
X135447639Y-140731266D01*
X135392483Y-140648718D01*
X135322282Y-140578517D01*
X135239734Y-140523361D01*
X135148011Y-140485368D01*
X135050640Y-140466000D01*
X134951360Y-140466000D01*
X134853989Y-140485368D01*
X134762266Y-140523361D01*
X134753078Y-140529500D01*
X134740922Y-140529500D01*
X134731734Y-140523361D01*
X134640011Y-140485368D01*
X134542640Y-140466000D01*
X134443360Y-140466000D01*
X134345989Y-140485368D01*
X134254266Y-140523361D01*
X134245078Y-140529500D01*
X134232922Y-140529500D01*
X134223734Y-140523361D01*
X134132011Y-140485368D01*
X134034640Y-140466000D01*
X133935360Y-140466000D01*
X133929152Y-140467235D01*
X133941261Y-140427317D01*
X133948009Y-140358800D01*
X133948009Y-140158800D01*
X133941261Y-140090283D01*
X133921275Y-140024398D01*
X133888820Y-139963679D01*
X133845142Y-139910458D01*
X133791921Y-139866780D01*
X133731202Y-139834325D01*
X133665317Y-139814339D01*
X133596800Y-139807591D01*
X133336800Y-139807591D01*
X133268283Y-139814339D01*
X133202398Y-139834325D01*
X133146800Y-139864043D01*
X133091202Y-139834325D01*
X133025317Y-139814339D01*
X132956800Y-139807591D01*
X132866501Y-139807591D01*
X132785811Y-139774168D01*
X132688440Y-139754800D01*
X132589160Y-139754800D01*
X132491789Y-139774168D01*
X132400066Y-139812161D01*
X132336800Y-139854433D01*
X132336800Y-132654253D01*
X132342379Y-132597355D01*
X132354998Y-132555557D01*
X132375490Y-132517018D01*
X132403081Y-132483188D01*
X132436720Y-132455360D01*
X132475121Y-132434596D01*
X132516821Y-132421688D01*
X132572849Y-132415799D01*
X137683391Y-132415800D01*
G37*
G04 #@! TD.AperFunction*
X136376213Y-135559367D02*
X136439909Y-135585751D01*
X136507528Y-135599201D01*
X136542000Y-135599201D01*
X136542000Y-135633673D01*
X136555450Y-135701292D01*
X136581834Y-135764988D01*
X136587990Y-135774201D01*
X136581834Y-135783414D01*
X136555450Y-135847110D01*
X136542000Y-135914729D01*
X136542000Y-135983673D01*
X136555450Y-136051292D01*
X136581834Y-136114988D01*
X136587990Y-136124201D01*
X136581834Y-136133414D01*
X136555450Y-136197110D01*
X136542000Y-136264729D01*
X136542000Y-136333673D01*
X136555450Y-136401292D01*
X136581834Y-136464988D01*
X136587990Y-136474201D01*
X136581834Y-136483414D01*
X136555450Y-136547110D01*
X136542000Y-136614729D01*
X136542000Y-136683673D01*
X136555450Y-136751292D01*
X136581834Y-136814988D01*
X136620137Y-136872313D01*
X136668888Y-136921064D01*
X136726213Y-136959367D01*
X136789909Y-136985751D01*
X136857528Y-136999201D01*
X136892000Y-136999201D01*
X136892000Y-137033673D01*
X136905450Y-137101292D01*
X136931834Y-137164988D01*
X136937990Y-137174201D01*
X136935339Y-137178169D01*
X136930909Y-137179050D01*
X136867213Y-137205434D01*
X136809888Y-137243737D01*
X136761137Y-137292488D01*
X136722834Y-137349813D01*
X136699077Y-137407166D01*
X136668888Y-137427338D01*
X136620137Y-137476089D01*
X136581834Y-137533414D01*
X136555450Y-137597110D01*
X136542000Y-137664729D01*
X136528550Y-137597110D01*
X136502166Y-137533414D01*
X136496010Y-137524201D01*
X136502166Y-137514988D01*
X136528550Y-137451292D01*
X136542000Y-137383673D01*
X136542000Y-137314729D01*
X136528550Y-137247110D01*
X136502166Y-137183414D01*
X136463863Y-137126089D01*
X136415112Y-137077338D01*
X136357787Y-137039035D01*
X136294091Y-137012651D01*
X136226472Y-136999201D01*
X136157528Y-136999201D01*
X136089909Y-137012651D01*
X136026213Y-137039035D01*
X136017000Y-137045191D01*
X136007787Y-137039035D01*
X135944091Y-137012651D01*
X135876472Y-136999201D01*
X135807528Y-136999201D01*
X135739909Y-137012651D01*
X135676213Y-137039035D01*
X135667000Y-137045191D01*
X135657787Y-137039035D01*
X135594091Y-137012651D01*
X135526472Y-136999201D01*
X135492000Y-136999201D01*
X135492000Y-136964729D01*
X135478550Y-136897110D01*
X135452166Y-136833414D01*
X135446010Y-136824201D01*
X135452166Y-136814988D01*
X135478550Y-136751292D01*
X135492000Y-136683673D01*
X135492000Y-136614729D01*
X135478550Y-136547110D01*
X135452166Y-136483414D01*
X135446010Y-136474201D01*
X135452166Y-136464988D01*
X135478550Y-136401292D01*
X135492000Y-136333673D01*
X135492000Y-136264729D01*
X135478550Y-136197110D01*
X135452166Y-136133414D01*
X135446010Y-136124201D01*
X135452166Y-136114988D01*
X135478550Y-136051292D01*
X135492000Y-135983673D01*
X135492000Y-135914729D01*
X135478550Y-135847110D01*
X135452166Y-135783414D01*
X135446010Y-135774201D01*
X135452166Y-135764988D01*
X135478550Y-135701292D01*
X135492000Y-135633673D01*
X135492000Y-135599201D01*
X135526472Y-135599201D01*
X135594091Y-135585751D01*
X135657787Y-135559367D01*
X135667000Y-135553211D01*
X135676213Y-135559367D01*
X135739909Y-135585751D01*
X135807528Y-135599201D01*
X135876472Y-135599201D01*
X135944091Y-135585751D01*
X136007787Y-135559367D01*
X136017000Y-135553211D01*
X136026213Y-135559367D01*
X136089909Y-135585751D01*
X136157528Y-135599201D01*
X136226472Y-135599201D01*
X136294091Y-135585751D01*
X136357787Y-135559367D01*
X136367000Y-135553211D01*
X136376213Y-135559367D01*
G04 #@! TA.AperFunction,Conductor*
G36*
X136376213Y-135559367D02*
G01*
X136439909Y-135585751D01*
X136507528Y-135599201D01*
X136542000Y-135599201D01*
X136542000Y-135633673D01*
X136555450Y-135701292D01*
X136581834Y-135764988D01*
X136587990Y-135774201D01*
X136581834Y-135783414D01*
X136555450Y-135847110D01*
X136542000Y-135914729D01*
X136542000Y-135983673D01*
X136555450Y-136051292D01*
X136581834Y-136114988D01*
X136587990Y-136124201D01*
X136581834Y-136133414D01*
X136555450Y-136197110D01*
X136542000Y-136264729D01*
X136542000Y-136333673D01*
X136555450Y-136401292D01*
X136581834Y-136464988D01*
X136587990Y-136474201D01*
X136581834Y-136483414D01*
X136555450Y-136547110D01*
X136542000Y-136614729D01*
X136542000Y-136683673D01*
X136555450Y-136751292D01*
X136581834Y-136814988D01*
X136620137Y-136872313D01*
X136668888Y-136921064D01*
X136726213Y-136959367D01*
X136789909Y-136985751D01*
X136857528Y-136999201D01*
X136892000Y-136999201D01*
X136892000Y-137033673D01*
X136905450Y-137101292D01*
X136931834Y-137164988D01*
X136937990Y-137174201D01*
X136935339Y-137178169D01*
X136930909Y-137179050D01*
X136867213Y-137205434D01*
X136809888Y-137243737D01*
X136761137Y-137292488D01*
X136722834Y-137349813D01*
X136699077Y-137407166D01*
X136668888Y-137427338D01*
X136620137Y-137476089D01*
X136581834Y-137533414D01*
X136555450Y-137597110D01*
X136542000Y-137664729D01*
X136528550Y-137597110D01*
X136502166Y-137533414D01*
X136496010Y-137524201D01*
X136502166Y-137514988D01*
X136528550Y-137451292D01*
X136542000Y-137383673D01*
X136542000Y-137314729D01*
X136528550Y-137247110D01*
X136502166Y-137183414D01*
X136463863Y-137126089D01*
X136415112Y-137077338D01*
X136357787Y-137039035D01*
X136294091Y-137012651D01*
X136226472Y-136999201D01*
X136157528Y-136999201D01*
X136089909Y-137012651D01*
X136026213Y-137039035D01*
X136017000Y-137045191D01*
X136007787Y-137039035D01*
X135944091Y-137012651D01*
X135876472Y-136999201D01*
X135807528Y-136999201D01*
X135739909Y-137012651D01*
X135676213Y-137039035D01*
X135667000Y-137045191D01*
X135657787Y-137039035D01*
X135594091Y-137012651D01*
X135526472Y-136999201D01*
X135492000Y-136999201D01*
X135492000Y-136964729D01*
X135478550Y-136897110D01*
X135452166Y-136833414D01*
X135446010Y-136824201D01*
X135452166Y-136814988D01*
X135478550Y-136751292D01*
X135492000Y-136683673D01*
X135492000Y-136614729D01*
X135478550Y-136547110D01*
X135452166Y-136483414D01*
X135446010Y-136474201D01*
X135452166Y-136464988D01*
X135478550Y-136401292D01*
X135492000Y-136333673D01*
X135492000Y-136264729D01*
X135478550Y-136197110D01*
X135452166Y-136133414D01*
X135446010Y-136124201D01*
X135452166Y-136114988D01*
X135478550Y-136051292D01*
X135492000Y-135983673D01*
X135492000Y-135914729D01*
X135478550Y-135847110D01*
X135452166Y-135783414D01*
X135446010Y-135774201D01*
X135452166Y-135764988D01*
X135478550Y-135701292D01*
X135492000Y-135633673D01*
X135492000Y-135599201D01*
X135526472Y-135599201D01*
X135594091Y-135585751D01*
X135657787Y-135559367D01*
X135667000Y-135553211D01*
X135676213Y-135559367D01*
X135739909Y-135585751D01*
X135807528Y-135599201D01*
X135876472Y-135599201D01*
X135944091Y-135585751D01*
X136007787Y-135559367D01*
X136017000Y-135553211D01*
X136026213Y-135559367D01*
X136089909Y-135585751D01*
X136157528Y-135599201D01*
X136226472Y-135599201D01*
X136294091Y-135585751D01*
X136357787Y-135559367D01*
X136367000Y-135553211D01*
X136376213Y-135559367D01*
G37*
G04 #@! TD.AperFunction*
X134376900Y-134905293D02*
X134339909Y-134912651D01*
X134284262Y-134935701D01*
X134210656Y-134935701D01*
X134196900Y-134921945D01*
X134196900Y-134876855D01*
X134376900Y-134696856D01*
X134376900Y-134905293D01*
G04 #@! TA.AperFunction,Conductor*
G36*
X134376900Y-134905293D02*
G01*
X134339909Y-134912651D01*
X134284262Y-134935701D01*
X134210656Y-134935701D01*
X134196900Y-134921945D01*
X134196900Y-134876855D01*
X134376900Y-134696856D01*
X134376900Y-134905293D01*
G37*
G04 #@! TD.AperFunction*
M02*
