G04 #@! TF.GenerationSoftware,KiCad,Pcbnew,(5.99.0-8258-g1ec6beaf04)*
G04 #@! TF.CreationDate,2021-01-21T00:32:18-08:00*
G04 #@! TF.ProjectId,bomu,626f6d75-2e6b-4696-9361-645f70636258,rev?*
G04 #@! TF.SameCoordinates,Original*
G04 #@! TF.FileFunction,Copper,L2,Inr*
G04 #@! TF.FilePolarity,Positive*
%FSLAX46Y46*%
G04 Gerber Fmt 4.6, Leading zero omitted, Abs format (unit mm)*
G04 Created by KiCad (PCBNEW (5.99.0-8258-g1ec6beaf04)) date 2021-01-21 00:32:18*
%MOMM*%
%LPD*%
G01*
G04 APERTURE LIST*
G04 #@! TA.AperFunction,ViaPad*
%ADD10C,0.508000*%
G04 #@! TD*
G04 #@! TA.AperFunction,ViaPad*
%ADD11C,0.200000*%
G04 #@! TD*
G04 #@! TA.AperFunction,Conductor*
%ADD12C,0.381000*%
G04 #@! TD*
G04 #@! TA.AperFunction,Conductor*
%ADD13C,0.254000*%
G04 #@! TD*
G04 APERTURE END LIST*
D10*
X143891000Y-133680200D03*
X136931400Y-133426200D03*
X134467600Y-134035800D03*
X132638800Y-140563600D03*
X144297400Y-132562600D03*
D11*
X133629400Y-136728200D03*
X136372600Y-134162800D03*
X135661400Y-134162800D03*
X137299200Y-135534200D03*
X138709400Y-138887200D03*
X133959600Y-139065000D03*
D10*
X135001000Y-140970000D03*
X134493000Y-140970000D03*
X133985000Y-140970000D03*
X133477000Y-140970000D03*
X142240000Y-133134100D03*
X143205200Y-132562600D03*
X141274800Y-132562600D03*
X136575800Y-137896600D03*
X136423400Y-135864600D03*
D11*
X141046200Y-134112000D03*
X142240000Y-134112000D03*
D12*
X132638800Y-133248400D02*
X132638800Y-140563600D01*
X134467600Y-134035800D02*
X134467600Y-133223000D01*
X133019800Y-132867400D02*
X132638800Y-133248400D01*
X134467600Y-133223000D02*
X134112000Y-132867400D01*
X134112000Y-132867400D02*
X133019800Y-132867400D01*
D13*
X133629400Y-136144000D02*
X133629400Y-136728200D01*
X143027400Y-133680200D02*
X138150600Y-133680200D01*
X136372600Y-134162800D02*
X136372600Y-134391400D01*
X138150600Y-133680200D02*
X137668000Y-134162800D01*
X138709400Y-138887200D02*
X138709400Y-136728200D01*
X143169640Y-133543040D02*
X143164560Y-133543040D01*
X133629400Y-136728200D02*
X133629400Y-138734800D01*
X135610600Y-134162800D02*
X133629400Y-136144000D01*
X133629400Y-138734800D02*
X133959600Y-139065000D01*
X137668000Y-134162800D02*
X136372600Y-134162800D01*
X137414000Y-135432800D02*
X137400600Y-135432800D01*
X135704580Y-134162800D02*
X135661400Y-134162800D01*
X144150080Y-132562600D02*
X143169640Y-133543040D01*
X138709400Y-136728200D02*
X137414000Y-135432800D01*
X136372600Y-134391400D02*
X136906000Y-134924800D01*
X136906000Y-134924800D02*
X137414000Y-135432800D01*
X144297400Y-132562600D02*
X144150080Y-132562600D01*
X143164560Y-133543040D02*
X143027400Y-133680200D01*
X135661400Y-134162800D02*
X135610600Y-134162800D01*
X135661400Y-134162800D02*
X136372600Y-134162800D01*
X137400600Y-135432800D02*
X137299200Y-135534200D01*
M02*
