G04 #@! TF.GenerationSoftware,KiCad,Pcbnew,(5.1.8-0-10_14)*
G04 #@! TF.CreationDate,2021-01-06T00:38:35-08:00*
G04 #@! TF.ProjectId,bomu,626f6d75-2e6b-4696-9361-645f70636258,rev?*
G04 #@! TF.SameCoordinates,Original*
G04 #@! TF.FileFunction,Legend,Top*
G04 #@! TF.FilePolarity,Positive*
%FSLAX46Y46*%
G04 Gerber Fmt 4.6, Leading zero omitted, Abs format (unit mm)*
G04 Created by KiCad (PCBNEW (5.1.8-0-10_14)) date 2021-01-06 00:38:35*
%MOMM*%
%LPD*%
G01*
G04 APERTURE LIST*
%ADD10C,0.250000*%
G04 APERTURE END LIST*
D10*
X141200380Y-139882571D02*
X141343238Y-139930190D01*
X141390857Y-139977809D01*
X141438476Y-140073047D01*
X141438476Y-140215904D01*
X141390857Y-140311142D01*
X141343238Y-140358761D01*
X141248000Y-140406380D01*
X140867047Y-140406380D01*
X140867047Y-139406380D01*
X141200380Y-139406380D01*
X141295619Y-139454000D01*
X141343238Y-139501619D01*
X141390857Y-139596857D01*
X141390857Y-139692095D01*
X141343238Y-139787333D01*
X141295619Y-139834952D01*
X141200380Y-139882571D01*
X140867047Y-139882571D01*
X142057523Y-139406380D02*
X142248000Y-139406380D01*
X142343238Y-139454000D01*
X142438476Y-139549238D01*
X142486095Y-139739714D01*
X142486095Y-140073047D01*
X142438476Y-140263523D01*
X142343238Y-140358761D01*
X142248000Y-140406380D01*
X142057523Y-140406380D01*
X141962285Y-140358761D01*
X141867047Y-140263523D01*
X141819428Y-140073047D01*
X141819428Y-139739714D01*
X141867047Y-139549238D01*
X141962285Y-139454000D01*
X142057523Y-139406380D01*
X142914666Y-140406380D02*
X142914666Y-139406380D01*
X143248000Y-140120666D01*
X143581333Y-139406380D01*
X143581333Y-140406380D01*
X144057523Y-139406380D02*
X144057523Y-140215904D01*
X144105142Y-140311142D01*
X144152761Y-140358761D01*
X144248000Y-140406380D01*
X144438476Y-140406380D01*
X144533714Y-140358761D01*
X144581333Y-140311142D01*
X144628952Y-140215904D01*
X144628952Y-139406380D01*
M02*
