G04 #@! TF.GenerationSoftware,KiCad,Pcbnew,(5.1.8-0-10_14)*
G04 #@! TF.CreationDate,2021-01-06T00:38:35-08:00*
G04 #@! TF.ProjectId,bomu,626f6d75-2e6b-4696-9361-645f70636258,rev?*
G04 #@! TF.SameCoordinates,Original*
G04 #@! TF.FileFunction,Legend,Bot*
G04 #@! TF.FilePolarity,Positive*
%FSLAX46Y46*%
G04 Gerber Fmt 4.6, Leading zero omitted, Abs format (unit mm)*
G04 Created by KiCad (PCBNEW (5.1.8-0-10_14)) date 2021-01-06 00:38:35*
%MOMM*%
%LPD*%
G01*
G04 APERTURE LIST*
%ADD10C,0.120000*%
%ADD11C,0.127000*%
%ADD12C,0.200000*%
%ADD13C,0.050000*%
G04 APERTURE END LIST*
D10*
X144472790Y-139585771D02*
X144472790Y-139300057D01*
X144472790Y-139442914D02*
X143972790Y-139442914D01*
X144044219Y-139395295D01*
X144091838Y-139347676D01*
X144115647Y-139300057D01*
X144425171Y-139800057D02*
X144448980Y-139823866D01*
X144472790Y-139800057D01*
X144448980Y-139776247D01*
X144425171Y-139800057D01*
X144472790Y-139800057D01*
X143972790Y-140133390D02*
X143972790Y-140181009D01*
X143996600Y-140228628D01*
X144020409Y-140252438D01*
X144068028Y-140276247D01*
X144163266Y-140300057D01*
X144282314Y-140300057D01*
X144377552Y-140276247D01*
X144425171Y-140252438D01*
X144448980Y-140228628D01*
X144472790Y-140181009D01*
X144472790Y-140133390D01*
X144448980Y-140085771D01*
X144425171Y-140061961D01*
X144377552Y-140038152D01*
X144282314Y-140014342D01*
X144163266Y-140014342D01*
X144068028Y-140038152D01*
X144020409Y-140061961D01*
X143996600Y-140085771D01*
X143972790Y-140133390D01*
X144425171Y-140514342D02*
X144448980Y-140538152D01*
X144472790Y-140514342D01*
X144448980Y-140490533D01*
X144425171Y-140514342D01*
X144472790Y-140514342D01*
X143972790Y-140847676D02*
X143972790Y-140895295D01*
X143996600Y-140942914D01*
X144020409Y-140966723D01*
X144068028Y-140990533D01*
X144163266Y-141014342D01*
X144282314Y-141014342D01*
X144377552Y-140990533D01*
X144425171Y-140966723D01*
X144448980Y-140942914D01*
X144472790Y-140895295D01*
X144472790Y-140847676D01*
X144448980Y-140800057D01*
X144425171Y-140776247D01*
X144377552Y-140752438D01*
X144282314Y-140728628D01*
X144163266Y-140728628D01*
X144068028Y-140752438D01*
X144020409Y-140776247D01*
X143996600Y-140800057D01*
X143972790Y-140847676D01*
D11*
X138007000Y-134484201D02*
X138007000Y-135479201D01*
X137012000Y-134484201D02*
X138007000Y-134484201D01*
X134027000Y-134484201D02*
X135022000Y-134484201D01*
X134027000Y-135479201D02*
X134027000Y-134484201D01*
X134027000Y-138464201D02*
X134027000Y-137469201D01*
X135022000Y-138464201D02*
X134027000Y-138464201D01*
X138007000Y-138464201D02*
X137012000Y-138464201D01*
X138007000Y-137469201D02*
X138007000Y-138464201D01*
D12*
X137967000Y-138324201D02*
G75*
G03*
X137967000Y-138324201I-100000J0D01*
G01*
D13*
X140679619Y-133604000D02*
G75*
G03*
X140679619Y-133604000I-141419J0D01*
G01*
D10*
X138066780Y-137878820D02*
X138315700Y-137878820D01*
X138066780Y-137878820D02*
X138066780Y-137416540D01*
D12*
X143571000Y-139209400D02*
G75*
G03*
X143571000Y-139209400I-100000J0D01*
G01*
D11*
X143091000Y-135804400D02*
X143091000Y-137804400D01*
X144691000Y-135804400D02*
X144691000Y-137804400D01*
M02*
