G04 #@! TF.GenerationSoftware,KiCad,Pcbnew,(5.99.0-8645-g8b3dea7107)*
G04 #@! TF.CreationDate,2021-02-11T22:48:25-08:00*
G04 #@! TF.ProjectId,bomu,626f6d75-2e6b-4696-9361-645f70636258,rev?*
G04 #@! TF.SameCoordinates,PX7de9b10PY86ff218*
G04 #@! TF.FileFunction,Copper,L6,Bot*
G04 #@! TF.FilePolarity,Positive*
%FSLAX46Y46*%
G04 Gerber Fmt 4.6, Leading zero omitted, Abs format (unit mm)*
G04 Created by KiCad (PCBNEW (5.99.0-8645-g8b3dea7107)) date 2021-02-11 22:48:25*
%MOMM*%
%LPD*%
G01*
G04 APERTURE LIST*
G04 Aperture macros list*
%AMRoundRect*
0 Rectangle with rounded corners*
0 $1 Rounding radius*
0 $2 $3 $4 $5 $6 $7 $8 $9 X,Y pos of 4 corners*
0 Add a 4 corners polygon primitive as box body*
4,1,4,$2,$3,$4,$5,$6,$7,$8,$9,$2,$3,0*
0 Add four circle primitives for the rounded corners*
1,1,$1+$1,$2,$3*
1,1,$1+$1,$4,$5*
1,1,$1+$1,$6,$7*
1,1,$1+$1,$8,$9*
0 Add four rect primitives between the rounded corners*
20,1,$1+$1,$2,$3,$4,$5,0*
20,1,$1+$1,$4,$5,$6,$7,0*
20,1,$1+$1,$6,$7,$8,$9,0*
20,1,$1+$1,$8,$9,$2,$3,0*%
G04 Aperture macros list end*
G04 #@! TA.AperFunction,SMDPad,CuDef*
%ADD10RoundRect,0.147500X0.172500X-0.147500X0.172500X0.147500X-0.172500X0.147500X-0.172500X-0.147500X0*%
G04 #@! TD*
G04 #@! TA.AperFunction,SMDPad,CuDef*
%ADD11RoundRect,0.100000X0.130000X0.100000X-0.130000X0.100000X-0.130000X-0.100000X0.130000X-0.100000X0*%
G04 #@! TD*
G04 #@! TA.AperFunction,SMDPad,CuDef*
%ADD12RoundRect,0.100000X0.100000X-0.130000X0.100000X0.130000X-0.100000X0.130000X-0.100000X-0.130000X0*%
G04 #@! TD*
G04 #@! TA.AperFunction,SMDPad,CuDef*
%ADD13RoundRect,0.100000X-0.100000X0.130000X-0.100000X-0.130000X0.100000X-0.130000X0.100000X0.130000X0*%
G04 #@! TD*
G04 #@! TA.AperFunction,SMDPad,CuDef*
%ADD14C,0.200000*%
G04 #@! TD*
G04 #@! TA.AperFunction,SMDPad,CuDef*
%ADD15R,0.740000X0.840000*%
G04 #@! TD*
G04 #@! TA.AperFunction,SMDPad,CuDef*
%ADD16R,0.750000X1.400000*%
G04 #@! TD*
G04 #@! TA.AperFunction,SMDPad,CuDef*
%ADD17RoundRect,0.147500X-0.172500X0.147500X-0.172500X-0.147500X0.172500X-0.147500X0.172500X0.147500X0*%
G04 #@! TD*
G04 #@! TA.AperFunction,SMDPad,CuDef*
%ADD18RoundRect,0.100000X-0.130000X-0.100000X0.130000X-0.100000X0.130000X0.100000X-0.130000X0.100000X0*%
G04 #@! TD*
G04 #@! TA.AperFunction,SMDPad,CuDef*
%ADD19RoundRect,0.100000X-0.021213X-0.162635X0.162635X0.021213X0.021213X0.162635X-0.162635X-0.021213X0*%
G04 #@! TD*
G04 #@! TA.AperFunction,SMDPad,CuDef*
%ADD20R,0.800000X0.800000*%
G04 #@! TD*
G04 #@! TA.AperFunction,SMDPad,CuDef*
%ADD21R,0.650000X0.800000*%
G04 #@! TD*
G04 #@! TA.AperFunction,SMDPad,CuDef*
%ADD22R,1.600000X0.800000*%
G04 #@! TD*
G04 #@! TA.AperFunction,SMDPad,CuDef*
%ADD23RoundRect,0.147500X-0.147500X-0.172500X0.147500X-0.172500X0.147500X0.172500X-0.147500X0.172500X0*%
G04 #@! TD*
G04 #@! TA.AperFunction,ViaPad*
%ADD24C,0.508000*%
G04 #@! TD*
G04 #@! TA.AperFunction,ViaPad*
%ADD25C,0.200000*%
G04 #@! TD*
G04 #@! TA.AperFunction,Conductor*
%ADD26C,0.254000*%
G04 #@! TD*
G04 #@! TA.AperFunction,Conductor*
%ADD27C,0.101600*%
G04 #@! TD*
G04 #@! TA.AperFunction,Conductor*
%ADD28C,0.127000*%
G04 #@! TD*
G04 #@! TA.AperFunction,Conductor*
%ADD29C,0.213000*%
G04 #@! TD*
G04 #@! TA.AperFunction,Conductor*
%ADD30C,0.381000*%
G04 #@! TD*
G04 #@! TA.AperFunction,Conductor*
%ADD31C,0.330200*%
G04 #@! TD*
G04 #@! TA.AperFunction,Conductor*
%ADD32C,0.076200*%
G04 #@! TD*
G04 APERTURE END LIST*
D10*
X2540000Y7490600D03*
X2540000Y8460600D03*
D11*
X1818600Y2489200D03*
X1178600Y2489200D03*
X1437600Y736600D03*
X797600Y736600D03*
X7635200Y6756400D03*
X6995200Y6756400D03*
D12*
X8610600Y8377011D03*
X8610600Y9017011D03*
D13*
X5511800Y9032200D03*
X5511800Y8392200D03*
D14*
X5562800Y3504999D03*
X5562800Y3854999D03*
X5562800Y4204999D03*
X5562800Y4554999D03*
X5562800Y4904999D03*
X5562800Y5254999D03*
X5562800Y5604999D03*
X5562800Y5954999D03*
X5562800Y6304999D03*
X5562800Y6654999D03*
X5212800Y4204999D03*
X5212800Y4554999D03*
X5212800Y4904999D03*
X5212800Y5254999D03*
X5212800Y5604999D03*
X5212800Y5954999D03*
X5212800Y6304999D03*
X5212800Y6654999D03*
X4862800Y3504999D03*
X4862800Y3854999D03*
X4862800Y4554999D03*
X4862800Y4904999D03*
X4862800Y5254999D03*
X4862800Y5604999D03*
X4862800Y5954999D03*
X4862800Y6304999D03*
X4862800Y6654999D03*
X4512800Y4204999D03*
X4512800Y4554999D03*
X4512800Y4904999D03*
X4512800Y5254999D03*
X4512800Y5604999D03*
X4512800Y5954999D03*
X4512800Y6304999D03*
X4512800Y6654999D03*
X4162800Y3504999D03*
X4162800Y3854999D03*
X4162800Y4204999D03*
X4162800Y4554999D03*
X4162800Y4904999D03*
X4162800Y5254999D03*
X4162800Y5604999D03*
X4162800Y5954999D03*
X4162800Y6304999D03*
X4162800Y6654999D03*
X3812800Y3504999D03*
X3812800Y3854999D03*
X3812800Y4204999D03*
X3812800Y4554999D03*
X3812800Y4904999D03*
X3812800Y5254999D03*
X3812800Y5604999D03*
X3812800Y5954999D03*
X3812800Y6304999D03*
X3812800Y6654999D03*
X3462800Y3504999D03*
X3462800Y3854999D03*
X3462800Y4204999D03*
X3462800Y4554999D03*
X3462800Y4904999D03*
X3462800Y5254999D03*
X3462800Y5604999D03*
X3462800Y5954999D03*
X3462800Y6304999D03*
X3462800Y6654999D03*
X3112800Y3504999D03*
X3112800Y3854999D03*
X3112800Y4554999D03*
X3112800Y4904999D03*
X3112800Y5254999D03*
X3112800Y5604999D03*
X3112800Y5954999D03*
X3112800Y6304999D03*
X3112800Y6654999D03*
X2762800Y3504999D03*
X2762800Y3854999D03*
X2762800Y4204999D03*
X2762800Y4554999D03*
X2762800Y4904999D03*
X2762800Y5254999D03*
X2762800Y5604999D03*
X2762800Y5954999D03*
X2762800Y6304999D03*
X2762800Y6654999D03*
X2412800Y3504999D03*
X2412800Y3854999D03*
X2412800Y4204999D03*
X2412800Y4554999D03*
X2412800Y4904999D03*
X2412800Y5254999D03*
X2412800Y5604999D03*
X2412800Y5954999D03*
X2412800Y6304999D03*
X2412800Y6654999D03*
D15*
X6674000Y4314200D03*
X6674000Y5744200D03*
X7804000Y5744200D03*
X7804000Y4314200D03*
D10*
X3429000Y7490600D03*
X3429000Y8460600D03*
D16*
X7740400Y8534400D03*
X6280400Y8534400D03*
D17*
X4318000Y8460600D03*
X4318000Y7490600D03*
D18*
X2575600Y2489200D03*
X3215600Y2489200D03*
D12*
X4163060Y2296200D03*
X4163060Y2936200D03*
D19*
X4333026Y1427266D03*
X4785574Y1879814D03*
D18*
X6411000Y7391400D03*
X7051000Y7391400D03*
D13*
X1574800Y5552400D03*
X1574800Y4912400D03*
D20*
X12141200Y8684200D03*
X12166600Y7620000D03*
X10210800Y8699500D03*
X11176000Y8699500D03*
D11*
X5557480Y1257249D03*
X4917480Y1257249D03*
X10302200Y1600200D03*
X9662200Y1600200D03*
D12*
X9118600Y1610400D03*
X9118600Y2250400D03*
X10845800Y1610400D03*
X10845800Y2250400D03*
D21*
X11386800Y3149800D03*
X12336800Y3149800D03*
D22*
X11861800Y6349800D03*
D10*
X1524000Y7287400D03*
X1524000Y8257400D03*
D23*
X4798200Y2641600D03*
X5768200Y2641600D03*
D18*
X6893600Y2667000D03*
X7533600Y2667000D03*
D11*
X7711400Y3327400D03*
X7071400Y3327400D03*
D24*
X11861800Y7874000D03*
X4902200Y8128000D03*
D25*
X1041400Y2473960D03*
X3352800Y2499360D03*
X6731000Y5562600D03*
X7924800Y4089400D03*
X2184400Y6664960D03*
X4680000Y3110000D03*
X3708400Y2997200D03*
X4622800Y2717800D03*
X5384800Y1727200D03*
X4622800Y2387600D03*
X4819618Y2178018D03*
X5918200Y1727200D03*
X6273800Y1727200D03*
X6629400Y1727200D03*
X6985000Y1727200D03*
X5638800Y1727200D03*
X5029200Y1981200D03*
X7340600Y1727200D03*
X7696200Y1727200D03*
X8305800Y2133600D03*
X7975600Y2108200D03*
X8966200Y2133600D03*
X12623800Y2311400D03*
X12573000Y1955800D03*
X12522200Y1600200D03*
X12471400Y1244600D03*
X12420600Y889000D03*
X12344400Y533400D03*
X12141200Y330200D03*
X11785600Y330200D03*
X11658600Y609600D03*
X11404600Y889000D03*
X9296400Y2133600D03*
X9626600Y2133600D03*
X9956800Y2133600D03*
X10287000Y2133600D03*
X10617200Y2133600D03*
X10871200Y2133600D03*
X10871200Y2489200D03*
X10693400Y2667000D03*
X10668000Y1117600D03*
X11303000Y1193800D03*
X11531600Y1371600D03*
X11785600Y1727200D03*
X11861800Y2006600D03*
X11861800Y2336800D03*
X11963400Y2590800D03*
X12293600Y2590800D03*
X12623800Y2590800D03*
X10007600Y863600D03*
X10414000Y1117600D03*
X10922000Y1117600D03*
X11150600Y1016000D03*
X10236200Y990600D03*
X9804400Y660400D03*
X9626600Y330200D03*
X9296400Y330200D03*
X8940800Y330200D03*
X8432800Y330200D03*
X7924800Y330200D03*
X7416800Y330200D03*
X6908800Y330200D03*
X6400800Y330200D03*
X5892800Y330200D03*
X5384800Y330200D03*
X4876800Y330200D03*
X4368800Y330200D03*
X3860800Y330200D03*
X3606800Y330200D03*
X3606800Y584200D03*
X3606800Y838200D03*
X3352800Y1092200D03*
X3098800Y1346200D03*
X2844800Y1346200D03*
X2590800Y1346200D03*
X2336800Y1346200D03*
X2082800Y1346200D03*
X2082800Y1600200D03*
X3352800Y3073400D03*
X2844800Y3073400D03*
X2336800Y3073400D03*
X2082800Y1854200D03*
X2336800Y1854200D03*
X2590800Y1854200D03*
X2844800Y1854200D03*
X3098800Y2108200D03*
X4622800Y584200D03*
X2844800Y1600200D03*
X2336800Y1600200D03*
X4368800Y584200D03*
X4114800Y584200D03*
X3860800Y584200D03*
X2590800Y1600200D03*
X4876800Y584200D03*
X5384800Y584200D03*
X5892800Y584200D03*
X6400800Y584200D03*
X6908800Y584200D03*
X7416800Y584200D03*
X7924800Y584200D03*
X8432800Y584200D03*
X8940800Y584200D03*
X9448800Y584200D03*
X5130800Y584200D03*
X5638800Y584200D03*
X6146800Y584200D03*
X6654800Y584200D03*
X7162800Y584200D03*
X7670800Y584200D03*
X8178800Y584200D03*
X8686800Y584200D03*
X9194800Y584200D03*
X11988800Y584200D03*
X11988800Y1092200D03*
X11988800Y1600200D03*
X11988800Y1346200D03*
X11988800Y838200D03*
X11988800Y1854200D03*
X12242800Y1854200D03*
X12242800Y2108200D03*
X11988800Y2108200D03*
X12242800Y2362200D03*
X12496800Y2108200D03*
X12242800Y1600200D03*
X12242800Y1346200D03*
X12242800Y1092200D03*
X12242800Y838200D03*
X11734800Y838200D03*
X11734800Y1092200D03*
X11734800Y1346200D03*
X11480800Y1092200D03*
X9575800Y825500D03*
X3352800Y2108200D03*
X3352800Y2870200D03*
X9702800Y2667000D03*
X9194800Y2667000D03*
X8686800Y2667000D03*
X8432800Y2667000D03*
X8940800Y2667000D03*
X9448800Y2667000D03*
X9956800Y2667000D03*
X10210800Y2667000D03*
X10464800Y2667000D03*
X8432800Y3124200D03*
X8432800Y3632200D03*
X8432800Y4140200D03*
X8432800Y4648200D03*
X8432800Y5156200D03*
X8432800Y5664200D03*
X8432800Y6172200D03*
X8432800Y6680200D03*
X8686800Y6934200D03*
X8940800Y6934200D03*
X9448800Y6934200D03*
X9702800Y6934200D03*
X9956800Y6934200D03*
X10210800Y6934200D03*
X10464800Y6934200D03*
X10718800Y6934200D03*
X10972800Y6934200D03*
X8432800Y6426200D03*
X8432800Y5918200D03*
X8432800Y5410200D03*
X8432800Y4902200D03*
X8432800Y4394200D03*
X8432800Y3886200D03*
X8432800Y3378200D03*
X8432800Y2870200D03*
X8432800Y6934200D03*
X11226800Y6934200D03*
X11480800Y6934200D03*
X11734800Y6934200D03*
X11988800Y6934200D03*
X12242800Y6934200D03*
X12496800Y6934200D03*
X10464800Y2362200D03*
X9956800Y2362200D03*
X9448800Y2362200D03*
X8940800Y2362200D03*
X8432800Y2362200D03*
X8432800Y7442200D03*
X8940800Y7442200D03*
X9448800Y7442200D03*
X9956800Y7442200D03*
X10464800Y7442200D03*
X10972800Y7442200D03*
X11480800Y7442200D03*
X11988800Y7442200D03*
X12496800Y7442200D03*
X12242800Y7188200D03*
X11734800Y7188200D03*
X11226800Y7188200D03*
X10210800Y7188200D03*
X9702800Y7188200D03*
X9194800Y7188200D03*
X9194800Y6934200D03*
X8686800Y7188200D03*
X8178800Y7188200D03*
X8178800Y6680200D03*
X1828800Y1854200D03*
X1320800Y1854200D03*
X812800Y1854200D03*
X304800Y1854200D03*
X304800Y2362200D03*
X304800Y2870200D03*
X304800Y3378200D03*
X304800Y3886200D03*
X304800Y4394200D03*
X304800Y4902200D03*
X304800Y5410200D03*
X304800Y5918200D03*
X304800Y6426200D03*
X304800Y6934200D03*
X304800Y7442200D03*
X304800Y7950200D03*
X304800Y8458200D03*
X304800Y8966200D03*
X812800Y8966200D03*
X1320800Y8966200D03*
X1828800Y8966200D03*
X2336800Y8966200D03*
X2844800Y8966200D03*
X3352800Y8966200D03*
X3860800Y8966200D03*
X4368800Y8966200D03*
X7340600Y2108200D03*
X7670800Y2108200D03*
X7924800Y2870200D03*
X7924800Y2616200D03*
X7924800Y2362200D03*
X8178800Y2362200D03*
X8178800Y2616200D03*
X8178800Y2870200D03*
X8178800Y3124200D03*
X8178800Y3378200D03*
X8178800Y3632200D03*
X8178800Y3886200D03*
X8178800Y4140200D03*
X8178800Y4394200D03*
X8178800Y4648200D03*
X8178800Y4902200D03*
X8686800Y2362200D03*
X9194800Y2362200D03*
X9702800Y2362200D03*
X10210800Y2362200D03*
X10718800Y2362200D03*
X6908800Y2108200D03*
X6400800Y2108200D03*
X5892800Y2108200D03*
X5384800Y2108200D03*
X5130800Y2362200D03*
X4876800Y2616200D03*
X4876800Y2870200D03*
X1041400Y5562600D03*
X1574800Y5562600D03*
X2082800Y8204200D03*
X2590800Y8204200D03*
X3098800Y8204200D03*
X3606800Y8204200D03*
X4114800Y8204200D03*
X7924800Y7442200D03*
X7416800Y7442200D03*
X5892800Y7442200D03*
X5892800Y6934200D03*
X6400800Y6934200D03*
X6908800Y6934200D03*
X6908800Y7442200D03*
X7162800Y7188200D03*
X7670800Y7188200D03*
X5638800Y7188200D03*
X5638800Y7696200D03*
X5130800Y7696200D03*
X5384800Y7442200D03*
X5130800Y7188200D03*
X5130800Y1727200D03*
X8051800Y1727200D03*
X8636000Y2057400D03*
X3708400Y2743200D03*
X3708400Y2362200D03*
X4445000Y787400D03*
X4749800Y787400D03*
X5003800Y787400D03*
X5257800Y787400D03*
X5511800Y787400D03*
X5765800Y787400D03*
X6019800Y787400D03*
X6273800Y787400D03*
X6527800Y787400D03*
X6781800Y787400D03*
X7289800Y787400D03*
X7543800Y787400D03*
X7797800Y787400D03*
X8051800Y787400D03*
X8305800Y787400D03*
X8559800Y787400D03*
X8813800Y787400D03*
X9067800Y787400D03*
X9321800Y787400D03*
X9829800Y1003300D03*
X3708400Y1981200D03*
X3708400Y1600200D03*
X3098800Y1600200D03*
X3098800Y1854200D03*
X3352800Y1854200D03*
X3352800Y1600200D03*
X3352800Y1346200D03*
X3606800Y1346200D03*
X3581400Y1778000D03*
X3556000Y2209800D03*
X3556000Y2590800D03*
X3225800Y2311400D03*
X3225800Y2692400D03*
X3124200Y2971800D03*
X3606800Y1092200D03*
X3835400Y1092200D03*
X3860800Y838200D03*
X4089400Y838200D03*
X7061200Y787400D03*
X10718800Y7188200D03*
X9067800Y1016000D03*
X5260000Y5660000D03*
X8763000Y1041400D03*
X9372600Y1041400D03*
X6299200Y7391400D03*
X6045200Y6375400D03*
X3780000Y3810000D03*
X2692400Y2590800D03*
D24*
X2438400Y7518400D03*
X609600Y990600D03*
X12268200Y8991600D03*
D25*
X1600200Y4826000D03*
X4343400Y7391400D03*
X3632200Y7391400D03*
X5270000Y6020000D03*
X6680200Y2667000D03*
X1930400Y2489200D03*
X5765800Y5960000D03*
X4880000Y4020000D03*
D24*
X2971800Y584200D03*
X2463800Y584200D03*
X1955800Y584200D03*
X1447800Y584200D03*
D25*
X3120000Y3910000D03*
X2790000Y3890000D03*
X2108200Y5207000D03*
D24*
X7772400Y8534400D03*
D25*
X5250000Y6360000D03*
D24*
X6273800Y8534400D03*
D25*
X5260000Y6730000D03*
X2159000Y5943600D03*
X2710000Y5900000D03*
D24*
X11407140Y8450580D03*
D25*
X4830000Y6760000D03*
X4470000Y6740000D03*
D24*
X10355580Y8389620D03*
D25*
X3760000Y3430000D03*
X4140000Y3880000D03*
D26*
X7051000Y6776800D02*
X7071400Y6756400D01*
X4902200Y8920400D02*
X5014000Y9032200D01*
X11861800Y1092200D02*
X10236200Y1092200D01*
X4512800Y4204999D02*
X4512800Y3716800D01*
X3352800Y8966200D02*
X3352800Y8536800D01*
X4622800Y3606398D02*
X4724199Y3504999D01*
X3215600Y2489200D02*
X3342640Y2489200D01*
X1574800Y5552400D02*
X1051600Y5552400D01*
D27*
X5212800Y5604999D02*
X5213839Y5604999D01*
D26*
X1178600Y2072600D02*
X1397000Y1854200D01*
X7711400Y3327400D02*
X7711400Y2844800D01*
X8610600Y9017000D02*
X9169400Y9017000D01*
X5283200Y2032000D02*
X6858000Y2032000D01*
D27*
X5212800Y5612800D02*
X5260000Y5660000D01*
D26*
X4861602Y8168598D02*
X4902200Y8128000D01*
X9550400Y7391400D02*
X7051000Y7391400D01*
X6674000Y5744200D02*
X6674000Y6435200D01*
X6705600Y6045200D02*
X6715800Y6055400D01*
X6995200Y6847800D02*
X6908800Y6934200D01*
X7804000Y4314200D02*
X8098800Y4314200D01*
D27*
X4162800Y5254999D02*
X4512800Y5254999D01*
D26*
X7711400Y3327400D02*
X7711400Y4221600D01*
D27*
X3812800Y4904999D02*
X4162800Y4904999D01*
D26*
X6902600Y5744198D02*
X6902600Y5848200D01*
X7931000Y4095600D02*
X7924800Y4089400D01*
X11861800Y6959600D02*
X11430000Y7391400D01*
D27*
X3462800Y4554999D02*
X3812800Y4554999D01*
D26*
X7051000Y6812200D02*
X6995200Y6756400D01*
X5118100Y2197100D02*
X5283200Y2032000D01*
X7051000Y7391400D02*
X7051000Y6812200D01*
X6908800Y2108200D02*
X7152600Y2108200D01*
X1397000Y1854200D02*
X2590800Y1854200D01*
X3429000Y8460600D02*
X4318000Y8460600D01*
X4785574Y1879814D02*
X4800814Y1879814D01*
D27*
X3462800Y5954999D02*
X3812800Y5954999D01*
D26*
X9169400Y9017000D02*
X9550400Y8636000D01*
D27*
X4512800Y4554999D02*
X4512800Y4204999D01*
D26*
X4876800Y2616200D02*
X4823600Y2616200D01*
X1056640Y2489200D02*
X1041400Y2473960D01*
X11430000Y7391400D02*
X9550400Y7391400D01*
X4318000Y8460600D02*
X4569600Y8460600D01*
D27*
X3462800Y5254999D02*
X3812800Y5254999D01*
D26*
X4823600Y2616200D02*
X4798200Y2641600D01*
D27*
X4512800Y4904999D02*
X4512800Y5254999D01*
D26*
X12336800Y3149800D02*
X12336800Y1567200D01*
D27*
X3462800Y5604999D02*
X3812800Y5604999D01*
D28*
X2412800Y6654999D02*
X2194361Y6654999D01*
X4724199Y3504999D02*
X4862800Y3504999D01*
D27*
X3462800Y5254999D02*
X3462800Y5604999D01*
D26*
X9550400Y8636000D02*
X9550400Y7391400D01*
D27*
X4162800Y5604999D02*
X4512800Y5604999D01*
D26*
X7711400Y2844800D02*
X7533600Y2667000D01*
X4876800Y2616200D02*
X4876800Y2438400D01*
D27*
X3462800Y4554999D02*
X3462800Y4904999D01*
D26*
X1600200Y8333600D02*
X1524000Y8257400D01*
X8098800Y4314200D02*
X8178800Y4394200D01*
X3342640Y2489200D02*
X3352800Y2499360D01*
X11861800Y7874000D02*
X11861800Y7823200D01*
D27*
X4162800Y5954999D02*
X4512800Y5954999D01*
X4862800Y4554999D02*
X4512800Y4554999D01*
X3812800Y5604999D02*
X4162800Y5604999D01*
D26*
X3962400Y482600D02*
X3606800Y838200D01*
D27*
X3812800Y4554999D02*
X4162800Y4554999D01*
D26*
X10236200Y1092200D02*
X9626600Y482600D01*
X11861800Y6349800D02*
X11861800Y6959600D01*
X4569600Y8460600D02*
X4902200Y8128000D01*
X2540000Y8460600D02*
X1727200Y8460600D01*
X7711400Y4221600D02*
X7804000Y4314200D01*
X7931000Y4314198D02*
X7931000Y4464200D01*
X9626600Y482600D02*
X3962400Y482600D01*
X1178600Y2489200D02*
X1178600Y2072600D01*
D27*
X4512800Y5604999D02*
X4512800Y5954999D01*
D26*
X5014000Y9032200D02*
X5511800Y9032200D01*
D27*
X4162800Y4554999D02*
X4512800Y4554999D01*
D26*
X4512800Y3716800D02*
X4622800Y3606800D01*
X1727200Y8460600D02*
X1524000Y8257400D01*
X6995200Y6756400D02*
X6995200Y6847800D01*
X4876800Y2438400D02*
X5118100Y2197100D01*
X4622800Y3606800D02*
X4622800Y3606398D01*
X4800814Y1879814D02*
X5118100Y2197100D01*
X1051600Y5552400D02*
X1041400Y5562600D01*
X2590800Y1854200D02*
X2946400Y1854200D01*
X4724199Y2870401D02*
X4724199Y3504999D01*
D28*
X2194361Y6654999D02*
X2184400Y6664960D01*
D26*
X11861800Y7823200D02*
X11430000Y7391400D01*
X7931000Y4314198D02*
X7931000Y4095600D01*
D27*
X5212800Y5604999D02*
X5212800Y5612800D01*
D26*
X3352800Y8536800D02*
X3429000Y8460600D01*
D27*
X4162800Y4904999D02*
X4512800Y4904999D01*
D26*
X6674000Y6435200D02*
X6995200Y6756400D01*
X7533600Y2667000D02*
X7533600Y2062400D01*
X2540000Y8460600D02*
X3429000Y8460600D01*
X12336800Y1567200D02*
X11861800Y1092200D01*
D27*
X3462800Y4904999D02*
X3812800Y4904999D01*
D26*
X6902600Y5848200D02*
X6705600Y6045200D01*
X1178600Y2489200D02*
X1056640Y2489200D01*
D27*
X3812800Y5254999D02*
X4162800Y5254999D01*
X5212800Y5604999D02*
X5212800Y5607600D01*
X3812800Y5954999D02*
X4162800Y5954999D01*
D26*
X4902200Y8128000D02*
X4902200Y8920400D01*
D29*
X10835600Y1600200D02*
X10845800Y1610400D01*
X11186200Y1610400D02*
X10845800Y1610400D01*
X11386800Y1811000D02*
X11186200Y1610400D01*
X10302200Y1600200D02*
X10835600Y1600200D01*
X11386800Y3149800D02*
X11386800Y1811000D01*
X4917480Y1257260D02*
X4503032Y1257260D01*
X4163060Y2296200D02*
X4163060Y1597232D01*
X4163060Y1597232D02*
X4333026Y1427266D01*
X4503032Y1257260D02*
X4333026Y1427266D01*
D27*
X5562800Y6654999D02*
X5967202Y6654999D01*
X5967202Y6654999D02*
X6045200Y6577001D01*
X6045200Y6577001D02*
X6045200Y6375400D01*
X2590800Y2489200D02*
X2692400Y2590800D01*
X3812800Y3842800D02*
X3780000Y3810000D01*
X2575600Y2489200D02*
X2590800Y2489200D01*
X3812800Y3854999D02*
X3812800Y3842800D01*
D26*
X2235200Y6304999D02*
X1721401Y6304999D01*
X1721401Y6304999D02*
X1524000Y6502400D01*
D29*
X2412800Y6304999D02*
X2235200Y6304999D01*
D26*
X1524000Y6502400D02*
X1524000Y7287400D01*
D30*
X609600Y990600D02*
X609600Y924600D01*
D31*
X2512200Y7518400D02*
X2540000Y7490600D01*
D30*
X609600Y924600D02*
X797600Y736600D01*
D31*
X2438400Y7518400D02*
X2512200Y7518400D01*
X2762800Y6654999D02*
X2762800Y7267800D01*
X2762800Y6304999D02*
X2762800Y6654999D01*
X2762800Y7267800D02*
X2540000Y7490600D01*
D28*
X2412800Y4904999D02*
X1582201Y4904999D01*
X6893600Y2667000D02*
X6680200Y2667000D01*
D32*
X5212800Y5962800D02*
X5270000Y6020000D01*
D28*
X2158799Y3504999D02*
X1818600Y3164800D01*
X3533000Y7490600D02*
X3632200Y7391400D01*
X3112800Y6654999D02*
X3112800Y7174400D01*
D32*
X5212800Y5954999D02*
X5212800Y5962800D01*
D28*
X1818600Y3164800D02*
X1818600Y2489200D01*
D26*
X12141200Y8684200D02*
X12141200Y8864600D01*
D28*
X5410200Y3200400D02*
X5308600Y3302000D01*
X1818600Y2489200D02*
X1930400Y2489200D01*
X2412800Y3504999D02*
X2158799Y3504999D01*
X5257800Y3810000D02*
X5257800Y4159999D01*
X5257800Y4159999D02*
X5212800Y4204999D01*
X5212800Y4204999D02*
X5220999Y4204999D01*
X5308600Y3302000D02*
X5308600Y3759200D01*
X6045200Y3200400D02*
X5410200Y3200400D01*
X6680200Y2667000D02*
X6578600Y2667000D01*
X1582201Y4904999D02*
X1574800Y4912400D01*
D26*
X3429000Y7490600D02*
X4318000Y7490600D01*
D28*
X5308600Y3759200D02*
X5257800Y3810000D01*
X6578600Y2667000D02*
X6045200Y3200400D01*
X3112800Y7174400D02*
X3429000Y7490600D01*
D26*
X12141200Y8864600D02*
X12268200Y8991600D01*
D28*
X4343400Y7528598D02*
X4343400Y7391400D01*
X1600200Y4887000D02*
X1574800Y4912400D01*
X3429000Y7490600D02*
X3533000Y7490600D01*
X1600200Y4826000D02*
X1600200Y4887000D01*
D27*
X4862800Y4002800D02*
X4880000Y4020000D01*
D32*
X5760799Y5954999D02*
X5765800Y5960000D01*
D27*
X5105400Y3606800D02*
X5105400Y3162300D01*
X4862800Y3854999D02*
X4862800Y3849400D01*
X5654000Y2667000D02*
X5679400Y2641600D01*
X4862800Y3849400D02*
X5105400Y3606800D01*
X4862800Y3854999D02*
X4862800Y3897600D01*
X5600700Y2667000D02*
X5654000Y2667000D01*
X5105400Y3162300D02*
X5600700Y2667000D01*
X4862800Y3854999D02*
X4862800Y4002800D01*
D32*
X5562800Y5954999D02*
X5760799Y5954999D01*
D29*
X4162800Y2936460D02*
X4163060Y2936200D01*
X4162800Y2855180D02*
X4163060Y2854920D01*
X4162800Y3504999D02*
X4162800Y2936460D01*
D30*
X1955800Y584200D02*
X2463800Y584200D01*
X1437600Y594400D02*
X1447800Y584200D01*
X2463800Y584200D02*
X2971800Y584200D01*
X1437600Y736600D02*
X1437600Y594400D01*
X1447800Y584200D02*
X1955800Y584200D01*
D32*
X3112800Y3854999D02*
X3112800Y3902800D01*
X3112800Y3902800D02*
X3120000Y3910000D01*
X2762800Y3862800D02*
X2790000Y3890000D01*
X2762800Y3854999D02*
X2762800Y3862800D01*
D27*
X2156199Y5254999D02*
X2108200Y5207000D01*
X2412800Y5254999D02*
X2156199Y5254999D01*
D28*
X7188200Y4826000D02*
X7188200Y4445000D01*
X5562800Y3504999D02*
X5610800Y3552999D01*
X7137400Y4876800D02*
X7188200Y4826000D01*
X6070600Y3757394D02*
X6070600Y4826000D01*
X7188200Y4445000D02*
X7057398Y4314198D01*
X6121400Y4876800D02*
X7137400Y4876800D01*
X7057398Y4314198D02*
X6902600Y4314198D01*
X5610800Y3552999D02*
X5866205Y3552999D01*
X5866205Y3552999D02*
X6070600Y3757394D01*
D26*
X7033260Y4066540D02*
X7033260Y3365540D01*
D28*
X6070600Y4826000D02*
X6121400Y4876800D01*
D26*
X7033260Y3365540D02*
X7071400Y3327400D01*
X6801000Y4298800D02*
X7033260Y4066540D01*
D28*
X5994400Y5130800D02*
X7467600Y5130800D01*
D26*
X7804000Y5744200D02*
X7804000Y6587600D01*
D28*
X5867400Y5003800D02*
X5994400Y5130800D01*
X5867400Y3913406D02*
X5867400Y5003800D01*
X8032600Y5695800D02*
X8032600Y5744198D01*
X5562800Y3854999D02*
X5610800Y3806999D01*
X5760993Y3806999D02*
X5867400Y3913406D01*
X7467600Y5130800D02*
X8032600Y5695800D01*
X5610800Y3806999D02*
X5760993Y3806999D01*
D26*
X7804000Y6587600D02*
X7635200Y6756400D01*
D28*
X5212800Y6304999D02*
X5212800Y6322800D01*
X5212800Y6322800D02*
X5250000Y6360000D01*
D26*
X7772400Y8534400D02*
X7929800Y8377000D01*
X7929800Y8377000D02*
X8610600Y8377000D01*
X8610600Y8377000D02*
X8610600Y8255000D01*
D28*
X7772400Y8534400D02*
X7740400Y8534400D01*
X5212800Y6682800D02*
X5260000Y6730000D01*
D26*
X5511800Y8392200D02*
X5511800Y8356600D01*
X5511800Y8356600D02*
X5435600Y8280400D01*
D28*
X5212800Y6654999D02*
X5212800Y6682800D01*
X6280400Y8534400D02*
X6273800Y8534400D01*
D26*
X6273800Y8534400D02*
X6131600Y8392200D01*
X6131600Y8392200D02*
X5511800Y8392200D01*
D27*
X2170399Y5954999D02*
X2159000Y5943600D01*
X2412800Y5954999D02*
X2170399Y5954999D01*
D28*
X2762800Y5952800D02*
X2710000Y5900000D01*
X2762800Y5954999D02*
X2762800Y5952800D01*
D26*
X11176000Y8681720D02*
X11407140Y8450580D01*
D32*
X4862800Y6727200D02*
X4830000Y6760000D01*
X4862800Y6654999D02*
X4862800Y6727200D01*
D26*
X11176000Y8699500D02*
X11176000Y8681720D01*
X10210800Y8534400D02*
X10355580Y8389620D01*
D32*
X4512800Y6654999D02*
X4512800Y6697200D01*
D26*
X10210800Y8699500D02*
X10210800Y8534400D01*
D32*
X4512800Y6697200D02*
X4470000Y6740000D01*
D29*
X7366000Y1254800D02*
X8295600Y1254800D01*
X9652000Y1610400D02*
X9662200Y1600200D01*
X5557480Y1257260D02*
X7363540Y1257260D01*
X7363540Y1257260D02*
X7366000Y1254800D01*
X9118600Y1610400D02*
X9652000Y1610400D01*
X8651200Y1610400D02*
X9118600Y1610400D01*
X8295600Y1254800D02*
X8651200Y1610400D01*
D28*
X3760000Y3430000D02*
X3760000Y3452199D01*
X3760000Y3452199D02*
X3812800Y3504999D01*
G04 #@! TA.AperFunction,Conductor*
G36*
X5685548Y9199048D02*
G01*
X5699900Y9164400D01*
X5699900Y8871700D01*
X5685548Y8837052D01*
X5650900Y8822700D01*
X5384954Y8822700D01*
X5382739Y8822287D01*
X5382734Y8822287D01*
X5331410Y8812728D01*
X5301821Y8807217D01*
X5206589Y8748516D01*
X5138875Y8659467D01*
X5111300Y8564243D01*
X5111300Y8341710D01*
X5109630Y8329029D01*
X5104365Y8309379D01*
X5104738Y8305114D01*
X5104738Y8305112D01*
X5113198Y8208427D01*
X5114430Y8194343D01*
X5119311Y8183874D01*
X5123073Y8172141D01*
X5125954Y8156669D01*
X5125955Y8156666D01*
X5126783Y8152221D01*
X5155223Y8106081D01*
X5157914Y8101088D01*
X5161122Y8094210D01*
X5163232Y8089686D01*
X5166264Y8086654D01*
X5168721Y8083145D01*
X5168707Y8083135D01*
X5171708Y8079338D01*
X5185484Y8056989D01*
X5189086Y8054250D01*
X5189087Y8054249D01*
X5226438Y8025847D01*
X5231427Y8021491D01*
X5244886Y8008032D01*
X5253001Y8004248D01*
X5261943Y7998848D01*
X5274533Y7989275D01*
X5278872Y7988019D01*
X5278879Y7988015D01*
X5298803Y7982246D01*
X5305882Y7979589D01*
X5345391Y7961166D01*
X5349543Y7959230D01*
X5404427Y7954428D01*
X5460312Y7949538D01*
X5460314Y7949538D01*
X5464579Y7949165D01*
X5468717Y7950274D01*
X5468719Y7950274D01*
X5495787Y7957527D01*
X5505129Y7960030D01*
X5517810Y7961700D01*
X5638646Y7961700D01*
X5640862Y7962113D01*
X5640876Y7962114D01*
X5641932Y7962311D01*
X5642258Y7962242D01*
X5643115Y7962321D01*
X5643140Y7962055D01*
X5678622Y7954543D01*
X5699072Y7923107D01*
X5699900Y7914139D01*
X5699900Y7834400D01*
X5715543Y7755759D01*
X5760090Y7689090D01*
X5826759Y7644543D01*
X5905400Y7628900D01*
X5942940Y7628900D01*
X5977588Y7614548D01*
X5991940Y7579900D01*
X5990006Y7566271D01*
X5980500Y7533443D01*
X5980500Y7264554D01*
X5995983Y7181421D01*
X6054684Y7086189D01*
X6103782Y7048854D01*
X6139107Y7021993D01*
X6143733Y7018475D01*
X6238957Y6990900D01*
X6567846Y6990900D01*
X6570061Y6991313D01*
X6570066Y6991313D01*
X6630828Y7002630D01*
X6650979Y7006383D01*
X6746211Y7065084D01*
X6805184Y7142638D01*
X6811187Y7150532D01*
X6811187Y7150533D01*
X6813925Y7154133D01*
X6841500Y7249357D01*
X6841500Y7518246D01*
X6835932Y7548146D01*
X6826845Y7596934D01*
X6826845Y7596935D01*
X6826017Y7601379D01*
X6823645Y7605228D01*
X6823643Y7605232D01*
X6802258Y7639925D01*
X6796294Y7676950D01*
X6803228Y7692859D01*
X6811039Y7704548D01*
X6845257Y7755759D01*
X6860900Y7834400D01*
X6860900Y9164400D01*
X6875252Y9199047D01*
X6909900Y9213399D01*
X7110900Y9213399D01*
X7145548Y9199047D01*
X7159900Y9164400D01*
X7159900Y7834400D01*
X7175543Y7755759D01*
X7220090Y7689090D01*
X7286759Y7644543D01*
X7365400Y7628900D01*
X8115400Y7628900D01*
X8194041Y7644543D01*
X8260710Y7689090D01*
X8305257Y7755759D01*
X8320900Y7834400D01*
X8320900Y7924067D01*
X8335252Y7958715D01*
X8369900Y7973067D01*
X8383529Y7971133D01*
X8414879Y7962055D01*
X8468557Y7946511D01*
X8492131Y7946511D01*
X8508889Y7943556D01*
X8552862Y7927551D01*
X8668338Y7927551D01*
X8712311Y7943556D01*
X8729069Y7946511D01*
X8737446Y7946511D01*
X8739661Y7946924D01*
X8739666Y7946924D01*
X8790990Y7956483D01*
X8820579Y7961994D01*
X8915811Y8020695D01*
X8976943Y8101088D01*
X8980787Y8106143D01*
X8980787Y8106144D01*
X8983525Y8109744D01*
X9011100Y8204968D01*
X9011100Y8533857D01*
X8995617Y8616990D01*
X8936916Y8712222D01*
X8847867Y8779936D01*
X8752643Y8807511D01*
X8483754Y8807511D01*
X8481539Y8807098D01*
X8481534Y8807098D01*
X8430210Y8797539D01*
X8400621Y8792028D01*
X8396771Y8789655D01*
X8396769Y8789654D01*
X8395610Y8788939D01*
X8394422Y8788748D01*
X8392552Y8788026D01*
X8392399Y8788422D01*
X8358585Y8782976D01*
X8328187Y8804942D01*
X8320900Y8830652D01*
X8320900Y9164399D01*
X8335252Y9199047D01*
X8369900Y9213399D01*
X9568250Y9213399D01*
X9602898Y9199047D01*
X9617250Y9164399D01*
X9616308Y9154841D01*
X9605300Y9099500D01*
X9605300Y8299500D01*
X9620943Y8220859D01*
X9665490Y8154190D01*
X9732159Y8109643D01*
X9810800Y8094000D01*
X9982392Y8094000D01*
X10015057Y8079557D01*
X10015720Y8080371D01*
X10109218Y8004251D01*
X10121675Y7994109D01*
X10248312Y7942816D01*
X10251960Y7942500D01*
X10380783Y7931343D01*
X10384432Y7931027D01*
X10493128Y7954428D01*
X10514421Y7959012D01*
X10518002Y7959783D01*
X10637211Y8026544D01*
X10666628Y8057381D01*
X10694839Y8086954D01*
X10729139Y8102118D01*
X10739854Y8101190D01*
X10754341Y8098308D01*
X10776000Y8094000D01*
X11107993Y8094000D01*
X11138927Y8083000D01*
X11173235Y8055069D01*
X11299872Y8003776D01*
X11303520Y8003460D01*
X11432343Y7992303D01*
X11435992Y7991987D01*
X11524594Y8011062D01*
X11565981Y8019972D01*
X11569562Y8020743D01*
X11675140Y8079870D01*
X11708642Y8085176D01*
X11738832Y8079171D01*
X11741200Y8078700D01*
X12541200Y8078700D01*
X12568532Y8084137D01*
X12605314Y8076820D01*
X12626149Y8045637D01*
X12626846Y8040959D01*
X12628467Y8024755D01*
X12631874Y7990681D01*
X12632065Y7983547D01*
X12631872Y7979367D01*
X12632367Y7976642D01*
X12632368Y7976633D01*
X12634040Y7967440D01*
X12634587Y7963555D01*
X12635774Y7951689D01*
X12636649Y7949082D01*
X12636651Y7949075D01*
X12637113Y7947700D01*
X12638873Y7940866D01*
X12643732Y7914139D01*
X12653838Y7858557D01*
X12654427Y7854228D01*
X12663330Y7756293D01*
X12663362Y7755927D01*
X12672038Y7651825D01*
X12672155Y7645493D01*
X12671872Y7639367D01*
X12673671Y7629472D01*
X12674291Y7624787D01*
X12675111Y7614948D01*
X12676975Y7609076D01*
X12678480Y7603023D01*
X12693670Y7519480D01*
X12694291Y7514783D01*
X12701455Y7428817D01*
X12701455Y7428816D01*
X12711455Y7308817D01*
X12711455Y7308816D01*
X12721455Y7188817D01*
X12721455Y7188816D01*
X12731455Y7068817D01*
X12731455Y7068816D01*
X12743235Y6927463D01*
X12751519Y6819767D01*
X12751529Y6819328D01*
X12751455Y6818816D01*
X12751574Y6817389D01*
X12751574Y6817387D01*
X12753227Y6797554D01*
X12753252Y6797240D01*
X12754029Y6787134D01*
X12742375Y6751488D01*
X12705268Y6734378D01*
X10544748Y6730255D01*
X8569546Y6726486D01*
X8569545Y6726486D01*
X8559800Y6726467D01*
X8559800Y2768600D01*
X10812348Y2768600D01*
X10846996Y2754248D01*
X10860406Y2729159D01*
X10871943Y2671159D01*
X10916490Y2604490D01*
X10983159Y2559943D01*
X10987891Y2559002D01*
X10987893Y2559001D01*
X11040359Y2548565D01*
X11071542Y2527730D01*
X11079800Y2500507D01*
X11079800Y2079473D01*
X11065448Y2044825D01*
X11030800Y2030473D01*
X11017173Y2032407D01*
X11000980Y2037096D01*
X10991166Y2039938D01*
X10991164Y2039938D01*
X10987843Y2040900D01*
X10718954Y2040900D01*
X10716739Y2040487D01*
X10716734Y2040487D01*
X10678029Y2033278D01*
X10635821Y2025417D01*
X10575376Y1988159D01*
X10536037Y1982806D01*
X10477568Y1999737D01*
X10477569Y1999737D01*
X10474243Y2000700D01*
X10145354Y2000700D01*
X10143139Y2000287D01*
X10143134Y2000287D01*
X10091810Y1990728D01*
X10062221Y1985217D01*
X10008731Y1952246D01*
X9971706Y1946283D01*
X9953362Y1954955D01*
X9933068Y1970387D01*
X9933067Y1970388D01*
X9929467Y1973125D01*
X9834243Y2000700D01*
X9505354Y2000700D01*
X9503139Y2000287D01*
X9503134Y2000287D01*
X9422221Y1985217D01*
X9421865Y1987129D01*
X9391533Y1987868D01*
X9381730Y1993659D01*
X9355867Y2013325D01*
X9260643Y2040900D01*
X8991754Y2040900D01*
X8989539Y2040487D01*
X8989534Y2040487D01*
X8950829Y2033278D01*
X8908621Y2025417D01*
X8904768Y2023042D01*
X8819345Y1970387D01*
X8813389Y1966716D01*
X8810652Y1963117D01*
X8810650Y1963115D01*
X8790595Y1936741D01*
X8758199Y1917848D01*
X8751591Y1917400D01*
X8705901Y1917400D01*
X8700419Y1917803D01*
X8696778Y1919053D01*
X8653652Y1917434D01*
X8651814Y1917400D01*
X8624353Y1917400D01*
X8622135Y1916987D01*
X8622125Y1916986D01*
X8620725Y1916725D01*
X8613591Y1915930D01*
X8610291Y1915806D01*
X8587128Y1914937D01*
X8587126Y1914937D01*
X8582608Y1914767D01*
X8566492Y1907844D01*
X8556129Y1904695D01*
X8538881Y1901482D01*
X8522678Y1891494D01*
X8512490Y1885214D01*
X8506120Y1881905D01*
X8480814Y1871033D01*
X8480813Y1871032D01*
X8477635Y1869667D01*
X8474965Y1867474D01*
X8474962Y1867472D01*
X8471100Y1864299D01*
X8470176Y1863540D01*
X8462739Y1856103D01*
X8453802Y1849039D01*
X8441623Y1841531D01*
X8438885Y1837930D01*
X8422858Y1816854D01*
X8418502Y1811866D01*
X8295634Y1688997D01*
X8182789Y1576152D01*
X8148141Y1561800D01*
X7434201Y1561800D01*
X7425258Y1562872D01*
X7424141Y1563318D01*
X7417656Y1563954D01*
X7415719Y1564144D01*
X7415715Y1564144D01*
X7414534Y1564260D01*
X7404018Y1564260D01*
X7392704Y1565584D01*
X7383185Y1567843D01*
X7383184Y1567843D01*
X7378781Y1568888D01*
X7348068Y1564708D01*
X7341460Y1564260D01*
X5927942Y1564260D01*
X5898283Y1574256D01*
X5875399Y1591658D01*
X5855967Y1606434D01*
X5828348Y1627436D01*
X5828347Y1627436D01*
X5824747Y1630174D01*
X5729523Y1657749D01*
X5400634Y1657749D01*
X5398419Y1657336D01*
X5398414Y1657336D01*
X5350882Y1648483D01*
X5317501Y1642266D01*
X5264011Y1609295D01*
X5226986Y1603332D01*
X5208642Y1612004D01*
X5188348Y1627436D01*
X5188347Y1627437D01*
X5184747Y1630174D01*
X5089523Y1657749D01*
X4760634Y1657749D01*
X4758416Y1657336D01*
X4758406Y1657335D01*
X4744470Y1654739D01*
X4707779Y1662503D01*
X4700849Y1668262D01*
X4547742Y1821369D01*
X4491341Y1860060D01*
X4470888Y1891494D01*
X4470060Y1900466D01*
X4470060Y1925723D01*
X4480056Y1955382D01*
X4533247Y2025332D01*
X4533248Y2025333D01*
X4535985Y2028933D01*
X4563560Y2124157D01*
X4563560Y2453046D01*
X4560869Y2467498D01*
X4550786Y2521633D01*
X4548077Y2536179D01*
X4515106Y2589669D01*
X4509143Y2626694D01*
X4517815Y2645038D01*
X4533247Y2665332D01*
X4533248Y2665333D01*
X4535985Y2668933D01*
X4563560Y2764157D01*
X4563560Y3093046D01*
X4561219Y3105620D01*
X4548905Y3171732D01*
X4548077Y3176179D01*
X4489376Y3271411D01*
X4485772Y3274152D01*
X4482735Y3277501D01*
X4484664Y3279250D01*
X4470242Y3304026D01*
X4469800Y3310594D01*
X4469800Y3531846D01*
X4462472Y3571193D01*
X4454711Y3612869D01*
X4454710Y3612871D01*
X4453882Y3617318D01*
X4427615Y3659931D01*
X4421651Y3696956D01*
X4428207Y3712289D01*
X4445249Y3738582D01*
X4446397Y3744051D01*
X4454166Y3781083D01*
X4465126Y3833315D01*
X4476135Y3849424D01*
X4465539Y3869822D01*
X4463163Y3882583D01*
X4447817Y3964978D01*
X4423768Y4003993D01*
X4417804Y4041019D01*
X4424362Y4056356D01*
X4442786Y4084781D01*
X4442787Y4084784D01*
X4445249Y4088582D01*
X4465111Y4183245D01*
X4467729Y4195722D01*
X4467729Y4195724D01*
X4468221Y4198068D01*
X4468300Y4204999D01*
X4447817Y4314978D01*
X4389116Y4410210D01*
X4300067Y4477924D01*
X4295723Y4479182D01*
X4295721Y4479183D01*
X4232811Y4497400D01*
X4192612Y4509041D01*
X4188106Y4508651D01*
X4188104Y4508651D01*
X4085669Y4499779D01*
X4085667Y4499778D01*
X4081159Y4499388D01*
X4077092Y4497400D01*
X4011315Y4465248D01*
X3973884Y4462926D01*
X3960138Y4470266D01*
X3953669Y4475185D01*
X3950067Y4477924D01*
X3945723Y4479182D01*
X3945721Y4479183D01*
X3882811Y4497400D01*
X3842612Y4509041D01*
X3838106Y4508651D01*
X3838104Y4508651D01*
X3735669Y4499779D01*
X3735667Y4499778D01*
X3731159Y4499388D01*
X3727092Y4497400D01*
X3661315Y4465248D01*
X3623884Y4462926D01*
X3610138Y4470266D01*
X3603669Y4475185D01*
X3600067Y4477924D01*
X3595723Y4479182D01*
X3595721Y4479183D01*
X3532811Y4497400D01*
X3492612Y4509041D01*
X3488106Y4508651D01*
X3488104Y4508651D01*
X3471388Y4507203D01*
X3435630Y4518512D01*
X3418342Y4551796D01*
X3418273Y4552598D01*
X3418300Y4554999D01*
X3407676Y4612045D01*
X3398645Y4660533D01*
X3398645Y4660534D01*
X3397817Y4664978D01*
X3373768Y4703993D01*
X3367804Y4741019D01*
X3374362Y4756356D01*
X3392786Y4784781D01*
X3392787Y4784784D01*
X3395249Y4788582D01*
X3411373Y4865429D01*
X3417729Y4895722D01*
X3417729Y4895724D01*
X3418221Y4898068D01*
X3418300Y4904999D01*
X3397817Y5014978D01*
X3373768Y5053993D01*
X3367804Y5091019D01*
X3374362Y5106356D01*
X3392786Y5134781D01*
X3392787Y5134784D01*
X3395249Y5138582D01*
X3409604Y5206997D01*
X3417729Y5245722D01*
X3417729Y5245724D01*
X3418221Y5248068D01*
X3418300Y5254999D01*
X3400152Y5352441D01*
X3398645Y5360533D01*
X3398645Y5360534D01*
X3397817Y5364978D01*
X3395444Y5368828D01*
X3373768Y5403993D01*
X3367804Y5441019D01*
X3374362Y5456356D01*
X3392786Y5484781D01*
X3392787Y5484784D01*
X3395249Y5488582D01*
X3409604Y5556997D01*
X3417729Y5595722D01*
X3417729Y5595724D01*
X3418221Y5598068D01*
X3418300Y5604999D01*
X3400521Y5700458D01*
X3398645Y5710533D01*
X3398645Y5710534D01*
X3397817Y5714978D01*
X3373768Y5753993D01*
X3367804Y5791019D01*
X3374362Y5806356D01*
X3392786Y5834781D01*
X3392787Y5834784D01*
X3395249Y5838582D01*
X3411640Y5916703D01*
X3417729Y5945722D01*
X3417729Y5945724D01*
X3418221Y5948068D01*
X3418285Y5953647D01*
X3433034Y5988128D01*
X3467845Y6002081D01*
X3472604Y6001794D01*
X3485706Y6000359D01*
X3593840Y6029030D01*
X3597504Y6031687D01*
X3610511Y6041119D01*
X3646985Y6049842D01*
X3661789Y6044975D01*
X3693508Y6028569D01*
X3724501Y6012538D01*
X3835706Y6000359D01*
X3943840Y6029030D01*
X3947504Y6031687D01*
X3960511Y6041119D01*
X3996985Y6049842D01*
X4011789Y6044975D01*
X4043508Y6028569D01*
X4074501Y6012538D01*
X4185706Y6000359D01*
X4293840Y6029030D01*
X4297504Y6031687D01*
X4310511Y6041119D01*
X4346985Y6049842D01*
X4361789Y6044975D01*
X4393508Y6028569D01*
X4424501Y6012538D01*
X4428994Y6012046D01*
X4428997Y6012045D01*
X4518759Y6002215D01*
X4551639Y5984176D01*
X4562422Y5952951D01*
X4561849Y5902475D01*
X4572405Y5874167D01*
X4600935Y5797655D01*
X4599107Y5796973D01*
X4603586Y5766977D01*
X4601556Y5760681D01*
X4563118Y5664338D01*
X4561849Y5552475D01*
X4580898Y5501389D01*
X4600935Y5447655D01*
X4599107Y5446973D01*
X4603586Y5416977D01*
X4601556Y5410681D01*
X4563118Y5314338D01*
X4562560Y5265112D01*
X4562340Y5245717D01*
X4561849Y5202475D01*
X4563429Y5198238D01*
X4600935Y5097655D01*
X4599107Y5096973D01*
X4603586Y5066977D01*
X4601556Y5060681D01*
X4563118Y4964338D01*
X4563067Y4959815D01*
X4562012Y4866800D01*
X4561849Y4852475D01*
X4600935Y4747655D01*
X4603935Y4744270D01*
X4672136Y4667318D01*
X4672139Y4667316D01*
X4675136Y4663934D01*
X4774501Y4612538D01*
X4778994Y4612046D01*
X4778997Y4612045D01*
X4868759Y4602215D01*
X4901639Y4584176D01*
X4912422Y4552951D01*
X4912198Y4533211D01*
X4911903Y4507203D01*
X4911849Y4502475D01*
X4926596Y4462926D01*
X4950935Y4397655D01*
X4949107Y4396973D01*
X4953586Y4366977D01*
X4951555Y4360680D01*
X4949101Y4354529D01*
X4922931Y4327665D01*
X4907818Y4323869D01*
X4870646Y4320650D01*
X4802869Y4314780D01*
X4802867Y4314779D01*
X4798359Y4314389D01*
X4697853Y4265261D01*
X4694776Y4261944D01*
X4639736Y4202609D01*
X4621773Y4183245D01*
X4580318Y4079339D01*
X4579049Y3967476D01*
X4578234Y3967485D01*
X4576091Y3946854D01*
X4563118Y3914338D01*
X4563067Y3909817D01*
X4562708Y3878237D01*
X4551435Y3851872D01*
X4554106Y3850047D01*
X4562078Y3822697D01*
X4561849Y3802475D01*
X4600935Y3697655D01*
X4603935Y3694270D01*
X4672136Y3617318D01*
X4672139Y3617316D01*
X4675136Y3613934D01*
X4774501Y3562538D01*
X4778995Y3562046D01*
X4778998Y3562045D01*
X4779569Y3561983D01*
X4780187Y3561687D01*
X4783329Y3560738D01*
X4783182Y3560250D01*
X4808886Y3547922D01*
X4839748Y3517060D01*
X4854100Y3482412D01*
X4854100Y3192260D01*
X4853158Y3182701D01*
X4850042Y3167036D01*
X4850042Y3167031D01*
X4849101Y3162300D01*
X4850042Y3157569D01*
X4854100Y3137168D01*
X4854099Y3137168D01*
X4854100Y3137164D01*
X4868610Y3064218D01*
X4885270Y3039284D01*
X4886852Y3036917D01*
X4909928Y3002380D01*
X4909932Y3002376D01*
X4924169Y2981069D01*
X4928180Y2978389D01*
X4941465Y2969512D01*
X4948890Y2963418D01*
X5258348Y2653960D01*
X5272700Y2619312D01*
X5272700Y2439060D01*
X5273031Y2437073D01*
X5273031Y2437070D01*
X5285837Y2360134D01*
X5286732Y2354757D01*
X5341775Y2252744D01*
X5344750Y2249994D01*
X5411984Y2187844D01*
X5426895Y2174060D01*
X5430598Y2172423D01*
X5529654Y2128630D01*
X5529656Y2128629D01*
X5532912Y2127190D01*
X5581120Y2121100D01*
X5945740Y2121100D01*
X5947727Y2121431D01*
X5947730Y2121431D01*
X6026048Y2134467D01*
X6030043Y2135132D01*
X6132056Y2190175D01*
X6187352Y2249994D01*
X6207991Y2272321D01*
X6210740Y2275295D01*
X6238598Y2338308D01*
X6256170Y2378054D01*
X6256171Y2378056D01*
X6257610Y2381312D01*
X6263700Y2429520D01*
X6263700Y2490252D01*
X6278052Y2524900D01*
X6312700Y2539252D01*
X6347348Y2524900D01*
X6370733Y2501515D01*
X6376827Y2494090D01*
X6388388Y2476788D01*
X6453239Y2433456D01*
X6475658Y2418476D01*
X6485126Y2416593D01*
X6517277Y2394246D01*
X6523072Y2384846D01*
X6537284Y2361789D01*
X6540886Y2359050D01*
X6540887Y2359049D01*
X6565039Y2340684D01*
X6626333Y2294075D01*
X6721557Y2266500D01*
X7050446Y2266500D01*
X7052661Y2266913D01*
X7052666Y2266913D01*
X7103990Y2276472D01*
X7133579Y2281983D01*
X7228811Y2340684D01*
X7296525Y2429733D01*
X7324100Y2524957D01*
X7324100Y2793846D01*
X7323485Y2797151D01*
X7309445Y2872534D01*
X7309445Y2872535D01*
X7308617Y2876979D01*
X7305874Y2881429D01*
X7305775Y2882044D01*
X7304615Y2885050D01*
X7305251Y2885296D01*
X7299910Y2918455D01*
X7321875Y2948853D01*
X7345505Y2963418D01*
X7406611Y3001084D01*
X7463541Y3075951D01*
X7471587Y3086532D01*
X7471587Y3086533D01*
X7474325Y3090133D01*
X7501900Y3185357D01*
X7501900Y3454246D01*
X7499279Y3468322D01*
X7490163Y3517265D01*
X7486417Y3537379D01*
X7427716Y3632611D01*
X7380101Y3668818D01*
X7361208Y3701214D01*
X7360760Y3707822D01*
X7360760Y4050686D01*
X7360946Y4054957D01*
X7361068Y4056356D01*
X7364495Y4095520D01*
X7363385Y4099661D01*
X7363385Y4099666D01*
X7353805Y4135420D01*
X7352879Y4139593D01*
X7350815Y4151299D01*
X7345708Y4180262D01*
X7343564Y4183976D01*
X7342802Y4186069D01*
X7344438Y4223536D01*
X7361625Y4243571D01*
X7374399Y4252106D01*
X7374401Y4252108D01*
X7378412Y4254788D01*
X7402930Y4291481D01*
X7416908Y4312401D01*
X7434043Y4338045D01*
X7434044Y4338046D01*
X7436724Y4342058D01*
X7457200Y4445000D01*
X7456259Y4449731D01*
X7456259Y4449736D01*
X7453142Y4465406D01*
X7452200Y4474965D01*
X7452200Y4796035D01*
X7453142Y4805594D01*
X7457201Y4826000D01*
X7458883Y4825665D01*
X7470611Y4853978D01*
X7495700Y4867388D01*
X7565805Y4881333D01*
X7565809Y4881334D01*
X7570542Y4882276D01*
X7574554Y4884956D01*
X7574555Y4884957D01*
X7588355Y4894178D01*
X7636502Y4926349D01*
X7653801Y4937908D01*
X7657812Y4940588D01*
X7669371Y4957887D01*
X7675465Y4965312D01*
X7814501Y5104348D01*
X7849149Y5118700D01*
X8174000Y5118700D01*
X8252641Y5134343D01*
X8319310Y5178890D01*
X8363857Y5245559D01*
X8379500Y5324200D01*
X8379500Y6164200D01*
X8363857Y6242841D01*
X8319310Y6309510D01*
X8252641Y6354057D01*
X8210998Y6362341D01*
X8176360Y6369231D01*
X8176356Y6369231D01*
X8174000Y6369700D01*
X8174090Y6370151D01*
X8142616Y6386982D01*
X8131500Y6418060D01*
X8131500Y6571746D01*
X8131686Y6576017D01*
X8134861Y6612310D01*
X8135235Y6616580D01*
X8134125Y6620721D01*
X8134125Y6620726D01*
X8124545Y6656480D01*
X8123619Y6660653D01*
X8122442Y6667331D01*
X8116448Y6701322D01*
X8112359Y6708405D01*
X8107465Y6720221D01*
X8106458Y6723978D01*
X8105348Y6728121D01*
X8102891Y6731631D01*
X8102889Y6731634D01*
X8084264Y6758232D01*
X8081652Y6761962D01*
X8079359Y6765563D01*
X8072264Y6777853D01*
X8065700Y6802351D01*
X8065700Y6883246D01*
X8061407Y6906300D01*
X8053778Y6947257D01*
X8050217Y6966379D01*
X7991516Y7061611D01*
X7928065Y7109860D01*
X7906068Y7126587D01*
X7906067Y7126587D01*
X7902467Y7129325D01*
X7807243Y7156900D01*
X7478354Y7156900D01*
X7476139Y7156487D01*
X7476134Y7156487D01*
X7437520Y7149295D01*
X7395221Y7141417D01*
X7299989Y7082716D01*
X7265339Y7037148D01*
X7237996Y7001190D01*
X7232275Y6993667D01*
X7204700Y6898443D01*
X7204700Y6629554D01*
X7205113Y6627339D01*
X7205113Y6627334D01*
X7214043Y6579390D01*
X7220183Y6546421D01*
X7278884Y6451189D01*
X7327963Y6413869D01*
X7346855Y6381473D01*
X7337307Y6345205D01*
X7325527Y6334123D01*
X7288690Y6309510D01*
X7244143Y6242841D01*
X7228500Y6164200D01*
X7228500Y5443800D01*
X7214148Y5409152D01*
X7179500Y5394800D01*
X6024365Y5394800D01*
X6014806Y5395742D01*
X5999136Y5398859D01*
X5999131Y5398859D01*
X5994400Y5399800D01*
X5891458Y5379324D01*
X5888231Y5377168D01*
X5851211Y5377166D01*
X5828248Y5396725D01*
X5823768Y5403993D01*
X5817804Y5441019D01*
X5824362Y5456356D01*
X5842786Y5484781D01*
X5842787Y5484784D01*
X5845249Y5488582D01*
X5859604Y5556997D01*
X5867729Y5595722D01*
X5867729Y5595724D01*
X5868221Y5598068D01*
X5868300Y5604999D01*
X5867200Y5610907D01*
X5863842Y5628938D01*
X5871608Y5665628D01*
X5890995Y5682172D01*
X5892470Y5682872D01*
X5896840Y5684031D01*
X5900499Y5686685D01*
X5900502Y5686686D01*
X5983740Y5747052D01*
X5983741Y5747053D01*
X5987402Y5749708D01*
X6048249Y5843583D01*
X6069595Y5945319D01*
X6070729Y5950723D01*
X6070729Y5950725D01*
X6071221Y5953069D01*
X6071300Y5960000D01*
X6069283Y5970834D01*
X6063783Y6000359D01*
X6059814Y6021670D01*
X6067579Y6058359D01*
X6095428Y6078004D01*
X6171867Y6098271D01*
X6171870Y6098272D01*
X6176240Y6099431D01*
X6219853Y6131060D01*
X6263140Y6162452D01*
X6263141Y6162453D01*
X6266802Y6165108D01*
X6327649Y6258983D01*
X6344456Y6339084D01*
X6350129Y6366123D01*
X6350129Y6366125D01*
X6350621Y6368469D01*
X6350700Y6375400D01*
X6330217Y6485379D01*
X6304829Y6526567D01*
X6298483Y6561838D01*
X6300558Y6572268D01*
X6300558Y6572270D01*
X6301499Y6577001D01*
X6296500Y6602133D01*
X6296501Y6602133D01*
X6296500Y6602137D01*
X6290534Y6632128D01*
X6281990Y6675083D01*
X6279311Y6679092D01*
X6279310Y6679095D01*
X6256866Y6712683D01*
X6256865Y6712684D01*
X6247644Y6726486D01*
X6240670Y6736923D01*
X6240667Y6736928D01*
X6229113Y6754219D01*
X6229111Y6754221D01*
X6226431Y6758232D01*
X6209136Y6769789D01*
X6201710Y6775883D01*
X6166084Y6811509D01*
X6159990Y6818934D01*
X6151113Y6832219D01*
X6148433Y6836230D01*
X6127126Y6850467D01*
X6127124Y6850469D01*
X6093385Y6873012D01*
X6065284Y6891789D01*
X5992338Y6906299D01*
X5992334Y6906300D01*
X5992334Y6906299D01*
X5971933Y6910357D01*
X5967202Y6911298D01*
X5962471Y6910357D01*
X5962466Y6910357D01*
X5946801Y6907241D01*
X5937242Y6906299D01*
X5745019Y6906299D01*
X5715360Y6916295D01*
X5709444Y6920794D01*
X5700067Y6927924D01*
X5695723Y6929182D01*
X5695721Y6929183D01*
X5637318Y6946095D01*
X5592612Y6959041D01*
X5588106Y6958651D01*
X5588104Y6958651D01*
X5487888Y6949971D01*
X5454001Y6959784D01*
X5400869Y7000186D01*
X5397267Y7002925D01*
X5392923Y7004183D01*
X5392921Y7004184D01*
X5323146Y7024389D01*
X5289812Y7034042D01*
X5285306Y7033652D01*
X5285304Y7033652D01*
X5182869Y7024780D01*
X5182867Y7024779D01*
X5178359Y7024389D01*
X5133845Y7002630D01*
X5083833Y6978184D01*
X5046402Y6975862D01*
X5032656Y6983202D01*
X5029949Y6985261D01*
X4967267Y7032925D01*
X4962923Y7034183D01*
X4962921Y7034184D01*
X4893146Y7054389D01*
X4859812Y7064042D01*
X4855306Y7063652D01*
X4855304Y7063652D01*
X4819595Y7060559D01*
X4783838Y7071867D01*
X4766550Y7105148D01*
X4779386Y7142638D01*
X4785540Y7149295D01*
X4828308Y7246033D01*
X4830970Y7252054D01*
X4830971Y7252056D01*
X4832410Y7255312D01*
X4838500Y7303520D01*
X4838500Y7668140D01*
X4831218Y7711893D01*
X4825133Y7748448D01*
X4824468Y7752443D01*
X4822498Y7756095D01*
X4803779Y7790787D01*
X4769425Y7854456D01*
X4708913Y7910393D01*
X4687279Y7930391D01*
X4684305Y7933140D01*
X4654061Y7946511D01*
X4581546Y7978570D01*
X4581544Y7978571D01*
X4578288Y7980010D01*
X4530080Y7986100D01*
X4115460Y7986100D01*
X4113473Y7985769D01*
X4113470Y7985769D01*
X4070220Y7978570D01*
X4031157Y7972068D01*
X3929144Y7917025D01*
X3926395Y7914051D01*
X3908769Y7894983D01*
X3874711Y7879282D01*
X3839527Y7892262D01*
X3795305Y7933140D01*
X3765061Y7946511D01*
X3692546Y7978570D01*
X3692544Y7978571D01*
X3689288Y7980010D01*
X3641080Y7986100D01*
X3226460Y7986100D01*
X3224473Y7985769D01*
X3224470Y7985769D01*
X3181220Y7978570D01*
X3142157Y7972068D01*
X3040144Y7917025D01*
X3037395Y7914051D01*
X3019769Y7894983D01*
X2985711Y7879282D01*
X2950527Y7892262D01*
X2906305Y7933140D01*
X2876061Y7946511D01*
X2803546Y7978570D01*
X2803544Y7978571D01*
X2800288Y7980010D01*
X2752080Y7986100D01*
X2337460Y7986100D01*
X2335473Y7985769D01*
X2335470Y7985769D01*
X2292220Y7978570D01*
X2253157Y7972068D01*
X2151144Y7917025D01*
X2072460Y7831905D01*
X2025590Y7725888D01*
X2025143Y7722354D01*
X2025143Y7722352D01*
X2024913Y7720530D01*
X2023020Y7711900D01*
X2020694Y7704547D01*
X1996563Y7675841D01*
X1959200Y7672605D01*
X1940715Y7683342D01*
X1893279Y7727191D01*
X1890305Y7729940D01*
X1831144Y7756095D01*
X1787546Y7775370D01*
X1787544Y7775371D01*
X1784288Y7776810D01*
X1736080Y7782900D01*
X1321460Y7782900D01*
X1319473Y7782569D01*
X1319470Y7782569D01*
X1276220Y7775370D01*
X1237157Y7768868D01*
X1135144Y7713825D01*
X1056460Y7628705D01*
X1054823Y7625002D01*
X1012816Y7529984D01*
X1009590Y7522688D01*
X1003500Y7474480D01*
X1003500Y7109860D01*
X1003831Y7107873D01*
X1003831Y7107870D01*
X1016867Y7029552D01*
X1017532Y7025557D01*
X1072575Y6923544D01*
X1091231Y6906299D01*
X1137044Y6863950D01*
X1157695Y6844860D01*
X1161399Y6843223D01*
X1161398Y6843223D01*
X1167313Y6840608D01*
X1193199Y6813472D01*
X1196500Y6795792D01*
X1196500Y6518254D01*
X1196314Y6513983D01*
X1193393Y6480594D01*
X1192765Y6473421D01*
X1193874Y6469283D01*
X1193874Y6469281D01*
X1203453Y6433533D01*
X1204379Y6429359D01*
X1210807Y6392900D01*
X1210808Y6392897D01*
X1211552Y6388678D01*
X1213696Y6384965D01*
X1215639Y6381600D01*
X1220536Y6369777D01*
X1221542Y6366020D01*
X1221543Y6366017D01*
X1222652Y6361879D01*
X1225110Y6358369D01*
X1246343Y6328044D01*
X1248639Y6324440D01*
X1266534Y6293447D01*
X1269290Y6288673D01*
X1299395Y6263412D01*
X1300475Y6262506D01*
X1303627Y6259618D01*
X1478619Y6084626D01*
X1481506Y6081475D01*
X1507674Y6050289D01*
X1511384Y6048147D01*
X1511385Y6048146D01*
X1543441Y6029638D01*
X1547045Y6027342D01*
X1548589Y6026261D01*
X1580880Y6003651D01*
X1585018Y6002542D01*
X1585021Y6002541D01*
X1588778Y6001535D01*
X1600600Y5996638D01*
X1607679Y5992551D01*
X1611898Y5991807D01*
X1611901Y5991806D01*
X1648360Y5985378D01*
X1652529Y5984453D01*
X1669205Y5979985D01*
X1688282Y5974873D01*
X1688284Y5974873D01*
X1692422Y5973764D01*
X1696687Y5974137D01*
X1696689Y5974137D01*
X1732984Y5977313D01*
X1737255Y5977499D01*
X1809470Y5977499D01*
X1844118Y5963147D01*
X1858467Y5927943D01*
X1858213Y5905508D01*
X1858049Y5891076D01*
X1897135Y5786256D01*
X1900135Y5782871D01*
X1968336Y5705919D01*
X1968339Y5705917D01*
X1971336Y5702535D01*
X2070701Y5651139D01*
X2075198Y5650647D01*
X2077581Y5649927D01*
X2106603Y5626174D01*
X2112416Y5602462D01*
X2112366Y5598068D01*
X2111901Y5556997D01*
X2111857Y5553160D01*
X2097113Y5518677D01*
X2067088Y5504899D01*
X2056034Y5503942D01*
X2031069Y5501780D01*
X2031067Y5501779D01*
X2026559Y5501389D01*
X1926053Y5452261D01*
X1849973Y5370245D01*
X1848298Y5366045D01*
X1848296Y5366043D01*
X1842870Y5352441D01*
X1816701Y5325577D01*
X1783729Y5323531D01*
X1716843Y5342900D01*
X1447954Y5342900D01*
X1445739Y5342487D01*
X1445734Y5342487D01*
X1394410Y5332928D01*
X1364821Y5327417D01*
X1269589Y5268716D01*
X1201875Y5179667D01*
X1174300Y5084443D01*
X1174300Y4755554D01*
X1174713Y4753339D01*
X1174713Y4753334D01*
X1183903Y4703993D01*
X1189783Y4672421D01*
X1248484Y4577189D01*
X1307874Y4532028D01*
X1325649Y4518512D01*
X1337533Y4509475D01*
X1432757Y4481900D01*
X1701646Y4481900D01*
X1703861Y4482313D01*
X1703866Y4482313D01*
X1755190Y4491872D01*
X1784779Y4497383D01*
X1880011Y4556084D01*
X1929874Y4621658D01*
X1962270Y4640551D01*
X1968878Y4640999D01*
X2063861Y4640999D01*
X2098509Y4626647D01*
X2112858Y4591443D01*
X2111903Y4507203D01*
X2111849Y4502475D01*
X2126596Y4462926D01*
X2150935Y4397655D01*
X2149107Y4396973D01*
X2153586Y4366977D01*
X2151556Y4360681D01*
X2113118Y4264338D01*
X2112848Y4240549D01*
X2112174Y4181083D01*
X2111849Y4152475D01*
X2113429Y4148238D01*
X2150935Y4047655D01*
X2149107Y4046973D01*
X2153586Y4016977D01*
X2151556Y4010681D01*
X2113118Y3914338D01*
X2112389Y3850047D01*
X2111870Y3804323D01*
X2097126Y3769840D01*
X2072433Y3756821D01*
X2060593Y3754466D01*
X2060588Y3754464D01*
X2055857Y3753523D01*
X2051846Y3750843D01*
X2051844Y3750842D01*
X2017146Y3727657D01*
X1991035Y3710210D01*
X1968587Y3695211D01*
X1962807Y3686561D01*
X1957028Y3677912D01*
X1950934Y3670487D01*
X1653112Y3372665D01*
X1645686Y3366571D01*
X1628388Y3355012D01*
X1619626Y3341899D01*
X1614149Y3333702D01*
X1573422Y3272749D01*
X1570076Y3267742D01*
X1549600Y3164800D01*
X1550541Y3160069D01*
X1550541Y3160064D01*
X1553658Y3144394D01*
X1554600Y3134835D01*
X1554600Y2886767D01*
X1540248Y2852119D01*
X1531311Y2845055D01*
X1483389Y2815516D01*
X1415675Y2726467D01*
X1388100Y2631243D01*
X1388100Y2362354D01*
X1388513Y2360139D01*
X1388513Y2360134D01*
X1398072Y2308810D01*
X1403583Y2279221D01*
X1462284Y2183989D01*
X1518010Y2141614D01*
X1544988Y2121100D01*
X1551333Y2116275D01*
X1646557Y2088700D01*
X1975446Y2088700D01*
X1977661Y2089113D01*
X1977666Y2089113D01*
X2028990Y2098672D01*
X2058579Y2104183D01*
X2153811Y2162884D01*
X2158308Y2168798D01*
X2190704Y2187691D01*
X2226971Y2178143D01*
X2302339Y2120833D01*
X2308333Y2116275D01*
X2403557Y2088700D01*
X2732446Y2088700D01*
X2734661Y2089113D01*
X2734666Y2089113D01*
X2785990Y2098672D01*
X2815579Y2104183D01*
X2910811Y2162884D01*
X2978525Y2251933D01*
X3006100Y2347157D01*
X3006100Y2616046D01*
X3003632Y2629302D01*
X2991445Y2694732D01*
X2990617Y2699179D01*
X2931916Y2794411D01*
X2848886Y2857548D01*
X2846468Y2859387D01*
X2846467Y2859387D01*
X2842867Y2862125D01*
X2747643Y2889700D01*
X2744183Y2889700D01*
X2740759Y2890186D01*
X2740813Y2890566D01*
X2733291Y2891634D01*
X2722212Y2894842D01*
X2717706Y2894452D01*
X2717704Y2894452D01*
X2664956Y2889883D01*
X2660728Y2889700D01*
X2418754Y2889700D01*
X2416539Y2889287D01*
X2416534Y2889287D01*
X2374344Y2881429D01*
X2335621Y2874217D01*
X2240389Y2815516D01*
X2235892Y2809602D01*
X2203496Y2790709D01*
X2167229Y2800257D01*
X2108315Y2845055D01*
X2101941Y2849902D01*
X2083048Y2882298D01*
X2082600Y2888906D01*
X2082600Y3035151D01*
X2096952Y3069799D01*
X2243268Y3216115D01*
X2277916Y3230467D01*
X2300428Y3224989D01*
X2320480Y3214617D01*
X2320484Y3214616D01*
X2324501Y3212538D01*
X2435706Y3200359D01*
X2543840Y3229030D01*
X2553061Y3235717D01*
X2560511Y3241119D01*
X2596985Y3249842D01*
X2611789Y3244975D01*
X2644857Y3227871D01*
X2674501Y3212538D01*
X2785706Y3200359D01*
X2893840Y3229030D01*
X2903061Y3235717D01*
X2910511Y3241119D01*
X2946985Y3249842D01*
X2961789Y3244975D01*
X2994857Y3227871D01*
X3024501Y3212538D01*
X3135706Y3200359D01*
X3243840Y3229030D01*
X3253061Y3235717D01*
X3260511Y3241119D01*
X3296985Y3249842D01*
X3311789Y3244975D01*
X3344857Y3227871D01*
X3374501Y3212538D01*
X3485706Y3200359D01*
X3518458Y3209043D01*
X3555627Y3204051D01*
X3567685Y3194182D01*
X3569335Y3192320D01*
X3569338Y3192318D01*
X3572336Y3188935D01*
X3671701Y3137539D01*
X3718895Y3132371D01*
X3751774Y3114333D01*
X3762560Y3083662D01*
X3762560Y2779354D01*
X3762973Y2777139D01*
X3762973Y2777134D01*
X3772410Y2726467D01*
X3778043Y2696221D01*
X3811014Y2642731D01*
X3816977Y2605706D01*
X3808305Y2587362D01*
X3790135Y2563467D01*
X3762560Y2468243D01*
X3762560Y2139354D01*
X3762973Y2137139D01*
X3762973Y2137134D01*
X3771815Y2089663D01*
X3778043Y2056221D01*
X3836744Y1960989D01*
X3840346Y1958250D01*
X3843359Y1954927D01*
X3856060Y1922013D01*
X3856060Y1651933D01*
X3855657Y1646451D01*
X3854407Y1642810D01*
X3855590Y1611303D01*
X3856026Y1599684D01*
X3856060Y1597846D01*
X3856060Y1570385D01*
X3856473Y1568167D01*
X3856474Y1568157D01*
X3856735Y1566757D01*
X3857530Y1559623D01*
X3858693Y1528640D01*
X3860477Y1524487D01*
X3860478Y1524484D01*
X3865615Y1512528D01*
X3868766Y1502158D01*
X3870080Y1495106D01*
X3871978Y1484913D01*
X3872247Y1484476D01*
X3874041Y1457995D01*
X3869603Y1439292D01*
X3865256Y1420976D01*
X3867574Y1403946D01*
X3878055Y1326935D01*
X3880342Y1310128D01*
X3884208Y1303111D01*
X3926496Y1226348D01*
X3928177Y1223296D01*
X4118310Y1033163D01*
X4188042Y985327D01*
X4192442Y984283D01*
X4192444Y984282D01*
X4292485Y960541D01*
X4292486Y960541D01*
X4296889Y959496D01*
X4372039Y969724D01*
X4389961Y968848D01*
X4400113Y966439D01*
X4406798Y964853D01*
X4413631Y962692D01*
X4442431Y951202D01*
X4448916Y950566D01*
X4450853Y950376D01*
X4450857Y950376D01*
X4452038Y950260D01*
X4462554Y950260D01*
X4473868Y948936D01*
X4480872Y947274D01*
X4487791Y945632D01*
X4518504Y949812D01*
X4525112Y950260D01*
X4546989Y950260D01*
X4576647Y940264D01*
X4650213Y884324D01*
X4745437Y856749D01*
X5074326Y856749D01*
X5076541Y857162D01*
X5076546Y857162D01*
X5135187Y868084D01*
X5157459Y872232D01*
X5210949Y905203D01*
X5247974Y911166D01*
X5266319Y902494D01*
X5290213Y884324D01*
X5385437Y856749D01*
X5714326Y856749D01*
X5716541Y857162D01*
X5716546Y857162D01*
X5775187Y868084D01*
X5797459Y872232D01*
X5821518Y887062D01*
X5888837Y928557D01*
X5888838Y928558D01*
X5892691Y930933D01*
X5895429Y934534D01*
X5898769Y937562D01*
X5931681Y950260D01*
X7295339Y950260D01*
X7304282Y949188D01*
X7305399Y948742D01*
X7311884Y948106D01*
X7313821Y947916D01*
X7313825Y947916D01*
X7315006Y947800D01*
X7325522Y947800D01*
X7336836Y946476D01*
X7340393Y945632D01*
X7350759Y943172D01*
X7381472Y947352D01*
X7388080Y947800D01*
X8240899Y947800D01*
X8246381Y947397D01*
X8250022Y946147D01*
X8293149Y947766D01*
X8294986Y947800D01*
X8322447Y947800D01*
X8324665Y948213D01*
X8324675Y948214D01*
X8326075Y948475D01*
X8333209Y949270D01*
X8335950Y949373D01*
X8359674Y950263D01*
X8359676Y950263D01*
X8364192Y950433D01*
X8368345Y952217D01*
X8368348Y952218D01*
X8380304Y957355D01*
X8390674Y960506D01*
X8403474Y962890D01*
X8403475Y962890D01*
X8407919Y963718D01*
X8411766Y966090D01*
X8411770Y966091D01*
X8429917Y977278D01*
X8434315Y979989D01*
X8440681Y983296D01*
X8447166Y986082D01*
X8465986Y994167D01*
X8465990Y994169D01*
X8469164Y995533D01*
X8476624Y1001660D01*
X8484061Y1009097D01*
X8492997Y1016161D01*
X8494513Y1017095D01*
X8505177Y1023669D01*
X8523942Y1048346D01*
X8528298Y1053334D01*
X8738099Y1263136D01*
X8772747Y1277488D01*
X8802406Y1267492D01*
X8877730Y1210215D01*
X8881333Y1207475D01*
X8976557Y1179900D01*
X9245446Y1179900D01*
X9247661Y1180313D01*
X9247666Y1180313D01*
X9298990Y1189872D01*
X9328579Y1195383D01*
X9366506Y1218761D01*
X9405846Y1224115D01*
X9490157Y1199700D01*
X9819046Y1199700D01*
X9821261Y1200113D01*
X9821266Y1200113D01*
X9872590Y1209672D01*
X9902179Y1215183D01*
X9955669Y1248154D01*
X9992694Y1254117D01*
X10011038Y1245445D01*
X10028391Y1232250D01*
X10034933Y1227275D01*
X10130157Y1199700D01*
X10459046Y1199700D01*
X10461261Y1200113D01*
X10461266Y1200113D01*
X10537734Y1214355D01*
X10537735Y1214355D01*
X10542179Y1215183D01*
X10546029Y1217556D01*
X10550250Y1219185D01*
X10550829Y1217686D01*
X10581644Y1222646D01*
X10599984Y1213975D01*
X10604929Y1210215D01*
X10604931Y1210214D01*
X10608533Y1207475D01*
X10612879Y1206216D01*
X10612880Y1206216D01*
X10632057Y1200663D01*
X10703757Y1179900D01*
X10972646Y1179900D01*
X10974861Y1180313D01*
X10974866Y1180313D01*
X11026190Y1189872D01*
X11055779Y1195383D01*
X11097093Y1220849D01*
X11147160Y1251710D01*
X11147161Y1251711D01*
X11151011Y1254084D01*
X11153748Y1257683D01*
X11153750Y1257685D01*
X11173805Y1284059D01*
X11206201Y1302952D01*
X11208552Y1303111D01*
X11208544Y1303193D01*
X11210788Y1303400D01*
X11213047Y1303400D01*
X11215265Y1303813D01*
X11215275Y1303814D01*
X11216675Y1304075D01*
X11223809Y1304870D01*
X11226550Y1304973D01*
X11250274Y1305863D01*
X11250276Y1305863D01*
X11254792Y1306033D01*
X11258945Y1307817D01*
X11258948Y1307818D01*
X11270904Y1312955D01*
X11281274Y1316106D01*
X11294074Y1318490D01*
X11294075Y1318490D01*
X11298519Y1319318D01*
X11302366Y1321690D01*
X11302370Y1321691D01*
X11318472Y1331617D01*
X11324915Y1335589D01*
X11331281Y1338896D01*
X11340131Y1342698D01*
X11356586Y1349767D01*
X11356590Y1349769D01*
X11359764Y1351133D01*
X11367224Y1357260D01*
X11374661Y1364697D01*
X11383597Y1371761D01*
X11385660Y1373033D01*
X11395777Y1379269D01*
X11414542Y1403946D01*
X11418898Y1408934D01*
X11565202Y1555239D01*
X11569361Y1558830D01*
X11572822Y1560521D01*
X11576291Y1564260D01*
X11602178Y1592167D01*
X11603454Y1593491D01*
X11622865Y1612902D01*
X11624952Y1615945D01*
X11629435Y1621551D01*
X11634895Y1627436D01*
X11644964Y1638291D01*
X11647445Y1640965D01*
X11650522Y1644282D01*
X11657022Y1660574D01*
X11662127Y1670134D01*
X11669488Y1680865D01*
X11672047Y1684595D01*
X11679205Y1714758D01*
X11681369Y1721601D01*
X11691578Y1747189D01*
X11691579Y1747193D01*
X11692858Y1750399D01*
X11693800Y1760006D01*
X11693800Y1770526D01*
X11695124Y1781840D01*
X11697382Y1791355D01*
X11697382Y1791356D01*
X11698427Y1795759D01*
X11694248Y1826467D01*
X11693800Y1833074D01*
X11693800Y2500507D01*
X11708152Y2535155D01*
X11733241Y2548565D01*
X11785707Y2559001D01*
X11785709Y2559002D01*
X11790441Y2559943D01*
X11857110Y2604490D01*
X11901657Y2671159D01*
X11913194Y2729159D01*
X11934029Y2760342D01*
X11961252Y2768600D01*
X12711587Y2768600D01*
X12746235Y2754248D01*
X12760587Y2719600D01*
X12760418Y2715534D01*
X12755100Y2651711D01*
X12755039Y2651272D01*
X12754884Y2650775D01*
X12754774Y2649352D01*
X12754774Y2649348D01*
X12753241Y2629419D01*
X12753216Y2629110D01*
X12752128Y2616046D01*
X12751471Y2608166D01*
X12751543Y2607657D01*
X12751533Y2607212D01*
X12743235Y2499337D01*
X12735127Y2402037D01*
X12735125Y2402028D01*
X12730314Y2344288D01*
X12728823Y2326387D01*
X12725127Y2282036D01*
X12725126Y2282034D01*
X12715127Y2162036D01*
X12714733Y2162069D01*
X12714733Y2162067D01*
X12715126Y2162034D01*
X12708247Y2079473D01*
X12705988Y2052368D01*
X12705127Y2042037D01*
X12705125Y2042028D01*
X12694292Y1912025D01*
X12693671Y1907329D01*
X12686740Y1869205D01*
X12678523Y1824013D01*
X12676990Y1817872D01*
X12675126Y1812034D01*
X12674896Y1809272D01*
X12674291Y1802015D01*
X12673672Y1797334D01*
X12671905Y1787612D01*
X12672027Y1784868D01*
X12672027Y1784866D01*
X12672179Y1781459D01*
X12672058Y1775214D01*
X12670890Y1761195D01*
X12663374Y1671005D01*
X12663344Y1670662D01*
X12656163Y1591658D01*
X12654753Y1576152D01*
X12654428Y1572579D01*
X12653839Y1568250D01*
X12638914Y1486161D01*
X12637128Y1479248D01*
X12635792Y1475292D01*
X12635516Y1472529D01*
X12634587Y1463239D01*
X12634040Y1459354D01*
X12631905Y1447612D01*
X12632027Y1444867D01*
X12632092Y1443395D01*
X12631897Y1436348D01*
X12630360Y1420976D01*
X12624733Y1364697D01*
X12624588Y1363250D01*
X12624042Y1359371D01*
X12613829Y1303193D01*
X12608914Y1276160D01*
X12607128Y1269248D01*
X12605792Y1265292D01*
X12604587Y1253239D01*
X12604040Y1249354D01*
X12601905Y1237612D01*
X12602027Y1234867D01*
X12602092Y1233395D01*
X12601897Y1226348D01*
X12594804Y1155414D01*
X12594097Y1150687D01*
X12580818Y1084295D01*
X12559957Y979987D01*
X12559415Y977278D01*
X12557792Y971213D01*
X12555792Y965292D01*
X12555517Y962536D01*
X12555516Y962534D01*
X12554805Y955420D01*
X12554096Y950686D01*
X12552725Y943832D01*
X12552185Y941130D01*
X12552354Y934848D01*
X12552129Y928667D01*
X12551547Y922840D01*
X12545068Y858056D01*
X12544144Y852303D01*
X12531980Y797565D01*
X12531510Y795830D01*
X12530818Y794295D01*
X12530273Y791570D01*
X12526999Y775201D01*
X12526784Y774182D01*
X12522608Y755389D01*
X12522618Y753711D01*
X12522345Y751930D01*
X12507643Y678417D01*
X12507138Y676175D01*
X12493717Y622490D01*
X12493044Y620220D01*
X12492157Y618360D01*
X12491556Y615656D01*
X12491555Y615653D01*
X12488078Y600005D01*
X12487782Y598751D01*
X12483255Y580643D01*
X12483213Y578588D01*
X12482792Y576219D01*
X12477644Y553049D01*
X12474341Y538187D01*
X12470307Y520035D01*
X12468724Y514481D01*
X12466264Y507452D01*
X12465433Y499972D01*
X12465309Y498859D01*
X12464444Y493649D01*
X12462608Y485389D01*
X12462623Y482643D01*
X12462623Y482639D01*
X12462650Y477925D01*
X12462351Y472238D01*
X12455673Y412136D01*
X12454510Y405663D01*
X12419577Y265931D01*
X12419155Y264354D01*
X12415482Y251496D01*
X12414751Y248939D01*
X12391433Y219567D01*
X12367636Y213400D01*
X11729261Y213400D01*
X11694613Y227752D01*
X11681490Y251496D01*
X11668393Y308878D01*
X11660049Y345435D01*
X11659616Y346334D01*
X11659358Y347474D01*
X11658152Y349979D01*
X11563427Y546678D01*
X11563424Y546683D01*
X11562284Y549050D01*
X11561663Y549829D01*
X11561157Y550884D01*
X11559433Y553046D01*
X11559431Y553049D01*
X11423308Y723742D01*
X11421662Y725806D01*
X11420883Y726427D01*
X11420156Y727342D01*
X11417993Y729067D01*
X11417991Y729069D01*
X11247307Y865186D01*
X11247305Y865187D01*
X11245235Y866838D01*
X11244334Y867272D01*
X11243423Y868001D01*
X11240924Y869204D01*
X11240920Y869207D01*
X11117461Y928661D01*
X11041847Y965075D01*
X11040876Y965297D01*
X11039823Y965806D01*
X11037127Y966421D01*
X11037125Y966422D01*
X10824271Y1015005D01*
X10821699Y1015592D01*
X10820701Y1015592D01*
X10819562Y1015854D01*
X10595830Y1015854D01*
X10594857Y1015632D01*
X10593689Y1015634D01*
X10590986Y1015017D01*
X10590985Y1015017D01*
X10378149Y966439D01*
X10378147Y966438D01*
X10375565Y965849D01*
X10374666Y965416D01*
X10373526Y965158D01*
X10371024Y963953D01*
X10371021Y963952D01*
X10174322Y869227D01*
X10174317Y869224D01*
X10171950Y868084D01*
X10171171Y867463D01*
X10170116Y866957D01*
X10167954Y865233D01*
X10167951Y865231D01*
X10027598Y753303D01*
X9995194Y727462D01*
X9994573Y726683D01*
X9993658Y725956D01*
X9991933Y723793D01*
X9991931Y723791D01*
X9859202Y557355D01*
X9854162Y551035D01*
X9853728Y550134D01*
X9852999Y549223D01*
X9851796Y546724D01*
X9851793Y546720D01*
X9803203Y445820D01*
X9755925Y347647D01*
X9755703Y346676D01*
X9755194Y345623D01*
X9754579Y342927D01*
X9754578Y342925D01*
X9733710Y251496D01*
X9712009Y220910D01*
X9685939Y213400D01*
X3360526Y213400D01*
X3325878Y227752D01*
X3311526Y262400D01*
X3325071Y296222D01*
X3345211Y317334D01*
X3347740Y319985D01*
X3355792Y336100D01*
X3407174Y438932D01*
X3407175Y438934D01*
X3408810Y442207D01*
X3424786Y538187D01*
X3430928Y575087D01*
X3430928Y575092D01*
X3431243Y576982D01*
X3431300Y584200D01*
X3410987Y719312D01*
X3407797Y725956D01*
X3353430Y839175D01*
X3353429Y839177D01*
X3351844Y842477D01*
X3349360Y845165D01*
X3349358Y845167D01*
X3261586Y940118D01*
X3261584Y940119D01*
X3259099Y942808D01*
X3255934Y944646D01*
X3255932Y944648D01*
X3144118Y1009594D01*
X3144116Y1009595D01*
X3140953Y1011432D01*
X3137390Y1012258D01*
X3137387Y1012259D01*
X3055183Y1031313D01*
X3007852Y1042284D01*
X2871563Y1032634D01*
X2744137Y983336D01*
X2741843Y981527D01*
X2717981Y975200D01*
X2708530Y975200D01*
X2683919Y981829D01*
X2636118Y1009594D01*
X2636116Y1009595D01*
X2632953Y1011432D01*
X2629390Y1012258D01*
X2629387Y1012259D01*
X2547183Y1031313D01*
X2499852Y1042284D01*
X2363563Y1032634D01*
X2236137Y983336D01*
X2233843Y981527D01*
X2209981Y975200D01*
X2200530Y975200D01*
X2175919Y981829D01*
X2128118Y1009594D01*
X2128116Y1009595D01*
X2124953Y1011432D01*
X2121390Y1012258D01*
X2121387Y1012259D01*
X2039183Y1031313D01*
X1991852Y1042284D01*
X1855563Y1032634D01*
X1846635Y1029180D01*
X1809143Y1030065D01*
X1794754Y1040452D01*
X1793916Y1041811D01*
X1778762Y1053334D01*
X1708468Y1106787D01*
X1708467Y1106787D01*
X1704867Y1109525D01*
X1609643Y1137100D01*
X1280754Y1137100D01*
X1278539Y1136687D01*
X1278534Y1136687D01*
X1236559Y1128869D01*
X1197621Y1121617D01*
X1144131Y1088646D01*
X1107106Y1082683D01*
X1088762Y1091355D01*
X1064867Y1109525D01*
X1065477Y1110327D01*
X1047271Y1128869D01*
X991230Y1245575D01*
X991229Y1245577D01*
X989644Y1248877D01*
X987160Y1251565D01*
X987158Y1251567D01*
X899386Y1346518D01*
X899384Y1346519D01*
X896899Y1349208D01*
X893734Y1351046D01*
X893732Y1351048D01*
X781918Y1415994D01*
X781916Y1415995D01*
X778753Y1417832D01*
X775190Y1418658D01*
X775187Y1418659D01*
X687284Y1439034D01*
X645652Y1448684D01*
X509363Y1439034D01*
X454560Y1417832D01*
X385351Y1391057D01*
X385350Y1391056D01*
X381937Y1389736D01*
X379062Y1387470D01*
X379061Y1387469D01*
X311935Y1334552D01*
X275841Y1324373D01*
X243119Y1342698D01*
X232600Y1373033D01*
X232600Y8862766D01*
X234165Y8875052D01*
X236222Y8882993D01*
X236222Y8882995D01*
X236917Y8885677D01*
X236993Y8888448D01*
X238490Y8943021D01*
X238887Y8948043D01*
X238993Y8948852D01*
X240248Y8955168D01*
X257711Y9020340D01*
X262604Y9032154D01*
X294757Y9087844D01*
X302544Y9097992D01*
X348009Y9143457D01*
X358156Y9151243D01*
X413845Y9183395D01*
X425661Y9188289D01*
X490830Y9205752D01*
X497121Y9207003D01*
X497932Y9207110D01*
X502975Y9207510D01*
X540311Y9208534D01*
X560132Y9209078D01*
X562789Y9209761D01*
X562794Y9209762D01*
X570936Y9211856D01*
X583139Y9213400D01*
X5650901Y9213400D01*
X5685548Y9199048D01*
G37*
G04 #@! TD.AperFunction*
G04 #@! TA.AperFunction,Conductor*
G36*
X2122036Y7095813D02*
G01*
X2169312Y7052112D01*
X2173695Y7048060D01*
X2177398Y7046423D01*
X2276454Y7002630D01*
X2276456Y7002629D01*
X2279712Y7001190D01*
X2327920Y6995100D01*
X2348200Y6995100D01*
X2382848Y6980748D01*
X2397200Y6946100D01*
X2397200Y6667331D01*
X2382848Y6632683D01*
X2348200Y6618331D01*
X2339692Y6619075D01*
X2265665Y6632128D01*
X2265657Y6632129D01*
X2263557Y6632499D01*
X1900500Y6632499D01*
X1865852Y6646851D01*
X1851500Y6681499D01*
X1851500Y6798630D01*
X1865852Y6833278D01*
X1877232Y6841753D01*
X1909291Y6859051D01*
X1909293Y6859052D01*
X1912856Y6860975D01*
X1991540Y6946095D01*
X2008855Y6985261D01*
X2036970Y7048854D01*
X2036971Y7048856D01*
X2038410Y7052112D01*
X2040161Y7065973D01*
X2058743Y7098549D01*
X2094917Y7108445D01*
X2122036Y7095813D01*
G37*
G04 #@! TD.AperFunction*
M02*
