M48
INCH,TZ
T1C0.0039
%
G90
G05
T1
X120Y3530
X120Y3330
X120Y3130
X120Y2930
X120Y2730
X120Y2530
X120Y2330
X120Y2130
X120Y1930
X120Y1730
X120Y1530
X120Y1330
X120Y1130
X120Y930
X120Y730
X320Y3530
X320Y730
X410Y2190
X410Y974
X520Y3530
X520Y730
X620Y2190
X720Y3530
X720Y730
X820Y3230
X820Y730
X820Y630
X820Y530
X860Y2624
X920Y3530
X920Y1210
X920Y730
X920Y630
X920Y530
X1020Y3230
X1020Y730
X1020Y630
X1020Y530
X1120Y3530
X1120Y1210
X1120Y730
X1120Y630
X1120Y530
X1220Y3230
X1220Y830
X1220Y730
X1220Y630
X1220Y530
X1230Y1170
X1270Y1060
X1270Y910
X1320Y3530
X1320Y1210
X1320Y1130
X1320Y984
X1320Y830
X1320Y730
X1320Y630
X1320Y530
X1320Y430
X1400Y1020
X1400Y870
X1410Y700
X1420Y3230
X1420Y530
X1420Y430
X1420Y330
X1420Y230
X1420Y130
X1460Y1180
X1460Y1080
X1460Y930
X1460Y780
X1460Y630
X1510Y430
X1520Y3530
X1520Y330
X1520Y230
X1520Y130
X1610Y330
X1620Y3230
X1620Y230
X1720Y3530
X1720Y230
X1720Y130
X1750Y310
X1820Y1070
X1820Y940
X1820Y230
X1843Y1224
X1870Y310
X1897Y857
X1920Y1130
X1920Y1030
X1920Y230
X1920Y130
X1970Y310
X1980Y780
X2020Y3030
X2020Y2830
X2020Y930
X2020Y680
X2020Y230
X2070Y310
X2071Y2228
X2120Y2930
X2120Y830
X2120Y680
X2120Y230
X2120Y130
X2170Y310
X2220Y3030
X2220Y2830
X2220Y680
X2220Y230
X2270Y310
X2320Y2930
X2320Y2730
X2320Y830
X2320Y230
X2320Y130
X2330Y680
X2370Y310
X2420Y230
X2470Y680
X2470Y310
X2520Y2730
X2520Y830
X2520Y230
X2520Y130
X2570Y310
X2610Y680
X2620Y230
X2650Y2190
X2670Y310
X2720Y2930
X2720Y2730
X2720Y830
X2720Y230
X2720Y130
X2750Y680
X2780Y310
X2820Y2830
X2820Y230
X2870Y310
X2890Y830
X2890Y680
X2920Y2930
X2920Y230
X2920Y130
X2970Y310
X3020Y2830
X3020Y830
X3020Y230
X3030Y680
X3070Y310
X3120Y2930
X3120Y1610
X3120Y1130
X3120Y1030
X3120Y930
X3120Y230
X3120Y130
X3140Y830
X3170Y680
X3170Y310
X3220Y2830
X3220Y2630
X3220Y1930
X3220Y1830
X3220Y1730
X3220Y1630
X3220Y1530
X3220Y1430
X3220Y1330
X3220Y1230
X3220Y1130
X3220Y1030
X3220Y930
X3220Y230
X3270Y840
X3270Y310
X3320Y2930
X3320Y2730
X3320Y2630
X3320Y2530
X3320Y2430
X3320Y2330
X3320Y2230
X3320Y2130
X3320Y2030
X3320Y1930
X3320Y1830
X3320Y1730
X3320Y1630
X3320Y1530
X3320Y1430
X3320Y1330
X3320Y1230
X3320Y1130
X3320Y1050
X3320Y930
X3320Y230
X3320Y130
X3370Y310
X3400Y810
X3420Y2830
X3420Y2730
X3420Y1050
X3420Y930
X3420Y230
X3450Y410
X3470Y310
X3520Y2930
X3520Y2730
X3520Y1050
X3520Y930
X3520Y230
X3520Y130
X3530Y840
X3570Y400
X3570Y310
X3620Y2830
X3620Y2730
X3620Y1050
X3620Y930
X3620Y230
X3660Y840
X3660Y130
X3670Y310
X3690Y410
X3720Y2930
X3720Y2730
X3720Y1050
X3720Y930
X3720Y230
X3770Y325
X3790Y840
X3790Y130
X3820Y2830
X3820Y2730
X3820Y1050
X3820Y930
X3860Y260
X3870Y395
X3920Y2930
X3920Y2730
X3920Y1050
X3920Y930
X3920Y840
X3940Y340
X4020Y2830
X4020Y2730
X4020Y1050
X4020Y930
X4030Y390
X4050Y840
X4100Y440
X4120Y2930
X4120Y2730
X4120Y1050
X4120Y930
X4180Y840
X4200Y440
X4210Y1050
X4220Y2830
X4220Y2730
X4220Y930
X4280Y980
X4280Y840
X4300Y440
X4320Y2930
X4320Y2730
X4390Y400
X4420Y2830
X4420Y2730
X4450Y470
X4490Y350
X4520Y2930
X4520Y2730
X4520Y430
X4540Y540
X4590Y240
X4620Y2830
X4620Y2730
X4620Y530
X4620Y430
X4620Y330
X4640Y680
X4640Y130
X4670Y920
X4670Y790
X4710Y1020
X4720Y2930
X4720Y2730
X4720Y830
X4720Y730
X4720Y630
X4720Y530
X4720Y430
X4720Y330
X4720Y230
X4780Y130
X4820Y2830
X4820Y2730
X4820Y930
X4820Y830
X4820Y730
X4820Y630
X4820Y530
X4820Y430
X4820Y330
X4840Y1020
X4860Y210
X4890Y350
X4910Y490
X4920Y2930
X4920Y2730
X4920Y830
X4930Y630
X4950Y770
X4970Y1020
X4970Y910
T0
M30
