G04 #@! TF.GenerationSoftware,KiCad,Pcbnew,(5.99.0-8258-g1ec6beaf04)*
G04 #@! TF.CreationDate,2021-01-21T00:32:19-08:00*
G04 #@! TF.ProjectId,bomu,626f6d75-2e6b-4696-9361-645f70636258,rev?*
G04 #@! TF.SameCoordinates,Original*
G04 #@! TF.FileFunction,Profile,NP*
%FSLAX46Y46*%
G04 Gerber Fmt 4.6, Leading zero omitted, Abs format (unit mm)*
G04 Created by KiCad (PCBNEW (5.99.0-8258-g1ec6beaf04)) date 2021-01-21 00:32:19*
%MOMM*%
%LPD*%
G01*
G04 APERTURE LIST*
G04 #@! TA.AperFunction,Profile*
%ADD10C,0.010000*%
G04 #@! TD*
G04 #@! TA.AperFunction,Profile*
%ADD11C,0.050000*%
G04 #@! TD*
G04 APERTURE END LIST*
D10*
X142406000Y-137716200D02*
G75*
G02*
X141206000Y-137716200I-600000J0D01*
G01*
X142406000Y-136016200D02*
G75*
G03*
X141206000Y-136016200I-600000J0D01*
G01*
D11*
X143536800Y-141540800D02*
G75*
G03*
X141936800Y-141540800I-800000J0D01*
G01*
X143536800Y-141540800D02*
X144561800Y-141540800D01*
X132561800Y-132140800D02*
G75*
G03*
X132061800Y-132640800I0J-500000D01*
G01*
X132061800Y-132640800D02*
X132061800Y-141040800D01*
X132561800Y-141540800D02*
X141936800Y-141540800D01*
X145061800Y-136840800D02*
X145061800Y-136710800D01*
X145061800Y-136710800D02*
X145061800Y-136570800D01*
X145061800Y-136570800D02*
X145061800Y-136440800D01*
X145061800Y-136440800D02*
X145061800Y-136300800D01*
X145061800Y-136300800D02*
X145051800Y-136170800D01*
X145051800Y-136170800D02*
X145051800Y-136030800D01*
X145051800Y-136030800D02*
X145051800Y-135900800D01*
X145051800Y-135900800D02*
X145041800Y-135770800D01*
X145041800Y-135770800D02*
X145041800Y-135630800D01*
X145041800Y-135630800D02*
X145031800Y-135500800D01*
X145031800Y-135500800D02*
X145021800Y-135370800D01*
X145021800Y-135370800D02*
X145021800Y-135240800D01*
X145021800Y-135240800D02*
X145011800Y-135110800D01*
X145011800Y-135110800D02*
X145001800Y-134990800D01*
X145001800Y-134990800D02*
X144991800Y-134860800D01*
X144991800Y-134860800D02*
X144981800Y-134740800D01*
X144981800Y-134740800D02*
X144971800Y-134610800D01*
X144971800Y-134610800D02*
X144961800Y-134490800D01*
X144961800Y-134490800D02*
X144951800Y-134370800D01*
X144951800Y-134370800D02*
X144941800Y-134250800D01*
X144941800Y-134250800D02*
X144931800Y-134130800D01*
X144931800Y-134130800D02*
X144921800Y-134010800D01*
X144921800Y-134010800D02*
X144901800Y-133900800D01*
X144901800Y-133900800D02*
X144891800Y-133780800D01*
X144891800Y-133780800D02*
X144881800Y-133670800D01*
X144881800Y-133670800D02*
X144861800Y-133560800D01*
X144861800Y-133560800D02*
X144851800Y-133460800D01*
X144851800Y-133460800D02*
X144831800Y-133350800D01*
X144831800Y-133350800D02*
X144821800Y-133250800D01*
X144821800Y-133250800D02*
X144801800Y-133150800D01*
X144801800Y-133150800D02*
X144781800Y-133050800D01*
X144781800Y-133050800D02*
X144771800Y-132950800D01*
X144771800Y-132950800D02*
X144751800Y-132860800D01*
X144751800Y-132860800D02*
X144731800Y-132760800D01*
X144731800Y-132760800D02*
X144711800Y-132680800D01*
X144711800Y-132680800D02*
X144691800Y-132590800D01*
X144691800Y-132590800D02*
X144681800Y-132500800D01*
X144681800Y-132500800D02*
X144661800Y-132420800D01*
X144661800Y-132420800D02*
X144641800Y-132340800D01*
X144641800Y-132340800D02*
X144621800Y-132270800D01*
X144621800Y-132270800D02*
X144591800Y-132190800D01*
X144591800Y-132190800D02*
X144561800Y-132140800D01*
X144561800Y-141540800D02*
X144591800Y-141490800D01*
X144591800Y-141490800D02*
X144621800Y-141410800D01*
X144621800Y-141410800D02*
X144641800Y-141340800D01*
X144641800Y-141340800D02*
X144661800Y-141260800D01*
X144661800Y-141260800D02*
X144681800Y-141180800D01*
X144681800Y-141180800D02*
X144691800Y-141090800D01*
X144691800Y-141090800D02*
X144711800Y-141000800D01*
X144711800Y-141000800D02*
X144731800Y-140920800D01*
X144731800Y-140920800D02*
X144751800Y-140820800D01*
X144751800Y-140820800D02*
X144771800Y-140730800D01*
X144771800Y-140730800D02*
X144781800Y-140630800D01*
X144781800Y-140630800D02*
X144801800Y-140530800D01*
X144801800Y-140530800D02*
X144821800Y-140430800D01*
X144821800Y-140430800D02*
X144831800Y-140330800D01*
X144831800Y-140330800D02*
X144851800Y-140220800D01*
X144851800Y-140220800D02*
X144861800Y-140120800D01*
X144861800Y-140120800D02*
X144881800Y-140010800D01*
X144881800Y-140010800D02*
X144891800Y-139900800D01*
X144891800Y-139900800D02*
X144901800Y-139780800D01*
X144901800Y-139780800D02*
X144921800Y-139670800D01*
X144921800Y-139670800D02*
X144931800Y-139550800D01*
X144931800Y-139550800D02*
X144941800Y-139430800D01*
X144941800Y-139430800D02*
X144951800Y-139310800D01*
X144951800Y-139310800D02*
X144961800Y-139190800D01*
X144961800Y-139190800D02*
X144971800Y-139070800D01*
X144971800Y-139070800D02*
X144981800Y-138940800D01*
X144981800Y-138940800D02*
X144991800Y-138820800D01*
X144991800Y-138820800D02*
X145001800Y-138690800D01*
X145001800Y-138690800D02*
X145011800Y-138570800D01*
X145011800Y-138570800D02*
X145021800Y-138440800D01*
X145021800Y-138440800D02*
X145021800Y-138310800D01*
X145021800Y-138310800D02*
X145031800Y-138180800D01*
X145031800Y-138180800D02*
X145041800Y-138050800D01*
X145041800Y-138050800D02*
X145041800Y-137910800D01*
X145041800Y-137910800D02*
X145051800Y-137780800D01*
X145051800Y-137780800D02*
X145051800Y-137650800D01*
X145051800Y-137650800D02*
X145051800Y-137510800D01*
X145051800Y-137510800D02*
X145061800Y-137380800D01*
X145061800Y-137380800D02*
X145061800Y-137240800D01*
X145061800Y-137240800D02*
X145061800Y-137110800D01*
X145061800Y-137110800D02*
X145061800Y-136970800D01*
X145061800Y-136970800D02*
X145061800Y-136840800D01*
X132061800Y-141040800D02*
G75*
G03*
X132561800Y-141540800I500000J0D01*
G01*
X144561800Y-132140801D02*
X132561800Y-132140800D01*
D10*
X142406000Y-136016200D02*
X142406000Y-137716200D01*
X141206000Y-136016200D02*
X141206000Y-137716200D01*
M02*
