M48
INCH,TZ
T1C0.0039
%
G90
G05
T1
X52100Y-52200
X52100Y-52400
X52100Y-52600
X52100Y-52800
X52100Y-53000
X52100Y-53200
X52100Y-53400
X52100Y-53600
X52100Y-53800
X52100Y-54000
X52100Y-54200
X52100Y-54400
X52100Y-54600
X52100Y-54800
X52100Y-55000
X52300Y-52200
X52300Y-55000
X52390Y-53540
X52390Y-54756
X52500Y-52200
X52500Y-55000
X52600Y-53540
X52700Y-52200
X52700Y-55000
X52800Y-52500
X52800Y-55000
X52800Y-55100
X52800Y-55200
X52840Y-53106
X52900Y-52200
X52900Y-54520
X52900Y-55000
X52900Y-55100
X52900Y-55200
X53000Y-52500
X53000Y-55000
X53000Y-55100
X53000Y-55200
X53100Y-52200
X53100Y-54520
X53100Y-55000
X53100Y-55100
X53100Y-55200
X53200Y-52500
X53200Y-54900
X53200Y-55000
X53200Y-55100
X53200Y-55200
X53210Y-54560
X53250Y-54670
X53250Y-54820
X53300Y-52200
X53300Y-54520
X53300Y-54600
X53300Y-54746
X53300Y-54900
X53300Y-55000
X53300Y-55100
X53300Y-55200
X53300Y-55300
X53380Y-54710
X53380Y-54860
X53390Y-55030
X53400Y-52500
X53400Y-55200
X53400Y-55300
X53400Y-55400
X53400Y-55500
X53400Y-55600
X53440Y-54550
X53440Y-54650
X53440Y-54800
X53440Y-54950
X53440Y-55100
X53490Y-55300
X53500Y-52200
X53500Y-55400
X53500Y-55500
X53500Y-55600
X53590Y-55400
X53600Y-52500
X53600Y-55500
X53700Y-52200
X53700Y-55500
X53700Y-55600
X53730Y-55420
X53800Y-54660
X53800Y-54790
X53800Y-55500
X53823Y-54506
X53850Y-55420
X53877Y-54873
X53900Y-54600
X53900Y-54700
X53900Y-55500
X53900Y-55600
X53950Y-55420
X53960Y-54950
X54000Y-52700
X54000Y-52900
X54000Y-54800
X54000Y-55050
X54000Y-55500
X54050Y-55420
X54051Y-53502
X54100Y-52800
X54100Y-54900
X54100Y-55050
X54100Y-55500
X54100Y-55600
X54150Y-55420
X54200Y-52700
X54200Y-52900
X54200Y-55050
X54200Y-55500
X54250Y-55420
X54300Y-52800
X54300Y-53000
X54300Y-54900
X54300Y-55500
X54300Y-55600
X54310Y-55050
X54350Y-55420
X54400Y-55500
X54450Y-55050
X54450Y-55420
X54500Y-53000
X54500Y-54900
X54500Y-55500
X54500Y-55600
X54550Y-55420
X54590Y-55050
X54600Y-55500
X54630Y-53540
X54650Y-55420
X54700Y-52800
X54700Y-53000
X54700Y-54900
X54700Y-55500
X54700Y-55600
X54730Y-55050
X54760Y-55420
X54800Y-52900
X54800Y-55500
X54850Y-55420
X54870Y-54900
X54870Y-55050
X54900Y-52800
X54900Y-55500
X54900Y-55600
X54950Y-55420
X55000Y-52900
X55000Y-54900
X55000Y-55500
X55010Y-55050
X55050Y-55420
X55100Y-52800
X55100Y-54120
X55100Y-54600
X55100Y-54700
X55100Y-54800
X55100Y-55500
X55100Y-55600
X55120Y-54900
X55150Y-55050
X55150Y-55420
X55200Y-52900
X55200Y-53100
X55200Y-53800
X55200Y-53900
X55200Y-54000
X55200Y-54100
X55200Y-54200
X55200Y-54300
X55200Y-54400
X55200Y-54500
X55200Y-54600
X55200Y-54700
X55200Y-54800
X55200Y-55500
X55250Y-54890
X55250Y-55420
X55300Y-52800
X55300Y-53000
X55300Y-53100
X55300Y-53200
X55300Y-53300
X55300Y-53400
X55300Y-53500
X55300Y-53600
X55300Y-53700
X55300Y-53800
X55300Y-53900
X55300Y-54000
X55300Y-54100
X55300Y-54200
X55300Y-54300
X55300Y-54400
X55300Y-54500
X55300Y-54600
X55300Y-54680
X55300Y-54800
X55300Y-55500
X55300Y-55600
X55350Y-55420
X55380Y-54920
X55400Y-52900
X55400Y-53000
X55400Y-54680
X55400Y-54800
X55400Y-55500
X55430Y-55320
X55450Y-55420
X55500Y-52800
X55500Y-53000
X55500Y-54680
X55500Y-54800
X55500Y-55500
X55500Y-55600
X55510Y-54890
X55550Y-55330
X55550Y-55420
X55600Y-52900
X55600Y-53000
X55600Y-54680
X55600Y-54800
X55600Y-55500
X55640Y-54890
X55640Y-55600
X55650Y-55420
X55670Y-55320
X55700Y-52800
X55700Y-53000
X55700Y-54680
X55700Y-54800
X55700Y-55500
X55750Y-55405
X55770Y-54890
X55770Y-55600
X55800Y-52900
X55800Y-53000
X55800Y-54680
X55800Y-54800
X55840Y-55470
X55850Y-55335
X55900Y-52800
X55900Y-53000
X55900Y-54680
X55900Y-54800
X55900Y-54890
X55920Y-55390
X56000Y-52900
X56000Y-53000
X56000Y-54680
X56000Y-54800
X56010Y-55340
X56030Y-54890
X56080Y-55290
X56100Y-52800
X56100Y-53000
X56100Y-54680
X56100Y-54800
X56160Y-54890
X56180Y-55290
X56190Y-54680
X56200Y-52900
X56200Y-53000
X56200Y-54800
X56260Y-54750
X56260Y-54890
X56280Y-55290
X56300Y-52800
X56300Y-53000
X56370Y-55330
X56400Y-52900
X56400Y-53000
X56430Y-55260
X56470Y-55380
X56500Y-52800
X56500Y-53000
X56500Y-55300
X56520Y-55190
X56570Y-55490
X56600Y-52900
X56600Y-53000
X56600Y-55200
X56600Y-55300
X56600Y-55400
X56620Y-55050
X56620Y-55600
X56650Y-54810
X56650Y-54940
X56690Y-54710
X56700Y-52800
X56700Y-53000
X56700Y-54900
X56700Y-55000
X56700Y-55100
X56700Y-55200
X56700Y-55300
X56700Y-55400
X56700Y-55500
X56760Y-55600
X56800Y-52900
X56800Y-53000
X56800Y-54800
X56800Y-54900
X56800Y-55000
X56800Y-55100
X56800Y-55200
X56800Y-55300
X56800Y-55400
X56820Y-54710
X56840Y-55520
X56870Y-55380
X56890Y-55240
X56900Y-52800
X56900Y-53000
X56900Y-54900
X56910Y-55100
X56930Y-54960
X56950Y-54710
X56950Y-54820
T0
M30
