G04 #@! TF.GenerationSoftware,KiCad,Pcbnew,(5.1.8-0-10_14)*
G04 #@! TF.CreationDate,2020-12-26T22:42:20-08:00*
G04 #@! TF.ProjectId,bomu,626f6d75-2e6b-4696-9361-645f70636258,rev?*
G04 #@! TF.SameCoordinates,Original*
G04 #@! TF.FileFunction,Copper,L3,Inr*
G04 #@! TF.FilePolarity,Positive*
%FSLAX46Y46*%
G04 Gerber Fmt 4.6, Leading zero omitted, Abs format (unit mm)*
G04 Created by KiCad (PCBNEW (5.1.8-0-10_14)) date 2020-12-26 22:42:20*
%MOMM*%
%LPD*%
G01*
G04 APERTURE LIST*
G04 #@! TA.AperFunction,ViaPad*
%ADD10C,0.508000*%
G04 #@! TD*
G04 #@! TA.AperFunction,ViaPad*
%ADD11C,0.200000*%
G04 #@! TD*
G04 #@! TA.AperFunction,ViaPad*
%ADD12C,0.800000*%
G04 #@! TD*
G04 #@! TA.AperFunction,Conductor*
%ADD13C,0.254000*%
G04 #@! TD*
G04 APERTURE END LIST*
D10*
X143891000Y-133680200D03*
X136931400Y-133426200D03*
X134950200Y-134162800D03*
X132638800Y-140258800D03*
X144297400Y-132562600D03*
D11*
X133629400Y-136728200D03*
X138277600Y-138912600D03*
X135661400Y-134162800D03*
X137414000Y-135432800D03*
X136372600Y-134162800D03*
X133959600Y-139065000D03*
D10*
X135001000Y-140970000D03*
X134493000Y-140970000D03*
X133985000Y-140970000D03*
X133477000Y-140970000D03*
D11*
X135267700Y-137515600D03*
D10*
X142240000Y-133134100D03*
D11*
X134975600Y-137515600D03*
D10*
X143205200Y-132562600D03*
D11*
X134137400Y-136347200D03*
D10*
X141274800Y-132562600D03*
D12*
X136423400Y-137845800D03*
X136423400Y-135864600D03*
D13*
X142240000Y-133146800D02*
X142189200Y-133146800D01*
X142240000Y-133134100D02*
X142201900Y-133134100D01*
X142201900Y-133134100D02*
X141605000Y-133731000D01*
X141605000Y-133731000D02*
X138938000Y-133731000D01*
X138938000Y-133731000D02*
X137795000Y-134874000D01*
X137795000Y-134874000D02*
X137795000Y-135763000D01*
X137795000Y-135763000D02*
X136906000Y-136652000D01*
X136906000Y-136652000D02*
X136144000Y-136652000D01*
X135305808Y-137490192D02*
X135305808Y-137515600D01*
X136144000Y-136652000D02*
X135305808Y-137490192D01*
X134874000Y-135890000D02*
X134874000Y-137414000D01*
X135636000Y-135128000D02*
X134874000Y-135890000D01*
X138684000Y-133096000D02*
X136652000Y-135128000D01*
X136652000Y-135128000D02*
X135636000Y-135128000D01*
X134874000Y-137414000D02*
X134975600Y-137515600D01*
X141478000Y-133096000D02*
X138684000Y-133096000D01*
X142011400Y-132562600D02*
X141478000Y-133096000D01*
X143205200Y-132562600D02*
X142011400Y-132562600D01*
X135382000Y-134620000D02*
X134137400Y-135864600D01*
X136525000Y-134620000D02*
X135382000Y-134620000D01*
X138582400Y-132562600D02*
X136525000Y-134620000D01*
X134137400Y-135864600D02*
X134137400Y-136067800D01*
X141274800Y-132562600D02*
X138582400Y-132562600D01*
X134137400Y-136067800D02*
X134137400Y-136347200D01*
M02*
