G04 #@! TF.GenerationSoftware,KiCad,Pcbnew,(5.1.8-0-10_14)*
G04 #@! TF.CreationDate,2020-12-26T22:42:20-08:00*
G04 #@! TF.ProjectId,bomu,626f6d75-2e6b-4696-9361-645f70636258,rev?*
G04 #@! TF.SameCoordinates,Original*
G04 #@! TF.FileFunction,Soldermask,Top*
G04 #@! TF.FilePolarity,Negative*
%FSLAX46Y46*%
G04 Gerber Fmt 4.6, Leading zero omitted, Abs format (unit mm)*
G04 Created by KiCad (PCBNEW (5.1.8-0-10_14)) date 2020-12-26 22:42:20*
%MOMM*%
%LPD*%
G01*
G04 APERTURE LIST*
%ADD10C,0.100000*%
%ADD11R,0.800000X0.800000*%
G04 APERTURE END LIST*
D10*
G36*
X133105200Y-139980200D02*
G01*
X132105200Y-139980200D01*
X132105200Y-138980200D01*
X133105200Y-138980200D01*
X133105200Y-139980200D01*
G37*
G36*
X133105200Y-139980200D02*
G01*
X132105200Y-139980200D01*
X132105400Y-140220800D01*
X133106160Y-141229180D01*
X133105200Y-139980200D01*
G37*
G36*
X133105200Y-133730300D02*
G01*
X132105200Y-133730300D01*
X132105400Y-133489700D01*
X133106160Y-132481320D01*
X133105200Y-133730300D01*
G37*
G36*
X133105200Y-134730300D02*
G01*
X132105200Y-134730300D01*
X132105200Y-133730300D01*
X133105200Y-133730300D01*
X133105200Y-134730300D01*
G37*
D11*
X144195800Y-133934200D03*
X143205200Y-132851800D03*
X144170400Y-132870000D03*
X142240000Y-132877200D03*
X141274800Y-132877200D03*
D10*
G36*
X140605200Y-134730200D02*
G01*
X133105200Y-134730200D01*
X133105200Y-132480200D01*
X140605200Y-132480200D01*
X140605200Y-134730200D01*
G37*
G36*
X140605200Y-136730200D02*
G01*
X133105200Y-136730200D01*
X133105200Y-134980200D01*
X140605200Y-134980200D01*
X140605200Y-136730200D01*
G37*
G36*
X140605200Y-138746200D02*
G01*
X133105200Y-138746200D01*
X133105200Y-136996200D01*
X140605200Y-136996200D01*
X140605200Y-138746200D01*
G37*
G36*
X140605200Y-141230200D02*
G01*
X133105200Y-141230200D01*
X133105200Y-138980200D01*
X140605200Y-138980200D01*
X140605200Y-141230200D01*
G37*
M02*
