G04 #@! TF.GenerationSoftware,KiCad,Pcbnew,(5.99.0-8645-g8b3dea7107)*
G04 #@! TF.CreationDate,2021-02-21T21:45:34-08:00*
G04 #@! TF.ProjectId,bomu,626f6d75-2e6b-4696-9361-645f70636258,rev?*
G04 #@! TF.SameCoordinates,PX7de9b10PY86ff218*
G04 #@! TF.FileFunction,Profile,NP*
%FSLAX46Y46*%
G04 Gerber Fmt 4.6, Leading zero omitted, Abs format (unit mm)*
G04 Created by KiCad (PCBNEW (5.99.0-8645-g8b3dea7107)) date 2021-02-21 21:45:34*
%MOMM*%
%LPD*%
G01*
G04 APERTURE LIST*
G04 #@! TA.AperFunction,Profile*
%ADD10C,0.010000*%
G04 #@! TD*
G04 #@! TA.AperFunction,Profile*
%ADD11C,0.050000*%
G04 #@! TD*
G04 APERTURE END LIST*
D10*
X10376800Y3838000D02*
G75*
G02*
X9176800Y3838000I-600000J0D01*
G01*
X10376800Y5538000D02*
G75*
G03*
X9176800Y5538000I-600000J0D01*
G01*
D11*
X11507600Y13400D02*
G75*
G03*
X9907600Y13400I-800000J0D01*
G01*
X11507600Y13400D02*
X12532600Y13400D01*
X532600Y9413400D02*
G75*
G03*
X32600Y8913400I0J-500000D01*
G01*
X32600Y8913400D02*
X32600Y513400D01*
X532600Y13400D02*
X9907600Y13400D01*
X13032600Y4713400D02*
X13032600Y4843400D01*
X13032600Y4843400D02*
X13032600Y4983400D01*
X13032600Y4983400D02*
X13032600Y5113400D01*
X13032600Y5113400D02*
X13032600Y5253400D01*
X13032600Y5253400D02*
X13022600Y5383400D01*
X13022600Y5383400D02*
X13022600Y5523400D01*
X13022600Y5523400D02*
X13022600Y5653400D01*
X13022600Y5653400D02*
X13012600Y5783400D01*
X13012600Y5783400D02*
X13012600Y5923400D01*
X13012600Y5923400D02*
X13002600Y6053400D01*
X13002600Y6053400D02*
X12992600Y6183400D01*
X12992600Y6183400D02*
X12992600Y6313400D01*
X12992600Y6313400D02*
X12982600Y6443400D01*
X12982600Y6443400D02*
X12972600Y6563400D01*
X12972600Y6563400D02*
X12962600Y6693400D01*
X12962600Y6693400D02*
X12952600Y6813400D01*
X12952600Y6813400D02*
X12942600Y6943400D01*
X12942600Y6943400D02*
X12932600Y7063400D01*
X12932600Y7063400D02*
X12922600Y7183400D01*
X12922600Y7183400D02*
X12912600Y7303400D01*
X12912600Y7303400D02*
X12902600Y7423400D01*
X12902600Y7423400D02*
X12892600Y7543400D01*
X12892600Y7543400D02*
X12872600Y7653400D01*
X12872600Y7653400D02*
X12862600Y7773400D01*
X12862600Y7773400D02*
X12852600Y7883400D01*
X12852600Y7883400D02*
X12832600Y7993400D01*
X12832600Y7993400D02*
X12822600Y8093400D01*
X12822600Y8093400D02*
X12802600Y8203400D01*
X12802600Y8203400D02*
X12792600Y8303400D01*
X12792600Y8303400D02*
X12772600Y8403400D01*
X12772600Y8403400D02*
X12752600Y8503400D01*
X12752600Y8503400D02*
X12742600Y8603400D01*
X12742600Y8603400D02*
X12722600Y8693400D01*
X12722600Y8693400D02*
X12702600Y8793400D01*
X12702600Y8793400D02*
X12682600Y8873400D01*
X12682600Y8873400D02*
X12662600Y8963400D01*
X12662600Y8963400D02*
X12652600Y9053400D01*
X12652600Y9053400D02*
X12632600Y9133400D01*
X12632600Y9133400D02*
X12612600Y9213400D01*
X12612600Y9213400D02*
X12592600Y9283400D01*
X12592600Y9283400D02*
X12562600Y9363400D01*
X12562600Y9363400D02*
X12532600Y9413400D01*
X12532600Y13400D02*
X12562600Y63400D01*
X12562600Y63400D02*
X12592600Y143400D01*
X12592600Y143400D02*
X12612600Y213400D01*
X12612600Y213400D02*
X12632600Y293400D01*
X12632600Y293400D02*
X12652600Y373400D01*
X12652600Y373400D02*
X12662600Y463400D01*
X12662600Y463400D02*
X12682600Y553400D01*
X12682600Y553400D02*
X12702600Y633400D01*
X12702600Y633400D02*
X12722600Y733400D01*
X12722600Y733400D02*
X12742600Y823400D01*
X12742600Y823400D02*
X12752600Y923400D01*
X12752600Y923400D02*
X12772600Y1023400D01*
X12772600Y1023400D02*
X12792600Y1123400D01*
X12792600Y1123400D02*
X12802600Y1223400D01*
X12802600Y1223400D02*
X12822600Y1333400D01*
X12822600Y1333400D02*
X12832600Y1433400D01*
X12832600Y1433400D02*
X12852600Y1543400D01*
X12852600Y1543400D02*
X12862600Y1653400D01*
X12862600Y1653400D02*
X12872600Y1773400D01*
X12872600Y1773400D02*
X12892600Y1883400D01*
X12892600Y1883400D02*
X12902600Y2003400D01*
X12902600Y2003400D02*
X12912600Y2123400D01*
X12912600Y2123400D02*
X12922600Y2243400D01*
X12922600Y2243400D02*
X12932600Y2363400D01*
X12932600Y2363400D02*
X12942600Y2483400D01*
X12942600Y2483400D02*
X12952600Y2613400D01*
X12952600Y2613400D02*
X12962600Y2733400D01*
X12962600Y2733400D02*
X12972600Y2863400D01*
X12972600Y2863400D02*
X12982600Y2983400D01*
X12982600Y2983400D02*
X12992600Y3113400D01*
X12992600Y3113400D02*
X12992600Y3243400D01*
X12992600Y3243400D02*
X13002600Y3373400D01*
X13002600Y3373400D02*
X13012600Y3503400D01*
X13012600Y3503400D02*
X13012600Y3643400D01*
X13012600Y3643400D02*
X13022600Y3773400D01*
X13022600Y3773400D02*
X13022600Y3903400D01*
X13022600Y3903400D02*
X13022600Y4043400D01*
X13022600Y4043400D02*
X13032600Y4173400D01*
X13032600Y4173400D02*
X13032600Y4313400D01*
X13032600Y4313400D02*
X13032600Y4443400D01*
X13032600Y4443400D02*
X13032600Y4583400D01*
X13032600Y4583400D02*
X13032600Y4713400D01*
X32600Y513400D02*
G75*
G03*
X532600Y13400I500000J0D01*
G01*
X12532600Y9413399D02*
X532600Y9413400D01*
D10*
X10376800Y5538000D02*
X10376800Y3838000D01*
X9176800Y5538000D02*
X9176800Y3838000D01*
M02*
