G04 #@! TF.GenerationSoftware,KiCad,Pcbnew,(5.1.8-0-10_14)*
G04 #@! TF.CreationDate,2021-01-06T00:38:35-08:00*
G04 #@! TF.ProjectId,bomu,626f6d75-2e6b-4696-9361-645f70636258,rev?*
G04 #@! TF.SameCoordinates,Original*
G04 #@! TF.FileFunction,Paste,Bot*
G04 #@! TF.FilePolarity,Positive*
%FSLAX46Y46*%
G04 Gerber Fmt 4.6, Leading zero omitted, Abs format (unit mm)*
G04 Created by KiCad (PCBNEW (5.1.8-0-10_14)) date 2021-01-06 00:38:35*
%MOMM*%
%LPD*%
G01*
G04 APERTURE LIST*
%ADD10C,0.200000*%
%ADD11R,0.750000X1.400000*%
%ADD12R,0.740000X0.840000*%
%ADD13R,0.650000X0.800000*%
%ADD14R,1.600000X0.800000*%
G04 APERTURE END LIST*
D10*
X137592000Y-138049201D03*
X137592000Y-137699201D03*
X137592000Y-137349201D03*
X137592000Y-136999201D03*
X137592000Y-136649201D03*
X137592000Y-136299201D03*
X137592000Y-135949201D03*
X137592000Y-135599201D03*
X137592000Y-135249201D03*
X137592000Y-134899201D03*
X137242000Y-137349201D03*
X137242000Y-136999201D03*
X137242000Y-136649201D03*
X137242000Y-136299201D03*
X137242000Y-135949201D03*
X137242000Y-135599201D03*
X137242000Y-135249201D03*
X137242000Y-134899201D03*
X136892000Y-138049201D03*
X136892000Y-137699201D03*
X136892000Y-136999201D03*
X136892000Y-136649201D03*
X136892000Y-136299201D03*
X136892000Y-135949201D03*
X136892000Y-135599201D03*
X136892000Y-135249201D03*
X136892000Y-134899201D03*
X136542000Y-137349201D03*
X136542000Y-136999201D03*
X136542000Y-136649201D03*
X136542000Y-136299201D03*
X136542000Y-135949201D03*
X136542000Y-135599201D03*
X136542000Y-135249201D03*
X136542000Y-134899201D03*
X136192000Y-138049201D03*
X136192000Y-137699201D03*
X136192000Y-137349201D03*
X136192000Y-136999201D03*
X136192000Y-136649201D03*
X136192000Y-136299201D03*
X136192000Y-135949201D03*
X136192000Y-135599201D03*
X136192000Y-135249201D03*
X136192000Y-134899201D03*
X135842000Y-138049201D03*
X135842000Y-137699201D03*
X135842000Y-137349201D03*
X135842000Y-136999201D03*
X135842000Y-136649201D03*
X135842000Y-136299201D03*
X135842000Y-135949201D03*
X135842000Y-135599201D03*
X135842000Y-135249201D03*
X135842000Y-134899201D03*
X135492000Y-138049201D03*
X135492000Y-137699201D03*
X135492000Y-137349201D03*
X135492000Y-136999201D03*
X135492000Y-136649201D03*
X135492000Y-136299201D03*
X135492000Y-135949201D03*
X135492000Y-135599201D03*
X135492000Y-135249201D03*
X135492000Y-134899201D03*
X135142000Y-138049201D03*
X135142000Y-137699201D03*
X135142000Y-136999201D03*
X135142000Y-136649201D03*
X135142000Y-136299201D03*
X135142000Y-135949201D03*
X135142000Y-135599201D03*
X135142000Y-135249201D03*
X135142000Y-134899201D03*
X134792000Y-138049201D03*
X134792000Y-137699201D03*
X134792000Y-137349201D03*
X134792000Y-136999201D03*
X134792000Y-136649201D03*
X134792000Y-136299201D03*
X134792000Y-135949201D03*
X134792000Y-135599201D03*
X134792000Y-135249201D03*
X134792000Y-134899201D03*
X134442000Y-138049201D03*
X134442000Y-137699201D03*
X134442000Y-137349201D03*
X134442000Y-136999201D03*
X134442000Y-136649201D03*
X134442000Y-136299201D03*
X134442000Y-135949201D03*
X134442000Y-135599201D03*
X134442000Y-135249201D03*
X134442000Y-134899201D03*
G36*
G01*
X137502400Y-139085100D02*
X137502400Y-138740100D01*
G75*
G02*
X137649900Y-138592600I147500J0D01*
G01*
X137944900Y-138592600D01*
G75*
G02*
X138092400Y-138740100I0J-147500D01*
G01*
X138092400Y-139085100D01*
G75*
G02*
X137944900Y-139232600I-147500J0D01*
G01*
X137649900Y-139232600D01*
G75*
G02*
X137502400Y-139085100I0J147500D01*
G01*
G37*
G36*
G01*
X136532400Y-139085100D02*
X136532400Y-138740100D01*
G75*
G02*
X136679900Y-138592600I147500J0D01*
G01*
X136974900Y-138592600D01*
G75*
G02*
X137122400Y-138740100I0J-147500D01*
G01*
X137122400Y-139085100D01*
G75*
G02*
X136974900Y-139232600I-147500J0D01*
G01*
X136679900Y-139232600D01*
G75*
G02*
X136532400Y-139085100I0J147500D01*
G01*
G37*
G36*
G01*
X136174700Y-133768600D02*
X136519700Y-133768600D01*
G75*
G02*
X136667200Y-133916100I0J-147500D01*
G01*
X136667200Y-134211100D01*
G75*
G02*
X136519700Y-134358600I-147500J0D01*
G01*
X136174700Y-134358600D01*
G75*
G02*
X136027200Y-134211100I0J147500D01*
G01*
X136027200Y-133916100D01*
G75*
G02*
X136174700Y-133768600I147500J0D01*
G01*
G37*
G36*
G01*
X136174700Y-132798600D02*
X136519700Y-132798600D01*
G75*
G02*
X136667200Y-132946100I0J-147500D01*
G01*
X136667200Y-133241100D01*
G75*
G02*
X136519700Y-133388600I-147500J0D01*
G01*
X136174700Y-133388600D01*
G75*
G02*
X136027200Y-133241100I0J147500D01*
G01*
X136027200Y-132946100D01*
G75*
G02*
X136174700Y-132798600I147500J0D01*
G01*
G37*
G36*
G01*
X135630700Y-133388600D02*
X135285700Y-133388600D01*
G75*
G02*
X135138200Y-133241100I0J147500D01*
G01*
X135138200Y-132946100D01*
G75*
G02*
X135285700Y-132798600I147500J0D01*
G01*
X135630700Y-132798600D01*
G75*
G02*
X135778200Y-132946100I0J-147500D01*
G01*
X135778200Y-133241100D01*
G75*
G02*
X135630700Y-133388600I-147500J0D01*
G01*
G37*
G36*
G01*
X135630700Y-134358600D02*
X135285700Y-134358600D01*
G75*
G02*
X135138200Y-134211100I0J147500D01*
G01*
X135138200Y-133916100D01*
G75*
G02*
X135285700Y-133768600I147500J0D01*
G01*
X135630700Y-133768600D01*
G75*
G02*
X135778200Y-133916100I0J-147500D01*
G01*
X135778200Y-134211100D01*
G75*
G02*
X135630700Y-134358600I-147500J0D01*
G01*
G37*
G36*
G01*
X134741700Y-133388600D02*
X134396700Y-133388600D01*
G75*
G02*
X134249200Y-133241100I0J147500D01*
G01*
X134249200Y-132946100D01*
G75*
G02*
X134396700Y-132798600I147500J0D01*
G01*
X134741700Y-132798600D01*
G75*
G02*
X134889200Y-132946100I0J-147500D01*
G01*
X134889200Y-133241100D01*
G75*
G02*
X134741700Y-133388600I-147500J0D01*
G01*
G37*
G36*
G01*
X134741700Y-134358600D02*
X134396700Y-134358600D01*
G75*
G02*
X134249200Y-134211100I0J147500D01*
G01*
X134249200Y-133916100D01*
G75*
G02*
X134396700Y-133768600I147500J0D01*
G01*
X134741700Y-133768600D01*
G75*
G02*
X134889200Y-133916100I0J-147500D01*
G01*
X134889200Y-134211100D01*
G75*
G02*
X134741700Y-134358600I-147500J0D01*
G01*
G37*
G36*
G01*
X133725700Y-133591800D02*
X133380700Y-133591800D01*
G75*
G02*
X133233200Y-133444300I0J147500D01*
G01*
X133233200Y-133149300D01*
G75*
G02*
X133380700Y-133001800I147500J0D01*
G01*
X133725700Y-133001800D01*
G75*
G02*
X133873200Y-133149300I0J-147500D01*
G01*
X133873200Y-133444300D01*
G75*
G02*
X133725700Y-133591800I-147500J0D01*
G01*
G37*
G36*
G01*
X133725700Y-134561800D02*
X133380700Y-134561800D01*
G75*
G02*
X133233200Y-134414300I0J147500D01*
G01*
X133233200Y-134119300D01*
G75*
G02*
X133380700Y-133971800I147500J0D01*
G01*
X133725700Y-133971800D01*
G75*
G02*
X133873200Y-134119300I0J-147500D01*
G01*
X133873200Y-134414300D01*
G75*
G02*
X133725700Y-134561800I-147500J0D01*
G01*
G37*
G36*
G01*
X142966942Y-139294214D02*
X142824814Y-139436342D01*
G75*
G02*
X142712384Y-139436342I-56215J56215D01*
G01*
X142599954Y-139323912D01*
G75*
G02*
X142599954Y-139211482I56215J56215D01*
G01*
X142742082Y-139069354D01*
G75*
G02*
X142854512Y-139069354I56215J-56215D01*
G01*
X142966942Y-139181784D01*
G75*
G02*
X142966942Y-139294214I-56215J-56215D01*
G01*
G37*
G36*
G01*
X143419844Y-139705396D02*
X143235996Y-139889244D01*
G75*
G02*
X143165286Y-139889244I-35355J35355D01*
G01*
X143094576Y-139818534D01*
G75*
G02*
X143094576Y-139747824I35355J35355D01*
G01*
X143278424Y-139563976D01*
G75*
G02*
X143349134Y-139563976I35355J-35355D01*
G01*
X143419844Y-139634686D01*
G75*
G02*
X143419844Y-139705396I-35355J-35355D01*
G01*
G37*
G36*
G01*
X141400700Y-139793400D02*
X141199700Y-139793400D01*
G75*
G02*
X141120200Y-139713900I0J79500D01*
G01*
X141120200Y-139554900D01*
G75*
G02*
X141199700Y-139475400I79500J0D01*
G01*
X141400700Y-139475400D01*
G75*
G02*
X141480200Y-139554900I0J-79500D01*
G01*
X141480200Y-139713900D01*
G75*
G02*
X141400700Y-139793400I-79500J0D01*
G01*
G37*
G36*
G01*
X141430200Y-140399400D02*
X141170200Y-140399400D01*
G75*
G02*
X141120200Y-140349400I0J50000D01*
G01*
X141120200Y-140249400D01*
G75*
G02*
X141170200Y-140199400I50000J0D01*
G01*
X141430200Y-140199400D01*
G75*
G02*
X141480200Y-140249400I0J-50000D01*
G01*
X141480200Y-140349400D01*
G75*
G02*
X141430200Y-140399400I-50000J0D01*
G01*
G37*
G36*
G01*
X140225200Y-140246940D02*
X140225200Y-140346940D01*
G75*
G02*
X140175200Y-140396940I-50000J0D01*
G01*
X139957200Y-140396940D01*
G75*
G02*
X139907200Y-140346940I0J50000D01*
G01*
X139907200Y-140246940D01*
G75*
G02*
X139957200Y-140196940I50000J0D01*
G01*
X140175200Y-140196940D01*
G75*
G02*
X140225200Y-140246940I0J-50000D01*
G01*
G37*
G36*
G01*
X140915200Y-140246940D02*
X140915200Y-140346940D01*
G75*
G02*
X140865200Y-140396940I-50000J0D01*
G01*
X140647200Y-140396940D01*
G75*
G02*
X140597200Y-140346940I0J50000D01*
G01*
X140597200Y-140246940D01*
G75*
G02*
X140647200Y-140196940I50000J0D01*
G01*
X140865200Y-140196940D01*
G75*
G02*
X140915200Y-140246940I0J-50000D01*
G01*
G37*
G36*
G01*
X139495700Y-139793400D02*
X139294700Y-139793400D01*
G75*
G02*
X139215200Y-139713900I0J79500D01*
G01*
X139215200Y-139554900D01*
G75*
G02*
X139294700Y-139475400I79500J0D01*
G01*
X139495700Y-139475400D01*
G75*
G02*
X139575200Y-139554900I0J-79500D01*
G01*
X139575200Y-139713900D01*
G75*
G02*
X139495700Y-139793400I-79500J0D01*
G01*
G37*
G36*
G01*
X139521950Y-140410900D02*
X139268450Y-140410900D01*
G75*
G02*
X139215200Y-140357650I0J53250D01*
G01*
X139215200Y-140251150D01*
G75*
G02*
X139268450Y-140197900I53250J0D01*
G01*
X139521950Y-140197900D01*
G75*
G02*
X139575200Y-140251150I0J-53250D01*
G01*
X139575200Y-140357650D01*
G75*
G02*
X139521950Y-140410900I-53250J0D01*
G01*
G37*
G36*
G01*
X137770680Y-140243690D02*
X137770680Y-140350190D01*
G75*
G02*
X137717430Y-140403440I-53250J0D01*
G01*
X137505930Y-140403440D01*
G75*
G02*
X137452680Y-140350190I0J53250D01*
G01*
X137452680Y-140243690D01*
G75*
G02*
X137505930Y-140190440I53250J0D01*
G01*
X137717430Y-140190440D01*
G75*
G02*
X137770680Y-140243690I0J-53250D01*
G01*
G37*
G36*
G01*
X137080680Y-140243690D02*
X137080680Y-140350190D01*
G75*
G02*
X137027430Y-140403440I-53250J0D01*
G01*
X136815930Y-140403440D01*
G75*
G02*
X136762680Y-140350190I0J53250D01*
G01*
X136762680Y-140243690D01*
G75*
G02*
X136815930Y-140190440I53250J0D01*
G01*
X137027430Y-140190440D01*
G75*
G02*
X137080680Y-140243690I0J-53250D01*
G01*
G37*
G36*
G01*
X136374600Y-140294872D02*
X136194288Y-140114560D01*
G75*
G02*
X136194288Y-140040314I37123J37123D01*
G01*
X136268534Y-139966068D01*
G75*
G02*
X136342780Y-139966068I37123J-37123D01*
G01*
X136523092Y-140146380D01*
G75*
G02*
X136523092Y-140220626I-37123J-37123D01*
G01*
X136448846Y-140294872D01*
G75*
G02*
X136374600Y-140294872I-37123J37123D01*
G01*
G37*
G36*
G01*
X136791086Y-139840202D02*
X136648958Y-139698074D01*
G75*
G02*
X136648958Y-139585644I56215J56215D01*
G01*
X136761388Y-139473214D01*
G75*
G02*
X136873818Y-139473214I56215J-56215D01*
G01*
X137015946Y-139615342D01*
G75*
G02*
X137015946Y-139727772I-56215J-56215D01*
G01*
X136903516Y-139840202D01*
G75*
G02*
X136791086Y-139840202I-56215J56215D01*
G01*
G37*
G36*
G01*
X136244760Y-138752000D02*
X136139760Y-138752000D01*
G75*
G02*
X136087260Y-138699500I0J52500D01*
G01*
X136087260Y-138486500D01*
G75*
G02*
X136139760Y-138434000I52500J0D01*
G01*
X136244760Y-138434000D01*
G75*
G02*
X136297260Y-138486500I0J-52500D01*
G01*
X136297260Y-138699500D01*
G75*
G02*
X136244760Y-138752000I-52500J0D01*
G01*
G37*
G36*
G01*
X136244760Y-139442000D02*
X136139760Y-139442000D01*
G75*
G02*
X136087260Y-139389500I0J52500D01*
G01*
X136087260Y-139176500D01*
G75*
G02*
X136139760Y-139124000I52500J0D01*
G01*
X136244760Y-139124000D01*
G75*
G02*
X136297260Y-139176500I0J-52500D01*
G01*
X136297260Y-139389500D01*
G75*
G02*
X136244760Y-139442000I-52500J0D01*
G01*
G37*
D11*
X138309600Y-133019800D03*
X139769600Y-133019800D03*
D12*
X139833200Y-135810000D03*
X138703200Y-135810000D03*
X138703200Y-137240000D03*
X139833200Y-137240000D03*
G36*
G01*
X132960800Y-140717100D02*
X132960800Y-140918100D01*
G75*
G02*
X132881300Y-140997600I-79500J0D01*
G01*
X132722300Y-140997600D01*
G75*
G02*
X132642800Y-140918100I0J79500D01*
G01*
X132642800Y-140717100D01*
G75*
G02*
X132722300Y-140637600I79500J0D01*
G01*
X132881300Y-140637600D01*
G75*
G02*
X132960800Y-140717100I0J-79500D01*
G01*
G37*
G36*
G01*
X133650800Y-140717100D02*
X133650800Y-140918100D01*
G75*
G02*
X133571300Y-140997600I-79500J0D01*
G01*
X133412300Y-140997600D01*
G75*
G02*
X133332800Y-140918100I0J79500D01*
G01*
X133332800Y-140717100D01*
G75*
G02*
X133412300Y-140637600I79500J0D01*
G01*
X133571300Y-140637600D01*
G75*
G02*
X133650800Y-140717100I0J-79500D01*
G01*
G37*
G36*
G01*
X139428800Y-138987700D02*
X139428800Y-138786700D01*
G75*
G02*
X139508300Y-138707200I79500J0D01*
G01*
X139667300Y-138707200D01*
G75*
G02*
X139746800Y-138786700I0J-79500D01*
G01*
X139746800Y-138987700D01*
G75*
G02*
X139667300Y-139067200I-79500J0D01*
G01*
X139508300Y-139067200D01*
G75*
G02*
X139428800Y-138987700I0J79500D01*
G01*
G37*
G36*
G01*
X138738800Y-138987700D02*
X138738800Y-138786700D01*
G75*
G02*
X138818300Y-138707200I79500J0D01*
G01*
X138977300Y-138707200D01*
G75*
G02*
X139056800Y-138786700I0J-79500D01*
G01*
X139056800Y-138987700D01*
G75*
G02*
X138977300Y-139067200I-79500J0D01*
G01*
X138818300Y-139067200D01*
G75*
G02*
X138738800Y-138987700I0J79500D01*
G01*
G37*
G36*
G01*
X133341800Y-138964500D02*
X133341800Y-139165500D01*
G75*
G02*
X133262300Y-139245000I-79500J0D01*
G01*
X133103300Y-139245000D01*
G75*
G02*
X133023800Y-139165500I0J79500D01*
G01*
X133023800Y-138964500D01*
G75*
G02*
X133103300Y-138885000I79500J0D01*
G01*
X133262300Y-138885000D01*
G75*
G02*
X133341800Y-138964500I0J-79500D01*
G01*
G37*
G36*
G01*
X134031800Y-138964500D02*
X134031800Y-139165500D01*
G75*
G02*
X133952300Y-139245000I-79500J0D01*
G01*
X133793300Y-139245000D01*
G75*
G02*
X133713800Y-139165500I0J79500D01*
G01*
X133713800Y-138964500D01*
G75*
G02*
X133793300Y-138885000I79500J0D01*
G01*
X133952300Y-138885000D01*
G75*
G02*
X134031800Y-138964500I0J-79500D01*
G01*
G37*
G36*
G01*
X133503500Y-136507800D02*
X133704500Y-136507800D01*
G75*
G02*
X133784000Y-136587300I0J-79500D01*
G01*
X133784000Y-136746300D01*
G75*
G02*
X133704500Y-136825800I-79500J0D01*
G01*
X133503500Y-136825800D01*
G75*
G02*
X133424000Y-136746300I0J79500D01*
G01*
X133424000Y-136587300D01*
G75*
G02*
X133503500Y-136507800I79500J0D01*
G01*
G37*
G36*
G01*
X133503500Y-135817800D02*
X133704500Y-135817800D01*
G75*
G02*
X133784000Y-135897300I0J-79500D01*
G01*
X133784000Y-136056300D01*
G75*
G02*
X133704500Y-136135800I-79500J0D01*
G01*
X133503500Y-136135800D01*
G75*
G02*
X133424000Y-136056300I0J79500D01*
G01*
X133424000Y-135897300D01*
G75*
G02*
X133503500Y-135817800I79500J0D01*
G01*
G37*
G36*
G01*
X137440500Y-133028000D02*
X137641500Y-133028000D01*
G75*
G02*
X137721000Y-133107500I0J-79500D01*
G01*
X137721000Y-133266500D01*
G75*
G02*
X137641500Y-133346000I-79500J0D01*
G01*
X137440500Y-133346000D01*
G75*
G02*
X137361000Y-133266500I0J79500D01*
G01*
X137361000Y-133107500D01*
G75*
G02*
X137440500Y-133028000I79500J0D01*
G01*
G37*
G36*
G01*
X137440500Y-132338000D02*
X137641500Y-132338000D01*
G75*
G02*
X137721000Y-132417500I0J-79500D01*
G01*
X137721000Y-132576500D01*
G75*
G02*
X137641500Y-132656000I-79500J0D01*
G01*
X137440500Y-132656000D01*
G75*
G02*
X137361000Y-132576500I0J79500D01*
G01*
X137361000Y-132417500D01*
G75*
G02*
X137440500Y-132338000I79500J0D01*
G01*
G37*
G36*
G01*
X140740300Y-132671200D02*
X140539300Y-132671200D01*
G75*
G02*
X140459800Y-132591700I0J79500D01*
G01*
X140459800Y-132432700D01*
G75*
G02*
X140539300Y-132353200I79500J0D01*
G01*
X140740300Y-132353200D01*
G75*
G02*
X140819800Y-132432700I0J-79500D01*
G01*
X140819800Y-132591700D01*
G75*
G02*
X140740300Y-132671200I-79500J0D01*
G01*
G37*
G36*
G01*
X140740300Y-133361200D02*
X140539300Y-133361200D01*
G75*
G02*
X140459800Y-133281700I0J79500D01*
G01*
X140459800Y-133122700D01*
G75*
G02*
X140539300Y-133043200I79500J0D01*
G01*
X140740300Y-133043200D01*
G75*
G02*
X140819800Y-133122700I0J-79500D01*
G01*
X140819800Y-133281700D01*
G75*
G02*
X140740300Y-133361200I-79500J0D01*
G01*
G37*
G36*
G01*
X139158400Y-134697300D02*
X139158400Y-134898300D01*
G75*
G02*
X139078900Y-134977800I-79500J0D01*
G01*
X138919900Y-134977800D01*
G75*
G02*
X138840400Y-134898300I0J79500D01*
G01*
X138840400Y-134697300D01*
G75*
G02*
X138919900Y-134617800I79500J0D01*
G01*
X139078900Y-134617800D01*
G75*
G02*
X139158400Y-134697300I0J-79500D01*
G01*
G37*
G36*
G01*
X139848400Y-134697300D02*
X139848400Y-134898300D01*
G75*
G02*
X139768900Y-134977800I-79500J0D01*
G01*
X139609900Y-134977800D01*
G75*
G02*
X139530400Y-134898300I0J79500D01*
G01*
X139530400Y-134697300D01*
G75*
G02*
X139609900Y-134617800I79500J0D01*
G01*
X139768900Y-134617800D01*
G75*
G02*
X139848400Y-134697300I0J-79500D01*
G01*
G37*
G36*
G01*
X139234600Y-138126300D02*
X139234600Y-138327300D01*
G75*
G02*
X139155100Y-138406800I-79500J0D01*
G01*
X138996100Y-138406800D01*
G75*
G02*
X138916600Y-138327300I0J79500D01*
G01*
X138916600Y-138126300D01*
G75*
G02*
X138996100Y-138046800I79500J0D01*
G01*
X139155100Y-138046800D01*
G75*
G02*
X139234600Y-138126300I0J-79500D01*
G01*
G37*
G36*
G01*
X139924600Y-138126300D02*
X139924600Y-138327300D01*
G75*
G02*
X139845100Y-138406800I-79500J0D01*
G01*
X139686100Y-138406800D01*
G75*
G02*
X139606600Y-138327300I0J79500D01*
G01*
X139606600Y-138126300D01*
G75*
G02*
X139686100Y-138046800I79500J0D01*
G01*
X139845100Y-138046800D01*
G75*
G02*
X139924600Y-138126300I0J-79500D01*
G01*
G37*
G36*
G01*
X135110800Y-139165500D02*
X135110800Y-138964500D01*
G75*
G02*
X135190300Y-138885000I79500J0D01*
G01*
X135349300Y-138885000D01*
G75*
G02*
X135428800Y-138964500I0J-79500D01*
G01*
X135428800Y-139165500D01*
G75*
G02*
X135349300Y-139245000I-79500J0D01*
G01*
X135190300Y-139245000D01*
G75*
G02*
X135110800Y-139165500I0J79500D01*
G01*
G37*
G36*
G01*
X134420800Y-139165500D02*
X134420800Y-138964500D01*
G75*
G02*
X134500300Y-138885000I79500J0D01*
G01*
X134659300Y-138885000D01*
G75*
G02*
X134738800Y-138964500I0J-79500D01*
G01*
X134738800Y-139165500D01*
G75*
G02*
X134659300Y-139245000I-79500J0D01*
G01*
X134500300Y-139245000D01*
G75*
G02*
X134420800Y-139165500I0J79500D01*
G01*
G37*
G36*
G01*
X138946200Y-134263300D02*
X138946200Y-134062300D01*
G75*
G02*
X139025700Y-133982800I79500J0D01*
G01*
X139184700Y-133982800D01*
G75*
G02*
X139264200Y-134062300I0J-79500D01*
G01*
X139264200Y-134263300D01*
G75*
G02*
X139184700Y-134342800I-79500J0D01*
G01*
X139025700Y-134342800D01*
G75*
G02*
X138946200Y-134263300I0J79500D01*
G01*
G37*
G36*
G01*
X138256200Y-134263300D02*
X138256200Y-134062300D01*
G75*
G02*
X138335700Y-133982800I79500J0D01*
G01*
X138494700Y-133982800D01*
G75*
G02*
X138574200Y-134062300I0J-79500D01*
G01*
X138574200Y-134263300D01*
G75*
G02*
X138494700Y-134342800I-79500J0D01*
G01*
X138335700Y-134342800D01*
G75*
G02*
X138256200Y-134263300I0J79500D01*
G01*
G37*
D13*
X144366000Y-138404400D03*
X143416000Y-138404400D03*
D14*
X143891000Y-135204400D03*
M02*
