G04 #@! TF.GenerationSoftware,KiCad,Pcbnew,(5.99.0-8645-g8b3dea7107)*
G04 #@! TF.CreationDate,2021-02-21T21:45:34-08:00*
G04 #@! TF.ProjectId,bomu,626f6d75-2e6b-4696-9361-645f70636258,rev?*
G04 #@! TF.SameCoordinates,PX7de9b10PY86ff218*
G04 #@! TF.FileFunction,Paste,Bot*
G04 #@! TF.FilePolarity,Positive*
%FSLAX46Y46*%
G04 Gerber Fmt 4.6, Leading zero omitted, Abs format (unit mm)*
G04 Created by KiCad (PCBNEW (5.99.0-8645-g8b3dea7107)) date 2021-02-21 21:45:34*
%MOMM*%
%LPD*%
G01*
G04 APERTURE LIST*
G04 Aperture macros list*
%AMRoundRect*
0 Rectangle with rounded corners*
0 $1 Rounding radius*
0 $2 $3 $4 $5 $6 $7 $8 $9 X,Y pos of 4 corners*
0 Add a 4 corners polygon primitive as box body*
4,1,4,$2,$3,$4,$5,$6,$7,$8,$9,$2,$3,0*
0 Add four circle primitives for the rounded corners*
1,1,$1+$1,$2,$3*
1,1,$1+$1,$4,$5*
1,1,$1+$1,$6,$7*
1,1,$1+$1,$8,$9*
0 Add four rect primitives between the rounded corners*
20,1,$1+$1,$2,$3,$4,$5,0*
20,1,$1+$1,$4,$5,$6,$7,0*
20,1,$1+$1,$6,$7,$8,$9,0*
20,1,$1+$1,$8,$9,$2,$3,0*%
G04 Aperture macros list end*
%ADD10RoundRect,0.147500X0.172500X-0.147500X0.172500X0.147500X-0.172500X0.147500X-0.172500X-0.147500X0*%
%ADD11RoundRect,0.079500X0.079500X0.100500X-0.079500X0.100500X-0.079500X-0.100500X0.079500X-0.100500X0*%
%ADD12RoundRect,0.079500X0.100500X-0.079500X0.100500X0.079500X-0.100500X0.079500X-0.100500X-0.079500X0*%
%ADD13RoundRect,0.079500X-0.100500X0.079500X-0.100500X-0.079500X0.100500X-0.079500X0.100500X0.079500X0*%
%ADD14C,0.200000*%
%ADD15R,0.740000X0.840000*%
%ADD16R,0.750000X1.400000*%
%ADD17RoundRect,0.147500X-0.172500X0.147500X-0.172500X-0.147500X0.172500X-0.147500X0.172500X0.147500X0*%
%ADD18RoundRect,0.079500X-0.079500X-0.100500X0.079500X-0.100500X0.079500X0.100500X-0.079500X0.100500X0*%
%ADD19RoundRect,0.079500X0.014849X-0.127279X0.127279X-0.014849X-0.014849X0.127279X-0.127279X0.014849X0*%
%ADD20R,0.650000X0.800000*%
%ADD21R,1.600000X0.800000*%
%ADD22RoundRect,0.147500X-0.147500X-0.172500X0.147500X-0.172500X0.147500X0.172500X-0.147500X0.172500X0*%
G04 APERTURE END LIST*
D10*
X2540000Y7490600D03*
X2540000Y8460600D03*
D11*
X1153600Y2489200D03*
X1843600Y2489200D03*
X772600Y736600D03*
X1462600Y736600D03*
X7660200Y6756400D03*
X6970200Y6756400D03*
D12*
X8610600Y8352011D03*
X8610600Y9042011D03*
D13*
X5511800Y9057200D03*
X5511800Y8367200D03*
D14*
X5562800Y3504999D03*
X5562800Y3854999D03*
X5562800Y4204999D03*
X5562800Y4554999D03*
X5562800Y4904999D03*
X5562800Y5254999D03*
X5562800Y5604999D03*
X5562800Y5954999D03*
X5562800Y6304999D03*
X5562800Y6654999D03*
X5212800Y4204999D03*
X5212800Y4554999D03*
X5212800Y4904999D03*
X5212800Y5254999D03*
X5212800Y5604999D03*
X5212800Y5954999D03*
X5212800Y6304999D03*
X5212800Y6654999D03*
X4862800Y3504999D03*
X4862800Y3854999D03*
X4862800Y4554999D03*
X4862800Y4904999D03*
X4862800Y5254999D03*
X4862800Y5604999D03*
X4862800Y5954999D03*
X4862800Y6304999D03*
X4862800Y6654999D03*
X4512800Y4204999D03*
X4512800Y4554999D03*
X4512800Y4904999D03*
X4512800Y5254999D03*
X4512800Y5604999D03*
X4512800Y5954999D03*
X4512800Y6304999D03*
X4512800Y6654999D03*
X4162800Y3504999D03*
X4162800Y3854999D03*
X4162800Y4204999D03*
X4162800Y4554999D03*
X4162800Y4904999D03*
X4162800Y5254999D03*
X4162800Y5604999D03*
X4162800Y5954999D03*
X4162800Y6304999D03*
X4162800Y6654999D03*
X3812800Y3504999D03*
X3812800Y3854999D03*
X3812800Y4204999D03*
X3812800Y4554999D03*
X3812800Y4904999D03*
X3812800Y5254999D03*
X3812800Y5604999D03*
X3812800Y5954999D03*
X3812800Y6304999D03*
X3812800Y6654999D03*
X3462800Y3504999D03*
X3462800Y3854999D03*
X3462800Y4204999D03*
X3462800Y4554999D03*
X3462800Y4904999D03*
X3462800Y5254999D03*
X3462800Y5604999D03*
X3462800Y5954999D03*
X3462800Y6304999D03*
X3462800Y6654999D03*
X3112800Y3504999D03*
X3112800Y3854999D03*
X3112800Y4554999D03*
X3112800Y4904999D03*
X3112800Y5254999D03*
X3112800Y5604999D03*
X3112800Y5954999D03*
X3112800Y6304999D03*
X3112800Y6654999D03*
X2762800Y3504999D03*
X2762800Y3854999D03*
X2762800Y4204999D03*
X2762800Y4554999D03*
X2762800Y4904999D03*
X2762800Y5254999D03*
X2762800Y5604999D03*
X2762800Y5954999D03*
X2762800Y6304999D03*
X2762800Y6654999D03*
X2412800Y3504999D03*
X2412800Y3854999D03*
X2412800Y4204999D03*
X2412800Y4554999D03*
X2412800Y4904999D03*
X2412800Y5254999D03*
X2412800Y5604999D03*
X2412800Y5954999D03*
X2412800Y6304999D03*
X2412800Y6654999D03*
D15*
X6674000Y4314200D03*
X6674000Y5744200D03*
X7804000Y5744200D03*
X7804000Y4314200D03*
D10*
X3429000Y7490600D03*
X3429000Y8460600D03*
D16*
X7740400Y8534400D03*
X6280400Y8534400D03*
D17*
X4318000Y8460600D03*
X4318000Y7490600D03*
D18*
X3240600Y2489200D03*
X2550600Y2489200D03*
D12*
X4163060Y2271200D03*
X4163060Y2961200D03*
D19*
X4803252Y1897492D03*
X4315348Y1409588D03*
D18*
X6386000Y7391400D03*
X7076000Y7391400D03*
D13*
X1574800Y4887400D03*
X1574800Y5577400D03*
D11*
X5582480Y1257249D03*
X4892480Y1257249D03*
X9637200Y1600200D03*
X10327200Y1600200D03*
D12*
X9118600Y1585400D03*
X9118600Y2275400D03*
X10845800Y2275400D03*
X10845800Y1585400D03*
D20*
X11386800Y3149800D03*
X12336800Y3149800D03*
D21*
X11861800Y6349800D03*
D10*
X1524000Y7287400D03*
X1524000Y8257400D03*
D22*
X4798200Y2641600D03*
X5768200Y2641600D03*
D18*
X6868600Y2667000D03*
X7558600Y2667000D03*
D11*
X7736400Y3327400D03*
X7046400Y3327400D03*
M02*
