G04 #@! TF.GenerationSoftware,KiCad,Pcbnew,(5.99.0-8645-g8b3dea7107)*
G04 #@! TF.CreationDate,2021-02-21T21:45:34-08:00*
G04 #@! TF.ProjectId,bomu,626f6d75-2e6b-4696-9361-645f70636258,rev?*
G04 #@! TF.SameCoordinates,PX7de9b10PY86ff218*
G04 #@! TF.FileFunction,Copper,L3,Inr*
G04 #@! TF.FilePolarity,Positive*
%FSLAX46Y46*%
G04 Gerber Fmt 4.6, Leading zero omitted, Abs format (unit mm)*
G04 Created by KiCad (PCBNEW (5.99.0-8645-g8b3dea7107)) date 2021-02-21 21:45:34*
%MOMM*%
%LPD*%
G01*
G04 APERTURE LIST*
G04 #@! TA.AperFunction,ViaPad*
%ADD10C,0.508000*%
G04 #@! TD*
G04 #@! TA.AperFunction,ViaPad*
%ADD11C,0.200000*%
G04 #@! TD*
G04 #@! TA.AperFunction,Conductor*
%ADD12C,0.254000*%
G04 #@! TD*
G04 #@! TA.AperFunction,Conductor*
%ADD13C,0.127000*%
G04 #@! TD*
G04 APERTURE END LIST*
D10*
X11861800Y7874000D03*
X4902200Y8128000D03*
X2438400Y7518400D03*
X609600Y990600D03*
X12268200Y8991600D03*
D11*
X1600200Y4826000D03*
X4343400Y7391400D03*
X3632200Y7391400D03*
X5270000Y6020000D03*
X6680200Y2667000D03*
X1930400Y2489200D03*
D10*
X2463800Y584200D03*
X1955800Y584200D03*
X2971800Y584200D03*
X1447800Y584200D03*
X10210800Y8420100D03*
D11*
X3120000Y3910000D03*
D10*
X11176000Y8991600D03*
D11*
X2790000Y3890000D03*
D10*
X9245600Y8991600D03*
D11*
X2108200Y5207000D03*
D10*
X4546600Y3657600D03*
X4394200Y5689600D03*
D11*
X9017000Y7442200D03*
X3760000Y3430000D03*
X10210800Y7442200D03*
X4140000Y3880000D03*
D12*
X5792149Y6686215D02*
X5786604Y6687480D01*
X8391652Y7873364D02*
X8386000Y7874000D01*
X7928800Y7874000D02*
X7923147Y7873364D01*
X5765800Y6680200D02*
X5765800Y5791200D01*
X5811292Y6674186D02*
X5806167Y6676654D01*
X7397915Y7786779D02*
X7396036Y7792147D01*
X7923147Y7873364D02*
X7917779Y7871485D01*
X8408884Y7859621D02*
X8405858Y7864437D01*
X7389858Y7813636D02*
X7385836Y7817658D01*
X8410763Y7854253D02*
X8408884Y7859621D01*
X6510572Y7428526D02*
X6505027Y7427261D01*
X6164477Y7007937D02*
X6160931Y7003490D01*
X7912963Y7868459D02*
X7908941Y7864437D01*
X7908941Y7864437D02*
X7905915Y7859621D01*
X7409779Y7774915D02*
X7404963Y7777941D01*
X5837642Y6680200D02*
X5833195Y6676654D01*
X6499339Y7427261D02*
X6493794Y7428526D01*
X7385836Y7817658D02*
X7381020Y7820684D01*
X5780916Y6687480D02*
X5775371Y6686215D01*
X6125012Y7111253D02*
X6121465Y7106805D01*
X6469106Y7441821D02*
X6463418Y7441821D01*
X6125011Y7075331D02*
X6160931Y7039411D01*
X6121466Y7079779D02*
X6125011Y7075331D01*
D13*
X3225355Y4265355D02*
X3250000Y4290000D01*
D12*
X8416941Y7832764D02*
X8413915Y7837580D01*
X6121465Y7106805D02*
X6118997Y7101681D01*
X6520145Y7434542D02*
X6515698Y7430995D01*
X6463418Y7441821D02*
X6457873Y7440556D01*
X5765800Y5791200D02*
X4876800Y4902200D01*
X6117731Y7096135D02*
X6117732Y7090449D01*
X7917779Y7871485D02*
X7912963Y7868459D01*
X4876800Y4902200D02*
X3862200Y4902200D01*
X7394763Y7803452D02*
X7392884Y7808820D01*
X6448301Y7434541D02*
X6125012Y7111253D01*
X8397020Y7871485D02*
X8391652Y7873364D01*
X6160931Y7039411D02*
X6164477Y7034964D01*
X7878000Y7772400D02*
X7420800Y7772400D01*
X6118998Y7084903D02*
X6121466Y7079779D01*
X8412036Y7842948D02*
X8410763Y7854253D01*
X5828070Y6674186D02*
X5822525Y6672921D01*
X6493794Y7428526D02*
X6488670Y7430995D01*
X6484223Y7434542D02*
X6479775Y7438087D01*
X8425779Y7825716D02*
X8420963Y7828742D01*
X6164477Y7034964D02*
X6166945Y7029839D01*
X5797274Y6683747D02*
X5792149Y6686215D01*
X6802735Y7717135D02*
X6520145Y7434542D01*
X10172700Y8420100D02*
X9575800Y7823200D01*
X5822525Y6672921D02*
X5816837Y6672921D01*
X6474651Y7440556D02*
X6469106Y7441821D01*
D13*
X3120000Y3910000D02*
X3120000Y4160000D01*
D12*
X7900884Y7786779D02*
X7897858Y7781963D01*
X3862200Y4902200D02*
X3250000Y4290000D01*
X5786604Y6687480D02*
X5780916Y6687480D01*
X7400941Y7781963D02*
X7397915Y7786779D01*
X7415147Y7773036D02*
X7409779Y7774915D01*
X7392884Y7808820D02*
X7389858Y7813636D01*
X7905915Y7859621D02*
X7904036Y7854253D01*
X6452749Y7438088D02*
X6448301Y7434541D01*
X6168210Y7018606D02*
X6166945Y7013061D01*
X7396036Y7792147D02*
X7394763Y7803452D01*
X7370000Y7823200D02*
X6908800Y7823200D01*
X7903400Y7797800D02*
X7902763Y7792147D01*
X8431147Y7823837D02*
X8425779Y7825716D01*
X7375652Y7822563D02*
X7370000Y7823200D01*
X8420963Y7828742D02*
X8416941Y7832764D01*
X5833195Y6676654D02*
X5828070Y6674186D01*
X5816837Y6672921D02*
X5811292Y6674186D01*
X6117732Y7090449D02*
X6118998Y7084903D01*
X5775371Y6686215D02*
X5770246Y6683747D01*
X8401836Y7868459D02*
X8397020Y7871485D01*
X6479775Y7438087D02*
X6474651Y7440556D01*
X5770246Y6683747D02*
X5765800Y6680200D01*
X7897858Y7781963D02*
X7893836Y7777941D01*
X6488670Y7430995D02*
X6484223Y7434542D01*
X8386000Y7874000D02*
X7928800Y7874000D01*
X6166945Y7029839D02*
X6168210Y7024294D01*
X6515698Y7430995D02*
X6510572Y7428526D01*
X6168210Y7024294D02*
X6168210Y7018606D01*
X7893836Y7777941D02*
X7889020Y7774915D01*
X7883652Y7773036D02*
X7878000Y7772400D01*
X6118997Y7101681D02*
X6117731Y7096135D01*
X10210800Y8420100D02*
X10172700Y8420100D01*
X8436800Y7823200D02*
X8431147Y7823837D01*
X8405858Y7864437D02*
X8401836Y7868459D01*
X7381020Y7820684D02*
X7375652Y7822563D01*
X6908800Y7823200D02*
X6802735Y7717135D01*
X7889020Y7774915D02*
X7883652Y7773036D01*
X6505027Y7427261D02*
X6499339Y7427261D01*
X6160931Y7003490D02*
X5837642Y6680200D01*
X10210800Y8407400D02*
X10160000Y8407400D01*
X6457873Y7440556D02*
X6452749Y7438088D01*
X9575800Y7823200D02*
X8436800Y7823200D01*
X7420800Y7772400D02*
X7415147Y7773036D01*
X5806167Y6676654D02*
X5797274Y6683747D01*
X7902763Y7792147D02*
X7900884Y7786779D01*
X7404963Y7777941D02*
X7400941Y7781963D01*
X7903400Y7848600D02*
X7903400Y7797800D01*
X6166945Y7013061D02*
X6164477Y7007937D01*
X7904036Y7854253D02*
X7903400Y7848600D01*
X8413915Y7837580D02*
X8412036Y7842948D01*
D13*
X3120000Y4160000D02*
X3225355Y4265355D01*
D12*
X2850000Y5010000D02*
X2850000Y4330000D01*
X11176000Y8991600D02*
X9982200Y8991600D01*
X4266200Y6426200D02*
X2850000Y5010000D01*
X4622800Y6426200D02*
X4266200Y6426200D01*
X6654800Y8458200D02*
X4622800Y6426200D01*
D13*
X2790000Y4270000D02*
X2790000Y3890000D01*
X2850000Y4330000D02*
X2790000Y4270000D01*
D12*
X9448800Y8458200D02*
X6654800Y8458200D01*
X9982200Y8991600D02*
X9448800Y8458200D01*
X9245600Y8991600D02*
X6553200Y8991600D01*
X2108200Y5486400D02*
X2108200Y5207000D01*
X6553200Y8991600D02*
X4495800Y6934200D01*
X4495800Y6934200D02*
X3352800Y6934200D01*
X3352800Y6934200D02*
X2108200Y5689600D01*
X2108200Y5689600D02*
X2108200Y5486400D01*
D13*
X6260399Y5760613D02*
X6267030Y5760613D01*
X7030407Y6704292D02*
X7035690Y6710916D01*
X6492067Y6207082D02*
X6503988Y6209802D01*
X7026730Y6671662D02*
X7024845Y6679924D01*
X6539159Y6201776D02*
X6558282Y6186525D01*
X6862524Y6429384D02*
X6870159Y6433060D01*
X7176042Y6845967D02*
X7184302Y6847852D01*
X6878420Y6434946D02*
X6886893Y6434946D01*
X6356182Y6035124D02*
X6353462Y6047047D01*
X6206084Y5773235D02*
X6212058Y5776112D01*
X7026731Y6696658D02*
X7030407Y6704292D01*
X7062446Y6630646D02*
X7035690Y6657402D01*
X6916037Y6418817D02*
X6923672Y6415141D01*
X7201036Y6845966D02*
X7208672Y6842291D01*
X7094300Y6556817D02*
X7097976Y6564451D01*
X6253934Y5762089D02*
X6260399Y5760613D01*
X6569300Y6181219D02*
X6581223Y6178498D01*
X6430867Y5924452D02*
X6430867Y5931083D01*
X6558282Y6186525D02*
X6569300Y6181219D01*
X3760000Y3430000D02*
X3510000Y3680000D01*
X7161783Y6837008D02*
X7168408Y6842291D01*
X6481049Y6201776D02*
X6492067Y6207082D01*
X6426515Y5943521D02*
X6422379Y5948707D01*
X7094300Y6597081D02*
X7089017Y6603706D01*
X6369113Y6014545D02*
X6361488Y6024106D01*
X3510000Y3680000D02*
X3510000Y3926560D01*
X7221921Y6831723D02*
X7229557Y6828048D01*
X6605374Y6181219D02*
X6616392Y6186525D01*
X6471488Y6194151D02*
X6481049Y6201776D01*
X6625953Y6194150D02*
X6855900Y6424100D01*
X6369113Y6091777D02*
X6471488Y6194151D01*
X6593451Y6178497D02*
X6605374Y6181219D01*
X6581223Y6178498D02*
X6593451Y6178497D01*
X6200900Y5769100D02*
X6206084Y5773235D01*
X7237817Y6826161D02*
X7246291Y6826162D01*
X6931933Y6413255D02*
X6940406Y6413255D01*
X7035690Y6657402D02*
X7030407Y6664028D01*
X6948667Y6415141D02*
X6956302Y6418817D01*
X6430867Y5931083D02*
X6429392Y5937547D01*
X6962926Y6424100D02*
X7089017Y6550192D01*
X6870159Y6433060D02*
X6878420Y6434946D01*
X6855900Y6424100D02*
X6862524Y6429384D01*
X6273494Y5762089D02*
X6279468Y5764966D01*
X7035690Y6710916D02*
X7161783Y6837008D01*
X7192776Y6847853D02*
X7201036Y6845966D01*
X6516218Y6209803D02*
X6528141Y6207082D01*
X7097976Y6589446D02*
X7094300Y6597081D01*
X7268811Y6837008D02*
X7339521Y6907718D01*
X7062260Y6630463D02*
X7062446Y6630646D01*
X6895154Y6433060D02*
X6902789Y6429384D01*
X6401441Y5969645D02*
X6407729Y5975929D01*
X3510000Y3926560D02*
X4165600Y4582160D01*
X7168408Y6842291D02*
X7176042Y6845967D01*
X7184302Y6847852D02*
X7192776Y6847853D01*
X6361488Y6082216D02*
X6369113Y6091777D01*
X7254551Y6828047D02*
X7262187Y6831724D01*
X7030407Y6664028D02*
X7026730Y6671662D01*
X7229557Y6828048D02*
X7237817Y6826161D01*
X8015703Y7442200D02*
X9017000Y7442200D01*
X4165600Y4582160D02*
X5013960Y4582160D01*
X7208672Y6842291D02*
X7215297Y6837008D01*
X6956302Y6418817D02*
X6962926Y6424100D01*
X6422380Y5906829D02*
X6426515Y5912013D01*
X6218522Y5777587D02*
X6225153Y5777587D01*
X7246291Y6826162D02*
X7254551Y6828047D01*
X6231618Y5776112D02*
X6237592Y5773235D01*
X6279468Y5764966D02*
X6284652Y5769100D01*
X7637874Y7206074D02*
X7874000Y7442200D01*
X6528141Y6207082D02*
X6539159Y6201776D01*
X6353461Y6059275D02*
X6356182Y6071198D01*
X7215297Y6837008D02*
X7221921Y6831723D01*
X6429392Y5937547D02*
X6426515Y5943521D01*
X7099862Y6581185D02*
X7097976Y6589446D01*
X7097976Y6564451D02*
X7099862Y6572712D01*
X7339521Y6907718D02*
X7637874Y7206074D01*
X6356182Y6071198D02*
X6361488Y6082216D01*
X6426515Y5912013D02*
X6429392Y5917988D01*
X7024844Y6688396D02*
X7026731Y6696658D01*
X5013960Y4582160D02*
X6200900Y5769100D01*
X6940406Y6413255D02*
X6948667Y6415141D01*
X6616392Y6186525D02*
X6625953Y6194150D01*
X6902789Y6429384D02*
X6916037Y6418817D01*
X7262187Y6831724D02*
X7268811Y6837008D01*
X6429392Y5917988D02*
X6430867Y5924452D01*
X6247960Y5764966D02*
X6253934Y5762089D01*
X6361488Y6024106D02*
X6356182Y6035124D01*
X7099862Y6572712D02*
X7099862Y6581185D01*
X6284652Y5769100D02*
X6422380Y5906829D01*
X6225153Y5777587D02*
X6231618Y5776112D01*
X6407729Y5975929D02*
X6369113Y6014545D01*
X7089017Y6603706D02*
X7062260Y6630463D01*
X6503988Y6209802D02*
X6516218Y6209803D01*
X6267030Y5760613D02*
X6273494Y5762089D01*
X6353462Y6047047D02*
X6353461Y6059275D01*
X7024845Y6679924D02*
X7024844Y6688396D01*
X6237592Y5773235D02*
X6247960Y5764966D01*
X7874000Y7442200D02*
X8015703Y7442200D01*
X7089017Y6550192D02*
X7094300Y6556817D01*
X6212058Y5776112D02*
X6218522Y5777587D01*
X6886893Y6434946D02*
X6895154Y6433060D01*
X6422379Y5948707D02*
X6401441Y5969645D01*
X6923672Y6415141D02*
X6931933Y6413255D01*
X5130800Y4292600D02*
X4630420Y4292600D01*
X5278115Y4344148D02*
X5237840Y4344148D01*
X5492196Y4241053D02*
X5452931Y4250015D01*
X5834531Y4493997D02*
X5809419Y4462508D01*
X5532471Y4241053D02*
X5492196Y4241053D01*
X4630420Y4292600D02*
X4564380Y4226560D01*
X5353667Y4317712D02*
X5317381Y4335186D01*
X4564380Y4226560D02*
X4166560Y4226560D01*
X10210800Y7442200D02*
X9956800Y7188200D01*
X9956800Y7188200D02*
X8026400Y7188200D01*
X5608023Y4267489D02*
X5571737Y4250015D01*
X5416644Y4267489D02*
X5353667Y4317712D01*
X4090000Y4150000D02*
X4090000Y3930000D01*
X5852005Y4530283D02*
X5834531Y4493997D01*
X5860967Y4609824D02*
X5860967Y4569549D01*
X5452931Y4250015D02*
X5416644Y4267489D01*
X5198575Y4335186D02*
X5162288Y4317712D01*
X5237840Y4344148D02*
X5198575Y4335186D01*
X8026400Y7188200D02*
X6297524Y5459324D01*
X6297524Y5459324D02*
X5809419Y4971222D01*
X5571737Y4250015D02*
X5532471Y4241053D01*
X4166560Y4226560D02*
X4090000Y4150000D01*
X5766833Y4903447D02*
X5757871Y4864181D01*
X5757871Y4823906D02*
X5766833Y4784641D01*
X5809419Y4971222D02*
X5784307Y4939733D01*
X5162288Y4317712D02*
X5130800Y4292600D01*
X5317381Y4335186D02*
X5278115Y4344148D01*
X5809419Y4462508D02*
X5639512Y4292600D01*
X5784307Y4939733D02*
X5766833Y4903447D01*
X5834531Y4685376D02*
X5852005Y4649089D01*
X5639512Y4292600D02*
X5608023Y4267489D01*
X5766833Y4784641D02*
X5784307Y4748354D01*
X5860967Y4569549D02*
X5852005Y4530283D01*
X4090000Y3930000D02*
X4140000Y3880000D01*
X5757871Y4864181D02*
X5757871Y4823906D01*
X5784307Y4748354D02*
X5834531Y4685376D01*
X5852005Y4649089D02*
X5860967Y4609824D01*
M02*
