G04 #@! TF.GenerationSoftware,KiCad,Pcbnew,(5.99.0-8645-g8b3dea7107)*
G04 #@! TF.CreationDate,2021-02-21T21:45:34-08:00*
G04 #@! TF.ProjectId,bomu,626f6d75-2e6b-4696-9361-645f70636258,rev?*
G04 #@! TF.SameCoordinates,PX7de9b10PY86ff218*
G04 #@! TF.FileFunction,Copper,L1,Top*
G04 #@! TF.FilePolarity,Positive*
%FSLAX46Y46*%
G04 Gerber Fmt 4.6, Leading zero omitted, Abs format (unit mm)*
G04 Created by KiCad (PCBNEW (5.99.0-8645-g8b3dea7107)) date 2021-02-21 21:45:34*
%MOMM*%
%LPD*%
G01*
G04 APERTURE LIST*
G04 #@! TA.AperFunction,SMDPad,CuDef*
%ADD10R,0.800000X0.800000*%
G04 #@! TD*
G04 #@! TA.AperFunction,ViaPad*
%ADD11C,0.508000*%
G04 #@! TD*
G04 #@! TA.AperFunction,ViaPad*
%ADD12C,0.200000*%
G04 #@! TD*
G04 #@! TA.AperFunction,Conductor*
%ADD13C,0.254000*%
G04 #@! TD*
G04 #@! TA.AperFunction,Conductor*
%ADD14C,0.381000*%
G04 #@! TD*
G04 APERTURE END LIST*
G36*
X1076000Y1574000D02*
G01*
X76000Y1574000D01*
X76000Y2574000D01*
X1076000Y2574000D01*
X1076000Y1574000D01*
G37*
G36*
X1076000Y6823900D02*
G01*
X76000Y6823900D01*
X76000Y7823900D01*
X1076000Y7823900D01*
X1076000Y6823900D01*
G37*
G36*
X1076000Y7823900D02*
G01*
X76000Y7823900D01*
X76200Y8064500D01*
X1076960Y9072880D01*
X1076000Y7823900D01*
G37*
G36*
X1076960Y325020D02*
G01*
X76200Y1333400D01*
X76000Y1574000D01*
X1076000Y1574000D01*
X1076960Y325020D01*
G37*
G04 #@! TA.AperFunction,SMDPad,CuDef*
G36*
X8576000Y6824000D02*
G01*
X1076000Y6824000D01*
X1076000Y9074000D01*
X8576000Y9074000D01*
X8576000Y6824000D01*
G37*
G04 #@! TD.AperFunction*
G04 #@! TA.AperFunction,SMDPad,CuDef*
G36*
X8576000Y4824000D02*
G01*
X1076000Y4824000D01*
X1076000Y6574000D01*
X8576000Y6574000D01*
X8576000Y4824000D01*
G37*
G04 #@! TD.AperFunction*
G04 #@! TA.AperFunction,SMDPad,CuDef*
G36*
X8576000Y2808000D02*
G01*
X1076000Y2808000D01*
X1076000Y4558000D01*
X8576000Y4558000D01*
X8576000Y2808000D01*
G37*
G04 #@! TD.AperFunction*
G04 #@! TA.AperFunction,SMDPad,CuDef*
G36*
X8576000Y324000D02*
G01*
X1076000Y324000D01*
X1076000Y2574000D01*
X8576000Y2574000D01*
X8576000Y324000D01*
G37*
G04 #@! TD.AperFunction*
D10*
X12141200Y8684200D03*
X10210800Y8677000D03*
X9245600Y8677000D03*
X11176000Y8702400D03*
X12166600Y7620000D03*
X9245600Y7645400D03*
X10210800Y7645400D03*
D11*
X11861800Y7874000D03*
X4902200Y8128000D03*
X12268200Y8991600D03*
X2463800Y584200D03*
X1955800Y584200D03*
X2971800Y584200D03*
X1447800Y584200D03*
X10210800Y8420100D03*
X11176000Y8991600D03*
X9245600Y8991600D03*
X4546600Y3657600D03*
X4394200Y5689600D03*
D12*
X9017000Y7442200D03*
X10210800Y7442200D03*
D13*
X12115800Y7620000D02*
X11861800Y7874000D01*
X12166600Y7620000D02*
X12115800Y7620000D01*
X4826000Y8051800D02*
X4902200Y8128000D01*
X4826000Y7949000D02*
X4826000Y8051800D01*
X12141200Y8864600D02*
X12268200Y8991600D01*
X12141200Y8684200D02*
X12141200Y8864600D01*
D14*
X4826000Y1449000D02*
X4826000Y1397000D01*
X4013200Y584200D02*
X2971800Y584200D01*
X4826000Y1397000D02*
X4013200Y584200D01*
D13*
X4826000Y3683000D02*
X4419600Y3683000D01*
X4419600Y3683000D02*
X4394200Y3708400D01*
X4826000Y5699000D02*
X4403600Y5699000D01*
X4403600Y5699000D02*
X4394200Y5689600D01*
X9220200Y7645400D02*
X9017000Y7442200D01*
X9245600Y7645400D02*
X9220200Y7645400D01*
X10210800Y7645400D02*
X10210800Y7442200D01*
M02*
