M48
; DRILL file {KiCad (5.99.0-8645-g8b3dea7107)} date Thursday, February 11, 2021 at 10:48:21 PM
; FORMAT={-:-/ absolute / inch / decimal}
; #@! TF.CreationDate,2021-02-11T22:48:21-08:00
; #@! TF.GenerationSoftware,Kicad,Pcbnew,(5.99.0-8645-g8b3dea7107)
; #@! TF.FileFunction,Plated,5,6,Blind
FMAT,2
INCH
T1C0.0039
%
G90
G05
T1
X0.012Y0.353
X0.012Y0.333
X0.012Y0.313
X0.012Y0.293
X0.012Y0.273
X0.012Y0.253
X0.012Y0.233
X0.012Y0.213
X0.012Y0.193
X0.012Y0.173
X0.012Y0.153
X0.012Y0.133
X0.012Y0.113
X0.012Y0.093
X0.012Y0.073
X0.032Y0.353
X0.032Y0.073
X0.041Y0.219
X0.041Y0.0974
X0.052Y0.353
X0.052Y0.073
X0.062Y0.219
X0.072Y0.353
X0.072Y0.073
X0.082Y0.323
X0.082Y0.073
X0.082Y0.063
X0.082Y0.053
X0.086Y0.2624
X0.092Y0.353
X0.092Y0.121
X0.092Y0.073
X0.092Y0.063
X0.092Y0.053
X0.102Y0.323
X0.102Y0.073
X0.102Y0.063
X0.102Y0.053
X0.112Y0.353
X0.112Y0.121
X0.112Y0.073
X0.112Y0.063
X0.112Y0.053
X0.122Y0.323
X0.122Y0.083
X0.122Y0.073
X0.122Y0.063
X0.122Y0.053
X0.123Y0.117
X0.127Y0.106
X0.127Y0.091
X0.132Y0.353
X0.132Y0.121
X0.132Y0.113
X0.132Y0.0984
X0.132Y0.083
X0.132Y0.073
X0.132Y0.063
X0.132Y0.053
X0.132Y0.043
X0.14Y0.102
X0.14Y0.087
X0.141Y0.07
X0.142Y0.323
X0.142Y0.053
X0.142Y0.043
X0.142Y0.033
X0.142Y0.023
X0.142Y0.013
X0.146Y0.118
X0.146Y0.108
X0.146Y0.093
X0.146Y0.078
X0.146Y0.063
X0.151Y0.043
X0.152Y0.353
X0.152Y0.033
X0.152Y0.023
X0.152Y0.013
X0.161Y0.033
X0.162Y0.323
X0.162Y0.023
X0.172Y0.353
X0.172Y0.023
X0.172Y0.013
X0.175Y0.031
X0.182Y0.107
X0.182Y0.094
X0.182Y0.023
X0.1843Y0.1224
X0.187Y0.031
X0.1897Y0.0857
X0.192Y0.113
X0.192Y0.103
X0.192Y0.023
X0.192Y0.013
X0.197Y0.031
X0.198Y0.078
X0.202Y0.303
X0.202Y0.283
X0.202Y0.093
X0.202Y0.068
X0.202Y0.023
X0.207Y0.031
X0.2071Y0.2228
X0.212Y0.293
X0.212Y0.083
X0.212Y0.068
X0.212Y0.023
X0.212Y0.013
X0.217Y0.031
X0.222Y0.303
X0.222Y0.283
X0.222Y0.068
X0.222Y0.023
X0.227Y0.031
X0.232Y0.293
X0.232Y0.273
X0.232Y0.083
X0.232Y0.023
X0.232Y0.013
X0.233Y0.068
X0.237Y0.031
X0.242Y0.023
X0.247Y0.068
X0.247Y0.031
X0.252Y0.273
X0.252Y0.083
X0.252Y0.023
X0.252Y0.013
X0.257Y0.031
X0.261Y0.068
X0.262Y0.023
X0.265Y0.219
X0.267Y0.031
X0.272Y0.293
X0.272Y0.273
X0.272Y0.083
X0.272Y0.023
X0.272Y0.013
X0.275Y0.068
X0.278Y0.031
X0.282Y0.283
X0.282Y0.023
X0.287Y0.031
X0.289Y0.083
X0.289Y0.068
X0.292Y0.293
X0.292Y0.023
X0.292Y0.013
X0.297Y0.031
X0.302Y0.283
X0.302Y0.083
X0.302Y0.023
X0.303Y0.068
X0.307Y0.031
X0.312Y0.293
X0.312Y0.161
X0.312Y0.113
X0.312Y0.103
X0.312Y0.093
X0.312Y0.023
X0.312Y0.013
X0.314Y0.083
X0.317Y0.068
X0.317Y0.031
X0.322Y0.283
X0.322Y0.263
X0.322Y0.193
X0.322Y0.183
X0.322Y0.173
X0.322Y0.163
X0.322Y0.153
X0.322Y0.143
X0.322Y0.133
X0.322Y0.123
X0.322Y0.113
X0.322Y0.103
X0.322Y0.093
X0.322Y0.023
X0.327Y0.084
X0.327Y0.031
X0.332Y0.293
X0.332Y0.273
X0.332Y0.263
X0.332Y0.253
X0.332Y0.243
X0.332Y0.233
X0.332Y0.223
X0.332Y0.213
X0.332Y0.203
X0.332Y0.193
X0.332Y0.183
X0.332Y0.173
X0.332Y0.163
X0.332Y0.153
X0.332Y0.143
X0.332Y0.133
X0.332Y0.123
X0.332Y0.113
X0.332Y0.105
X0.332Y0.093
X0.332Y0.023
X0.332Y0.013
X0.337Y0.031
X0.34Y0.081
X0.342Y0.283
X0.342Y0.273
X0.342Y0.105
X0.342Y0.093
X0.342Y0.023
X0.345Y0.041
X0.347Y0.031
X0.352Y0.293
X0.352Y0.273
X0.352Y0.105
X0.352Y0.093
X0.352Y0.023
X0.352Y0.013
X0.353Y0.084
X0.357Y0.04
X0.357Y0.031
X0.362Y0.283
X0.362Y0.273
X0.362Y0.105
X0.362Y0.093
X0.362Y0.023
X0.366Y0.084
X0.366Y0.013
X0.367Y0.031
X0.369Y0.041
X0.372Y0.293
X0.372Y0.273
X0.372Y0.105
X0.372Y0.093
X0.372Y0.023
X0.377Y0.0325
X0.379Y0.084
X0.379Y0.013
X0.382Y0.283
X0.382Y0.273
X0.382Y0.105
X0.382Y0.093
X0.386Y0.026
X0.387Y0.0395
X0.392Y0.293
X0.392Y0.273
X0.392Y0.105
X0.392Y0.093
X0.392Y0.084
X0.394Y0.034
X0.402Y0.283
X0.402Y0.273
X0.402Y0.105
X0.402Y0.093
X0.403Y0.039
X0.405Y0.084
X0.41Y0.044
X0.412Y0.293
X0.412Y0.273
X0.412Y0.105
X0.412Y0.093
X0.418Y0.084
X0.42Y0.044
X0.421Y0.105
X0.422Y0.283
X0.422Y0.273
X0.422Y0.093
X0.428Y0.098
X0.428Y0.084
X0.43Y0.044
X0.432Y0.293
X0.432Y0.273
X0.439Y0.04
X0.442Y0.283
X0.442Y0.273
X0.445Y0.047
X0.449Y0.035
X0.452Y0.293
X0.452Y0.273
X0.452Y0.043
X0.454Y0.054
X0.459Y0.024
X0.462Y0.283
X0.462Y0.273
X0.462Y0.053
X0.462Y0.043
X0.462Y0.033
X0.464Y0.068
X0.464Y0.013
X0.467Y0.092
X0.467Y0.079
X0.471Y0.102
X0.472Y0.293
X0.472Y0.273
X0.472Y0.083
X0.472Y0.073
X0.472Y0.063
X0.472Y0.053
X0.472Y0.043
X0.472Y0.033
X0.472Y0.023
X0.478Y0.013
X0.482Y0.283
X0.482Y0.273
X0.482Y0.093
X0.482Y0.083
X0.482Y0.073
X0.482Y0.063
X0.482Y0.053
X0.482Y0.043
X0.482Y0.033
X0.484Y0.102
X0.486Y0.021
X0.489Y0.035
X0.491Y0.049
X0.492Y0.293
X0.492Y0.273
X0.492Y0.083
X0.493Y0.063
X0.495Y0.077
X0.497Y0.102
X0.497Y0.091
T0
M30
