G04 #@! TF.GenerationSoftware,KiCad,Pcbnew,(5.99.0-8645-g8b3dea7107)*
G04 #@! TF.CreationDate,2021-02-11T22:48:25-08:00*
G04 #@! TF.ProjectId,bomu,626f6d75-2e6b-4696-9361-645f70636258,rev?*
G04 #@! TF.SameCoordinates,PX7de9b10PY86ff218*
G04 #@! TF.FileFunction,Soldermask,Top*
G04 #@! TF.FilePolarity,Negative*
%FSLAX46Y46*%
G04 Gerber Fmt 4.6, Leading zero omitted, Abs format (unit mm)*
G04 Created by KiCad (PCBNEW (5.99.0-8645-g8b3dea7107)) date 2021-02-11 22:48:25*
%MOMM*%
%LPD*%
G01*
G04 APERTURE LIST*
%ADD10R,0.800000X0.800000*%
G04 APERTURE END LIST*
G36*
X1076960Y325020D02*
G01*
X76200Y1333400D01*
X76000Y1574000D01*
X1076000Y1574000D01*
X1076960Y325020D01*
G37*
G36*
X1076000Y7823900D02*
G01*
X76000Y7823900D01*
X76200Y8064500D01*
X1076960Y9072880D01*
X1076000Y7823900D01*
G37*
G36*
X1076000Y6823900D02*
G01*
X76000Y6823900D01*
X76000Y7823900D01*
X1076000Y7823900D01*
X1076000Y6823900D01*
G37*
G36*
X1076000Y1574000D02*
G01*
X76000Y1574000D01*
X76000Y2574000D01*
X1076000Y2574000D01*
X1076000Y1574000D01*
G37*
G36*
X8576000Y6824000D02*
G01*
X1076000Y6824000D01*
X1076000Y9074000D01*
X8576000Y9074000D01*
X8576000Y6824000D01*
G37*
G36*
X8576000Y4824000D02*
G01*
X1076000Y4824000D01*
X1076000Y6574000D01*
X8576000Y6574000D01*
X8576000Y4824000D01*
G37*
G36*
X8576000Y2808000D02*
G01*
X1076000Y2808000D01*
X1076000Y4558000D01*
X8576000Y4558000D01*
X8576000Y2808000D01*
G37*
G36*
X8576000Y324000D02*
G01*
X1076000Y324000D01*
X1076000Y2574000D01*
X8576000Y2574000D01*
X8576000Y324000D01*
G37*
D10*
X12141200Y8684200D03*
X10210800Y8677000D03*
X9245600Y8677000D03*
X11176000Y8702400D03*
X12166600Y7620000D03*
X9245600Y7645400D03*
X10210800Y7645400D03*
M02*
