G04 #@! TF.GenerationSoftware,KiCad,Pcbnew,(5.99.0-8645-g8b3dea7107)*
G04 #@! TF.CreationDate,2021-02-11T22:48:25-08:00*
G04 #@! TF.ProjectId,bomu,626f6d75-2e6b-4696-9361-645f70636258,rev?*
G04 #@! TF.SameCoordinates,PX7de9b10PY86ff218*
G04 #@! TF.FileFunction,Legend,Top*
G04 #@! TF.FilePolarity,Positive*
%FSLAX46Y46*%
G04 Gerber Fmt 4.6, Leading zero omitted, Abs format (unit mm)*
G04 Created by KiCad (PCBNEW (5.99.0-8645-g8b3dea7107)) date 2021-02-11 22:48:25*
%MOMM*%
%LPD*%
G01*
G04 APERTURE LIST*
%ADD10C,0.250000*%
G04 APERTURE END LIST*
D10*
X9171180Y1671629D02*
X9314038Y1624010D01*
X9361657Y1576391D01*
X9409276Y1481153D01*
X9409276Y1338296D01*
X9361657Y1243058D01*
X9314038Y1195439D01*
X9218800Y1147820D01*
X8837847Y1147820D01*
X8837847Y2147820D01*
X9171180Y2147820D01*
X9266419Y2100200D01*
X9314038Y2052581D01*
X9361657Y1957343D01*
X9361657Y1862105D01*
X9314038Y1766867D01*
X9266419Y1719248D01*
X9171180Y1671629D01*
X8837847Y1671629D01*
X10028323Y2147820D02*
X10218800Y2147820D01*
X10314038Y2100200D01*
X10409276Y2004962D01*
X10456895Y1814486D01*
X10456895Y1481153D01*
X10409276Y1290677D01*
X10314038Y1195439D01*
X10218800Y1147820D01*
X10028323Y1147820D01*
X9933085Y1195439D01*
X9837847Y1290677D01*
X9790228Y1481153D01*
X9790228Y1814486D01*
X9837847Y2004962D01*
X9933085Y2100200D01*
X10028323Y2147820D01*
X10885466Y1147820D02*
X10885466Y2147820D01*
X11218800Y1433534D01*
X11552133Y2147820D01*
X11552133Y1147820D01*
X12028323Y2147820D02*
X12028323Y1338296D01*
X12075942Y1243058D01*
X12123561Y1195439D01*
X12218800Y1147820D01*
X12409276Y1147820D01*
X12504514Y1195439D01*
X12552133Y1243058D01*
X12599752Y1338296D01*
X12599752Y2147820D01*
M02*
