G04 #@! TF.GenerationSoftware,KiCad,Pcbnew,(5.1.8-0-10_14)*
G04 #@! TF.CreationDate,2020-12-26T22:42:20-08:00*
G04 #@! TF.ProjectId,bomu,626f6d75-2e6b-4696-9361-645f70636258,rev?*
G04 #@! TF.SameCoordinates,Original*
G04 #@! TF.FileFunction,Copper,L4,Inr*
G04 #@! TF.FilePolarity,Positive*
%FSLAX46Y46*%
G04 Gerber Fmt 4.6, Leading zero omitted, Abs format (unit mm)*
G04 Created by KiCad (PCBNEW (5.1.8-0-10_14)) date 2020-12-26 22:42:20*
%MOMM*%
%LPD*%
G01*
G04 APERTURE LIST*
G04 #@! TA.AperFunction,ViaPad*
%ADD10C,0.508000*%
G04 #@! TD*
G04 #@! TA.AperFunction,ViaPad*
%ADD11C,0.200000*%
G04 #@! TD*
G04 #@! TA.AperFunction,ViaPad*
%ADD12C,0.800000*%
G04 #@! TD*
G04 #@! TA.AperFunction,Conductor*
%ADD13C,0.254000*%
G04 #@! TD*
G04 #@! TA.AperFunction,Conductor*
%ADD14C,0.127000*%
G04 #@! TD*
G04 APERTURE END LIST*
D10*
X143891000Y-133680200D03*
X136931400Y-133426200D03*
D11*
X138074400Y-135178800D03*
X138328400Y-134162800D03*
X134721600Y-138963400D03*
X135686800Y-137845800D03*
D10*
X134950200Y-134162800D03*
X132638800Y-140258800D03*
X144297400Y-132562600D03*
D11*
X133629400Y-136728200D03*
X138277600Y-138912600D03*
X135661400Y-134162800D03*
X137414000Y-135432800D03*
X136372600Y-134162800D03*
X133959600Y-139065000D03*
X137033000Y-137515600D03*
X137795000Y-135432800D03*
D10*
X135001000Y-140970000D03*
X134493000Y-140970000D03*
X133985000Y-140970000D03*
X133477000Y-140970000D03*
D11*
X135267700Y-137515600D03*
X134975600Y-137515600D03*
X134137400Y-136347200D03*
D10*
X139801600Y-133019800D03*
D11*
X137414000Y-135077200D03*
D10*
X138303000Y-133019800D03*
D11*
X137414000Y-134721600D03*
D12*
X136423400Y-137845800D03*
D11*
X134188200Y-135610600D03*
D12*
X136423400Y-135864600D03*
D11*
X134620000Y-135763000D03*
X136743440Y-134670800D03*
D10*
X143436340Y-133103620D03*
D11*
X136362440Y-134680960D03*
D10*
X142384780Y-133164580D03*
D13*
X138074400Y-135178800D02*
X138176000Y-135178800D01*
X138328400Y-135026400D02*
X138328400Y-134162800D01*
X138176000Y-135178800D02*
X138328400Y-135026400D01*
X135686800Y-137845800D02*
X135153400Y-137845800D01*
X134721600Y-138277600D02*
X134721600Y-138963400D01*
X135153400Y-137845800D02*
X134721600Y-138277600D01*
X137795000Y-135432800D02*
X137795000Y-135940800D01*
X137033000Y-136702800D02*
X137033000Y-137515600D01*
X137795000Y-135940800D02*
X137033000Y-136702800D01*
D14*
X137693400Y-135077200D02*
X137414000Y-135077200D01*
X139725400Y-133096000D02*
X139166600Y-133096000D01*
X139166600Y-133096000D02*
X139166600Y-133580406D01*
X137769600Y-133885206D02*
X137769600Y-135001000D01*
X139801600Y-133019800D02*
X139725400Y-133096000D01*
X137822206Y-133832600D02*
X137769600Y-133885206D01*
X137769600Y-135001000D02*
X137693400Y-135077200D01*
X138914406Y-133832600D02*
X137822206Y-133832600D01*
X139166600Y-133580406D02*
X138914406Y-133832600D01*
X137058400Y-134237194D02*
X137058400Y-134543800D01*
X137716994Y-133578600D02*
X137058400Y-134237194D01*
X138912600Y-133475194D02*
X138809194Y-133578600D01*
X137236200Y-134721600D02*
X137414000Y-134721600D01*
X137058400Y-134543800D02*
X137236200Y-134721600D01*
X138912600Y-133096000D02*
X138912600Y-133475194D01*
X138379200Y-133096000D02*
X138912600Y-133096000D01*
X138809194Y-133578600D02*
X137716994Y-133578600D01*
X138303000Y-133019800D02*
X138379200Y-133096000D01*
X134353300Y-135775700D02*
X134188200Y-135610600D01*
X134353300Y-136158506D02*
X134353300Y-135775700D01*
X135126194Y-136931400D02*
X134353300Y-136158506D01*
X135509000Y-136931400D02*
X135126194Y-136931400D01*
X136423400Y-137845800D02*
X135509000Y-136931400D01*
X134607300Y-135775700D02*
X134620000Y-135763000D01*
X134607300Y-136053294D02*
X134607300Y-135775700D01*
X135231406Y-136677400D02*
X134607300Y-136053294D01*
X136296400Y-136677400D02*
X135231406Y-136677400D01*
X136766300Y-136207500D02*
X136296400Y-136677400D01*
X136423400Y-135864600D02*
X136766300Y-136207500D01*
X136743440Y-134670800D02*
X136743440Y-133946900D01*
X136743440Y-133946900D02*
X136469120Y-133672580D01*
X136469120Y-133672580D02*
X136469120Y-133235700D01*
X136469120Y-133235700D02*
X137088880Y-132615940D01*
X137088880Y-132615940D02*
X139979400Y-132615940D01*
X139979400Y-132615940D02*
X140248640Y-132885180D01*
X140248640Y-132885180D02*
X140248640Y-133591300D01*
X140248640Y-133591300D02*
X140489940Y-133832600D01*
X140489940Y-133832600D02*
X143080740Y-133832600D01*
X143436340Y-133477000D02*
X143436340Y-133103620D01*
X143080740Y-133832600D02*
X143436340Y-133477000D01*
X136362440Y-134680960D02*
X136362440Y-134594600D01*
X136362440Y-134594600D02*
X136083040Y-134315200D01*
X136083040Y-134315200D02*
X136083040Y-133327140D01*
X136083040Y-133327140D02*
X137005060Y-132405120D01*
X141625320Y-132405120D02*
X142384780Y-133164580D01*
X137005060Y-132405120D02*
X141625320Y-132405120D01*
M02*
