G04 #@! TF.GenerationSoftware,KiCad,Pcbnew,(5.99.0-8645-g8b3dea7107)*
G04 #@! TF.CreationDate,2021-02-11T22:48:24-08:00*
G04 #@! TF.ProjectId,bomu,626f6d75-2e6b-4696-9361-645f70636258,rev?*
G04 #@! TF.SameCoordinates,PX7de9b10PY86ff218*
G04 #@! TF.FileFunction,Copper,L5,Inr*
G04 #@! TF.FilePolarity,Positive*
%FSLAX46Y46*%
G04 Gerber Fmt 4.6, Leading zero omitted, Abs format (unit mm)*
G04 Created by KiCad (PCBNEW (5.99.0-8645-g8b3dea7107)) date 2021-02-11 22:48:24*
%MOMM*%
%LPD*%
G01*
G04 APERTURE LIST*
G04 #@! TA.AperFunction,ViaPad*
%ADD10C,0.508000*%
G04 #@! TD*
G04 #@! TA.AperFunction,ViaPad*
%ADD11C,0.200000*%
G04 #@! TD*
G04 #@! TA.AperFunction,Conductor*
%ADD12C,0.254000*%
G04 #@! TD*
G04 APERTURE END LIST*
D10*
X11861800Y7874000D03*
X4902200Y8128000D03*
D11*
X1041400Y2473960D03*
X3352800Y2499360D03*
X6731000Y5562600D03*
X7924800Y4089400D03*
X2184400Y6664960D03*
X4680000Y3110000D03*
X3708400Y2997200D03*
X4622800Y2717800D03*
X5384800Y1727200D03*
X4622800Y2387600D03*
X4819618Y2178018D03*
X5918200Y1727200D03*
X6273800Y1727200D03*
X6629400Y1727200D03*
X6985000Y1727200D03*
X5638800Y1727200D03*
X5029200Y1981200D03*
X7340600Y1727200D03*
X7696200Y1727200D03*
X8305800Y2133600D03*
X7975600Y2108200D03*
X8966200Y2133600D03*
X12623800Y2311400D03*
X12573000Y1955800D03*
X12522200Y1600200D03*
X12471400Y1244600D03*
X12420600Y889000D03*
X12344400Y533400D03*
X12141200Y330200D03*
X11785600Y330200D03*
X11658600Y609600D03*
X11404600Y889000D03*
X9296400Y2133600D03*
X9626600Y2133600D03*
X9956800Y2133600D03*
X10287000Y2133600D03*
X10617200Y2133600D03*
X10871200Y2133600D03*
X10871200Y2489200D03*
X10693400Y2667000D03*
X10668000Y1117600D03*
X11303000Y1193800D03*
X11531600Y1371600D03*
X11785600Y1727200D03*
X11861800Y2006600D03*
X11861800Y2336800D03*
X11963400Y2590800D03*
X12293600Y2590800D03*
X12623800Y2590800D03*
X10007600Y863600D03*
X10414000Y1117600D03*
X10922000Y1117600D03*
X11150600Y1016000D03*
X10236200Y990600D03*
X9804400Y660400D03*
X9626600Y330200D03*
X9296400Y330200D03*
X8940800Y330200D03*
X8432800Y330200D03*
X7924800Y330200D03*
X7416800Y330200D03*
X6908800Y330200D03*
X6400800Y330200D03*
X5892800Y330200D03*
X5384800Y330200D03*
X4876800Y330200D03*
X4368800Y330200D03*
X3860800Y330200D03*
X3606800Y330200D03*
X3606800Y584200D03*
X3606800Y838200D03*
X3352800Y1092200D03*
X3098800Y1346200D03*
X2844800Y1346200D03*
X2590800Y1346200D03*
X2336800Y1346200D03*
X2082800Y1346200D03*
X2082800Y1600200D03*
X3352800Y3073400D03*
X2844800Y3073400D03*
X2336800Y3073400D03*
X2082800Y1854200D03*
X2336800Y1854200D03*
X2590800Y1854200D03*
X2844800Y1854200D03*
X3098800Y2108200D03*
X4622800Y584200D03*
X2844800Y1600200D03*
X2336800Y1600200D03*
X4368800Y584200D03*
X4114800Y584200D03*
X3860800Y584200D03*
X2590800Y1600200D03*
X4876800Y584200D03*
X5384800Y584200D03*
X5892800Y584200D03*
X6400800Y584200D03*
X6908800Y584200D03*
X7416800Y584200D03*
X7924800Y584200D03*
X8432800Y584200D03*
X8940800Y584200D03*
X9448800Y584200D03*
X5130800Y584200D03*
X5638800Y584200D03*
X6146800Y584200D03*
X6654800Y584200D03*
X7162800Y584200D03*
X7670800Y584200D03*
X8178800Y584200D03*
X8686800Y584200D03*
X9194800Y584200D03*
X11988800Y584200D03*
X11988800Y1092200D03*
X11988800Y1600200D03*
X11988800Y1346200D03*
X11988800Y838200D03*
X11988800Y1854200D03*
X12242800Y1854200D03*
X12242800Y2108200D03*
X11988800Y2108200D03*
X12242800Y2362200D03*
X12496800Y2108200D03*
X12242800Y1600200D03*
X12242800Y1346200D03*
X12242800Y1092200D03*
X12242800Y838200D03*
X11734800Y838200D03*
X11734800Y1092200D03*
X11734800Y1346200D03*
X11480800Y1092200D03*
X9575800Y825500D03*
X3352800Y2108200D03*
X3352800Y2870200D03*
X9702800Y2667000D03*
X9194800Y2667000D03*
X8686800Y2667000D03*
X8432800Y2667000D03*
X8940800Y2667000D03*
X9448800Y2667000D03*
X9956800Y2667000D03*
X10210800Y2667000D03*
X10464800Y2667000D03*
X8432800Y3124200D03*
X8432800Y3632200D03*
X8432800Y4140200D03*
X8432800Y4648200D03*
X8432800Y5156200D03*
X8432800Y5664200D03*
X8432800Y6172200D03*
X8432800Y6680200D03*
X8686800Y6934200D03*
X8940800Y6934200D03*
X9448800Y6934200D03*
X9702800Y6934200D03*
X9956800Y6934200D03*
X10210800Y6934200D03*
X10464800Y6934200D03*
X10718800Y6934200D03*
X10972800Y6934200D03*
X8432800Y6426200D03*
X8432800Y5918200D03*
X8432800Y5410200D03*
X8432800Y4902200D03*
X8432800Y4394200D03*
X8432800Y3886200D03*
X8432800Y3378200D03*
X8432800Y2870200D03*
X8432800Y6934200D03*
X11226800Y6934200D03*
X11480800Y6934200D03*
X11734800Y6934200D03*
X11988800Y6934200D03*
X12242800Y6934200D03*
X12496800Y6934200D03*
X10464800Y2362200D03*
X9956800Y2362200D03*
X9448800Y2362200D03*
X8940800Y2362200D03*
X8432800Y2362200D03*
X8432800Y7442200D03*
X8940800Y7442200D03*
X9448800Y7442200D03*
X9956800Y7442200D03*
X10464800Y7442200D03*
X10972800Y7442200D03*
X11480800Y7442200D03*
X11988800Y7442200D03*
X12496800Y7442200D03*
X12242800Y7188200D03*
X11734800Y7188200D03*
X11226800Y7188200D03*
X10210800Y7188200D03*
X9702800Y7188200D03*
X9194800Y7188200D03*
X9194800Y6934200D03*
X8686800Y7188200D03*
X8178800Y7188200D03*
X8178800Y6680200D03*
X1828800Y1854200D03*
X1320800Y1854200D03*
X812800Y1854200D03*
X304800Y1854200D03*
X304800Y2362200D03*
X304800Y2870200D03*
X304800Y3378200D03*
X304800Y3886200D03*
X304800Y4394200D03*
X304800Y4902200D03*
X304800Y5410200D03*
X304800Y5918200D03*
X304800Y6426200D03*
X304800Y6934200D03*
X304800Y7442200D03*
X304800Y7950200D03*
X304800Y8458200D03*
X304800Y8966200D03*
X812800Y8966200D03*
X1320800Y8966200D03*
X1828800Y8966200D03*
X2336800Y8966200D03*
X2844800Y8966200D03*
X3352800Y8966200D03*
X3860800Y8966200D03*
X4368800Y8966200D03*
X7340600Y2108200D03*
X7670800Y2108200D03*
X7924800Y2870200D03*
X7924800Y2616200D03*
X7924800Y2362200D03*
X8178800Y2362200D03*
X8178800Y2616200D03*
X8178800Y2870200D03*
X8178800Y3124200D03*
X8178800Y3378200D03*
X8178800Y3632200D03*
X8178800Y3886200D03*
X8178800Y4140200D03*
X8178800Y4394200D03*
X8178800Y4648200D03*
X8178800Y4902200D03*
X8686800Y2362200D03*
X9194800Y2362200D03*
X9702800Y2362200D03*
X10210800Y2362200D03*
X10718800Y2362200D03*
X6908800Y2108200D03*
X6400800Y2108200D03*
X5892800Y2108200D03*
X5384800Y2108200D03*
X5130800Y2362200D03*
X4876800Y2616200D03*
X4876800Y2870200D03*
X1041400Y5562600D03*
X1574800Y5562600D03*
X2082800Y8204200D03*
X2590800Y8204200D03*
X3098800Y8204200D03*
X3606800Y8204200D03*
X4114800Y8204200D03*
X7924800Y7442200D03*
X7416800Y7442200D03*
X5892800Y7442200D03*
X5892800Y6934200D03*
X6400800Y6934200D03*
X6908800Y6934200D03*
X6908800Y7442200D03*
X7162800Y7188200D03*
X7670800Y7188200D03*
X5638800Y7188200D03*
X5638800Y7696200D03*
X5130800Y7696200D03*
X5384800Y7442200D03*
X5130800Y7188200D03*
X5130800Y1727200D03*
X8051800Y1727200D03*
X8636000Y2057400D03*
X3708400Y2743200D03*
X3708400Y2362200D03*
X4445000Y787400D03*
X4749800Y787400D03*
X5003800Y787400D03*
X5257800Y787400D03*
X5511800Y787400D03*
X5765800Y787400D03*
X6019800Y787400D03*
X6273800Y787400D03*
X6527800Y787400D03*
X6781800Y787400D03*
X7289800Y787400D03*
X7543800Y787400D03*
X7797800Y787400D03*
X8051800Y787400D03*
X8305800Y787400D03*
X8559800Y787400D03*
X8813800Y787400D03*
X9067800Y787400D03*
X9321800Y787400D03*
X9829800Y1003300D03*
X3708400Y1981200D03*
X3708400Y1600200D03*
X3098800Y1600200D03*
X3098800Y1854200D03*
X3352800Y1854200D03*
X3352800Y1600200D03*
X3352800Y1346200D03*
X3606800Y1346200D03*
X3581400Y1778000D03*
X3556000Y2209800D03*
X3556000Y2590800D03*
X3225800Y2311400D03*
X3225800Y2692400D03*
X3124200Y2971800D03*
X3606800Y1092200D03*
X3835400Y1092200D03*
X3860800Y838200D03*
X4089400Y838200D03*
X7061200Y787400D03*
X10718800Y7188200D03*
X9067800Y1016000D03*
X5260000Y5660000D03*
X8763000Y1041400D03*
X9372600Y1041400D03*
X6299200Y7391400D03*
X6045200Y6375400D03*
X3780000Y3810000D03*
X2692400Y2590800D03*
D10*
X2438400Y7518400D03*
X609600Y990600D03*
X12268200Y8991600D03*
D11*
X1600200Y4826000D03*
X4343400Y7391400D03*
X3632200Y7391400D03*
X5270000Y6020000D03*
X6680200Y2667000D03*
X1930400Y2489200D03*
X5765800Y5960000D03*
X4880000Y4020000D03*
D10*
X2971800Y584200D03*
X2463800Y584200D03*
X1955800Y584200D03*
X1447800Y584200D03*
D11*
X3120000Y3910000D03*
X2790000Y3890000D03*
X2108200Y5207000D03*
D10*
X7772400Y8534400D03*
D11*
X5250000Y6360000D03*
D10*
X6273800Y8534400D03*
D11*
X5260000Y6730000D03*
X2159000Y5943600D03*
X2710000Y5900000D03*
D10*
X11407140Y8450580D03*
D11*
X4830000Y6760000D03*
X4470000Y6740000D03*
D10*
X10355580Y8389620D03*
D11*
X3760000Y3430000D03*
X4140000Y3880000D03*
D12*
X5359400Y5750560D02*
X5350560Y5750560D01*
X4739640Y5750560D02*
X5359400Y5750560D01*
X3825240Y6664960D02*
X4739640Y5750560D01*
X2184400Y6664960D02*
X3825240Y6664960D01*
X990600Y6045200D02*
X1610360Y6664960D01*
X1041400Y2438400D02*
X1371600Y2108200D01*
X1610360Y6664960D02*
X2184400Y6664960D01*
X1031240Y2473960D02*
X990600Y2514600D01*
X1041400Y2473960D02*
X1041400Y2438400D01*
X990600Y2514600D02*
X990600Y6045200D01*
X5359400Y5750560D02*
X6527800Y5750560D01*
X1371600Y2108200D02*
X2961640Y2108200D01*
X7924800Y4089400D02*
X7924800Y4353560D01*
X2961640Y2108200D02*
X3352800Y2499360D01*
X1041400Y2473960D02*
X1031240Y2473960D01*
X7924800Y4353560D02*
X6527800Y5750560D01*
X5350560Y5750560D02*
X5260000Y5660000D01*
G04 #@! TA.AperFunction,Conductor*
G36*
X6680831Y9213399D02*
G01*
X11794881Y9213399D01*
X11829529Y9199047D01*
X11843881Y9164399D01*
X11841600Y9149624D01*
X11839650Y9143457D01*
X11814357Y9063482D01*
X11813284Y8926856D01*
X11852432Y8795954D01*
X11854466Y8792909D01*
X11854467Y8792908D01*
X11915774Y8701157D01*
X11928340Y8682351D01*
X11931181Y8680038D01*
X11961018Y8655747D01*
X12034295Y8596089D01*
X12160932Y8544796D01*
X12164580Y8544480D01*
X12293403Y8533323D01*
X12297052Y8533007D01*
X12430622Y8561763D01*
X12433818Y8563553D01*
X12433821Y8563554D01*
X12474403Y8586281D01*
X12511646Y8590689D01*
X12541097Y8567471D01*
X12547102Y8548405D01*
X12549697Y8522462D01*
X12552106Y8498370D01*
X12552329Y8492093D01*
X12552150Y8485849D01*
X12552693Y8483135D01*
X12554095Y8476126D01*
X12554804Y8471392D01*
X12555774Y8461689D01*
X12556649Y8459084D01*
X12557773Y8455735D01*
X12559368Y8449753D01*
X12560646Y8443364D01*
X12560647Y8443362D01*
X12571493Y8389132D01*
X12580782Y8342684D01*
X12580783Y8342681D01*
X12582178Y8335708D01*
X12594095Y8276122D01*
X12594804Y8271387D01*
X12601874Y8200682D01*
X12602065Y8193547D01*
X12601872Y8189367D01*
X12602367Y8186642D01*
X12602368Y8186633D01*
X12604040Y8177440D01*
X12604587Y8173555D01*
X12605774Y8161689D01*
X12606649Y8159082D01*
X12606651Y8159075D01*
X12607113Y8157700D01*
X12608873Y8150866D01*
X12622520Y8075807D01*
X12624039Y8067451D01*
X12624586Y8063562D01*
X12631874Y7990682D01*
X12632065Y7983547D01*
X12631872Y7979367D01*
X12632367Y7976642D01*
X12632368Y7976633D01*
X12634040Y7967440D01*
X12634587Y7963555D01*
X12635774Y7951689D01*
X12636649Y7949082D01*
X12636651Y7949075D01*
X12637113Y7947700D01*
X12638873Y7940866D01*
X12640574Y7931509D01*
X12653838Y7858557D01*
X12654427Y7854228D01*
X12663330Y7756293D01*
X12663362Y7755927D01*
X12672038Y7651825D01*
X12672155Y7645493D01*
X12671872Y7639367D01*
X12673671Y7629472D01*
X12674291Y7624787D01*
X12675111Y7614948D01*
X12676975Y7609076D01*
X12678479Y7603027D01*
X12681463Y7586615D01*
X12693670Y7519480D01*
X12694291Y7514783D01*
X12701455Y7428817D01*
X12701455Y7428816D01*
X12711455Y7308817D01*
X12711455Y7308816D01*
X12721455Y7188817D01*
X12721455Y7188816D01*
X12731455Y7068817D01*
X12731455Y7068816D01*
X12743225Y6927578D01*
X12743250Y6927267D01*
X12751519Y6819767D01*
X12751529Y6819328D01*
X12751455Y6818816D01*
X12751574Y6817389D01*
X12751574Y6817387D01*
X12753227Y6797554D01*
X12753252Y6797242D01*
X12754870Y6776206D01*
X12755029Y6775694D01*
X12755078Y6775340D01*
X12755115Y6774904D01*
X12743744Y6739167D01*
X12710433Y6721936D01*
X12706384Y6721761D01*
X8579946Y6713886D01*
X8579945Y6713886D01*
X8570200Y6713867D01*
X8570200Y2756000D01*
X12710537Y2756000D01*
X12745185Y2741648D01*
X12759537Y2707000D01*
X12759368Y2702934D01*
X12755100Y2651711D01*
X12755039Y2651272D01*
X12754884Y2650775D01*
X12754774Y2649352D01*
X12754774Y2649348D01*
X12753241Y2629419D01*
X12753216Y2629110D01*
X12751644Y2610239D01*
X12751471Y2608166D01*
X12751543Y2607657D01*
X12751533Y2607212D01*
X12743235Y2499337D01*
X12735127Y2402037D01*
X12735125Y2402028D01*
X12733111Y2377852D01*
X12725183Y2282704D01*
X12725127Y2282036D01*
X12725126Y2282034D01*
X12722128Y2246058D01*
X12717101Y2185720D01*
X12715127Y2162036D01*
X12715126Y2162034D01*
X12709336Y2092547D01*
X12708524Y2082800D01*
X12705127Y2042037D01*
X12705125Y2042028D01*
X12694292Y1912025D01*
X12693671Y1907329D01*
X12678523Y1824013D01*
X12676990Y1817872D01*
X12675126Y1812034D01*
X12674896Y1809272D01*
X12674291Y1802015D01*
X12673672Y1797334D01*
X12671905Y1787612D01*
X12672027Y1784868D01*
X12672027Y1784866D01*
X12672179Y1781458D01*
X12672058Y1775214D01*
X12671478Y1768253D01*
X12663375Y1671017D01*
X12663343Y1670650D01*
X12654428Y1572579D01*
X12653839Y1568250D01*
X12638914Y1486161D01*
X12637128Y1479248D01*
X12635792Y1475292D01*
X12635516Y1472529D01*
X12634587Y1463239D01*
X12634040Y1459354D01*
X12631905Y1447612D01*
X12632027Y1444867D01*
X12632092Y1443395D01*
X12631897Y1436348D01*
X12624588Y1363250D01*
X12624042Y1359371D01*
X12611704Y1291508D01*
X12608914Y1276160D01*
X12607128Y1269248D01*
X12605792Y1265292D01*
X12605516Y1262529D01*
X12604587Y1253239D01*
X12604040Y1249354D01*
X12601905Y1237612D01*
X12602027Y1234867D01*
X12602092Y1233395D01*
X12601897Y1226348D01*
X12594804Y1155414D01*
X12594097Y1150687D01*
X12580818Y1084295D01*
X12560175Y981079D01*
X12559415Y977278D01*
X12557792Y971213D01*
X12555792Y965292D01*
X12555517Y962536D01*
X12555516Y962534D01*
X12554805Y955420D01*
X12554096Y950686D01*
X12552725Y943832D01*
X12552185Y941130D01*
X12552354Y934848D01*
X12552129Y928661D01*
X12545068Y858056D01*
X12544144Y852303D01*
X12531980Y797565D01*
X12531510Y795830D01*
X12530818Y794295D01*
X12530273Y791570D01*
X12526999Y775201D01*
X12526784Y774182D01*
X12522608Y755389D01*
X12522618Y753711D01*
X12522345Y751930D01*
X12507644Y678422D01*
X12507139Y676180D01*
X12493717Y622492D01*
X12493043Y620219D01*
X12492157Y618360D01*
X12491555Y615650D01*
X12488078Y600005D01*
X12487782Y598751D01*
X12483255Y580643D01*
X12483213Y578588D01*
X12482792Y576219D01*
X12479756Y562553D01*
X12475542Y543593D01*
X12474341Y538187D01*
X12470307Y520035D01*
X12468724Y514481D01*
X12466264Y507452D01*
X12465433Y499972D01*
X12465309Y498859D01*
X12464444Y493649D01*
X12462608Y485389D01*
X12462623Y482643D01*
X12462623Y482639D01*
X12462650Y477925D01*
X12462351Y472238D01*
X12455673Y412136D01*
X12454510Y405663D01*
X12419577Y265931D01*
X12419155Y264354D01*
X12415482Y251496D01*
X12414751Y248939D01*
X12391433Y219567D01*
X12367636Y213400D01*
X11729261Y213400D01*
X11694613Y227752D01*
X11681490Y251496D01*
X11668393Y308878D01*
X11660049Y345435D01*
X11659616Y346334D01*
X11659358Y347474D01*
X11658152Y349979D01*
X11563427Y546678D01*
X11563424Y546683D01*
X11562284Y549050D01*
X11561663Y549829D01*
X11561157Y550884D01*
X11559433Y553046D01*
X11559431Y553049D01*
X11423308Y723742D01*
X11421662Y725806D01*
X11420883Y726427D01*
X11420156Y727342D01*
X11417993Y729067D01*
X11417991Y729069D01*
X11247307Y865186D01*
X11247305Y865187D01*
X11245235Y866838D01*
X11244334Y867272D01*
X11243423Y868001D01*
X11240924Y869204D01*
X11240920Y869207D01*
X11104597Y934856D01*
X11041847Y965075D01*
X11040876Y965297D01*
X11039823Y965806D01*
X11037127Y966421D01*
X11037125Y966422D01*
X10824271Y1015005D01*
X10821699Y1015592D01*
X10820701Y1015592D01*
X10819562Y1015854D01*
X10595830Y1015854D01*
X10594857Y1015632D01*
X10593689Y1015634D01*
X10590986Y1015017D01*
X10590985Y1015017D01*
X10378149Y966439D01*
X10378147Y966438D01*
X10375565Y965849D01*
X10374666Y965416D01*
X10373526Y965158D01*
X10371024Y963953D01*
X10371021Y963952D01*
X10174322Y869227D01*
X10174317Y869224D01*
X10171950Y868084D01*
X10171171Y867463D01*
X10170116Y866957D01*
X10167954Y865233D01*
X10167951Y865231D01*
X10027598Y753303D01*
X9995194Y727462D01*
X9994573Y726683D01*
X9993658Y725956D01*
X9991933Y723793D01*
X9991931Y723791D01*
X9859202Y557355D01*
X9854162Y551035D01*
X9853728Y550134D01*
X9852999Y549223D01*
X9851796Y546724D01*
X9851793Y546720D01*
X9803203Y445820D01*
X9755925Y347647D01*
X9755703Y346676D01*
X9755194Y345623D01*
X9754579Y342927D01*
X9754578Y342925D01*
X9733710Y251496D01*
X9712009Y220910D01*
X9685939Y213400D01*
X3360526Y213400D01*
X3325878Y227752D01*
X3311526Y262400D01*
X3325071Y296222D01*
X3345211Y317334D01*
X3347740Y319985D01*
X3354429Y333371D01*
X3407174Y438932D01*
X3407175Y438934D01*
X3408810Y442207D01*
X3423810Y532323D01*
X3430928Y575087D01*
X3430928Y575092D01*
X3431243Y576982D01*
X3431300Y584200D01*
X3417306Y677283D01*
X3411532Y715689D01*
X3411531Y715691D01*
X3410987Y719312D01*
X3407591Y726385D01*
X3353430Y839175D01*
X3353429Y839177D01*
X3351844Y842477D01*
X3349360Y845165D01*
X3349358Y845167D01*
X3261586Y940118D01*
X3261584Y940119D01*
X3259099Y942808D01*
X3255934Y944646D01*
X3255932Y944648D01*
X3144118Y1009594D01*
X3144116Y1009595D01*
X3140953Y1011432D01*
X3137390Y1012258D01*
X3137387Y1012259D01*
X3049484Y1032634D01*
X3007852Y1042284D01*
X2871563Y1032634D01*
X2816760Y1011432D01*
X2747556Y984659D01*
X2747555Y984658D01*
X2744137Y983336D01*
X2741258Y981067D01*
X2738079Y979253D01*
X2737037Y981079D01*
X2707533Y972767D01*
X2688695Y979055D01*
X2636118Y1009594D01*
X2636116Y1009595D01*
X2632953Y1011432D01*
X2629390Y1012258D01*
X2629387Y1012259D01*
X2541484Y1032634D01*
X2499852Y1042284D01*
X2363563Y1032634D01*
X2308760Y1011432D01*
X2239556Y984659D01*
X2239555Y984658D01*
X2236137Y983336D01*
X2233258Y981067D01*
X2230079Y979253D01*
X2229037Y981079D01*
X2199533Y972767D01*
X2180695Y979055D01*
X2128118Y1009594D01*
X2128116Y1009595D01*
X2124953Y1011432D01*
X2121390Y1012258D01*
X2121387Y1012259D01*
X2033484Y1032634D01*
X1991852Y1042284D01*
X1855563Y1032634D01*
X1800760Y1011432D01*
X1731556Y984659D01*
X1731555Y984658D01*
X1728137Y983336D01*
X1725258Y981067D01*
X1722079Y979253D01*
X1721037Y981079D01*
X1691533Y972767D01*
X1672695Y979055D01*
X1620118Y1009594D01*
X1620116Y1009595D01*
X1616953Y1011432D01*
X1613390Y1012258D01*
X1613387Y1012259D01*
X1525484Y1032634D01*
X1483852Y1042284D01*
X1347563Y1032634D01*
X1292760Y1011432D01*
X1223551Y984657D01*
X1223550Y984656D01*
X1220137Y983336D01*
X1217265Y981072D01*
X1217260Y981069D01*
X1145681Y924640D01*
X1109586Y914460D01*
X1076865Y932784D01*
X1067010Y971163D01*
X1068727Y981482D01*
X1068727Y981485D01*
X1069043Y983382D01*
X1069100Y990600D01*
X1054269Y1089247D01*
X1049332Y1122089D01*
X1049331Y1122091D01*
X1048787Y1125712D01*
X1015269Y1195514D01*
X991230Y1245575D01*
X991229Y1245577D01*
X989644Y1248877D01*
X987160Y1251565D01*
X987158Y1251567D01*
X899386Y1346518D01*
X899384Y1346519D01*
X896899Y1349208D01*
X893734Y1351046D01*
X893732Y1351048D01*
X810867Y1399179D01*
X4056032Y1399179D01*
X4307479Y1147732D01*
X4590314Y1430567D01*
X4697804Y1430567D01*
X4699000Y1424555D01*
X4699000Y1079500D01*
X5130800Y1079500D01*
X5130800Y1435100D01*
X5346700Y1435100D01*
X5346700Y1079500D01*
X5778500Y1079500D01*
X5778500Y1435100D01*
X5346700Y1435100D01*
X5130800Y1435100D01*
X4699000Y1435100D01*
X4699000Y1431062D01*
X4697804Y1430567D01*
X4590314Y1430567D01*
X4612808Y1453061D01*
X4361361Y1704508D01*
X4056032Y1399179D01*
X810867Y1399179D01*
X781918Y1415994D01*
X781916Y1415995D01*
X778753Y1417832D01*
X775190Y1418658D01*
X775187Y1418659D01*
X687284Y1439034D01*
X645652Y1448684D01*
X509363Y1439034D01*
X454560Y1417832D01*
X385351Y1391057D01*
X385350Y1391056D01*
X381937Y1389736D01*
X379062Y1387470D01*
X379061Y1387469D01*
X311935Y1334552D01*
X275841Y1324373D01*
X243119Y1342698D01*
X232600Y1373033D01*
X232600Y1828800D01*
X8940800Y1828800D01*
X8940800Y1397000D01*
X9296400Y1397000D01*
X9296400Y1778000D01*
X9448800Y1778000D01*
X9448800Y1422400D01*
X9880600Y1422400D01*
X9880600Y1778000D01*
X10083800Y1778000D01*
X10083800Y1422400D01*
X10515600Y1422400D01*
X10515600Y1778000D01*
X10083800Y1778000D01*
X9880600Y1778000D01*
X9448800Y1778000D01*
X9296400Y1778000D01*
X9296400Y1828800D01*
X10668000Y1828800D01*
X10668000Y1397000D01*
X11023600Y1397000D01*
X11023600Y1828800D01*
X10668000Y1828800D01*
X9296400Y1828800D01*
X8940800Y1828800D01*
X232600Y1828800D01*
X232600Y2436676D01*
X1629449Y2436676D01*
X1668535Y2331856D01*
X1671535Y2328471D01*
X1739736Y2251519D01*
X1739739Y2251517D01*
X1742736Y2248135D01*
X1842101Y2196739D01*
X1953306Y2184560D01*
X2061440Y2213231D01*
X2109569Y2248135D01*
X2148340Y2276252D01*
X2148341Y2276253D01*
X2152002Y2278908D01*
X2212849Y2372783D01*
X2233370Y2470585D01*
X2235329Y2479923D01*
X2235329Y2479925D01*
X2235821Y2482269D01*
X2235900Y2489200D01*
X2226760Y2538276D01*
X2391449Y2538276D01*
X2430535Y2433456D01*
X2433535Y2430071D01*
X2501736Y2353119D01*
X2501739Y2353117D01*
X2504736Y2349735D01*
X2604101Y2298339D01*
X2715306Y2286160D01*
X2823440Y2314831D01*
X2871569Y2349735D01*
X2910340Y2377852D01*
X2910341Y2377853D01*
X2914002Y2380508D01*
X2974849Y2474383D01*
X2983287Y2514600D01*
X3987800Y2514600D01*
X3987800Y2082800D01*
X4343400Y2082800D01*
X4343400Y2514600D01*
X3987800Y2514600D01*
X2983287Y2514600D01*
X2997821Y2583869D01*
X2997900Y2590800D01*
X2993490Y2614476D01*
X6379249Y2614476D01*
X6418335Y2509656D01*
X6421335Y2506271D01*
X6489536Y2429319D01*
X6489539Y2429317D01*
X6492536Y2425935D01*
X6591901Y2374539D01*
X6703106Y2362360D01*
X6811240Y2391031D01*
X6859369Y2425935D01*
X6898140Y2454052D01*
X6898141Y2454053D01*
X6901802Y2456708D01*
X6962649Y2550583D01*
X6983797Y2651376D01*
X6985129Y2657723D01*
X6985129Y2657725D01*
X6985621Y2660069D01*
X6985700Y2667000D01*
X6965217Y2776979D01*
X6906516Y2872211D01*
X6817467Y2939925D01*
X6813123Y2941183D01*
X6813121Y2941184D01*
X6743346Y2961389D01*
X6710012Y2971042D01*
X6705506Y2970652D01*
X6705504Y2970652D01*
X6603069Y2961780D01*
X6603067Y2961779D01*
X6598559Y2961389D01*
X6498053Y2912261D01*
X6421973Y2830245D01*
X6380518Y2726339D01*
X6380228Y2700779D01*
X6379419Y2629419D01*
X6379249Y2614476D01*
X2993490Y2614476D01*
X2977417Y2700779D01*
X2918716Y2796011D01*
X2829667Y2863725D01*
X2825323Y2864983D01*
X2825321Y2864984D01*
X2755546Y2885189D01*
X2722212Y2894842D01*
X2717706Y2894452D01*
X2717704Y2894452D01*
X2615269Y2885580D01*
X2615267Y2885579D01*
X2610759Y2885189D01*
X2510253Y2836061D01*
X2507176Y2832744D01*
X2459735Y2781601D01*
X2434173Y2754045D01*
X2432498Y2749848D01*
X2432498Y2749847D01*
X2427153Y2736449D01*
X2392718Y2650139D01*
X2392265Y2610239D01*
X2391546Y2546785D01*
X2391449Y2538276D01*
X2226760Y2538276D01*
X2215417Y2599179D01*
X2156716Y2694411D01*
X2067667Y2762125D01*
X2063323Y2763383D01*
X2063321Y2763384D01*
X1993546Y2783589D01*
X1960212Y2793242D01*
X1955706Y2792852D01*
X1955704Y2792852D01*
X1853269Y2783980D01*
X1853267Y2783979D01*
X1848759Y2783589D01*
X1748253Y2734461D01*
X1745176Y2731144D01*
X1683458Y2664610D01*
X1672173Y2652445D01*
X1630718Y2548539D01*
X1629449Y2436676D01*
X232600Y2436676D01*
X232600Y3837476D01*
X2489049Y3837476D01*
X2528135Y3732656D01*
X2531135Y3729271D01*
X2599336Y3652319D01*
X2599339Y3652317D01*
X2602336Y3648935D01*
X2701701Y3597539D01*
X2812906Y3585360D01*
X2921040Y3614031D01*
X2925877Y3617539D01*
X2945481Y3631756D01*
X2981955Y3640479D01*
X2996760Y3635612D01*
X3004215Y3631756D01*
X3031701Y3617539D01*
X3142906Y3605360D01*
X3251040Y3634031D01*
X3304428Y3672749D01*
X3337940Y3697052D01*
X3337941Y3697053D01*
X3341602Y3699708D01*
X3360489Y3728846D01*
X3378765Y3757043D01*
X3390577Y3775267D01*
X3421465Y3796536D01*
X3458346Y3789734D01*
X3479060Y3758412D01*
X3479049Y3757476D01*
X3480629Y3753239D01*
X3480629Y3753238D01*
X3518135Y3652656D01*
X3516125Y3651906D01*
X3520529Y3622402D01*
X3508911Y3600940D01*
X3501773Y3593245D01*
X3460318Y3489339D01*
X3459049Y3377476D01*
X3498135Y3272656D01*
X3501135Y3269271D01*
X3569336Y3192319D01*
X3569339Y3192317D01*
X3572336Y3188935D01*
X3671701Y3137539D01*
X3782906Y3125360D01*
X3799184Y3129676D01*
X3987715Y3129676D01*
X3989025Y3124200D01*
X3987800Y3124200D01*
X3987800Y2717800D01*
X4343400Y2717800D01*
X4343400Y3124200D01*
X4000936Y3124200D01*
X3987715Y3129676D01*
X3799184Y3129676D01*
X3891040Y3154031D01*
X3901240Y3161428D01*
X3912365Y3169496D01*
X3948840Y3178219D01*
X3952966Y3175686D01*
X3966288Y3207848D01*
X3972169Y3212867D01*
X3972611Y3213188D01*
X3981602Y3219708D01*
X4042449Y3313583D01*
X4065421Y3423069D01*
X4065500Y3430000D01*
X4054449Y3489339D01*
X4047916Y3524413D01*
X4055682Y3561104D01*
X4087116Y3581557D01*
X4101420Y3582094D01*
X4162906Y3575360D01*
X4271040Y3604031D01*
X4296372Y3622402D01*
X4357940Y3667052D01*
X4357941Y3667053D01*
X4361602Y3669708D01*
X4422449Y3763583D01*
X4444110Y3866821D01*
X4444929Y3870723D01*
X4444929Y3870725D01*
X4445421Y3873069D01*
X4445500Y3880000D01*
X4429208Y3967476D01*
X4579049Y3967476D01*
X4618135Y3862656D01*
X4621135Y3859271D01*
X4689336Y3782319D01*
X4689339Y3782317D01*
X4692336Y3778935D01*
X4791701Y3727539D01*
X4902906Y3715360D01*
X5011040Y3744031D01*
X5040946Y3765719D01*
X5097940Y3807052D01*
X5097941Y3807053D01*
X5101602Y3809708D01*
X5162449Y3903583D01*
X5185421Y4013069D01*
X5185500Y4020000D01*
X5165017Y4129979D01*
X5106316Y4225211D01*
X5017267Y4292925D01*
X5012923Y4294183D01*
X5012921Y4294184D01*
X4943146Y4314389D01*
X4909812Y4324042D01*
X4905306Y4323652D01*
X4905304Y4323652D01*
X4802869Y4314780D01*
X4802867Y4314779D01*
X4798359Y4314389D01*
X4697853Y4265261D01*
X4694776Y4261944D01*
X4631789Y4194042D01*
X4621773Y4183245D01*
X4580318Y4079339D01*
X4579049Y3967476D01*
X4429208Y3967476D01*
X4425017Y3989979D01*
X4366316Y4085211D01*
X4277267Y4152925D01*
X4272923Y4154183D01*
X4272921Y4154184D01*
X4203146Y4174389D01*
X4169812Y4184042D01*
X4165306Y4183652D01*
X4165304Y4183652D01*
X4062869Y4174780D01*
X4062867Y4174779D01*
X4058359Y4174389D01*
X3957853Y4125261D01*
X3954776Y4121944D01*
X3938844Y4104769D01*
X3904758Y4089127D01*
X3889291Y4091027D01*
X3814160Y4112783D01*
X3814159Y4112783D01*
X3809812Y4114042D01*
X3805306Y4113652D01*
X3805304Y4113652D01*
X3702869Y4104780D01*
X3702867Y4104779D01*
X3698359Y4104389D01*
X3597853Y4055261D01*
X3594776Y4051944D01*
X3565125Y4019979D01*
X3521773Y3973245D01*
X3520099Y3969050D01*
X3520095Y3969043D01*
X3510810Y3945770D01*
X3484641Y3918907D01*
X3447141Y3918417D01*
X3420278Y3944586D01*
X3417127Y3954956D01*
X3405017Y4019979D01*
X3346316Y4115211D01*
X3257267Y4182925D01*
X3252923Y4184183D01*
X3252921Y4184184D01*
X3183146Y4204389D01*
X3149812Y4214042D01*
X3145306Y4213652D01*
X3145304Y4213652D01*
X3042869Y4204780D01*
X3042867Y4204779D01*
X3038359Y4204389D01*
X3034292Y4202401D01*
X2960747Y4166452D01*
X2925599Y4163408D01*
X2819812Y4194042D01*
X2815306Y4193652D01*
X2815304Y4193652D01*
X2712869Y4184780D01*
X2712867Y4184779D01*
X2708359Y4184389D01*
X2607853Y4135261D01*
X2531773Y4053245D01*
X2530098Y4049048D01*
X2530098Y4049047D01*
X2520038Y4023832D01*
X2490318Y3949339D01*
X2490267Y3944816D01*
X2489335Y3862656D01*
X2489049Y3837476D01*
X232600Y3837476D01*
X232600Y4773476D01*
X1299249Y4773476D01*
X1338335Y4668656D01*
X1341335Y4665271D01*
X1409536Y4588319D01*
X1409539Y4588317D01*
X1412536Y4584935D01*
X1511901Y4533539D01*
X1623106Y4521360D01*
X1731240Y4550031D01*
X1779369Y4584935D01*
X1818140Y4613052D01*
X1818141Y4613053D01*
X1821802Y4615708D01*
X1882649Y4709583D01*
X1905621Y4819069D01*
X1905700Y4826000D01*
X1893632Y4890796D01*
X1901397Y4927485D01*
X1932832Y4947939D01*
X1964316Y4943290D01*
X2019901Y4914539D01*
X2131106Y4902360D01*
X2239240Y4931031D01*
X2256144Y4943290D01*
X2326140Y4994052D01*
X2326141Y4994053D01*
X2329802Y4996708D01*
X2390649Y5090583D01*
X2413621Y5200069D01*
X2413700Y5207000D01*
X2393217Y5316979D01*
X2334516Y5412211D01*
X2245467Y5479925D01*
X2241123Y5481183D01*
X2241121Y5481184D01*
X2171346Y5501389D01*
X2138012Y5511042D01*
X2133506Y5510652D01*
X2133504Y5510652D01*
X2031069Y5501780D01*
X2031067Y5501779D01*
X2026559Y5501389D01*
X1926053Y5452261D01*
X1849973Y5370245D01*
X1808518Y5266339D01*
X1807249Y5154476D01*
X1808830Y5150236D01*
X1808941Y5149600D01*
X1800759Y5113000D01*
X1769094Y5092905D01*
X1739669Y5097251D01*
X1737467Y5098925D01*
X1630012Y5130042D01*
X1625506Y5129652D01*
X1625504Y5129652D01*
X1523069Y5120780D01*
X1523067Y5120779D01*
X1518559Y5120389D01*
X1418053Y5071261D01*
X1341973Y4989245D01*
X1300518Y4885339D01*
X1299249Y4773476D01*
X232600Y4773476D01*
X232600Y5891076D01*
X1858049Y5891076D01*
X1897135Y5786256D01*
X1900135Y5782871D01*
X1968336Y5705919D01*
X1968339Y5705917D01*
X1971336Y5702535D01*
X2070701Y5651139D01*
X2181906Y5638960D01*
X2290040Y5667631D01*
X2338169Y5702535D01*
X2376940Y5730652D01*
X2376941Y5730653D01*
X2380602Y5733308D01*
X2382738Y5736604D01*
X2416739Y5751741D01*
X2451751Y5738301D01*
X2454691Y5735259D01*
X2519336Y5662319D01*
X2519339Y5662317D01*
X2522336Y5658935D01*
X2621701Y5607539D01*
X2732906Y5595360D01*
X2841040Y5624031D01*
X2870943Y5645717D01*
X2927940Y5687052D01*
X2927941Y5687053D01*
X2931602Y5689708D01*
X2992449Y5783583D01*
X3015421Y5893069D01*
X3015500Y5900000D01*
X2995017Y6009979D01*
X2936316Y6105211D01*
X2847267Y6172925D01*
X2842923Y6174183D01*
X2842921Y6174184D01*
X2792236Y6188861D01*
X2739812Y6204042D01*
X2735306Y6203652D01*
X2735304Y6203652D01*
X2632869Y6194780D01*
X2632867Y6194779D01*
X2628359Y6194389D01*
X2527853Y6145261D01*
X2488324Y6102647D01*
X2487357Y6101605D01*
X2453272Y6085964D01*
X2418109Y6099005D01*
X2409721Y6109218D01*
X2396258Y6131060D01*
X2385316Y6148811D01*
X2296267Y6216525D01*
X2291923Y6217783D01*
X2291921Y6217784D01*
X2222146Y6237989D01*
X2188812Y6247642D01*
X2184306Y6247252D01*
X2184304Y6247252D01*
X2081869Y6238380D01*
X2081867Y6238379D01*
X2077359Y6237989D01*
X1976853Y6188861D01*
X1973776Y6185544D01*
X1936409Y6145261D01*
X1900773Y6106845D01*
X1859318Y6002939D01*
X1858752Y5953069D01*
X1858213Y5905508D01*
X1858049Y5891076D01*
X232600Y5891076D01*
X232600Y7453656D01*
X1983484Y7453656D01*
X2022632Y7322754D01*
X2024666Y7319709D01*
X2024667Y7319708D01*
X2054552Y7274983D01*
X2098540Y7209151D01*
X2101381Y7206838D01*
X2197585Y7128515D01*
X2204495Y7122889D01*
X2331132Y7071596D01*
X2334780Y7071280D01*
X2463603Y7060123D01*
X2467252Y7059807D01*
X2600822Y7088563D01*
X2720031Y7155324D01*
X2814340Y7254185D01*
X2847080Y7319708D01*
X2856658Y7338876D01*
X3331249Y7338876D01*
X3370335Y7234056D01*
X3373335Y7230671D01*
X3441536Y7153719D01*
X3441539Y7153717D01*
X3444536Y7150335D01*
X3543901Y7098939D01*
X3655106Y7086760D01*
X3763240Y7115431D01*
X3815782Y7153535D01*
X3850140Y7178452D01*
X3850141Y7178453D01*
X3853802Y7181108D01*
X3914649Y7274983D01*
X3928055Y7338876D01*
X4042449Y7338876D01*
X4081535Y7234056D01*
X4084535Y7230671D01*
X4152736Y7153719D01*
X4152739Y7153717D01*
X4155736Y7150335D01*
X4255101Y7098939D01*
X4284035Y7095770D01*
X4303647Y7093622D01*
X4336527Y7075583D01*
X4347021Y7039578D01*
X4328982Y7006698D01*
X4319841Y7000897D01*
X4287853Y6985261D01*
X4211773Y6903245D01*
X4170318Y6799339D01*
X4170267Y6794816D01*
X4169349Y6713886D01*
X4169049Y6687476D01*
X4208135Y6582656D01*
X4211135Y6579271D01*
X4279336Y6502319D01*
X4279339Y6502317D01*
X4282336Y6498935D01*
X4381701Y6447539D01*
X4492906Y6435360D01*
X4601040Y6464031D01*
X4604701Y6466686D01*
X4604705Y6466688D01*
X4637972Y6490813D01*
X4674446Y6499536D01*
X4689251Y6494669D01*
X4741701Y6467539D01*
X4852906Y6455360D01*
X4888736Y6464860D01*
X4925905Y6459868D01*
X4948657Y6430055D01*
X4950291Y6416941D01*
X4949121Y6313779D01*
X4949049Y6307476D01*
X4988135Y6202656D01*
X4991136Y6199271D01*
X4993466Y6195392D01*
X4991940Y6194475D01*
X5001982Y6165395D01*
X4998583Y6150186D01*
X4974808Y6090594D01*
X4970318Y6079339D01*
X4969049Y5967476D01*
X5008135Y5862656D01*
X5011135Y5859271D01*
X5079336Y5782319D01*
X5079339Y5782317D01*
X5082336Y5778935D01*
X5181701Y5727539D01*
X5292906Y5715360D01*
X5401040Y5744031D01*
X5459337Y5786309D01*
X5495811Y5795032D01*
X5524774Y5779143D01*
X5575136Y5722319D01*
X5575139Y5722317D01*
X5578136Y5718935D01*
X5677501Y5667539D01*
X5788706Y5655360D01*
X5896840Y5684031D01*
X5940040Y5715360D01*
X5983740Y5747052D01*
X5983741Y5747053D01*
X5987402Y5749708D01*
X6048249Y5843583D01*
X6071221Y5953069D01*
X6071300Y5960000D01*
X6069283Y5970834D01*
X6062820Y6005532D01*
X6059814Y6021670D01*
X6067579Y6058359D01*
X6095428Y6078004D01*
X6171867Y6098271D01*
X6171870Y6098272D01*
X6176240Y6099431D01*
X6219853Y6131060D01*
X6263140Y6162452D01*
X6263141Y6162453D01*
X6266802Y6165108D01*
X6327649Y6258983D01*
X6344456Y6339084D01*
X6350129Y6366123D01*
X6350129Y6366125D01*
X6350621Y6368469D01*
X6350700Y6375400D01*
X6330217Y6485379D01*
X6271516Y6580611D01*
X6182467Y6648325D01*
X6178123Y6649583D01*
X6178121Y6649584D01*
X6108346Y6669789D01*
X6075012Y6679442D01*
X6070506Y6679052D01*
X6070504Y6679052D01*
X5968069Y6670180D01*
X5968067Y6670179D01*
X5963559Y6669789D01*
X5863053Y6620661D01*
X5859976Y6617344D01*
X5810216Y6563701D01*
X5786973Y6538645D01*
X5745518Y6434739D01*
X5745316Y6416941D01*
X5744592Y6353069D01*
X5744249Y6322876D01*
X5745829Y6318639D01*
X5746607Y6314181D01*
X5744305Y6313779D01*
X5743247Y6284459D01*
X5715789Y6258913D01*
X5702910Y6256013D01*
X5688669Y6254780D01*
X5688667Y6254779D01*
X5684159Y6254389D01*
X5607695Y6217013D01*
X5570266Y6214691D01*
X5542156Y6239516D01*
X5538222Y6271097D01*
X5554929Y6350723D01*
X5554929Y6350725D01*
X5555421Y6353069D01*
X5555500Y6360000D01*
X5535017Y6469979D01*
X5509523Y6511339D01*
X5503559Y6548363D01*
X5510117Y6563701D01*
X5539987Y6609785D01*
X5542449Y6613583D01*
X5556003Y6678183D01*
X5564929Y6720723D01*
X5564929Y6720725D01*
X5565421Y6723069D01*
X5565500Y6730000D01*
X5545017Y6839979D01*
X5486316Y6935211D01*
X5397267Y7002925D01*
X5392923Y7004183D01*
X5392921Y7004184D01*
X5323146Y7024389D01*
X5289812Y7034042D01*
X5285306Y7033652D01*
X5285304Y7033652D01*
X5182869Y7024780D01*
X5182867Y7024779D01*
X5178359Y7024389D01*
X5174292Y7022401D01*
X5083833Y6978184D01*
X5046402Y6975862D01*
X5032656Y6983202D01*
X5029949Y6985261D01*
X4967267Y7032925D01*
X4962923Y7034183D01*
X4962921Y7034184D01*
X4893146Y7054389D01*
X4859812Y7064042D01*
X4855306Y7063652D01*
X4855304Y7063652D01*
X4752869Y7054780D01*
X4752867Y7054779D01*
X4748359Y7054389D01*
X4744292Y7052401D01*
X4655892Y7009191D01*
X4618461Y7006869D01*
X4612358Y7009438D01*
X4610866Y7010189D01*
X4607267Y7012925D01*
X4602926Y7014182D01*
X4602924Y7014183D01*
X4507618Y7041782D01*
X4478329Y7065205D01*
X4474182Y7102478D01*
X4492480Y7128514D01*
X4533418Y7158203D01*
X4561340Y7178452D01*
X4561341Y7178453D01*
X4565002Y7181108D01*
X4625849Y7274983D01*
X4639255Y7338876D01*
X5998249Y7338876D01*
X6037335Y7234056D01*
X6040335Y7230671D01*
X6108536Y7153719D01*
X6108539Y7153717D01*
X6111536Y7150335D01*
X6210901Y7098939D01*
X6322106Y7086760D01*
X6430240Y7115431D01*
X6482782Y7153535D01*
X6517140Y7178452D01*
X6517141Y7178453D01*
X6520802Y7181108D01*
X6581649Y7274983D01*
X6602242Y7373132D01*
X6604129Y7382123D01*
X6604129Y7382125D01*
X6604621Y7384469D01*
X6604700Y7391400D01*
X6584217Y7501379D01*
X6525516Y7596611D01*
X6436467Y7664325D01*
X6432123Y7665583D01*
X6432121Y7665584D01*
X6362346Y7685789D01*
X6329012Y7695442D01*
X6324506Y7695052D01*
X6324504Y7695052D01*
X6222069Y7686180D01*
X6222067Y7686179D01*
X6217559Y7685789D01*
X6117053Y7636661D01*
X6113976Y7633344D01*
X6085850Y7603023D01*
X6040973Y7554645D01*
X5999518Y7450739D01*
X5998873Y7393849D01*
X5998638Y7373132D01*
X5998249Y7338876D01*
X4639255Y7338876D01*
X4646442Y7373132D01*
X4648329Y7382123D01*
X4648329Y7382125D01*
X4648821Y7384469D01*
X4648900Y7391400D01*
X4628417Y7501379D01*
X4569716Y7596611D01*
X4480667Y7664325D01*
X4476323Y7665583D01*
X4476321Y7665584D01*
X4406546Y7685789D01*
X4373212Y7695442D01*
X4368706Y7695052D01*
X4368704Y7695052D01*
X4266269Y7686180D01*
X4266267Y7686179D01*
X4261759Y7685789D01*
X4161253Y7636661D01*
X4158176Y7633344D01*
X4130050Y7603023D01*
X4085173Y7554645D01*
X4043718Y7450739D01*
X4043073Y7393849D01*
X4042838Y7373132D01*
X4042449Y7338876D01*
X3928055Y7338876D01*
X3935242Y7373132D01*
X3937129Y7382123D01*
X3937129Y7382125D01*
X3937621Y7384469D01*
X3937700Y7391400D01*
X3917217Y7501379D01*
X3858516Y7596611D01*
X3769467Y7664325D01*
X3765123Y7665583D01*
X3765121Y7665584D01*
X3695346Y7685789D01*
X3662012Y7695442D01*
X3657506Y7695052D01*
X3657504Y7695052D01*
X3555069Y7686180D01*
X3555067Y7686179D01*
X3550559Y7685789D01*
X3450053Y7636661D01*
X3446976Y7633344D01*
X3418850Y7603023D01*
X3373973Y7554645D01*
X3332518Y7450739D01*
X3331873Y7393849D01*
X3331638Y7373132D01*
X3331249Y7338876D01*
X2856658Y7338876D01*
X2873774Y7373132D01*
X2873775Y7373134D01*
X2875410Y7376407D01*
X2888268Y7453656D01*
X2897528Y7509287D01*
X2897528Y7509292D01*
X2897843Y7511182D01*
X2897900Y7518400D01*
X2880123Y7636647D01*
X2878132Y7649889D01*
X2878131Y7649891D01*
X2877587Y7653512D01*
X2865035Y7679651D01*
X2820030Y7773375D01*
X2820029Y7773377D01*
X2818444Y7776677D01*
X2815960Y7779365D01*
X2815958Y7779367D01*
X2728186Y7874318D01*
X2728184Y7874319D01*
X2725699Y7877008D01*
X2722534Y7878846D01*
X2722532Y7878848D01*
X2610718Y7943794D01*
X2610716Y7943795D01*
X2607553Y7945632D01*
X2603990Y7946458D01*
X2603987Y7946459D01*
X2516084Y7966834D01*
X2474452Y7976484D01*
X2338163Y7966834D01*
X2283360Y7945632D01*
X2214151Y7918857D01*
X2214150Y7918856D01*
X2210737Y7917536D01*
X2103439Y7832949D01*
X2025756Y7720552D01*
X1984557Y7590282D01*
X1983484Y7453656D01*
X232600Y7453656D01*
X232600Y8469656D01*
X5818884Y8469656D01*
X5858032Y8338754D01*
X5933940Y8225151D01*
X5936781Y8222838D01*
X6036896Y8141331D01*
X6039895Y8138889D01*
X6166532Y8087596D01*
X6170180Y8087280D01*
X6299003Y8076123D01*
X6302652Y8075807D01*
X6436222Y8104563D01*
X6555431Y8171324D01*
X6649740Y8270185D01*
X6670414Y8311561D01*
X6709174Y8389132D01*
X6709175Y8389134D01*
X6710810Y8392407D01*
X6723668Y8469656D01*
X7317484Y8469656D01*
X7356632Y8338754D01*
X7432540Y8225151D01*
X7435381Y8222838D01*
X7535496Y8141331D01*
X7538495Y8138889D01*
X7665132Y8087596D01*
X7668780Y8087280D01*
X7797603Y8076123D01*
X7801252Y8075807D01*
X7934822Y8104563D01*
X8054031Y8171324D01*
X8148340Y8270185D01*
X8169014Y8311561D01*
X8175667Y8324876D01*
X9900664Y8324876D01*
X9939812Y8193974D01*
X9941846Y8190929D01*
X9941847Y8190928D01*
X9998359Y8106353D01*
X10015720Y8080371D01*
X10018561Y8078058D01*
X10031590Y8067451D01*
X10121675Y7994109D01*
X10248312Y7942816D01*
X10251960Y7942500D01*
X10380783Y7931343D01*
X10384432Y7931027D01*
X10518002Y7959783D01*
X10637211Y8026544D01*
X10731520Y8125405D01*
X10736370Y8135111D01*
X10790954Y8244352D01*
X10790955Y8244354D01*
X10792590Y8247627D01*
X10806058Y8328543D01*
X10814708Y8380507D01*
X10814708Y8380512D01*
X10815023Y8382402D01*
X10815050Y8385836D01*
X10952224Y8385836D01*
X10991372Y8254934D01*
X10993406Y8251889D01*
X10993407Y8251888D01*
X11065244Y8144378D01*
X11067280Y8141331D01*
X11070121Y8139018D01*
X11147375Y8076123D01*
X11173235Y8055069D01*
X11299872Y8003776D01*
X11303520Y8003460D01*
X11432343Y7992303D01*
X11435992Y7991987D01*
X11569562Y8020743D01*
X11688771Y8087504D01*
X11783080Y8186365D01*
X11802460Y8225151D01*
X11842514Y8305312D01*
X11842515Y8305314D01*
X11844150Y8308587D01*
X11866583Y8443362D01*
X11866640Y8450580D01*
X11851933Y8548405D01*
X11846872Y8582069D01*
X11846871Y8582071D01*
X11846327Y8585692D01*
X11844741Y8588995D01*
X11788770Y8705555D01*
X11788769Y8705557D01*
X11787184Y8708857D01*
X11784700Y8711545D01*
X11784698Y8711547D01*
X11696926Y8806498D01*
X11696924Y8806499D01*
X11694439Y8809188D01*
X11691274Y8811026D01*
X11691272Y8811028D01*
X11579458Y8875974D01*
X11579456Y8875975D01*
X11576293Y8877812D01*
X11572730Y8878638D01*
X11572727Y8878639D01*
X11484824Y8899014D01*
X11443192Y8908664D01*
X11306903Y8899014D01*
X11252100Y8877812D01*
X11182891Y8851037D01*
X11182890Y8851036D01*
X11179477Y8849716D01*
X11174683Y8845937D01*
X11099277Y8786491D01*
X11072179Y8765129D01*
X10994496Y8652732D01*
X10953297Y8522462D01*
X10952224Y8385836D01*
X10815050Y8385836D01*
X10815080Y8389620D01*
X10799201Y8495239D01*
X10795312Y8521109D01*
X10795311Y8521111D01*
X10794767Y8524732D01*
X10790423Y8533778D01*
X10737210Y8644595D01*
X10737209Y8644597D01*
X10735624Y8647897D01*
X10733140Y8650585D01*
X10733138Y8650587D01*
X10645366Y8745538D01*
X10645364Y8745539D01*
X10642879Y8748228D01*
X10639714Y8750066D01*
X10639712Y8750068D01*
X10527898Y8815014D01*
X10527896Y8815015D01*
X10524733Y8816852D01*
X10521170Y8817678D01*
X10521167Y8817679D01*
X10433264Y8838054D01*
X10391632Y8847704D01*
X10255343Y8838054D01*
X10200540Y8816852D01*
X10131331Y8790077D01*
X10131330Y8790076D01*
X10127917Y8788756D01*
X10020619Y8704169D01*
X9942936Y8591772D01*
X9901737Y8461502D01*
X9901708Y8457836D01*
X9901708Y8457835D01*
X9901580Y8441467D01*
X9900664Y8324876D01*
X8175667Y8324876D01*
X8207774Y8389132D01*
X8207775Y8389134D01*
X8209410Y8392407D01*
X8223345Y8476126D01*
X8231528Y8525287D01*
X8231528Y8525292D01*
X8231843Y8527182D01*
X8231900Y8534400D01*
X8215333Y8644595D01*
X8212132Y8665889D01*
X8212131Y8665891D01*
X8211587Y8669512D01*
X8210001Y8672815D01*
X8154030Y8789375D01*
X8154029Y8789377D01*
X8152444Y8792677D01*
X8149960Y8795365D01*
X8149958Y8795367D01*
X8062186Y8890318D01*
X8062184Y8890319D01*
X8059699Y8893008D01*
X8056534Y8894846D01*
X8056532Y8894848D01*
X7944718Y8959794D01*
X7944716Y8959795D01*
X7941553Y8961632D01*
X7937990Y8962458D01*
X7937987Y8962459D01*
X7850084Y8982834D01*
X7808452Y8992484D01*
X7672163Y8982834D01*
X7617360Y8961632D01*
X7548151Y8934857D01*
X7548150Y8934856D01*
X7544737Y8933536D01*
X7531811Y8923346D01*
X7443995Y8854117D01*
X7437439Y8848949D01*
X7359756Y8736552D01*
X7318557Y8606282D01*
X7318528Y8602616D01*
X7318528Y8602615D01*
X7318400Y8586281D01*
X7317484Y8469656D01*
X6723668Y8469656D01*
X6724745Y8476126D01*
X6732928Y8525287D01*
X6732928Y8525292D01*
X6733243Y8527182D01*
X6733300Y8534400D01*
X6716733Y8644595D01*
X6713532Y8665889D01*
X6713531Y8665891D01*
X6712987Y8669512D01*
X6711401Y8672815D01*
X6655430Y8789375D01*
X6655429Y8789377D01*
X6653844Y8792677D01*
X6651360Y8795365D01*
X6651358Y8795367D01*
X6563586Y8890318D01*
X6563584Y8890319D01*
X6561099Y8893008D01*
X6557934Y8894846D01*
X6557932Y8894848D01*
X6446118Y8959794D01*
X6446116Y8959795D01*
X6442953Y8961632D01*
X6439390Y8962458D01*
X6439387Y8962459D01*
X6351484Y8982834D01*
X6309852Y8992484D01*
X6173563Y8982834D01*
X6118760Y8961632D01*
X6049551Y8934857D01*
X6049550Y8934856D01*
X6046137Y8933536D01*
X6033211Y8923346D01*
X5945395Y8854117D01*
X5938839Y8848949D01*
X5861156Y8736552D01*
X5819957Y8606282D01*
X5819928Y8602616D01*
X5819928Y8602615D01*
X5819800Y8586281D01*
X5818884Y8469656D01*
X232600Y8469656D01*
X232600Y8862766D01*
X234165Y8875052D01*
X236222Y8882993D01*
X236222Y8882995D01*
X236917Y8885677D01*
X237118Y8893008D01*
X238490Y8943021D01*
X238887Y8948043D01*
X238993Y8948852D01*
X240248Y8955168D01*
X257711Y9020340D01*
X262604Y9032154D01*
X294757Y9087844D01*
X302544Y9097992D01*
X348009Y9143457D01*
X358156Y9151243D01*
X413845Y9183395D01*
X425661Y9188289D01*
X490830Y9205752D01*
X497121Y9207003D01*
X497932Y9207110D01*
X502975Y9207510D01*
X540311Y9208534D01*
X560132Y9209078D01*
X562789Y9209761D01*
X562794Y9209762D01*
X570936Y9211856D01*
X583139Y9213400D01*
X590417Y9213400D01*
X6680831Y9213399D01*
G37*
G04 #@! TD.AperFunction*
M02*
