%TF.GenerationSoftware,KiCad,Pcbnew,7.0.1-0*%
%TF.CreationDate,2023-03-19T00:13:04-06:00*%
%TF.ProjectId,bomu-programmer,626f6d75-2d70-4726-9f67-72616d6d6572,rev?*%
%TF.SameCoordinates,Original*%
%TF.FileFunction,Copper,L1,Top*%
%TF.FilePolarity,Positive*%
%FSLAX46Y46*%
G04 Gerber Fmt 4.6, Leading zero omitted, Abs format (unit mm)*
G04 Created by KiCad (PCBNEW 7.0.1-0) date 2023-03-19 00:13:04*
%MOMM*%
%LPD*%
G01*
G04 APERTURE LIST*
%TA.AperFunction,ComponentPad*%
%ADD10R,1.700000X1.700000*%
%TD*%
%TA.AperFunction,ComponentPad*%
%ADD11O,1.700000X1.700000*%
%TD*%
%TA.AperFunction,ComponentPad*%
%ADD12R,0.850000X0.850000*%
%TD*%
%TA.AperFunction,SMDPad,CuDef*%
%ADD13R,2.100000X0.750000*%
%TD*%
%TA.AperFunction,ViaPad*%
%ADD14C,0.800000*%
%TD*%
%TA.AperFunction,Conductor*%
%ADD15C,0.250000*%
%TD*%
%TA.AperFunction,Conductor*%
%ADD16C,0.127000*%
%TD*%
G04 APERTURE END LIST*
D10*
%TO.P,J2,1,Pin_1*%
%TO.N,GND*%
X201900000Y-56300000D03*
D11*
%TO.P,J2,2,Pin_2*%
%TO.N,+3V3*%
X201900000Y-58840000D03*
%TD*%
D12*
%TO.P,P1,1,3V3*%
%TO.N,+3V3*%
X205190000Y-52720000D03*
%TO.P,P1,2,GND*%
%TO.N,GND*%
X205190000Y-53720000D03*
%TO.P,P1,3,SWDIO*%
%TO.N,Net-(J1-SWDIO{slash}TMS)*%
X204190000Y-52720000D03*
%TO.P,P1,4,NC*%
%TO.N,unconnected-(P1-NC-Pad4)*%
X204190000Y-53720000D03*
%TO.P,P1,5,SWCLK*%
%TO.N,Net-(J1-SWDCLK{slash}TCK)*%
X203190000Y-52720000D03*
%TO.P,P1,6,NFC-*%
%TO.N,unconnected-(P1-NFC--Pad6)*%
X203190000Y-53720000D03*
%TO.P,P1,7,RESET*%
%TO.N,Net-(J1-~{RESET})*%
X202190000Y-52720000D03*
%TO.P,P1,8,NFC+*%
%TO.N,unconnected-(P1-NFC+-Pad8)*%
X202190000Y-53720000D03*
%TD*%
D13*
%TO.P,J1,1,VTref*%
%TO.N,+3V3*%
X194950000Y-54280003D03*
%TO.P,J1,2,SWDIO/TMS*%
%TO.N,Net-(J1-SWDIO{slash}TMS)*%
X198550000Y-54280003D03*
%TO.P,J1,3,GND*%
%TO.N,GND*%
X194950000Y-55550003D03*
%TO.P,J1,4,SWDCLK/TCK*%
%TO.N,Net-(J1-SWDCLK{slash}TCK)*%
X198550000Y-55550003D03*
%TO.P,J1,5,GND*%
%TO.N,GND*%
X194950000Y-56820003D03*
%TO.P,J1,6,SWO/TDO*%
%TO.N,unconnected-(J1-SWO{slash}TDO-Pad6)*%
X198550000Y-56820003D03*
%TO.P,J1,7,KEY*%
%TO.N,unconnected-(J1-KEY-Pad7)*%
X194950000Y-58090003D03*
%TO.P,J1,8,NC/TDI*%
%TO.N,unconnected-(J1-NC{slash}TDI-Pad8)*%
X198550000Y-58090003D03*
%TO.P,J1,9,GNDDetect*%
%TO.N,GND*%
X194950000Y-59360003D03*
%TO.P,J1,10,~{RESET}*%
%TO.N,Net-(J1-~{RESET})*%
X198550000Y-59360003D03*
%TD*%
D14*
%TO.N,Net-(J1-SWDIO{slash}TMS)*%
X198400000Y-52800000D03*
%TO.N,Net-(J1-~{RESET})*%
X196800000Y-59200000D03*
%TO.N,+3V3*%
X195000000Y-52100000D03*
%TD*%
D15*
%TO.N,+3V3*%
X194950000Y-54280003D02*
X194950000Y-52150000D01*
X194950000Y-52150000D02*
X195000000Y-52100000D01*
D16*
X195400000Y-51600000D02*
X195000000Y-52000000D01*
X195000000Y-52000000D02*
X195000000Y-52100000D01*
%TO.N,Net-(J1-SWDIO{slash}TMS)*%
X198400000Y-54130003D02*
X198550000Y-54280003D01*
X198400000Y-52800000D02*
X198400000Y-54130003D01*
%TO.N,GND*%
X193400000Y-57000000D02*
X193600000Y-56800000D01*
X193849997Y-55550003D02*
X193400000Y-56000000D01*
X205190000Y-55900000D02*
X205190000Y-59910000D01*
X195600000Y-60600000D02*
X194950000Y-59950000D01*
X193600000Y-56800000D02*
X194929997Y-56800000D01*
X193400000Y-56000000D02*
X193400000Y-57000000D01*
D15*
X201900000Y-56300000D02*
X204790000Y-56300000D01*
X204790000Y-56300000D02*
X205190000Y-55900000D01*
D16*
X194950000Y-55550003D02*
X193849997Y-55550003D01*
X193560003Y-59360003D02*
X193400000Y-59200000D01*
X194950000Y-59360003D02*
X193560003Y-59360003D01*
X205190000Y-53720000D02*
X205190000Y-55900000D01*
X194950000Y-59950000D02*
X194950000Y-59360003D01*
X205190000Y-59910000D02*
X204500000Y-60600000D01*
X194929997Y-56800000D02*
X194950000Y-56820003D01*
X193400000Y-59200000D02*
X193400000Y-57000000D01*
X204500000Y-60600000D02*
X195600000Y-60600000D01*
%TO.N,Net-(J1-SWDCLK{slash}TCK)*%
X203000000Y-52000000D02*
X197800000Y-52000000D01*
X203190000Y-52720000D02*
X203190000Y-52190000D01*
X203190000Y-52190000D02*
X203000000Y-52000000D01*
X197800000Y-52000000D02*
X196800000Y-53000000D01*
X196800000Y-55200000D02*
X197200000Y-55600000D01*
X196800000Y-53000000D02*
X196800000Y-55200000D01*
X197200000Y-55600000D02*
X198500003Y-55600000D01*
X198500003Y-55600000D02*
X198550000Y-55550003D01*
%TO.N,Net-(J1-~{RESET})*%
X196800000Y-59200000D02*
X196960003Y-59360003D01*
X196960003Y-59360003D02*
X198550000Y-59360003D01*
%TO.N,+3V3*%
X194950000Y-52050000D02*
X195000000Y-52100000D01*
X205000000Y-51600000D02*
X195400000Y-51600000D01*
X205190000Y-52720000D02*
X205190000Y-52395680D01*
X205200000Y-52385680D02*
X205200000Y-51800000D01*
X205200000Y-51800000D02*
X205000000Y-51600000D01*
X205190000Y-52395680D02*
X205200000Y-52385680D01*
%TD*%
%TA.AperFunction,Conductor*%
%TO.N,GND*%
G36*
X194648577Y-51327892D02*
G01*
X194694820Y-51375266D01*
X194710663Y-51439544D01*
X194691733Y-51502982D01*
X194643256Y-51548066D01*
X194625470Y-51557401D01*
X194625471Y-51557401D01*
X194506501Y-51662799D01*
X194416212Y-51793605D01*
X194359850Y-51942219D01*
X194340693Y-52099999D01*
X194359850Y-52257780D01*
X194416212Y-52406394D01*
X194506502Y-52537201D01*
X194528055Y-52556296D01*
X194559400Y-52598896D01*
X194570500Y-52650607D01*
X194570500Y-53524504D01*
X194553619Y-53587504D01*
X194507500Y-53633623D01*
X194444500Y-53650504D01*
X193874932Y-53650504D01*
X193800699Y-53665268D01*
X193716515Y-53721518D01*
X193660266Y-53805701D01*
X193645500Y-53879936D01*
X193645500Y-54680071D01*
X193660265Y-54754303D01*
X193716515Y-54838487D01*
X193772764Y-54876071D01*
X193800699Y-54894737D01*
X193874933Y-54909503D01*
X196025066Y-54909502D01*
X196025068Y-54909502D01*
X196074556Y-54899658D01*
X196099301Y-54894737D01*
X196183484Y-54838487D01*
X196239734Y-54754304D01*
X196239734Y-54754303D01*
X196251235Y-54737091D01*
X196298797Y-54694826D01*
X196360947Y-54681190D01*
X196421835Y-54699660D01*
X196465935Y-54745527D01*
X196482000Y-54807093D01*
X196482000Y-55180608D01*
X196481521Y-55191589D01*
X196478323Y-55228143D01*
X196487818Y-55263579D01*
X196490196Y-55274309D01*
X196496815Y-55311849D01*
X196506527Y-55335294D01*
X196528394Y-55366524D01*
X196534290Y-55375777D01*
X196552640Y-55407560D01*
X196580751Y-55431148D01*
X196588843Y-55438563D01*
X196961425Y-55811144D01*
X196968851Y-55819248D01*
X196992440Y-55847360D01*
X197024225Y-55865710D01*
X197033479Y-55871606D01*
X197063534Y-55892651D01*
X197063535Y-55892651D01*
X197064712Y-55893475D01*
X197088146Y-55903182D01*
X197089558Y-55903431D01*
X197089560Y-55903432D01*
X197125697Y-55909803D01*
X197136419Y-55912180D01*
X197168001Y-55920643D01*
X197227351Y-55956218D01*
X197258966Y-56017770D01*
X197260265Y-56024303D01*
X197320868Y-56115001D01*
X197339682Y-56160421D01*
X197339682Y-56209584D01*
X197320868Y-56255005D01*
X197260266Y-56345701D01*
X197245500Y-56419936D01*
X197245500Y-57220071D01*
X197260265Y-57294303D01*
X197320868Y-57385001D01*
X197339682Y-57430421D01*
X197339682Y-57479584D01*
X197320868Y-57525005D01*
X197260266Y-57615701D01*
X197260265Y-57615702D01*
X197260266Y-57615702D01*
X197245501Y-57689934D01*
X197245500Y-57689937D01*
X197245500Y-58486221D01*
X197229248Y-58548119D01*
X197184684Y-58594050D01*
X197123305Y-58612164D01*
X197060947Y-58597788D01*
X197033793Y-58583537D01*
X196879471Y-58545500D01*
X196720529Y-58545500D01*
X196566207Y-58583537D01*
X196431007Y-58654495D01*
X196362473Y-58668531D01*
X196297013Y-58643846D01*
X196254811Y-58588050D01*
X196248875Y-58518347D01*
X196254500Y-58490070D01*
X196254499Y-57689937D01*
X196254499Y-57689936D01*
X196254499Y-57689934D01*
X196239734Y-57615702D01*
X196183484Y-57531518D01*
X196099301Y-57475269D01*
X196099300Y-57475268D01*
X196025066Y-57460503D01*
X193874931Y-57460503D01*
X193800699Y-57475268D01*
X193716515Y-57531518D01*
X193660266Y-57615701D01*
X193645500Y-57689936D01*
X193645500Y-58490071D01*
X193660265Y-58564303D01*
X193716515Y-58648487D01*
X193772765Y-58686071D01*
X193800699Y-58704737D01*
X193874933Y-58719503D01*
X196025066Y-58719502D01*
X196081099Y-58708357D01*
X196140242Y-58710770D01*
X196191759Y-58739925D01*
X196224276Y-58789387D01*
X196230619Y-58848241D01*
X196219059Y-58878321D01*
X196221638Y-58879300D01*
X196159850Y-59042219D01*
X196140693Y-59200000D01*
X196159850Y-59357780D01*
X196216212Y-59506394D01*
X196216213Y-59506395D01*
X196306502Y-59637201D01*
X196425471Y-59742599D01*
X196566207Y-59816463D01*
X196720529Y-59854500D01*
X196879469Y-59854500D01*
X196879471Y-59854500D01*
X197033793Y-59816463D01*
X197092285Y-59785763D01*
X197151474Y-59771333D01*
X197210515Y-59786359D01*
X197255605Y-59827329D01*
X197316515Y-59918486D01*
X197316516Y-59918487D01*
X197400699Y-59974737D01*
X197474933Y-59989503D01*
X199625066Y-59989502D01*
X199625068Y-59989502D01*
X199674556Y-59979658D01*
X199699301Y-59974737D01*
X199783484Y-59918487D01*
X199839734Y-59834304D01*
X199854500Y-59760070D01*
X199854499Y-58959937D01*
X199854499Y-58959934D01*
X199839734Y-58885702D01*
X199809197Y-58840000D01*
X200790767Y-58840000D01*
X200809654Y-59043819D01*
X200865672Y-59240702D01*
X200956910Y-59423933D01*
X200956912Y-59423935D01*
X201080268Y-59587285D01*
X201231538Y-59725186D01*
X201405573Y-59832944D01*
X201596444Y-59906888D01*
X201797653Y-59944500D01*
X202002345Y-59944500D01*
X202002347Y-59944500D01*
X202203556Y-59906888D01*
X202394427Y-59832944D01*
X202568462Y-59725186D01*
X202719732Y-59587285D01*
X202843088Y-59423935D01*
X202934328Y-59240701D01*
X202990345Y-59043821D01*
X203009232Y-58840000D01*
X202990345Y-58636179D01*
X202934328Y-58439299D01*
X202933585Y-58437807D01*
X202843089Y-58256066D01*
X202812886Y-58216072D01*
X202719732Y-58092715D01*
X202568462Y-57954814D01*
X202520087Y-57924861D01*
X202394428Y-57847056D01*
X202298991Y-57810083D01*
X202203556Y-57773112D01*
X202002347Y-57735500D01*
X201797653Y-57735500D01*
X201596443Y-57773112D01*
X201596444Y-57773112D01*
X201405571Y-57847056D01*
X201231539Y-57954813D01*
X201080267Y-58092716D01*
X200956910Y-58256066D01*
X200865672Y-58439297D01*
X200809654Y-58636180D01*
X200790767Y-58840000D01*
X199809197Y-58840000D01*
X199779131Y-58795004D01*
X199760317Y-58749583D01*
X199760317Y-58700420D01*
X199779132Y-58654999D01*
X199783482Y-58648487D01*
X199783484Y-58648487D01*
X199839734Y-58564304D01*
X199854500Y-58490070D01*
X199854499Y-57689937D01*
X199854499Y-57689936D01*
X199854499Y-57689934D01*
X199839734Y-57615702D01*
X199779131Y-57525004D01*
X199760317Y-57479583D01*
X199760317Y-57430420D01*
X199779132Y-57384999D01*
X199783482Y-57378487D01*
X199783484Y-57378487D01*
X199839734Y-57294304D01*
X199854500Y-57220070D01*
X199854499Y-56419937D01*
X199854499Y-56419936D01*
X199854499Y-56419934D01*
X199839734Y-56345702D01*
X199779131Y-56255004D01*
X199760317Y-56209583D01*
X199760317Y-56160420D01*
X199779132Y-56114999D01*
X199783482Y-56108487D01*
X199783484Y-56108487D01*
X199839734Y-56024304D01*
X199854500Y-55950070D01*
X199854499Y-55149937D01*
X199854499Y-55149936D01*
X199854499Y-55149934D01*
X199839734Y-55075702D01*
X199779131Y-54985004D01*
X199760317Y-54939583D01*
X199760317Y-54890420D01*
X199779132Y-54844999D01*
X199783482Y-54838487D01*
X199783484Y-54838487D01*
X199839734Y-54754304D01*
X199854500Y-54680070D01*
X199854499Y-53879937D01*
X199854499Y-53879936D01*
X199854499Y-53879934D01*
X199839734Y-53805702D01*
X199783484Y-53721518D01*
X199699301Y-53665269D01*
X199699296Y-53665268D01*
X199625067Y-53650503D01*
X199625066Y-53650503D01*
X198844000Y-53650503D01*
X198781000Y-53633622D01*
X198734881Y-53587503D01*
X198718000Y-53524503D01*
X198718000Y-53448437D01*
X198736170Y-53383255D01*
X198765579Y-53355568D01*
X198763077Y-53352744D01*
X198774527Y-53342599D01*
X198774529Y-53342599D01*
X198893498Y-53237201D01*
X198983787Y-53106395D01*
X199040149Y-52957782D01*
X199059307Y-52800000D01*
X199040149Y-52642218D01*
X198983787Y-52493605D01*
X198983785Y-52493603D01*
X198981919Y-52488681D01*
X198974650Y-52428813D01*
X198996035Y-52372424D01*
X199041176Y-52332433D01*
X199099731Y-52318000D01*
X201384500Y-52318000D01*
X201447500Y-52334881D01*
X201493619Y-52381000D01*
X201510500Y-52444000D01*
X201510500Y-53170068D01*
X201515543Y-53195423D01*
X201515543Y-53244575D01*
X201510500Y-53269932D01*
X201510500Y-54170068D01*
X201525265Y-54244300D01*
X201581515Y-54328484D01*
X201637765Y-54366068D01*
X201665699Y-54384734D01*
X201739933Y-54399500D01*
X202640066Y-54399499D01*
X202665420Y-54394456D01*
X202714576Y-54394456D01*
X202739933Y-54399500D01*
X203640066Y-54399499D01*
X203665420Y-54394456D01*
X203714576Y-54394456D01*
X203739933Y-54399500D01*
X204640066Y-54399499D01*
X204640068Y-54399499D01*
X204690002Y-54389567D01*
X204714301Y-54384734D01*
X204798484Y-54328484D01*
X204854734Y-54244301D01*
X204869500Y-54170067D01*
X204869499Y-53525498D01*
X204886380Y-53462499D01*
X204932499Y-53416380D01*
X204995499Y-53399499D01*
X205640068Y-53399499D01*
X205689556Y-53389655D01*
X205714301Y-53384734D01*
X205798484Y-53328484D01*
X205854734Y-53244301D01*
X205869500Y-53170067D01*
X205869499Y-52269934D01*
X205869499Y-52269931D01*
X205854734Y-52195699D01*
X205798484Y-52111515D01*
X205714301Y-52055266D01*
X205689999Y-52050432D01*
X205640067Y-52040500D01*
X205640066Y-52040500D01*
X205627895Y-52038079D01*
X205628252Y-52036280D01*
X205581000Y-52023619D01*
X205534881Y-51977500D01*
X205518000Y-51914500D01*
X205518000Y-51819394D01*
X205518479Y-51808414D01*
X205521677Y-51771857D01*
X205512177Y-51736405D01*
X205509801Y-51725686D01*
X205503182Y-51688144D01*
X205493475Y-51664710D01*
X205492137Y-51662799D01*
X205471604Y-51633474D01*
X205465705Y-51624213D01*
X205447361Y-51592440D01*
X205419248Y-51568851D01*
X205411144Y-51561424D01*
X205375315Y-51525595D01*
X205344577Y-51475436D01*
X205339961Y-51416789D01*
X205362474Y-51362439D01*
X205407207Y-51324233D01*
X205464410Y-51310500D01*
X206163500Y-51310500D01*
X206226500Y-51327381D01*
X206272619Y-51373500D01*
X206289500Y-51436500D01*
X206289500Y-61363500D01*
X206272619Y-61426500D01*
X206226500Y-61472619D01*
X206163500Y-61489500D01*
X193036500Y-61489500D01*
X192973500Y-61472619D01*
X192927381Y-61426500D01*
X192910500Y-61363500D01*
X192910500Y-51436500D01*
X192927381Y-51373500D01*
X192973500Y-51327381D01*
X193036500Y-51310500D01*
X194584700Y-51310500D01*
X194648577Y-51327892D01*
G37*
%TD.AperFunction*%
%TD*%
M02*
