%TF.GenerationSoftware,KiCad,Pcbnew,(5.99.0-8645-g8b3dea7107)*%
%TF.CreationDate,2021-05-22T12:12:37-07:00*%
%TF.ProjectId,bomu-programmer,626f6d75-2d70-4726-9f67-72616d6d6572,rev?*%
%TF.SameCoordinates,Original*%
%TF.FileFunction,Copper,L2,Bot*%
%TF.FilePolarity,Positive*%
%FSLAX46Y46*%
G04 Gerber Fmt 4.6, Leading zero omitted, Abs format (unit mm)*
G04 Created by KiCad (PCBNEW (5.99.0-8645-g8b3dea7107)) date 2021-05-22 12:12:37*
%MOMM*%
%LPD*%
G01*
G04 APERTURE LIST*
%TA.AperFunction,ComponentPad*%
%ADD10R,0.850000X0.850000*%
%TD*%
%TA.AperFunction,ViaPad*%
%ADD11C,0.800000*%
%TD*%
%TA.AperFunction,Conductor*%
%ADD12C,0.127000*%
%TD*%
G04 APERTURE END LIST*
D10*
%TO.P,P1,1,3V3*%
%TO.N,+3V3*%
X205190000Y-52720000D03*
%TO.P,P1,2,GND*%
%TO.N,GND*%
X205190000Y-53720000D03*
%TO.P,P1,3,SWDIO*%
%TO.N,SWDIO*%
X204190000Y-52720000D03*
%TO.P,P1,4,NC*%
%TO.N,unconnected-(P1-Pad4)*%
X204190000Y-53720000D03*
%TO.P,P1,5,SWCLK*%
%TO.N,SWDCLK*%
X203190000Y-52720000D03*
%TO.P,P1,6,NFC-*%
%TO.N,unconnected-(P1-Pad6)*%
X203190000Y-53720000D03*
%TO.P,P1,7,RESET*%
%TO.N,RESET*%
X202190000Y-52720000D03*
%TO.P,P1,8,NFC+*%
%TO.N,unconnected-(P1-Pad8)*%
X202190000Y-53720000D03*
%TD*%
D11*
%TO.N,RESET*%
X196800000Y-59200000D03*
%TO.N,SWDIO*%
X198400000Y-52800000D03*
%TD*%
D12*
%TO.N,RESET*%
X196800000Y-54200000D02*
X196800000Y-59200000D01*
X197400000Y-53600000D02*
X196800000Y-54200000D01*
X202190000Y-52720000D02*
X200080000Y-52720000D01*
X200080000Y-52720000D02*
X199600000Y-53200000D01*
X199200000Y-53600000D02*
X197400000Y-53600000D01*
X199600000Y-53200000D02*
X199200000Y-53600000D01*
%TO.N,SWDIO*%
X198400000Y-52800000D02*
X198400000Y-53000000D01*
X198400000Y-52600000D02*
X198400000Y-52800000D01*
X199000000Y-52000000D02*
X198400000Y-52600000D01*
X203800000Y-51600000D02*
X199400000Y-51600000D01*
X204190000Y-51990000D02*
X203800000Y-51600000D01*
X204190000Y-52720000D02*
X204190000Y-51990000D01*
X199400000Y-51600000D02*
X199000000Y-52000000D01*
%TD*%
%TA.AperFunction,Conductor*%
%TO.N,GND*%
G36*
X198760211Y-51574002D02*
G01*
X198806704Y-51627658D01*
X198816808Y-51697932D01*
X198787314Y-51762512D01*
X198781185Y-51769095D01*
X198439934Y-52110346D01*
X198377622Y-52144372D01*
X198358754Y-52147002D01*
X198324718Y-52149143D01*
X198284333Y-52151684D01*
X198284331Y-52151684D01*
X198276422Y-52152182D01*
X198268886Y-52154631D01*
X198268884Y-52154631D01*
X198126741Y-52200816D01*
X198126738Y-52200817D01*
X198119199Y-52203267D01*
X197979619Y-52291847D01*
X197866453Y-52412356D01*
X197786812Y-52557222D01*
X197745700Y-52717343D01*
X197745700Y-52882657D01*
X197786812Y-53042778D01*
X197790631Y-53049725D01*
X197790632Y-53049727D01*
X197815685Y-53095298D01*
X197830975Y-53164629D01*
X197806355Y-53231220D01*
X197749641Y-53273929D01*
X197705271Y-53282000D01*
X197420450Y-53282000D01*
X197409469Y-53281521D01*
X197382826Y-53279190D01*
X197382824Y-53279190D01*
X197371849Y-53278230D01*
X197336408Y-53287726D01*
X197325678Y-53290105D01*
X197289527Y-53296479D01*
X197279982Y-53301990D01*
X197277006Y-53303073D01*
X197274140Y-53304410D01*
X197263494Y-53307262D01*
X197254465Y-53313584D01*
X197254463Y-53313585D01*
X197233421Y-53328318D01*
X197224155Y-53334221D01*
X197201928Y-53347054D01*
X197201923Y-53347058D01*
X197192380Y-53352568D01*
X197171164Y-53377852D01*
X197168103Y-53381500D01*
X197160677Y-53389603D01*
X196589603Y-53960677D01*
X196581500Y-53968103D01*
X196552568Y-53992380D01*
X196547058Y-54001923D01*
X196547054Y-54001928D01*
X196534221Y-54024155D01*
X196528318Y-54033421D01*
X196513585Y-54054463D01*
X196513584Y-54054465D01*
X196507262Y-54063494D01*
X196504410Y-54074140D01*
X196503073Y-54077006D01*
X196501990Y-54079982D01*
X196496479Y-54089527D01*
X196494565Y-54100383D01*
X196490105Y-54125677D01*
X196487726Y-54136406D01*
X196478230Y-54171849D01*
X196479190Y-54182824D01*
X196479190Y-54182826D01*
X196481521Y-54209469D01*
X196482000Y-54220450D01*
X196482000Y-58557605D01*
X196461998Y-58625726D01*
X196423516Y-58663989D01*
X196379619Y-58691847D01*
X196374192Y-58697626D01*
X196374191Y-58697627D01*
X196320356Y-58754955D01*
X196266453Y-58812356D01*
X196186812Y-58957222D01*
X196145700Y-59117343D01*
X196145700Y-59282657D01*
X196186812Y-59442778D01*
X196266453Y-59587644D01*
X196271877Y-59593420D01*
X196326380Y-59651459D01*
X196379619Y-59708153D01*
X196519199Y-59796733D01*
X196526738Y-59799183D01*
X196526741Y-59799184D01*
X196668884Y-59845369D01*
X196668886Y-59845369D01*
X196676422Y-59847818D01*
X196684331Y-59848316D01*
X196684333Y-59848316D01*
X196758916Y-59853009D01*
X196841410Y-59858199D01*
X196849194Y-59856714D01*
X196849196Y-59856714D01*
X196996013Y-59828707D01*
X196996014Y-59828707D01*
X197003797Y-59827222D01*
X197153378Y-59756834D01*
X197159483Y-59751784D01*
X197159487Y-59751781D01*
X197274647Y-59656512D01*
X197280755Y-59651459D01*
X197377924Y-59517717D01*
X197438781Y-59364011D01*
X197459500Y-59200000D01*
X197438781Y-59035989D01*
X197377924Y-58882283D01*
X197280755Y-58748541D01*
X197163684Y-58651692D01*
X197123947Y-58592859D01*
X197118000Y-58554608D01*
X197118000Y-54383910D01*
X197138002Y-54315789D01*
X197154905Y-54294815D01*
X197494815Y-53954905D01*
X197557127Y-53920879D01*
X197583910Y-53918000D01*
X199179550Y-53918000D01*
X199190531Y-53918479D01*
X199217174Y-53920810D01*
X199217176Y-53920810D01*
X199228151Y-53921770D01*
X199263594Y-53912274D01*
X199274323Y-53909895D01*
X199310473Y-53903521D01*
X199320018Y-53898010D01*
X199322994Y-53896927D01*
X199325860Y-53895590D01*
X199336506Y-53892738D01*
X199345535Y-53886416D01*
X199345537Y-53886415D01*
X199366579Y-53871682D01*
X199375845Y-53865779D01*
X199398072Y-53852946D01*
X199398077Y-53852942D01*
X199407620Y-53847432D01*
X199431897Y-53818500D01*
X199439323Y-53810397D01*
X200174815Y-53074905D01*
X200237127Y-53040879D01*
X200263910Y-53038000D01*
X201381371Y-53038000D01*
X201449492Y-53058002D01*
X201495985Y-53111658D01*
X201505000Y-53145099D01*
X201505500Y-53145000D01*
X201515529Y-53195419D01*
X201515529Y-53244579D01*
X201505500Y-53295000D01*
X201505500Y-54145000D01*
X201525253Y-54244306D01*
X201581506Y-54328494D01*
X201665694Y-54384747D01*
X201765000Y-54404500D01*
X202615000Y-54404500D01*
X202665421Y-54394471D01*
X202714579Y-54394471D01*
X202765000Y-54404500D01*
X203615000Y-54404500D01*
X203665421Y-54394471D01*
X203714579Y-54394471D01*
X203765000Y-54404500D01*
X204615000Y-54404500D01*
X204714306Y-54384747D01*
X204798494Y-54328494D01*
X204854747Y-54244306D01*
X204874500Y-54145000D01*
X204874500Y-53530500D01*
X204894502Y-53462379D01*
X204948158Y-53415886D01*
X205000500Y-53404500D01*
X205615000Y-53404500D01*
X205714306Y-53384747D01*
X205798494Y-53328494D01*
X205815235Y-53303439D01*
X205869711Y-53257912D01*
X205940154Y-53249063D01*
X206004198Y-53279704D01*
X206041510Y-53340106D01*
X206046000Y-53373441D01*
X206046000Y-61120000D01*
X206025998Y-61188121D01*
X205972342Y-61234614D01*
X205920000Y-61246000D01*
X193280000Y-61246000D01*
X193211879Y-61225998D01*
X193165386Y-61172342D01*
X193154000Y-61120000D01*
X193154000Y-51680000D01*
X193174002Y-51611879D01*
X193227658Y-51565386D01*
X193280000Y-51554000D01*
X198692090Y-51554000D01*
X198760211Y-51574002D01*
G37*
%TD.AperFunction*%
%TD*%
M02*
