%TF.GenerationSoftware,KiCad,Pcbnew,(5.99.0-8645-g8b3dea7107)*%
%TF.CreationDate,2021-05-22T12:12:37-07:00*%
%TF.ProjectId,bomu-programmer,626f6d75-2d70-4726-9f67-72616d6d6572,rev?*%
%TF.SameCoordinates,Original*%
%TF.FileFunction,Copper,L1,Top*%
%TF.FilePolarity,Positive*%
%FSLAX46Y46*%
G04 Gerber Fmt 4.6, Leading zero omitted, Abs format (unit mm)*
G04 Created by KiCad (PCBNEW (5.99.0-8645-g8b3dea7107)) date 2021-05-22 12:12:37*
%MOMM*%
%LPD*%
G01*
G04 APERTURE LIST*
%TA.AperFunction,SMDPad,CuDef*%
%ADD10R,2.100000X0.750000*%
%TD*%
%TA.AperFunction,ComponentPad*%
%ADD11R,0.850000X0.850000*%
%TD*%
%TA.AperFunction,ViaPad*%
%ADD12C,0.800000*%
%TD*%
%TA.AperFunction,Conductor*%
%ADD13C,0.127000*%
%TD*%
G04 APERTURE END LIST*
D10*
%TO.P,J1,2,SWDIO/TMS*%
%TO.N,SWDIO*%
X198550000Y-54280003D03*
%TO.P,J1,1,VTref*%
%TO.N,+3V3*%
X194950000Y-54280003D03*
%TO.P,J1,4,SWDCLK/TCK*%
%TO.N,SWDCLK*%
X198550000Y-55550003D03*
%TO.P,J1,3,GND*%
%TO.N,GND*%
X194950000Y-55550003D03*
%TO.P,J1,6,SWO/TDO*%
%TO.N,unconnected-(J1-Pad6)*%
X198550000Y-56820003D03*
%TO.P,J1,5,GND*%
%TO.N,GND*%
X194950000Y-56820003D03*
%TO.P,J1,8,NC/TDI*%
%TO.N,unconnected-(J1-Pad8)*%
X198550000Y-58090003D03*
%TO.P,J1,7,KEY*%
%TO.N,unconnected-(J1-Pad7)*%
X194950000Y-58090003D03*
%TO.P,J1,10,~RESET~*%
%TO.N,RESET*%
X198550000Y-59360003D03*
%TO.P,J1,9,GNDDetect*%
%TO.N,GND*%
X194950000Y-59360003D03*
%TD*%
D11*
%TO.P,P1,1,3V3*%
%TO.N,+3V3*%
X205190000Y-52720000D03*
%TO.P,P1,2,GND*%
%TO.N,GND*%
X205190000Y-53720000D03*
%TO.P,P1,3,SWDIO*%
%TO.N,SWDIO*%
X204190000Y-52720000D03*
%TO.P,P1,4,NC*%
%TO.N,unconnected-(P1-Pad4)*%
X204190000Y-53720000D03*
%TO.P,P1,5,SWCLK*%
%TO.N,SWDCLK*%
X203190000Y-52720000D03*
%TO.P,P1,6,NFC-*%
%TO.N,unconnected-(P1-Pad6)*%
X203190000Y-53720000D03*
%TO.P,P1,7,RESET*%
%TO.N,RESET*%
X202190000Y-52720000D03*
%TO.P,P1,8,NFC+*%
%TO.N,unconnected-(P1-Pad8)*%
X202190000Y-53720000D03*
%TD*%
D12*
%TO.N,RESET*%
X196800000Y-59200000D03*
%TO.N,SWDIO*%
X198400000Y-52800000D03*
%TD*%
D13*
%TO.N,GND*%
X193400000Y-56000000D02*
X193400000Y-57000000D01*
X193849997Y-55550003D02*
X193400000Y-56000000D01*
X194950000Y-55550003D02*
X193849997Y-55550003D01*
X194929997Y-56800000D02*
X194950000Y-56820003D01*
X194950000Y-59360003D02*
X193560003Y-59360003D01*
X193560003Y-59360003D02*
X193400000Y-59200000D01*
X193400000Y-59200000D02*
X193400000Y-57000000D01*
X193400000Y-57000000D02*
X193600000Y-56800000D01*
X193600000Y-56800000D02*
X194929997Y-56800000D01*
X194950000Y-59950000D02*
X194950000Y-59360003D01*
X205190000Y-53720000D02*
X205190000Y-58810000D01*
X205190000Y-58810000D02*
X203400000Y-60600000D01*
X203400000Y-60600000D02*
X195600000Y-60600000D01*
X195600000Y-60600000D02*
X194950000Y-59950000D01*
%TO.N,RESET*%
X196800000Y-59200000D02*
X196960003Y-59360003D01*
X196960003Y-59360003D02*
X198550000Y-59360003D01*
%TO.N,SWDIO*%
X198400000Y-54130003D02*
X198550000Y-54280003D01*
X198400000Y-52800000D02*
X198400000Y-54130003D01*
%TO.N,SWDCLK*%
X198500003Y-55600000D02*
X198550000Y-55550003D01*
X203190000Y-52720000D02*
X203190000Y-52190000D01*
X203190000Y-52190000D02*
X203000000Y-52000000D01*
X203000000Y-52000000D02*
X197800000Y-52000000D01*
X197800000Y-52000000D02*
X196800000Y-53000000D01*
X196800000Y-53000000D02*
X196800000Y-55200000D01*
X196800000Y-55200000D02*
X197200000Y-55600000D01*
X197200000Y-55600000D02*
X198500003Y-55600000D01*
%TO.N,+3V3*%
X205200000Y-51800000D02*
X205000000Y-51600000D01*
X205190000Y-52720000D02*
X205190000Y-52395680D01*
X194950000Y-52050000D02*
X194950000Y-54280003D01*
X205190000Y-52395680D02*
X205200000Y-52385680D01*
X205000000Y-51600000D02*
X195400000Y-51600000D01*
X195400000Y-51600000D02*
X194950000Y-52050000D01*
X205200000Y-52385680D02*
X205200000Y-51800000D01*
%TD*%
%TA.AperFunction,Conductor*%
%TO.N,GND*%
G36*
X194760211Y-51574002D02*
G01*
X194806704Y-51627658D01*
X194816808Y-51697932D01*
X194787314Y-51762512D01*
X194781185Y-51769095D01*
X194739603Y-51810677D01*
X194731500Y-51818103D01*
X194702568Y-51842380D01*
X194697058Y-51851923D01*
X194697054Y-51851928D01*
X194684221Y-51874155D01*
X194678318Y-51883421D01*
X194663585Y-51904463D01*
X194663584Y-51904465D01*
X194657262Y-51913494D01*
X194654410Y-51924140D01*
X194653073Y-51927006D01*
X194651990Y-51929982D01*
X194646479Y-51939527D01*
X194644565Y-51950383D01*
X194640105Y-51975677D01*
X194637726Y-51986406D01*
X194628230Y-52021849D01*
X194629190Y-52032824D01*
X194629190Y-52032826D01*
X194631521Y-52059469D01*
X194632000Y-52070450D01*
X194632000Y-53519503D01*
X194611998Y-53587624D01*
X194558342Y-53634117D01*
X194506000Y-53645503D01*
X193900000Y-53645503D01*
X193800694Y-53665256D01*
X193716506Y-53721509D01*
X193660253Y-53805697D01*
X193640500Y-53905003D01*
X193640500Y-54655003D01*
X193660253Y-54754309D01*
X193716506Y-54838497D01*
X193800694Y-54894750D01*
X193900000Y-54914503D01*
X196000000Y-54914503D01*
X196099306Y-54894750D01*
X196183494Y-54838497D01*
X196239747Y-54754309D01*
X196241370Y-54746151D01*
X196284140Y-54693078D01*
X196351504Y-54670657D01*
X196420295Y-54688216D01*
X196468673Y-54740178D01*
X196482000Y-54796577D01*
X196482000Y-55179550D01*
X196481521Y-55190531D01*
X196478230Y-55228151D01*
X196481082Y-55238795D01*
X196487726Y-55263592D01*
X196490105Y-55274322D01*
X196496479Y-55310473D01*
X196501990Y-55320018D01*
X196503073Y-55322994D01*
X196504410Y-55325860D01*
X196507262Y-55336506D01*
X196513584Y-55345535D01*
X196513585Y-55345537D01*
X196528318Y-55366579D01*
X196534221Y-55375845D01*
X196547054Y-55398072D01*
X196547058Y-55398077D01*
X196552568Y-55407620D01*
X196561012Y-55414705D01*
X196581500Y-55431897D01*
X196589603Y-55439323D01*
X196960677Y-55810397D01*
X196968103Y-55818500D01*
X196992380Y-55847432D01*
X197001923Y-55852942D01*
X197001928Y-55852946D01*
X197024155Y-55865779D01*
X197033421Y-55871682D01*
X197054463Y-55886415D01*
X197054465Y-55886416D01*
X197063494Y-55892738D01*
X197074138Y-55895590D01*
X197076999Y-55896924D01*
X197079980Y-55898009D01*
X197089527Y-55903521D01*
X197125681Y-55909896D01*
X197136400Y-55912272D01*
X197168001Y-55920739D01*
X197228623Y-55957688D01*
X197250782Y-56001625D01*
X197253083Y-56000672D01*
X197257832Y-56012137D01*
X197260253Y-56024309D01*
X197267148Y-56034628D01*
X197316506Y-56108497D01*
X197314827Y-56109619D01*
X197341366Y-56158220D01*
X197336301Y-56229035D01*
X197315754Y-56261006D01*
X197316506Y-56261509D01*
X197260253Y-56345697D01*
X197240500Y-56445003D01*
X197240500Y-57195003D01*
X197260253Y-57294309D01*
X197267148Y-57304628D01*
X197316506Y-57378497D01*
X197314827Y-57379619D01*
X197341366Y-57428220D01*
X197336301Y-57499035D01*
X197315754Y-57531006D01*
X197316506Y-57531509D01*
X197260253Y-57615697D01*
X197240500Y-57715003D01*
X197240500Y-58465003D01*
X197241707Y-58471069D01*
X197242022Y-58474270D01*
X197228793Y-58544024D01*
X197179953Y-58595552D01*
X197111008Y-58612495D01*
X197062982Y-58600628D01*
X197003797Y-58572778D01*
X196996014Y-58571293D01*
X196996013Y-58571293D01*
X196849196Y-58543286D01*
X196849194Y-58543286D01*
X196841410Y-58541801D01*
X196758916Y-58546991D01*
X196684333Y-58551684D01*
X196684331Y-58551684D01*
X196676422Y-58552182D01*
X196668886Y-58554631D01*
X196668884Y-58554631D01*
X196526741Y-58600816D01*
X196526738Y-58600817D01*
X196519199Y-58603267D01*
X196456328Y-58643166D01*
X196439020Y-58654150D01*
X196370786Y-58673763D01*
X196302781Y-58653372D01*
X196256595Y-58599452D01*
X196247927Y-58523183D01*
X196259500Y-58465003D01*
X196259500Y-57715003D01*
X196239747Y-57615697D01*
X196183494Y-57531509D01*
X196099306Y-57475256D01*
X196000000Y-57455503D01*
X193900000Y-57455503D01*
X193800694Y-57475256D01*
X193716506Y-57531509D01*
X193660253Y-57615697D01*
X193640500Y-57715003D01*
X193640500Y-58465003D01*
X193660253Y-58564309D01*
X193716506Y-58648497D01*
X193800694Y-58704750D01*
X193900000Y-58724503D01*
X196000000Y-58724503D01*
X196008174Y-58722877D01*
X196088077Y-58706984D01*
X196158791Y-58713312D01*
X196214858Y-58756867D01*
X196238477Y-58823820D01*
X196223072Y-58891264D01*
X196190633Y-58950269D01*
X196190629Y-58950278D01*
X196186812Y-58957222D01*
X196145700Y-59117343D01*
X196145700Y-59282657D01*
X196186812Y-59442778D01*
X196266453Y-59587644D01*
X196379619Y-59708153D01*
X196519199Y-59796733D01*
X196526738Y-59799183D01*
X196526741Y-59799184D01*
X196668884Y-59845369D01*
X196668886Y-59845369D01*
X196676422Y-59847818D01*
X196684331Y-59848316D01*
X196684333Y-59848316D01*
X196758916Y-59853009D01*
X196841410Y-59858199D01*
X196849194Y-59856714D01*
X196849196Y-59856714D01*
X196996013Y-59828707D01*
X196996014Y-59828707D01*
X197003797Y-59827222D01*
X197098644Y-59782590D01*
X197168798Y-59771684D01*
X197233712Y-59800437D01*
X197259030Y-59835126D01*
X197260253Y-59834309D01*
X197316506Y-59918497D01*
X197400694Y-59974750D01*
X197500000Y-59994503D01*
X199600000Y-59994503D01*
X199699306Y-59974750D01*
X199783494Y-59918497D01*
X199839747Y-59834309D01*
X199859500Y-59735003D01*
X199859500Y-58985003D01*
X199839747Y-58885697D01*
X199783494Y-58801509D01*
X199785173Y-58800387D01*
X199758634Y-58751786D01*
X199763699Y-58680971D01*
X199784246Y-58649000D01*
X199783494Y-58648497D01*
X199832852Y-58574628D01*
X199839747Y-58564309D01*
X199859500Y-58465003D01*
X199859500Y-57715003D01*
X199839747Y-57615697D01*
X199783494Y-57531509D01*
X199785173Y-57530387D01*
X199758634Y-57481786D01*
X199763699Y-57410971D01*
X199784246Y-57379000D01*
X199783494Y-57378497D01*
X199832852Y-57304628D01*
X199839747Y-57294309D01*
X199859500Y-57195003D01*
X199859500Y-56445003D01*
X199839747Y-56345697D01*
X199783494Y-56261509D01*
X199785173Y-56260387D01*
X199758634Y-56211786D01*
X199763699Y-56140971D01*
X199784246Y-56109000D01*
X199783494Y-56108497D01*
X199832852Y-56034628D01*
X199839747Y-56024309D01*
X199859500Y-55925003D01*
X199859500Y-55175003D01*
X199839747Y-55075697D01*
X199783494Y-54991509D01*
X199785173Y-54990387D01*
X199758634Y-54941786D01*
X199763699Y-54870971D01*
X199784246Y-54839000D01*
X199783494Y-54838497D01*
X199832852Y-54764628D01*
X199839747Y-54754309D01*
X199859500Y-54655003D01*
X199859500Y-53905003D01*
X199839747Y-53805697D01*
X199783494Y-53721509D01*
X199699306Y-53665256D01*
X199600000Y-53645503D01*
X198844000Y-53645503D01*
X198775879Y-53625501D01*
X198729386Y-53571845D01*
X198718000Y-53519503D01*
X198718000Y-53445392D01*
X198738002Y-53377271D01*
X198763685Y-53348307D01*
X198773599Y-53340106D01*
X198880755Y-53251459D01*
X198962597Y-53138813D01*
X198973265Y-53124130D01*
X198973266Y-53124128D01*
X198977924Y-53117717D01*
X199038781Y-52964011D01*
X199042940Y-52931093D01*
X199058506Y-52807868D01*
X199059500Y-52800000D01*
X199055471Y-52768103D01*
X199039775Y-52643854D01*
X199039774Y-52643851D01*
X199038781Y-52635989D01*
X198981131Y-52490383D01*
X198974652Y-52419684D01*
X199007424Y-52356704D01*
X199069043Y-52321440D01*
X199098283Y-52318000D01*
X201379500Y-52318000D01*
X201447621Y-52338002D01*
X201494114Y-52391658D01*
X201505500Y-52444000D01*
X201505500Y-53145000D01*
X201513240Y-53183910D01*
X201515529Y-53195419D01*
X201515529Y-53244579D01*
X201505500Y-53295000D01*
X201505500Y-54145000D01*
X201525253Y-54244306D01*
X201581506Y-54328494D01*
X201665694Y-54384747D01*
X201765000Y-54404500D01*
X202615000Y-54404500D01*
X202665421Y-54394471D01*
X202714579Y-54394471D01*
X202765000Y-54404500D01*
X203615000Y-54404500D01*
X203665421Y-54394471D01*
X203714579Y-54394471D01*
X203765000Y-54404500D01*
X204615000Y-54404500D01*
X204714306Y-54384747D01*
X204798494Y-54328494D01*
X204854747Y-54244306D01*
X204874500Y-54145000D01*
X204874500Y-53530500D01*
X204894502Y-53462379D01*
X204948158Y-53415886D01*
X205000500Y-53404500D01*
X205615000Y-53404500D01*
X205714306Y-53384747D01*
X205798494Y-53328494D01*
X205815235Y-53303439D01*
X205869711Y-53257912D01*
X205940154Y-53249063D01*
X206004198Y-53279704D01*
X206041510Y-53340106D01*
X206046000Y-53373441D01*
X206046000Y-61120000D01*
X206025998Y-61188121D01*
X205972342Y-61234614D01*
X205920000Y-61246000D01*
X193280000Y-61246000D01*
X193211879Y-61225998D01*
X193165386Y-61172342D01*
X193154000Y-61120000D01*
X193154000Y-51680000D01*
X193174002Y-51611879D01*
X193227658Y-51565386D01*
X193280000Y-51554000D01*
X194692090Y-51554000D01*
X194760211Y-51574002D01*
G37*
%TD.AperFunction*%
%TD*%
M02*
