%TF.GenerationSoftware,KiCad,Pcbnew,7.0.1-0*%
%TF.CreationDate,2023-03-19T00:13:04-06:00*%
%TF.ProjectId,bomu-programmer,626f6d75-2d70-4726-9f67-72616d6d6572,rev?*%
%TF.SameCoordinates,Original*%
%TF.FileFunction,Copper,L2,Bot*%
%TF.FilePolarity,Positive*%
%FSLAX46Y46*%
G04 Gerber Fmt 4.6, Leading zero omitted, Abs format (unit mm)*
G04 Created by KiCad (PCBNEW 7.0.1-0) date 2023-03-19 00:13:04*
%MOMM*%
%LPD*%
G01*
G04 APERTURE LIST*
%TA.AperFunction,ComponentPad*%
%ADD10R,1.700000X1.700000*%
%TD*%
%TA.AperFunction,ComponentPad*%
%ADD11O,1.700000X1.700000*%
%TD*%
%TA.AperFunction,ComponentPad*%
%ADD12R,0.850000X0.850000*%
%TD*%
%TA.AperFunction,ViaPad*%
%ADD13C,0.800000*%
%TD*%
%TA.AperFunction,Conductor*%
%ADD14C,0.127000*%
%TD*%
%TA.AperFunction,Conductor*%
%ADD15C,0.250000*%
%TD*%
%TA.AperFunction,Conductor*%
%ADD16C,0.254000*%
%TD*%
G04 APERTURE END LIST*
D10*
%TO.P,J2,1,Pin_1*%
%TO.N,GND*%
X201900000Y-56300000D03*
D11*
%TO.P,J2,2,Pin_2*%
%TO.N,+3V3*%
X201900000Y-58840000D03*
%TD*%
D12*
%TO.P,P1,1,3V3*%
%TO.N,+3V3*%
X205190000Y-52720000D03*
%TO.P,P1,2,GND*%
%TO.N,GND*%
X205190000Y-53720000D03*
%TO.P,P1,3,SWDIO*%
%TO.N,Net-(J1-SWDIO{slash}TMS)*%
X204190000Y-52720000D03*
%TO.P,P1,4,NC*%
%TO.N,unconnected-(P1-NC-Pad4)*%
X204190000Y-53720000D03*
%TO.P,P1,5,SWCLK*%
%TO.N,Net-(J1-SWDCLK{slash}TCK)*%
X203190000Y-52720000D03*
%TO.P,P1,6,NFC-*%
%TO.N,unconnected-(P1-NFC--Pad6)*%
X203190000Y-53720000D03*
%TO.P,P1,7,RESET*%
%TO.N,Net-(J1-~{RESET})*%
X202190000Y-52720000D03*
%TO.P,P1,8,NFC+*%
%TO.N,unconnected-(P1-NFC+-Pad8)*%
X202190000Y-53720000D03*
%TD*%
D13*
%TO.N,Net-(J1-SWDIO{slash}TMS)*%
X198400000Y-52800000D03*
%TO.N,Net-(J1-~{RESET})*%
X196800000Y-59200000D03*
%TO.N,+3V3*%
X195000000Y-52100000D03*
%TD*%
D14*
%TO.N,Net-(J1-SWDIO{slash}TMS)*%
X198400000Y-52800000D02*
X198400000Y-52600000D01*
X198400000Y-52600000D02*
X199400000Y-51600000D01*
X199400000Y-51600000D02*
X203800000Y-51600000D01*
X204190000Y-51990000D02*
X204190000Y-52720000D01*
X203800000Y-51600000D02*
X204190000Y-51990000D01*
D15*
%TO.N,+3V3*%
X201900000Y-58840000D02*
X200440000Y-60300000D01*
D16*
X195000000Y-59900000D02*
X195000000Y-52100000D01*
D14*
%TO.N,Net-(J1-~{RESET})*%
X199200000Y-53600000D02*
X197400000Y-53600000D01*
X197400000Y-53600000D02*
X196800000Y-54200000D01*
X200080000Y-52720000D02*
X199600000Y-53200000D01*
X202190000Y-52720000D02*
X200080000Y-52720000D01*
X199600000Y-53200000D02*
X199200000Y-53600000D01*
X196800000Y-54200000D02*
X196800000Y-59200000D01*
D16*
%TO.N,+3V3*%
X195400000Y-60300000D02*
X195000000Y-59900000D01*
X200440000Y-60300000D02*
X195400000Y-60300000D01*
%TD*%
%TA.AperFunction,Conductor*%
%TO.N,GND*%
G36*
X194648577Y-51327892D02*
G01*
X194694820Y-51375266D01*
X194710663Y-51439544D01*
X194691733Y-51502982D01*
X194643256Y-51548066D01*
X194625470Y-51557401D01*
X194625471Y-51557401D01*
X194506501Y-51662799D01*
X194416212Y-51793605D01*
X194359850Y-51942219D01*
X194340693Y-52099999D01*
X194359850Y-52257780D01*
X194416212Y-52406394D01*
X194506501Y-52537200D01*
X194576054Y-52598819D01*
X194607399Y-52641419D01*
X194618500Y-52693131D01*
X194618500Y-59847367D01*
X194615818Y-59873225D01*
X194613554Y-59884017D01*
X194617532Y-59915922D01*
X194618500Y-59931508D01*
X194618500Y-59931614D01*
X194621975Y-59952443D01*
X194622725Y-59957589D01*
X194630294Y-60018302D01*
X194630371Y-60018542D01*
X194634181Y-60025583D01*
X194634182Y-60025586D01*
X194659492Y-60072355D01*
X194661874Y-60076984D01*
X194688742Y-60131943D01*
X194688884Y-60132134D01*
X194694779Y-60137561D01*
X194694780Y-60137562D01*
X194733931Y-60173603D01*
X194737663Y-60177185D01*
X195093015Y-60532537D01*
X195109403Y-60552716D01*
X195115440Y-60561957D01*
X195140815Y-60581706D01*
X195152528Y-60592050D01*
X195152590Y-60592112D01*
X195169773Y-60604380D01*
X195173930Y-60607479D01*
X195215915Y-60640158D01*
X195222234Y-60645076D01*
X195222456Y-60645190D01*
X195230128Y-60647474D01*
X195230130Y-60647475D01*
X195281135Y-60662659D01*
X195286000Y-60664217D01*
X195336339Y-60681500D01*
X195336342Y-60681500D01*
X195343921Y-60684102D01*
X195344150Y-60684136D01*
X195352157Y-60683804D01*
X195352158Y-60683805D01*
X195405272Y-60681608D01*
X195410480Y-60681500D01*
X200397112Y-60681500D01*
X200422969Y-60684181D01*
X200424100Y-60684419D01*
X200439752Y-60682468D01*
X200455338Y-60681500D01*
X200471612Y-60681500D01*
X200500461Y-60676685D01*
X200540176Y-60670057D01*
X200545306Y-60669309D01*
X200549783Y-60668752D01*
X200549785Y-60668750D01*
X200563202Y-60667079D01*
X200563328Y-60667039D01*
X200565583Y-60665818D01*
X200565586Y-60665818D01*
X200654919Y-60617472D01*
X200659562Y-60615084D01*
X200675747Y-60607173D01*
X200675802Y-60607132D01*
X200746365Y-60530479D01*
X200749948Y-60526744D01*
X201375037Y-59901655D01*
X201415016Y-59874719D01*
X201462189Y-59864768D01*
X201509644Y-59873261D01*
X201596444Y-59906888D01*
X201797653Y-59944500D01*
X202002345Y-59944500D01*
X202002347Y-59944500D01*
X202203556Y-59906888D01*
X202394427Y-59832944D01*
X202568462Y-59725186D01*
X202719732Y-59587285D01*
X202843088Y-59423935D01*
X202934328Y-59240701D01*
X202990345Y-59043821D01*
X203009232Y-58840000D01*
X202990345Y-58636179D01*
X202934328Y-58439299D01*
X202933585Y-58437807D01*
X202843089Y-58256066D01*
X202812886Y-58216072D01*
X202719732Y-58092715D01*
X202568462Y-57954814D01*
X202520087Y-57924861D01*
X202394428Y-57847056D01*
X202298991Y-57810083D01*
X202203556Y-57773112D01*
X202002347Y-57735500D01*
X201797653Y-57735500D01*
X201596443Y-57773112D01*
X201596444Y-57773112D01*
X201405571Y-57847056D01*
X201231539Y-57954813D01*
X201080267Y-58092716D01*
X200956910Y-58256066D01*
X200865672Y-58439297D01*
X200809654Y-58636180D01*
X200790767Y-58840000D01*
X200809654Y-59043819D01*
X200866878Y-59244944D01*
X200867642Y-59311098D01*
X200834784Y-59368520D01*
X200321711Y-59881595D01*
X200280833Y-59908909D01*
X200232615Y-59918500D01*
X197308212Y-59918500D01*
X197249657Y-59904067D01*
X197204516Y-59864076D01*
X197183131Y-59807688D01*
X197190400Y-59747820D01*
X197224658Y-59698188D01*
X197234142Y-59689786D01*
X197293498Y-59637201D01*
X197383787Y-59506395D01*
X197440149Y-59357782D01*
X197459307Y-59200000D01*
X197440149Y-59042218D01*
X197383787Y-58893605D01*
X197293498Y-58762799D01*
X197174529Y-58657401D01*
X197174527Y-58657400D01*
X197163077Y-58647256D01*
X197165579Y-58644431D01*
X197136170Y-58616745D01*
X197118000Y-58551563D01*
X197118000Y-54383910D01*
X197127591Y-54335692D01*
X197154905Y-54294815D01*
X197494815Y-53954905D01*
X197535692Y-53927591D01*
X197583910Y-53918000D01*
X199180609Y-53918000D01*
X199191589Y-53918478D01*
X199228143Y-53921677D01*
X199263584Y-53912179D01*
X199274289Y-53909805D01*
X199310440Y-53903432D01*
X199310442Y-53903430D01*
X199311857Y-53903181D01*
X199335288Y-53893476D01*
X199336464Y-53892652D01*
X199336466Y-53892652D01*
X199366532Y-53871599D01*
X199375775Y-53865710D01*
X199407560Y-53847360D01*
X199431155Y-53819239D01*
X199438559Y-53811159D01*
X199790726Y-53458991D01*
X199790729Y-53458990D01*
X199805184Y-53444535D01*
X199805186Y-53444534D01*
X200174817Y-53074902D01*
X200215692Y-53047591D01*
X200263910Y-53038000D01*
X201384501Y-53038000D01*
X201447501Y-53054881D01*
X201493620Y-53101000D01*
X201510501Y-53164000D01*
X201510501Y-53170068D01*
X201515543Y-53195423D01*
X201515543Y-53244575D01*
X201510500Y-53269932D01*
X201510500Y-54170068D01*
X201525265Y-54244300D01*
X201581515Y-54328484D01*
X201592303Y-54335692D01*
X201665699Y-54384734D01*
X201739933Y-54399500D01*
X202640066Y-54399499D01*
X202665420Y-54394456D01*
X202714576Y-54394456D01*
X202739933Y-54399500D01*
X203640066Y-54399499D01*
X203665420Y-54394456D01*
X203714576Y-54394456D01*
X203739933Y-54399500D01*
X204640066Y-54399499D01*
X204640068Y-54399499D01*
X204690002Y-54389567D01*
X204714301Y-54384734D01*
X204798484Y-54328484D01*
X204854734Y-54244301D01*
X204869500Y-54170067D01*
X204869499Y-53525498D01*
X204886380Y-53462499D01*
X204932499Y-53416380D01*
X204995499Y-53399499D01*
X205640068Y-53399499D01*
X205689556Y-53389655D01*
X205714301Y-53384734D01*
X205798484Y-53328484D01*
X205854734Y-53244301D01*
X205869500Y-53170067D01*
X205869499Y-52269934D01*
X205869499Y-52269933D01*
X205869499Y-52269931D01*
X205854734Y-52195699D01*
X205798484Y-52111515D01*
X205714301Y-52055266D01*
X205714300Y-52055265D01*
X205640066Y-52040500D01*
X204739930Y-52040500D01*
X204714574Y-52045543D01*
X204665421Y-52045542D01*
X204640070Y-52040500D01*
X204640067Y-52040500D01*
X204629432Y-52040500D01*
X204576183Y-52028695D01*
X204532912Y-51995493D01*
X204507727Y-51947117D01*
X204502178Y-51926409D01*
X204499802Y-51915690D01*
X204493432Y-51879560D01*
X204493430Y-51879557D01*
X204493182Y-51878147D01*
X204483477Y-51854715D01*
X204482651Y-51853536D01*
X204482651Y-51853534D01*
X204461597Y-51823465D01*
X204455708Y-51814220D01*
X204437360Y-51782440D01*
X204409247Y-51758850D01*
X204401144Y-51751424D01*
X204175315Y-51525595D01*
X204144577Y-51475436D01*
X204139961Y-51416789D01*
X204162474Y-51362439D01*
X204207207Y-51324233D01*
X204264410Y-51310500D01*
X206163500Y-51310500D01*
X206226500Y-51327381D01*
X206272619Y-51373500D01*
X206289500Y-51436500D01*
X206289500Y-61363500D01*
X206272619Y-61426500D01*
X206226500Y-61472619D01*
X206163500Y-61489500D01*
X193036500Y-61489500D01*
X192973500Y-61472619D01*
X192927381Y-61426500D01*
X192910500Y-61363500D01*
X192910500Y-51436500D01*
X192927381Y-51373500D01*
X192973500Y-51327381D01*
X193036500Y-51310500D01*
X194584700Y-51310500D01*
X194648577Y-51327892D01*
G37*
%TD.AperFunction*%
%TD*%
M02*
