%TF.GenerationSoftware,KiCad,Pcbnew,7.0.1-0*%
%TF.CreationDate,2023-03-19T00:13:04-06:00*%
%TF.ProjectId,bomu-programmer,626f6d75-2d70-4726-9f67-72616d6d6572,rev?*%
%TF.SameCoordinates,Original*%
%TF.FileFunction,Legend,Top*%
%TF.FilePolarity,Positive*%
%FSLAX46Y46*%
G04 Gerber Fmt 4.6, Leading zero omitted, Abs format (unit mm)*
G04 Created by KiCad (PCBNEW 7.0.1-0) date 2023-03-19 00:13:04*
%MOMM*%
%LPD*%
G01*
G04 APERTURE LIST*
%ADD10C,0.120000*%
%ADD11C,0.150000*%
G04 APERTURE END LIST*
D10*
X194000000Y-53000000D02*
G75*
G03*
X194000000Y-53000000I-400000J0D01*
G01*
D11*
X204997904Y-58214285D02*
X204997904Y-58709523D01*
X204997904Y-58709523D02*
X204693142Y-58442857D01*
X204693142Y-58442857D02*
X204693142Y-58557142D01*
X204693142Y-58557142D02*
X204655047Y-58633333D01*
X204655047Y-58633333D02*
X204616952Y-58671428D01*
X204616952Y-58671428D02*
X204540761Y-58709523D01*
X204540761Y-58709523D02*
X204350285Y-58709523D01*
X204350285Y-58709523D02*
X204274095Y-58671428D01*
X204274095Y-58671428D02*
X204236000Y-58633333D01*
X204236000Y-58633333D02*
X204197904Y-58557142D01*
X204197904Y-58557142D02*
X204197904Y-58328571D01*
X204197904Y-58328571D02*
X204236000Y-58252380D01*
X204236000Y-58252380D02*
X204274095Y-58214285D01*
X204997904Y-58938095D02*
X204197904Y-59204762D01*
X204197904Y-59204762D02*
X204997904Y-59471428D01*
X204997904Y-59661904D02*
X204997904Y-60157142D01*
X204997904Y-60157142D02*
X204693142Y-59890476D01*
X204693142Y-59890476D02*
X204693142Y-60004761D01*
X204693142Y-60004761D02*
X204655047Y-60080952D01*
X204655047Y-60080952D02*
X204616952Y-60119047D01*
X204616952Y-60119047D02*
X204540761Y-60157142D01*
X204540761Y-60157142D02*
X204350285Y-60157142D01*
X204350285Y-60157142D02*
X204274095Y-60119047D01*
X204274095Y-60119047D02*
X204236000Y-60080952D01*
X204236000Y-60080952D02*
X204197904Y-60004761D01*
X204197904Y-60004761D02*
X204197904Y-59776190D01*
X204197904Y-59776190D02*
X204236000Y-59699999D01*
X204236000Y-59699999D02*
X204274095Y-59661904D01*
X204959809Y-55509523D02*
X204997904Y-55433333D01*
X204997904Y-55433333D02*
X204997904Y-55319047D01*
X204997904Y-55319047D02*
X204959809Y-55204761D01*
X204959809Y-55204761D02*
X204883619Y-55128571D01*
X204883619Y-55128571D02*
X204807428Y-55090476D01*
X204807428Y-55090476D02*
X204655047Y-55052380D01*
X204655047Y-55052380D02*
X204540761Y-55052380D01*
X204540761Y-55052380D02*
X204388380Y-55090476D01*
X204388380Y-55090476D02*
X204312190Y-55128571D01*
X204312190Y-55128571D02*
X204236000Y-55204761D01*
X204236000Y-55204761D02*
X204197904Y-55319047D01*
X204197904Y-55319047D02*
X204197904Y-55395238D01*
X204197904Y-55395238D02*
X204236000Y-55509523D01*
X204236000Y-55509523D02*
X204274095Y-55547619D01*
X204274095Y-55547619D02*
X204540761Y-55547619D01*
X204540761Y-55547619D02*
X204540761Y-55395238D01*
X204197904Y-55890476D02*
X204997904Y-55890476D01*
X204997904Y-55890476D02*
X204197904Y-56347619D01*
X204197904Y-56347619D02*
X204997904Y-56347619D01*
X204197904Y-56728571D02*
X204997904Y-56728571D01*
X204997904Y-56728571D02*
X204997904Y-56919047D01*
X204997904Y-56919047D02*
X204959809Y-57033333D01*
X204959809Y-57033333D02*
X204883619Y-57109523D01*
X204883619Y-57109523D02*
X204807428Y-57147618D01*
X204807428Y-57147618D02*
X204655047Y-57185714D01*
X204655047Y-57185714D02*
X204540761Y-57185714D01*
X204540761Y-57185714D02*
X204388380Y-57147618D01*
X204388380Y-57147618D02*
X204312190Y-57109523D01*
X204312190Y-57109523D02*
X204236000Y-57033333D01*
X204236000Y-57033333D02*
X204197904Y-56919047D01*
X204197904Y-56919047D02*
X204197904Y-56728571D01*
D10*
%TO.C,J2*%
X200570000Y-54970000D02*
X201900000Y-54970000D01*
X200570000Y-56300000D02*
X200570000Y-54970000D01*
X200570000Y-57570000D02*
X200570000Y-60170000D01*
X200570000Y-57570000D02*
X203230000Y-57570000D01*
X200570000Y-60170000D02*
X203230000Y-60170000D01*
X203230000Y-57570000D02*
X203230000Y-60170000D01*
%TO.C,J1*%
X195420000Y-53585003D02*
X195420000Y-53645003D01*
X195420000Y-53585003D02*
X198080000Y-53585003D01*
X195420000Y-59995003D02*
X195420000Y-60055003D01*
X195420000Y-60055003D02*
X198080000Y-60055003D01*
X198080000Y-53585003D02*
X198080000Y-53645003D01*
X198080000Y-53645003D02*
X199540000Y-53645003D01*
X198080000Y-59995003D02*
X198080000Y-60055003D01*
%TD*%
M02*
