G04 #@! TF.GenerationSoftware,KiCad,Pcbnew,(5.99.0-8645-g8b3dea7107)*
G04 #@! TF.CreationDate,2021-12-17T21:37:34-08:00*
G04 #@! TF.ProjectId,bomu,626f6d75-2e6b-4696-9361-645f70636258,rev?*
G04 #@! TF.SameCoordinates,PX7b80accPY896b3f8*
G04 #@! TF.FileFunction,Copper,L6,Bot*
G04 #@! TF.FilePolarity,Positive*
%FSLAX46Y46*%
G04 Gerber Fmt 4.6, Leading zero omitted, Abs format (unit mm)*
G04 Created by KiCad (PCBNEW (5.99.0-8645-g8b3dea7107)) date 2021-12-17 21:37:34*
%MOMM*%
%LPD*%
G01*
G04 APERTURE LIST*
G04 Aperture macros list*
%AMRoundRect*
0 Rectangle with rounded corners*
0 $1 Rounding radius*
0 $2 $3 $4 $5 $6 $7 $8 $9 X,Y pos of 4 corners*
0 Add a 4 corners polygon primitive as box body*
4,1,4,$2,$3,$4,$5,$6,$7,$8,$9,$2,$3,0*
0 Add four circle primitives for the rounded corners*
1,1,$1+$1,$2,$3*
1,1,$1+$1,$4,$5*
1,1,$1+$1,$6,$7*
1,1,$1+$1,$8,$9*
0 Add four rect primitives between the rounded corners*
20,1,$1+$1,$2,$3,$4,$5,0*
20,1,$1+$1,$4,$5,$6,$7,0*
20,1,$1+$1,$6,$7,$8,$9,0*
20,1,$1+$1,$8,$9,$2,$3,0*%
G04 Aperture macros list end*
G04 #@! TA.AperFunction,SMDPad,CuDef*
%ADD10RoundRect,0.147500X0.172500X-0.147500X0.172500X0.147500X-0.172500X0.147500X-0.172500X-0.147500X0*%
G04 #@! TD*
G04 #@! TA.AperFunction,SMDPad,CuDef*
%ADD11RoundRect,0.100000X0.130000X0.100000X-0.130000X0.100000X-0.130000X-0.100000X0.130000X-0.100000X0*%
G04 #@! TD*
G04 #@! TA.AperFunction,SMDPad,CuDef*
%ADD12RoundRect,0.100000X0.100000X-0.130000X0.100000X0.130000X-0.100000X0.130000X-0.100000X-0.130000X0*%
G04 #@! TD*
G04 #@! TA.AperFunction,SMDPad,CuDef*
%ADD13RoundRect,0.100000X-0.100000X0.130000X-0.100000X-0.130000X0.100000X-0.130000X0.100000X0.130000X0*%
G04 #@! TD*
G04 #@! TA.AperFunction,SMDPad,CuDef*
%ADD14C,0.200000*%
G04 #@! TD*
G04 #@! TA.AperFunction,SMDPad,CuDef*
%ADD15R,0.740000X0.840000*%
G04 #@! TD*
G04 #@! TA.AperFunction,SMDPad,CuDef*
%ADD16R,0.750000X1.400000*%
G04 #@! TD*
G04 #@! TA.AperFunction,SMDPad,CuDef*
%ADD17RoundRect,0.147500X-0.172500X0.147500X-0.172500X-0.147500X0.172500X-0.147500X0.172500X0.147500X0*%
G04 #@! TD*
G04 #@! TA.AperFunction,SMDPad,CuDef*
%ADD18RoundRect,0.100000X-0.130000X-0.100000X0.130000X-0.100000X0.130000X0.100000X-0.130000X0.100000X0*%
G04 #@! TD*
G04 #@! TA.AperFunction,SMDPad,CuDef*
%ADD19RoundRect,0.100000X-0.021213X-0.162635X0.162635X0.021213X0.021213X0.162635X-0.162635X-0.021213X0*%
G04 #@! TD*
G04 #@! TA.AperFunction,SMDPad,CuDef*
%ADD20R,0.800000X0.800000*%
G04 #@! TD*
G04 #@! TA.AperFunction,SMDPad,CuDef*
%ADD21R,0.650000X0.800000*%
G04 #@! TD*
G04 #@! TA.AperFunction,SMDPad,CuDef*
%ADD22R,1.600000X0.800000*%
G04 #@! TD*
G04 #@! TA.AperFunction,SMDPad,CuDef*
%ADD23RoundRect,0.147500X-0.147500X-0.172500X0.147500X-0.172500X0.147500X0.172500X-0.147500X0.172500X0*%
G04 #@! TD*
G04 #@! TA.AperFunction,ViaPad*
%ADD24C,0.508000*%
G04 #@! TD*
G04 #@! TA.AperFunction,ViaPad*
%ADD25C,0.200000*%
G04 #@! TD*
G04 #@! TA.AperFunction,Conductor*
%ADD26C,0.254000*%
G04 #@! TD*
G04 #@! TA.AperFunction,Conductor*
%ADD27C,0.101600*%
G04 #@! TD*
G04 #@! TA.AperFunction,Conductor*
%ADD28C,0.213000*%
G04 #@! TD*
G04 #@! TA.AperFunction,Conductor*
%ADD29C,0.203200*%
G04 #@! TD*
G04 #@! TA.AperFunction,Conductor*
%ADD30C,0.127000*%
G04 #@! TD*
G04 #@! TA.AperFunction,Conductor*
%ADD31C,0.381000*%
G04 #@! TD*
G04 #@! TA.AperFunction,Conductor*
%ADD32C,0.330200*%
G04 #@! TD*
G04 #@! TA.AperFunction,Conductor*
%ADD33C,0.076200*%
G04 #@! TD*
G04 APERTURE END LIST*
D10*
X5067300Y10030600D03*
X5067300Y11000600D03*
D11*
X4345900Y5029200D03*
X3705900Y5029200D03*
X3964900Y3276600D03*
X3324900Y3276600D03*
X10162500Y9296400D03*
X9522500Y9296400D03*
D12*
X11137900Y10917011D03*
X11137900Y11557011D03*
D13*
X8039100Y11572200D03*
X8039100Y10932200D03*
D14*
X8090100Y6044999D03*
X8090100Y6394999D03*
X8090100Y6744999D03*
X8090100Y7094999D03*
X8090100Y7444999D03*
X8090100Y7794999D03*
X8090100Y8144999D03*
X8090100Y8494999D03*
X8090100Y8844999D03*
X8090100Y9194999D03*
X7740100Y6744999D03*
X7740100Y7094999D03*
X7740100Y7444999D03*
X7740100Y7794999D03*
X7740100Y8144999D03*
X7740100Y8494999D03*
X7740100Y8844999D03*
X7740100Y9194999D03*
X7390100Y6044999D03*
X7390100Y6394999D03*
X7390100Y7094999D03*
X7390100Y7444999D03*
X7390100Y7794999D03*
X7390100Y8144999D03*
X7390100Y8494999D03*
X7390100Y8844999D03*
X7390100Y9194999D03*
X7040100Y6744999D03*
X7040100Y7094999D03*
X7040100Y7444999D03*
X7040100Y7794999D03*
X7040100Y8144999D03*
X7040100Y8494999D03*
X7040100Y8844999D03*
X7040100Y9194999D03*
X6690100Y6044999D03*
X6690100Y6394999D03*
X6690100Y6744999D03*
X6690100Y7094999D03*
X6690100Y7444999D03*
X6690100Y7794999D03*
X6690100Y8144999D03*
X6690100Y8494999D03*
X6690100Y8844999D03*
X6690100Y9194999D03*
X6340100Y6044999D03*
X6340100Y6394999D03*
X6340100Y6744999D03*
X6340100Y7094999D03*
X6340100Y7444999D03*
X6340100Y7794999D03*
X6340100Y8144999D03*
X6340100Y8494999D03*
X6340100Y8844999D03*
X6340100Y9194999D03*
X5990100Y6044999D03*
X5990100Y6394999D03*
X5990100Y6744999D03*
X5990100Y7094999D03*
X5990100Y7444999D03*
X5990100Y7794999D03*
X5990100Y8144999D03*
X5990100Y8494999D03*
X5990100Y8844999D03*
X5990100Y9194999D03*
X5640100Y6044999D03*
X5640100Y6394999D03*
X5640100Y7094999D03*
X5640100Y7444999D03*
X5640100Y7794999D03*
X5640100Y8144999D03*
X5640100Y8494999D03*
X5640100Y8844999D03*
X5640100Y9194999D03*
X5290100Y6044999D03*
X5290100Y6394999D03*
X5290100Y6744999D03*
X5290100Y7094999D03*
X5290100Y7444999D03*
X5290100Y7794999D03*
X5290100Y8144999D03*
X5290100Y8494999D03*
X5290100Y8844999D03*
X5290100Y9194999D03*
X4940100Y6044999D03*
X4940100Y6394999D03*
X4940100Y6744999D03*
X4940100Y7094999D03*
X4940100Y7444999D03*
X4940100Y7794999D03*
X4940100Y8144999D03*
X4940100Y8494999D03*
X4940100Y8844999D03*
X4940100Y9194999D03*
D15*
X9201300Y6854200D03*
X9201300Y8284200D03*
X10331300Y8284200D03*
X10331300Y6854200D03*
D10*
X5956300Y10030600D03*
X5956300Y11000600D03*
D16*
X10267700Y11074400D03*
X8807700Y11074400D03*
D17*
X6845300Y11000600D03*
X6845300Y10030600D03*
D18*
X5102900Y5029200D03*
X5742900Y5029200D03*
D12*
X6690360Y4836200D03*
X6690360Y5476200D03*
D19*
X6860326Y3967266D03*
X7312874Y4419814D03*
D18*
X8938300Y9931400D03*
X9578300Y9931400D03*
D13*
X4102100Y8092400D03*
X4102100Y7452400D03*
D20*
X14668500Y11224200D03*
X14693900Y10160000D03*
X12738100Y11239500D03*
X13703300Y11239500D03*
D11*
X8084780Y3797249D03*
X7444780Y3797249D03*
X12829500Y4140200D03*
X12189500Y4140200D03*
D12*
X11645900Y4150400D03*
X11645900Y4790400D03*
X13373100Y4150400D03*
X13373100Y4790400D03*
D21*
X13914100Y5689800D03*
X14864100Y5689800D03*
D22*
X14389100Y8889800D03*
D10*
X4051300Y9827400D03*
X4051300Y10797400D03*
D23*
X7325500Y5181600D03*
X8295500Y5181600D03*
D18*
X9420900Y5207000D03*
X10060900Y5207000D03*
D11*
X10238700Y5867400D03*
X9598700Y5867400D03*
D24*
X14389100Y10414000D03*
X7429500Y10668000D03*
D25*
X3568700Y5013960D03*
X5880100Y5039360D03*
X9258300Y8102600D03*
X10452100Y6629400D03*
X4711700Y9204960D03*
X6235700Y5537200D03*
X7207300Y5650000D03*
X7150100Y5257800D03*
X7346918Y4718018D03*
X7912100Y4267200D03*
X7150100Y4927600D03*
X8801100Y4267200D03*
X8445500Y4267200D03*
X9512300Y4267200D03*
X8166100Y4267200D03*
X9156700Y4267200D03*
X7556500Y4521200D03*
X9867900Y4267200D03*
X10223500Y4267200D03*
X10833100Y4673600D03*
X10502900Y4648200D03*
X11493500Y4673600D03*
X15151100Y4851400D03*
X15100300Y4495800D03*
X15049500Y4140200D03*
X14998700Y3784600D03*
X14947900Y3429000D03*
X14871700Y3073400D03*
X14668500Y2870200D03*
X14312900Y2870200D03*
X14185900Y3149600D03*
X13931900Y3429000D03*
X11823700Y4673600D03*
X12153900Y4673600D03*
X12484100Y4673600D03*
X12814300Y4673600D03*
X13144500Y4673600D03*
X13398500Y4673600D03*
X13398500Y5029200D03*
X13220700Y5207000D03*
X13195300Y3657600D03*
X13830300Y3733800D03*
X14058900Y3911600D03*
X14312900Y4267200D03*
X14389100Y4546600D03*
X14389100Y4876800D03*
X14490700Y5130800D03*
X14820900Y5130800D03*
X15151100Y5130800D03*
X12534900Y3403600D03*
X12941300Y3657600D03*
X13449300Y3657600D03*
X13677900Y3556000D03*
X12763500Y3530600D03*
X12331700Y3200400D03*
X12153900Y2870200D03*
X11823700Y2870200D03*
X11468100Y2870200D03*
X10960100Y2870200D03*
X10452100Y2870200D03*
X9944100Y2870200D03*
X9436100Y2870200D03*
X8928100Y2870200D03*
X8420100Y2870200D03*
X7912100Y2870200D03*
X7404100Y2870200D03*
X6896100Y2870200D03*
X6388100Y2870200D03*
X6134100Y2870200D03*
X6134100Y3124200D03*
X6134100Y3378200D03*
X5880100Y3632200D03*
X5626100Y3886200D03*
X5372100Y3886200D03*
X5118100Y3886200D03*
X4864100Y3886200D03*
X4610100Y3886200D03*
X4610100Y4140200D03*
X5880100Y5613400D03*
X4864100Y5613400D03*
X4610100Y4394200D03*
X4864100Y4394200D03*
X5118100Y4394200D03*
X5372100Y4394200D03*
X5626100Y4648200D03*
X7150100Y3124200D03*
X5372100Y4140200D03*
X4864100Y4140200D03*
X6896100Y3124200D03*
X6642100Y3124200D03*
X6388100Y3124200D03*
X5118100Y4140200D03*
X7404100Y3124200D03*
X7912100Y3124200D03*
X8420100Y3124200D03*
X8928100Y3124200D03*
X9436100Y3124200D03*
X9944100Y3124200D03*
X10452100Y3124200D03*
X10960100Y3124200D03*
X11468100Y3124200D03*
X11976100Y3124200D03*
X7658100Y3124200D03*
X8166100Y3124200D03*
X8674100Y3124200D03*
X9182100Y3124200D03*
X9690100Y3124200D03*
X10198100Y3124200D03*
X10706100Y3124200D03*
X11214100Y3124200D03*
X11722100Y3124200D03*
X14516100Y3124200D03*
X14516100Y3632200D03*
X14516100Y4140200D03*
X14516100Y3886200D03*
X14516100Y3378200D03*
X14516100Y4394200D03*
X14770100Y4394200D03*
X14770100Y4648200D03*
X14516100Y4648200D03*
X14770100Y4902200D03*
X15024100Y4648200D03*
X14770100Y4140200D03*
X14770100Y3886200D03*
X14770100Y3632200D03*
X14770100Y3378200D03*
X14262100Y3378200D03*
X14262100Y3632200D03*
X14262100Y3886200D03*
X14008100Y3632200D03*
X12103100Y3365500D03*
X5880100Y4648200D03*
X5880100Y5410200D03*
X12230100Y5207000D03*
X11722100Y5207000D03*
X11214100Y5207000D03*
X10960100Y5207000D03*
X11468100Y5207000D03*
X11976100Y5207000D03*
X12484100Y5207000D03*
X12738100Y5207000D03*
X12992100Y5207000D03*
X10960100Y5664200D03*
X10960100Y6172200D03*
X10960100Y6680200D03*
X10960100Y7188200D03*
X10960100Y7696200D03*
X10960100Y8204200D03*
X10960100Y8712200D03*
X10960100Y9220200D03*
X11214100Y9474200D03*
X11468100Y9474200D03*
X11976100Y9474200D03*
X12230100Y9474200D03*
X12484100Y9474200D03*
X12738100Y9474200D03*
X12992100Y9474200D03*
X13246100Y9474200D03*
X13500100Y9474200D03*
X10960100Y8966200D03*
X10960100Y8458200D03*
X10960100Y7950200D03*
X10960100Y7442200D03*
X10960100Y6934200D03*
X10960100Y6426200D03*
X10960100Y5918200D03*
X10960100Y5410200D03*
X10960100Y9474200D03*
X13754100Y9474200D03*
X14008100Y9474200D03*
X14262100Y9474200D03*
X14516100Y9474200D03*
X14770100Y9474200D03*
X15024100Y9474200D03*
X12992100Y4902200D03*
X12484100Y4902200D03*
X11976100Y4902200D03*
X11468100Y4902200D03*
X10960100Y4902200D03*
X10960100Y9982200D03*
X11468100Y9982200D03*
X11976100Y9982200D03*
X12484100Y9982200D03*
X12992100Y9982200D03*
X13500100Y9982200D03*
X14008100Y9982200D03*
X14516100Y9982200D03*
X15024100Y9982200D03*
X14770100Y9728200D03*
X14262100Y9728200D03*
X13754100Y9728200D03*
X12738100Y9728200D03*
X12230100Y9728200D03*
X11722100Y9728200D03*
X11722100Y9474200D03*
X11214100Y9728200D03*
X10706100Y9728200D03*
X10706100Y9220200D03*
X4356100Y4394200D03*
X3848100Y4394200D03*
X3340100Y4394200D03*
X2832100Y4394200D03*
X2832100Y4902200D03*
X2832100Y5410200D03*
X2832100Y5918200D03*
X2832100Y6426200D03*
X2832100Y6934200D03*
X2832100Y7442200D03*
X2832100Y7950200D03*
X2832100Y8458200D03*
X2832100Y8966200D03*
X2832100Y9474200D03*
X2832100Y9982200D03*
X2832100Y10490200D03*
X2832100Y10998200D03*
X2832100Y11506200D03*
X3340100Y11506200D03*
X3848100Y11506200D03*
X4356100Y11506200D03*
X4864100Y11506200D03*
X5372100Y11506200D03*
X5880100Y11506200D03*
X6388100Y11506200D03*
X6896100Y11506200D03*
X9867900Y4648200D03*
X10198100Y4648200D03*
X10452100Y5410200D03*
X10452100Y5156200D03*
X10452100Y4902200D03*
X10706100Y4902200D03*
X10706100Y5156200D03*
X10706100Y5410200D03*
X10706100Y5664200D03*
X10706100Y5918200D03*
X10706100Y6172200D03*
X10706100Y6426200D03*
X10706100Y6680200D03*
X10706100Y6934200D03*
X10706100Y7188200D03*
X10706100Y7442200D03*
X11214100Y4902200D03*
X11722100Y4902200D03*
X12230100Y4902200D03*
X12738100Y4902200D03*
X13246100Y4902200D03*
X9436100Y4648200D03*
X7404100Y5156200D03*
X7404100Y5410200D03*
X3568700Y8102600D03*
X4102100Y8102600D03*
X4610100Y10744200D03*
X5118100Y10744200D03*
X5626100Y10744200D03*
X6134100Y10744200D03*
X6642100Y10744200D03*
X10452100Y9982200D03*
X9944100Y9982200D03*
X8420100Y9982200D03*
X8420100Y9474200D03*
X8928100Y9474200D03*
X9436100Y9474200D03*
X9436100Y9982200D03*
X9690100Y9728200D03*
X10198100Y9728200D03*
X8166100Y9728200D03*
X8166100Y10236200D03*
X7658100Y10236200D03*
X7912100Y9982200D03*
X7658100Y9728200D03*
X7658100Y4267200D03*
X10579100Y4267200D03*
X11163300Y4597400D03*
X6235700Y5283200D03*
X6235700Y4902200D03*
X6972300Y3327400D03*
X7277100Y3327400D03*
X7531100Y3327400D03*
X7785100Y3327400D03*
X8039100Y3327400D03*
X8293100Y3327400D03*
X8547100Y3327400D03*
X8801100Y3327400D03*
X9055100Y3327400D03*
X9309100Y3327400D03*
X9817100Y3327400D03*
X10071100Y3327400D03*
X10325100Y3327400D03*
X10579100Y3327400D03*
X10833100Y3327400D03*
X11087100Y3327400D03*
X11341100Y3327400D03*
X11595100Y3327400D03*
X11849100Y3327400D03*
X12357100Y3543300D03*
X6235700Y4521200D03*
X6235700Y4140200D03*
X5626100Y4140200D03*
X5626100Y4394200D03*
X5880100Y4394200D03*
X5880100Y4140200D03*
X5880100Y3886200D03*
X6134100Y3886200D03*
X6108700Y4318000D03*
X6083300Y4749800D03*
X6083300Y5130800D03*
X5753100Y4851400D03*
X5753100Y5232400D03*
X5651500Y5511800D03*
X6134100Y3632200D03*
X6362700Y3632200D03*
X6388100Y3378200D03*
X6616700Y3378200D03*
X9588500Y3327400D03*
X13246100Y9728200D03*
X11595100Y3556000D03*
X8458200Y4559300D03*
X7632700Y4737100D03*
X11290300Y3581400D03*
X8953500Y4572000D03*
X7721600Y8153400D03*
X7950200Y4584700D03*
X11899900Y3581400D03*
X8826500Y9931400D03*
X8572500Y8915400D03*
X6307300Y6350000D03*
X5219700Y5130800D03*
D24*
X4965700Y10058400D03*
X3136900Y3530600D03*
X14795500Y11531600D03*
D25*
X6870700Y9931400D03*
X4127500Y7366000D03*
X6159500Y9931400D03*
X7797300Y8560000D03*
X9207500Y5207000D03*
X4457700Y5029200D03*
X7747000Y6756400D03*
X8293100Y8500000D03*
X7423150Y6496050D03*
D24*
X5499100Y3124200D03*
X4991100Y3124200D03*
X4483100Y3124200D03*
X3975100Y3124200D03*
D25*
X5647300Y6450000D03*
X5317300Y6430000D03*
X4635500Y7747000D03*
D24*
X10299700Y11074400D03*
D25*
X7777300Y8900000D03*
D24*
X8801100Y11074400D03*
D25*
X7787300Y9270000D03*
X4686300Y8483600D03*
X5237300Y8440000D03*
D24*
X13843000Y10972800D03*
D25*
X7357300Y9300000D03*
X6997300Y9280000D03*
D24*
X12882880Y10929620D03*
D25*
X6287300Y5970000D03*
X6667300Y6420000D03*
D26*
X9578300Y9316800D02*
X9598700Y9296400D01*
X7429500Y11460400D02*
X7541300Y11572200D01*
X14389100Y3632200D02*
X12763500Y3632200D01*
X5880100Y11506200D02*
X5880100Y11076800D01*
X4102100Y8092400D02*
X3578900Y8092400D01*
D27*
X7740100Y8144999D02*
X7741139Y8144999D01*
D26*
X3705900Y4612600D02*
X3924300Y4394200D01*
X10238700Y5867400D02*
X10238700Y5384800D01*
X5742900Y5029200D02*
X5742900Y4785400D01*
X11137900Y11557000D02*
X11696700Y11557000D01*
X7810500Y4572000D02*
X9385300Y4572000D01*
X7388902Y10708598D02*
X7429500Y10668000D01*
X12077700Y9931400D02*
X9578300Y9931400D01*
X9201300Y8284200D02*
X9201300Y8975200D01*
X9232900Y8585200D02*
X9243100Y8595400D01*
X9522500Y9387800D02*
X9436100Y9474200D01*
X9436100Y4648200D02*
X10015100Y4648200D01*
D28*
X7251499Y6044995D02*
X7251497Y6044997D01*
D26*
X10331300Y6854200D02*
X10626100Y6854200D01*
D27*
X6690100Y7794999D02*
X7040100Y7794999D01*
D26*
X10238700Y5867400D02*
X10238700Y6761600D01*
D27*
X6340100Y7444999D02*
X6690100Y7444999D01*
D26*
X9429900Y8284198D02*
X9429900Y8388200D01*
D29*
X7040093Y6045200D02*
X7251294Y6045200D01*
D26*
X10458300Y6635600D02*
X10452100Y6629400D01*
X14389100Y9499600D02*
X13957300Y9931400D01*
D27*
X5990100Y7094999D02*
X6340100Y7094999D01*
D26*
X9578300Y9352200D02*
X9522500Y9296400D01*
X7645400Y4737100D02*
X7810500Y4572000D01*
X9578300Y9931400D02*
X9578300Y9352200D01*
X3924300Y4394200D02*
X5118100Y4394200D01*
X5956300Y11000600D02*
X6845300Y11000600D01*
D29*
X7251294Y6045200D02*
X7251497Y6044997D01*
D26*
X7312874Y4419814D02*
X7328114Y4419814D01*
D27*
X5990100Y8494999D02*
X6340100Y8494999D01*
D26*
X10015100Y4648200D02*
X10060900Y4602400D01*
X11696700Y11557000D02*
X12077700Y11176000D01*
D27*
X7040100Y7094999D02*
X7040100Y6744999D01*
D26*
X7404100Y5156200D02*
X7350900Y5156200D01*
X3583940Y5029200D02*
X3568700Y5013960D01*
X13957300Y9931400D02*
X12077700Y9931400D01*
D27*
X7721600Y8153400D02*
X7731699Y8153400D01*
D26*
X6845300Y11000600D02*
X7096900Y11000600D01*
D27*
X5990100Y7794999D02*
X6340100Y7794999D01*
D26*
X7350900Y5156200D02*
X7325500Y5181600D01*
D27*
X7040100Y7444999D02*
X7040100Y7794999D01*
D26*
X14864100Y5689800D02*
X14864100Y4107200D01*
D27*
X5990100Y8144999D02*
X6340100Y8144999D01*
D30*
X4940100Y9194999D02*
X4721661Y9194999D01*
X7251499Y6044999D02*
X7390100Y6044999D01*
D27*
X5990100Y7794999D02*
X5990100Y8144999D01*
D26*
X12077700Y11176000D02*
X12077700Y9931400D01*
D27*
X6690100Y8144999D02*
X7040100Y8144999D01*
D26*
X10238700Y5384800D02*
X10060900Y5207000D01*
X7404100Y5156200D02*
X7404100Y4978400D01*
D27*
X5990100Y7094999D02*
X5990100Y7444999D01*
D26*
X4127500Y10873600D02*
X4051300Y10797400D01*
X10626100Y6854200D02*
X10706100Y6934200D01*
X14389100Y10414000D02*
X14389100Y10363200D01*
D27*
X6690100Y8494999D02*
X7040100Y8494999D01*
X7390100Y7094999D02*
X7040100Y7094999D01*
X6340100Y8144999D02*
X6690100Y8144999D01*
D29*
X7251497Y5816600D02*
X7251497Y6044997D01*
D26*
X6489700Y3022600D02*
X6134100Y3378200D01*
D27*
X6340100Y7094999D02*
X6690100Y7094999D01*
D26*
X12763500Y3632200D02*
X12153900Y3022600D01*
X14389100Y8889800D02*
X14389100Y9499600D01*
X7096900Y11000600D02*
X7429500Y10668000D01*
X5067300Y11000600D02*
X4254500Y11000600D01*
X10238700Y6761600D02*
X10331300Y6854200D01*
X10458300Y6854198D02*
X10458300Y7004200D01*
X12153900Y3022600D02*
X6489700Y3022600D01*
X3705900Y5029200D02*
X3705900Y4612600D01*
D27*
X7040100Y8144999D02*
X7040100Y8494999D01*
D26*
X7541300Y11572200D02*
X8039100Y11572200D01*
D27*
X6690100Y7094999D02*
X7040100Y7094999D01*
D26*
X4254500Y11000600D02*
X4051300Y10797400D01*
X9522500Y9296400D02*
X9522500Y9387800D01*
X7404100Y4978400D02*
X7645400Y4737100D01*
X7328114Y4419814D02*
X7645400Y4737100D01*
X3578900Y8092400D02*
X3568700Y8102600D01*
X5118100Y4394200D02*
X5626100Y4394200D01*
D30*
X4721661Y9194999D02*
X4711700Y9204960D01*
D26*
X14389100Y10363200D02*
X13957300Y9931400D01*
X7251499Y5410401D02*
X7251499Y5816600D01*
X10458300Y6854198D02*
X10458300Y6635600D01*
X5880100Y11076800D02*
X5956300Y11000600D01*
X5880100Y4648200D02*
X5626100Y4394200D01*
D27*
X6690100Y7444999D02*
X7040100Y7444999D01*
D26*
X9201300Y8975200D02*
X9522500Y9296400D01*
X10060900Y5207000D02*
X10060900Y4602400D01*
X5067300Y11000600D02*
X5956300Y11000600D01*
X14864100Y4107200D02*
X14389100Y3632200D01*
D27*
X5990100Y7444999D02*
X6340100Y7444999D01*
X7731699Y8153400D02*
X7740100Y8144999D01*
D29*
X7040093Y6744995D02*
X7040093Y6045200D01*
D26*
X5742900Y4785400D02*
X5880100Y4648200D01*
X9429900Y8388200D02*
X9232900Y8585200D01*
X3705900Y5029200D02*
X3583940Y5029200D01*
D27*
X6340100Y7794999D02*
X6690100Y7794999D01*
X7740100Y8144999D02*
X7740100Y8147600D01*
X6340100Y8494999D02*
X6690100Y8494999D01*
D26*
X7429500Y10668000D02*
X7429500Y11460400D01*
D28*
X13362900Y4140200D02*
X13373100Y4150400D01*
X13713500Y4150400D02*
X13373100Y4150400D01*
X13914100Y4351000D02*
X13713500Y4150400D01*
X12829500Y4140200D02*
X13362900Y4140200D01*
X13914100Y5689800D02*
X13914100Y4351000D01*
X7444780Y3797260D02*
X7030332Y3797260D01*
X6690360Y4836200D02*
X6690360Y4137232D01*
X6690360Y4137232D02*
X6860326Y3967266D01*
X7030332Y3797260D02*
X6860326Y3967266D01*
D27*
X8090100Y9194999D02*
X8494502Y9194999D01*
X8494502Y9194999D02*
X8572500Y9117001D01*
X8572500Y9117001D02*
X8572500Y8915400D01*
X5118100Y5029200D02*
X5219700Y5130800D01*
X6340100Y6382800D02*
X6307300Y6350000D01*
X5102900Y5029200D02*
X5118100Y5029200D01*
X6340100Y6394999D02*
X6340100Y6382800D01*
D26*
X4762500Y8844999D02*
X4248701Y8844999D01*
X4248701Y8844999D02*
X4051300Y9042400D01*
D28*
X4940100Y8844999D02*
X4762500Y8844999D01*
D26*
X4051300Y9042400D02*
X4051300Y9827400D01*
D31*
X3136900Y3530600D02*
X3136900Y3464600D01*
D32*
X5039500Y10058400D02*
X5067300Y10030600D01*
D31*
X3136900Y3464600D02*
X3324900Y3276600D01*
D32*
X4965700Y10058400D02*
X5039500Y10058400D01*
D26*
X5290109Y9195003D02*
X5290109Y9807804D01*
X5290109Y8844991D02*
X5290109Y9195003D01*
X5290109Y9807804D02*
X5067300Y10030612D01*
D30*
X4940100Y7444999D02*
X4109501Y7444999D01*
X9420900Y5207000D02*
X9207500Y5207000D01*
D33*
X7740100Y8502800D02*
X7797300Y8560000D01*
D30*
X4686099Y6044999D02*
X4345900Y5704800D01*
X6060300Y10030600D02*
X6159500Y9931400D01*
X5640100Y9194999D02*
X5640100Y9714400D01*
X7740100Y6744999D02*
X7740100Y6749500D01*
D33*
X7740100Y8494999D02*
X7740100Y8502800D01*
D30*
X4345900Y5704800D02*
X4345900Y5029200D01*
D26*
X14668500Y11224200D02*
X14668500Y11404600D01*
D30*
X4345900Y5029200D02*
X4457700Y5029200D01*
X4940100Y6044999D02*
X4686099Y6044999D01*
X7740100Y6749500D02*
X7747000Y6756400D01*
X4109501Y7444999D02*
X4102100Y7452400D01*
D26*
X5956300Y10030600D02*
X6845300Y10030600D01*
D30*
X5640100Y9714400D02*
X5956300Y10030600D01*
D26*
X14668500Y11404600D02*
X14795500Y11531600D01*
D30*
X6870700Y10068598D02*
X6870700Y9931400D01*
X4127500Y7427000D02*
X4102100Y7452400D01*
X5956300Y10030600D02*
X6060300Y10030600D01*
X4127500Y7366000D02*
X4127500Y7427000D01*
X7747000Y5867400D02*
X7874000Y5740400D01*
X7390100Y6463000D02*
X7423150Y6496050D01*
D33*
X8288099Y8494999D02*
X8293100Y8500000D01*
D29*
X8051800Y5336489D02*
X8206689Y5181600D01*
D30*
X7390105Y6395009D02*
X7701991Y6395009D01*
X7701991Y6395009D02*
X7747000Y6350000D01*
X7390100Y6394999D02*
X7390100Y6463000D01*
X7747000Y6350000D02*
X7747000Y5867400D01*
D29*
X8051800Y5562600D02*
X8051800Y5336489D01*
D33*
X8090100Y8494999D02*
X8288099Y8494999D01*
D29*
X7874000Y5740400D02*
X8051800Y5562600D01*
D28*
X6690100Y5476460D02*
X6690360Y5476200D01*
X6690100Y5395180D02*
X6690360Y5394920D01*
X6690100Y6044999D02*
X6690100Y5476460D01*
D31*
X4483100Y3124200D02*
X4991100Y3124200D01*
X3964900Y3134400D02*
X3975100Y3124200D01*
X4991100Y3124200D02*
X5499100Y3124200D01*
X3964900Y3276600D02*
X3964900Y3134400D01*
X3975100Y3124200D02*
X4483100Y3124200D01*
D33*
X5640100Y6394999D02*
X5640100Y6442800D01*
X5640100Y6442800D02*
X5647300Y6450000D01*
X5290100Y6402800D02*
X5317300Y6430000D01*
X5290100Y6394999D02*
X5290100Y6402800D01*
D27*
X4683499Y7794999D02*
X4635500Y7747000D01*
X4940100Y7794999D02*
X4683499Y7794999D01*
D30*
X8090100Y6044999D02*
X8138100Y6092999D01*
X8610600Y6310094D02*
X8610600Y7378700D01*
X8610600Y7378700D02*
X8648700Y7416800D01*
X9584698Y6854198D02*
X9429900Y6854198D01*
X8138100Y6092999D02*
X8393505Y6092999D01*
X8393505Y6092999D02*
X8610600Y6310094D01*
X9715500Y6985000D02*
X9584698Y6854198D01*
X8648700Y7416800D02*
X9664700Y7416800D01*
D26*
X9560560Y6606540D02*
X9560560Y5905540D01*
X9560560Y5905540D02*
X9598700Y5867400D01*
D30*
X9664700Y7416800D02*
X9715500Y7366000D01*
D26*
X9328300Y6838800D02*
X9560560Y6606540D01*
D30*
X9715500Y7366000D02*
X9715500Y6985000D01*
X8521700Y7670800D02*
X9994900Y7670800D01*
D26*
X10331300Y8284200D02*
X10331300Y9127600D01*
D30*
X8394700Y7543800D02*
X8521700Y7670800D01*
X8394700Y6453406D02*
X8394700Y7543800D01*
X10559900Y8235800D02*
X10559900Y8284198D01*
X8090100Y6394999D02*
X8138100Y6346999D01*
X8288293Y6346999D02*
X8394700Y6453406D01*
X9994900Y7670800D02*
X10559900Y8235800D01*
X8138100Y6346999D02*
X8288293Y6346999D01*
D26*
X10331300Y9127600D02*
X10162500Y9296400D01*
D30*
X7740100Y8844999D02*
X7740100Y8862800D01*
D26*
X10457089Y10917011D02*
X11137900Y10917011D01*
D30*
X7740100Y8862800D02*
X7777300Y8900000D01*
D26*
X10299700Y11074400D02*
X10457089Y10917011D01*
D30*
X10299700Y11074400D02*
X10267700Y11074400D01*
X7740100Y9222800D02*
X7787300Y9270000D01*
X7740100Y9194999D02*
X7740100Y9222800D01*
X8807700Y11074400D02*
X8801100Y11074400D01*
D26*
X8801100Y11074400D02*
X8658900Y10932200D01*
X8658900Y10932200D02*
X8039100Y10932200D01*
D27*
X4697699Y8494999D02*
X4686300Y8483600D01*
X4940100Y8494999D02*
X4697699Y8494999D01*
D30*
X5290100Y8492800D02*
X5237300Y8440000D01*
X5290100Y8494999D02*
X5290100Y8492800D01*
D33*
X7390100Y9267200D02*
X7357300Y9300000D01*
D26*
X13703300Y11112500D02*
X13703300Y11239500D01*
X13843000Y10972800D02*
X13703300Y11112500D01*
D33*
X7390100Y9194999D02*
X7390100Y9267200D01*
D26*
X12738100Y11074400D02*
X12882880Y10929620D01*
D33*
X7040100Y9194999D02*
X7040100Y9237200D01*
D26*
X12738100Y11239500D02*
X12738100Y11074400D01*
D33*
X7040100Y9237200D02*
X6997300Y9280000D01*
D28*
X9893300Y3794800D02*
X10822900Y3794800D01*
X12179300Y4150400D02*
X12189500Y4140200D01*
X8084780Y3797260D02*
X9890840Y3797260D01*
X9890840Y3797260D02*
X9893300Y3794800D01*
X11645900Y4150400D02*
X12179300Y4150400D01*
X11178500Y4150400D02*
X11645900Y4150400D01*
X10822900Y3794800D02*
X11178500Y4150400D01*
D30*
X6287300Y5970000D02*
X6287300Y5992199D01*
X6287300Y5992199D02*
X6340100Y6044999D01*
G04 #@! TA.AperFunction,Conductor*
G36*
X6643648Y11974448D02*
G01*
X6658000Y11939800D01*
X6658000Y11931473D01*
X6658073Y11931152D01*
X6658114Y11930426D01*
X6658094Y11907975D01*
X6660483Y11903000D01*
X6665746Y11892039D01*
X6669347Y11881727D01*
X6673279Y11864492D01*
X6676716Y11860179D01*
X6676717Y11860177D01*
X6684157Y11850841D01*
X6690008Y11841514D01*
X6697565Y11825776D01*
X6711375Y11814732D01*
X6719085Y11807009D01*
X6730105Y11793180D01*
X6735519Y11790569D01*
X6745829Y11785596D01*
X6755144Y11779730D01*
X6761809Y11774400D01*
X6768778Y11768827D01*
X6774153Y11767591D01*
X6774157Y11767589D01*
X6786007Y11764864D01*
X6796311Y11761246D01*
X6812234Y11753566D01*
X6817750Y11753561D01*
X6817751Y11753561D01*
X6823079Y11753557D01*
X6834589Y11753547D01*
X6835439Y11753498D01*
X6835899Y11753392D01*
X8178200Y11753392D01*
X8212848Y11739040D01*
X8227200Y11704392D01*
X8227200Y11411700D01*
X8212848Y11377052D01*
X8178200Y11362700D01*
X7912254Y11362700D01*
X7910039Y11362287D01*
X7910034Y11362287D01*
X7858710Y11352728D01*
X7829121Y11347217D01*
X7733889Y11288516D01*
X7666175Y11199467D01*
X7638600Y11104243D01*
X7638600Y10775354D01*
X7639013Y10773139D01*
X7639013Y10773134D01*
X7643615Y10748427D01*
X7654083Y10692221D01*
X7712784Y10596989D01*
X7801833Y10529275D01*
X7897057Y10501700D01*
X8165946Y10501700D01*
X8168162Y10502113D01*
X8168176Y10502114D01*
X8169232Y10502311D01*
X8169558Y10502242D01*
X8170415Y10502321D01*
X8170440Y10502055D01*
X8205922Y10494543D01*
X8226372Y10463107D01*
X8227200Y10454139D01*
X8227200Y10374400D01*
X8242843Y10295759D01*
X8287390Y10229090D01*
X8354059Y10184543D01*
X8432700Y10168900D01*
X8470240Y10168900D01*
X8504888Y10154548D01*
X8519240Y10119900D01*
X8517306Y10106271D01*
X8507800Y10073443D01*
X8507800Y9804554D01*
X8523283Y9721421D01*
X8581984Y9626189D01*
X8631082Y9588854D01*
X8666407Y9561993D01*
X8671033Y9558475D01*
X8766257Y9530900D01*
X9095146Y9530900D01*
X9097361Y9531313D01*
X9097366Y9531313D01*
X9158128Y9542630D01*
X9178279Y9546383D01*
X9273511Y9605084D01*
X9332484Y9682638D01*
X9338487Y9690532D01*
X9338487Y9690533D01*
X9341225Y9694133D01*
X9368800Y9789357D01*
X9368800Y10058246D01*
X9363232Y10088146D01*
X9354145Y10136934D01*
X9354145Y10136935D01*
X9353317Y10141379D01*
X9350945Y10145228D01*
X9350943Y10145232D01*
X9329558Y10179925D01*
X9323594Y10216950D01*
X9330528Y10232859D01*
X9338339Y10244548D01*
X9372557Y10295759D01*
X9388200Y10374400D01*
X9388200Y11704392D01*
X9402552Y11739040D01*
X9437200Y11753392D01*
X9638200Y11753392D01*
X9672848Y11739040D01*
X9687200Y11704392D01*
X9687200Y10374400D01*
X9702843Y10295759D01*
X9747390Y10229090D01*
X9814059Y10184543D01*
X9892700Y10168900D01*
X10642700Y10168900D01*
X10721341Y10184543D01*
X10788010Y10229090D01*
X10832557Y10295759D01*
X10848200Y10374400D01*
X10848200Y10464067D01*
X10862552Y10498715D01*
X10897200Y10513067D01*
X10910829Y10511133D01*
X10942179Y10502055D01*
X10995857Y10486511D01*
X11264746Y10486511D01*
X11266961Y10486924D01*
X11266966Y10486924D01*
X11318290Y10496483D01*
X11347879Y10501994D01*
X11443111Y10560695D01*
X11499211Y10634471D01*
X11508087Y10646143D01*
X11508087Y10646144D01*
X11510825Y10649744D01*
X11538400Y10744968D01*
X11538400Y11073857D01*
X11522917Y11156990D01*
X11464216Y11252222D01*
X11375167Y11319936D01*
X11279943Y11347511D01*
X11011054Y11347511D01*
X11008839Y11347098D01*
X11008834Y11347098D01*
X10957510Y11337539D01*
X10927921Y11332028D01*
X10924071Y11329655D01*
X10924069Y11329654D01*
X10922910Y11328939D01*
X10921722Y11328748D01*
X10919852Y11328026D01*
X10919699Y11328422D01*
X10885885Y11322976D01*
X10855487Y11344942D01*
X10848200Y11370652D01*
X10848200Y11774400D01*
X10832557Y11853041D01*
X10792776Y11912577D01*
X10785459Y11949359D01*
X10806295Y11980542D01*
X10833518Y11988800D01*
X12705000Y11988800D01*
X12739648Y11974448D01*
X12754000Y11939800D01*
X12754000Y11931473D01*
X12754073Y11931152D01*
X12754114Y11930426D01*
X12754094Y11907975D01*
X12755938Y11904134D01*
X12749740Y11867887D01*
X12719131Y11846217D01*
X12708278Y11845000D01*
X12338100Y11845000D01*
X12259459Y11829357D01*
X12192790Y11784810D01*
X12148243Y11718141D01*
X12132600Y11639500D01*
X12132600Y10839500D01*
X12148243Y10760859D01*
X12192790Y10694190D01*
X12259459Y10649643D01*
X12338100Y10634000D01*
X12509692Y10634000D01*
X12542357Y10619557D01*
X12543020Y10620371D01*
X12616320Y10560695D01*
X12648975Y10534109D01*
X12775612Y10482816D01*
X12779260Y10482500D01*
X12908083Y10471343D01*
X12911732Y10471027D01*
X13020428Y10494428D01*
X13041721Y10499012D01*
X13045302Y10499783D01*
X13164511Y10566544D01*
X13167039Y10569194D01*
X13222139Y10626954D01*
X13256439Y10642118D01*
X13267154Y10641190D01*
X13281528Y10638331D01*
X13303300Y10634000D01*
X13522014Y10634000D01*
X13552948Y10623000D01*
X13609095Y10577289D01*
X13735732Y10525996D01*
X13739380Y10525680D01*
X13868203Y10514523D01*
X13871852Y10514207D01*
X14005422Y10542963D01*
X14124631Y10609724D01*
X14127158Y10612373D01*
X14127162Y10612376D01*
X14137456Y10623167D01*
X14171757Y10638331D01*
X14188594Y10635189D01*
X14189859Y10634343D01*
X14194593Y10633401D01*
X14194594Y10633401D01*
X14213437Y10629653D01*
X14268500Y10618700D01*
X15068500Y10618700D01*
X15095832Y10624137D01*
X15132614Y10616820D01*
X15153449Y10585637D01*
X15154147Y10580953D01*
X15159174Y10530681D01*
X15159365Y10523547D01*
X15159172Y10519367D01*
X15159667Y10516642D01*
X15159668Y10516633D01*
X15161340Y10507440D01*
X15161887Y10503555D01*
X15163074Y10491689D01*
X15163949Y10489082D01*
X15163951Y10489075D01*
X15164413Y10487700D01*
X15166173Y10480866D01*
X15171032Y10454139D01*
X15181138Y10398557D01*
X15181727Y10394228D01*
X15190630Y10296293D01*
X15190662Y10295927D01*
X15199338Y10191825D01*
X15199455Y10185493D01*
X15199172Y10179367D01*
X15200971Y10169472D01*
X15201591Y10164787D01*
X15202411Y10154948D01*
X15204275Y10149076D01*
X15205780Y10143023D01*
X15220970Y10059480D01*
X15221591Y10054783D01*
X15228755Y9968817D01*
X15228755Y9968816D01*
X15238755Y9848817D01*
X15238755Y9848816D01*
X15248755Y9728817D01*
X15248755Y9728816D01*
X15258755Y9608817D01*
X15258755Y9608816D01*
X15270535Y9467463D01*
X15278819Y9359767D01*
X15278829Y9359328D01*
X15278755Y9358816D01*
X15278874Y9357389D01*
X15278874Y9357387D01*
X15280527Y9337554D01*
X15280552Y9337240D01*
X15281329Y9327134D01*
X15269675Y9291488D01*
X15232568Y9274378D01*
X13072048Y9270255D01*
X11096846Y9266486D01*
X11096845Y9266486D01*
X11087100Y9266467D01*
X11087100Y5308600D01*
X13339648Y5308600D01*
X13374296Y5294248D01*
X13387706Y5269159D01*
X13397957Y5217625D01*
X13399243Y5211159D01*
X13443790Y5144490D01*
X13510459Y5099943D01*
X13515191Y5099002D01*
X13515193Y5099001D01*
X13567659Y5088565D01*
X13598842Y5067730D01*
X13607100Y5040507D01*
X13607100Y4619473D01*
X13592748Y4584825D01*
X13558100Y4570473D01*
X13544473Y4572407D01*
X13528280Y4577096D01*
X13518466Y4579938D01*
X13518464Y4579938D01*
X13515143Y4580900D01*
X13246254Y4580900D01*
X13244039Y4580487D01*
X13244034Y4580487D01*
X13205329Y4573278D01*
X13163121Y4565417D01*
X13102676Y4528159D01*
X13063337Y4522806D01*
X13004868Y4539737D01*
X13004869Y4539737D01*
X13001543Y4540700D01*
X12672654Y4540700D01*
X12670439Y4540287D01*
X12670434Y4540287D01*
X12619110Y4530728D01*
X12589521Y4525217D01*
X12536031Y4492246D01*
X12499006Y4486283D01*
X12480662Y4494955D01*
X12460368Y4510387D01*
X12460367Y4510388D01*
X12456767Y4513125D01*
X12361543Y4540700D01*
X12032654Y4540700D01*
X12030439Y4540287D01*
X12030434Y4540287D01*
X11949521Y4525217D01*
X11949165Y4527129D01*
X11918833Y4527868D01*
X11909030Y4533659D01*
X11883167Y4553325D01*
X11787943Y4580900D01*
X11519054Y4580900D01*
X11516839Y4580487D01*
X11516834Y4580487D01*
X11478129Y4573278D01*
X11435921Y4565417D01*
X11432068Y4563042D01*
X11346645Y4510387D01*
X11340689Y4506716D01*
X11337952Y4503117D01*
X11337950Y4503115D01*
X11317895Y4476741D01*
X11285499Y4457848D01*
X11278891Y4457400D01*
X11233201Y4457400D01*
X11227719Y4457803D01*
X11224078Y4459053D01*
X11180952Y4457434D01*
X11179114Y4457400D01*
X11151653Y4457400D01*
X11149435Y4456987D01*
X11149425Y4456986D01*
X11148025Y4456725D01*
X11140891Y4455930D01*
X11137591Y4455806D01*
X11114428Y4454937D01*
X11114426Y4454937D01*
X11109908Y4454767D01*
X11093792Y4447844D01*
X11083429Y4444695D01*
X11066181Y4441482D01*
X11049978Y4431494D01*
X11039790Y4425214D01*
X11033420Y4421905D01*
X11008114Y4411033D01*
X11008113Y4411032D01*
X11004935Y4409667D01*
X11002265Y4407474D01*
X11002262Y4407472D01*
X10998400Y4404299D01*
X10997476Y4403540D01*
X10990039Y4396103D01*
X10981102Y4389039D01*
X10968923Y4381531D01*
X10966185Y4377930D01*
X10950158Y4356854D01*
X10945802Y4351866D01*
X10822934Y4228997D01*
X10710089Y4116152D01*
X10675441Y4101800D01*
X9961501Y4101800D01*
X9952558Y4102872D01*
X9951441Y4103318D01*
X9944956Y4103954D01*
X9943019Y4104144D01*
X9943015Y4104144D01*
X9941834Y4104260D01*
X9931318Y4104260D01*
X9920004Y4105584D01*
X9910485Y4107843D01*
X9910484Y4107843D01*
X9906081Y4108888D01*
X9875368Y4104708D01*
X9868760Y4104260D01*
X8455242Y4104260D01*
X8425583Y4114256D01*
X8402699Y4131658D01*
X8383267Y4146434D01*
X8355648Y4167436D01*
X8355647Y4167436D01*
X8352047Y4170174D01*
X8256823Y4197749D01*
X7927934Y4197749D01*
X7925719Y4197336D01*
X7925714Y4197336D01*
X7878182Y4188483D01*
X7844801Y4182266D01*
X7791311Y4149295D01*
X7754286Y4143332D01*
X7735942Y4152004D01*
X7715648Y4167436D01*
X7715647Y4167437D01*
X7712047Y4170174D01*
X7616823Y4197749D01*
X7287934Y4197749D01*
X7285716Y4197336D01*
X7285706Y4197335D01*
X7271770Y4194739D01*
X7235079Y4202503D01*
X7228149Y4208262D01*
X7075042Y4361369D01*
X7018641Y4400060D01*
X6998188Y4431494D01*
X6997360Y4440466D01*
X6997360Y4465723D01*
X7007356Y4495382D01*
X7060547Y4565332D01*
X7060548Y4565333D01*
X7063285Y4568933D01*
X7090860Y4664157D01*
X7090860Y4993046D01*
X7088169Y5007498D01*
X7077467Y5064957D01*
X7075377Y5076179D01*
X7042406Y5129669D01*
X7036443Y5166694D01*
X7045115Y5185038D01*
X7060547Y5205332D01*
X7060548Y5205333D01*
X7063285Y5208933D01*
X7090860Y5304157D01*
X7090860Y5633046D01*
X7088519Y5645620D01*
X7080888Y5686590D01*
X7075377Y5716179D01*
X7016676Y5811411D01*
X7013072Y5814152D01*
X7010035Y5817501D01*
X7011964Y5819250D01*
X6997542Y5844026D01*
X6997100Y5850594D01*
X6997100Y6071846D01*
X6987407Y6123893D01*
X6982011Y6152869D01*
X6982010Y6152871D01*
X6981182Y6157318D01*
X6954915Y6199931D01*
X6948951Y6236956D01*
X6955507Y6252289D01*
X6972549Y6278582D01*
X6973697Y6284051D01*
X6981466Y6321083D01*
X6992426Y6373315D01*
X7003435Y6389424D01*
X6992839Y6409822D01*
X6990463Y6422583D01*
X6975117Y6504978D01*
X6972744Y6508828D01*
X6951068Y6543993D01*
X6945104Y6581019D01*
X6951662Y6596356D01*
X6970086Y6624781D01*
X6970087Y6624784D01*
X6972549Y6628582D01*
X6991957Y6721083D01*
X6995029Y6735722D01*
X6995029Y6735724D01*
X6995521Y6738068D01*
X6995600Y6744999D01*
X6975117Y6854978D01*
X6916416Y6950210D01*
X6827367Y7017924D01*
X6823023Y7019182D01*
X6823021Y7019183D01*
X6760111Y7037400D01*
X6719912Y7049041D01*
X6715406Y7048651D01*
X6715404Y7048651D01*
X6612969Y7039779D01*
X6612967Y7039778D01*
X6608459Y7039388D01*
X6604392Y7037400D01*
X6538615Y7005248D01*
X6501184Y7002926D01*
X6487438Y7010266D01*
X6480969Y7015185D01*
X6477367Y7017924D01*
X6473023Y7019182D01*
X6473021Y7019183D01*
X6410111Y7037400D01*
X6369912Y7049041D01*
X6365406Y7048651D01*
X6365404Y7048651D01*
X6262969Y7039779D01*
X6262967Y7039778D01*
X6258459Y7039388D01*
X6254392Y7037400D01*
X6188615Y7005248D01*
X6151184Y7002926D01*
X6137438Y7010266D01*
X6130969Y7015185D01*
X6127367Y7017924D01*
X6123023Y7019182D01*
X6123021Y7019183D01*
X6060111Y7037400D01*
X6019912Y7049041D01*
X6015406Y7048651D01*
X6015404Y7048651D01*
X5998688Y7047203D01*
X5962930Y7058512D01*
X5945642Y7091796D01*
X5945573Y7092598D01*
X5945600Y7094999D01*
X5934976Y7152045D01*
X5925945Y7200533D01*
X5925945Y7200534D01*
X5925117Y7204978D01*
X5901068Y7243993D01*
X5895104Y7281019D01*
X5901662Y7296356D01*
X5920086Y7324781D01*
X5920087Y7324784D01*
X5922549Y7328582D01*
X5938673Y7405429D01*
X5945029Y7435722D01*
X5945029Y7435724D01*
X5945521Y7438068D01*
X5945600Y7444999D01*
X5925117Y7554978D01*
X5901068Y7593993D01*
X5895104Y7631019D01*
X5901662Y7646356D01*
X5920086Y7674781D01*
X5920087Y7674784D01*
X5922549Y7678582D01*
X5936904Y7746997D01*
X5945029Y7785722D01*
X5945029Y7785724D01*
X5945521Y7788068D01*
X5945600Y7794999D01*
X5927452Y7892441D01*
X5925945Y7900533D01*
X5925945Y7900534D01*
X5925117Y7904978D01*
X5922744Y7908828D01*
X5901068Y7943993D01*
X5895104Y7981019D01*
X5901662Y7996356D01*
X5920086Y8024781D01*
X5920087Y8024784D01*
X5922549Y8028582D01*
X5936904Y8096997D01*
X5945029Y8135722D01*
X5945029Y8135724D01*
X5945521Y8138068D01*
X5945600Y8144999D01*
X5927821Y8240458D01*
X5925945Y8250533D01*
X5925945Y8250534D01*
X5925117Y8254978D01*
X5901068Y8293993D01*
X5895104Y8331019D01*
X5901662Y8346356D01*
X5920086Y8374781D01*
X5920087Y8374784D01*
X5922549Y8378582D01*
X5938940Y8456703D01*
X5945029Y8485722D01*
X5945029Y8485724D01*
X5945521Y8488068D01*
X5945585Y8493647D01*
X5960334Y8528128D01*
X5995145Y8542081D01*
X5999904Y8541794D01*
X6013006Y8540359D01*
X6121140Y8569030D01*
X6124804Y8571687D01*
X6137811Y8581119D01*
X6174285Y8589842D01*
X6189089Y8584975D01*
X6220808Y8568569D01*
X6251801Y8552538D01*
X6363006Y8540359D01*
X6471140Y8569030D01*
X6474804Y8571687D01*
X6487811Y8581119D01*
X6524285Y8589842D01*
X6539089Y8584975D01*
X6570808Y8568569D01*
X6601801Y8552538D01*
X6713006Y8540359D01*
X6821140Y8569030D01*
X6824804Y8571687D01*
X6837811Y8581119D01*
X6874285Y8589842D01*
X6889089Y8584975D01*
X6920808Y8568569D01*
X6951801Y8552538D01*
X6956294Y8552046D01*
X6956297Y8552045D01*
X7046059Y8542215D01*
X7078939Y8524176D01*
X7089722Y8492951D01*
X7089149Y8442475D01*
X7099705Y8414167D01*
X7128235Y8337655D01*
X7126407Y8336973D01*
X7130886Y8306977D01*
X7128856Y8300681D01*
X7090418Y8204338D01*
X7089149Y8092475D01*
X7108198Y8041389D01*
X7128235Y7987655D01*
X7126407Y7986973D01*
X7130886Y7956977D01*
X7128856Y7950681D01*
X7090418Y7854338D01*
X7089860Y7805112D01*
X7089640Y7785717D01*
X7089149Y7742475D01*
X7090729Y7738238D01*
X7128235Y7637655D01*
X7126407Y7636973D01*
X7130886Y7606977D01*
X7128856Y7600681D01*
X7090418Y7504338D01*
X7090367Y7499815D01*
X7089312Y7406800D01*
X7089149Y7392475D01*
X7128235Y7287655D01*
X7131235Y7284270D01*
X7199436Y7207318D01*
X7199439Y7207316D01*
X7202436Y7203934D01*
X7301801Y7152538D01*
X7306294Y7152046D01*
X7306297Y7152045D01*
X7396059Y7142215D01*
X7428939Y7124176D01*
X7439722Y7092951D01*
X7439503Y7073678D01*
X7439203Y7047203D01*
X7439149Y7042475D01*
X7469123Y6962092D01*
X7467781Y6924614D01*
X7440331Y6899061D01*
X7434585Y6897311D01*
X7434044Y6897182D01*
X7433458Y6897042D01*
X7425463Y6895822D01*
X7340267Y6889946D01*
X7255075Y6884071D01*
X7255074Y6884071D01*
X7245350Y6883400D01*
X7245350Y6765225D01*
X7232274Y6731901D01*
X7221156Y6719915D01*
X7164923Y6659295D01*
X7123468Y6555389D01*
X7123417Y6550867D01*
X7123359Y6545771D01*
X7119875Y6528171D01*
X7090418Y6454338D01*
X7090367Y6449815D01*
X7090008Y6418237D01*
X7078735Y6391872D01*
X7081406Y6390047D01*
X7089378Y6362697D01*
X7089149Y6342475D01*
X7128235Y6237655D01*
X7131235Y6234270D01*
X7199436Y6157318D01*
X7199439Y6157316D01*
X7202436Y6153934D01*
X7301801Y6102538D01*
X7365630Y6095548D01*
X7408511Y6090851D01*
X7408513Y6090851D01*
X7413006Y6090359D01*
X7417377Y6091518D01*
X7417379Y6091518D01*
X7421441Y6092595D01*
X7458610Y6087604D01*
X7481363Y6057791D01*
X7483000Y6045232D01*
X7483000Y5903700D01*
X7468648Y5869052D01*
X7434000Y5854700D01*
X7404100Y5854700D01*
X7404100Y5549900D01*
X7412207Y5548887D01*
X7412208Y5548886D01*
X7491972Y5538916D01*
X7516503Y5528557D01*
X7587191Y5472007D01*
X7614310Y5450312D01*
X7632400Y5417460D01*
X7632700Y5412049D01*
X7632700Y5372100D01*
X7636738Y5372100D01*
X7638746Y5367252D01*
X7654370Y5351628D01*
X7658100Y5332876D01*
X7658100Y4953000D01*
X7669910Y4942034D01*
X7829103Y4794211D01*
X7829104Y4794211D01*
X7835900Y4787900D01*
X7845175Y4787900D01*
X7850357Y4785865D01*
X7869070Y4772810D01*
X7912100Y4724400D01*
X7925011Y4724400D01*
X7951617Y4716443D01*
X7954195Y4714060D01*
X7957898Y4712423D01*
X8056954Y4668630D01*
X8056956Y4668629D01*
X8060212Y4667190D01*
X8108420Y4661100D01*
X8473040Y4661100D01*
X8475027Y4661431D01*
X8475030Y4661431D01*
X8553348Y4674467D01*
X8557343Y4675132D01*
X8637761Y4718523D01*
X8661029Y4724400D01*
X9232900Y4724400D01*
X9329301Y4796700D01*
X9358700Y4806500D01*
X9577746Y4806500D01*
X9579961Y4806913D01*
X9579966Y4806913D01*
X9631290Y4816472D01*
X9660879Y4821983D01*
X9756111Y4880684D01*
X9823825Y4969733D01*
X9851400Y5064957D01*
X9851400Y5333846D01*
X9850785Y5337151D01*
X9836745Y5412534D01*
X9836745Y5412535D01*
X9835917Y5416979D01*
X9833174Y5421429D01*
X9833075Y5422044D01*
X9831915Y5425050D01*
X9832551Y5425296D01*
X9827210Y5458455D01*
X9849175Y5488853D01*
X9879424Y5507498D01*
X9933911Y5541084D01*
X9990836Y5615945D01*
X9998887Y5626532D01*
X9998887Y5626533D01*
X10001625Y5630133D01*
X10029200Y5725357D01*
X10029200Y5994246D01*
X10026579Y6008322D01*
X10017365Y6057791D01*
X10013717Y6077379D01*
X9955016Y6172611D01*
X9907401Y6208818D01*
X9888508Y6241214D01*
X9888060Y6247822D01*
X9888060Y6590686D01*
X9888246Y6594957D01*
X9888368Y6596356D01*
X9891795Y6635520D01*
X9890685Y6639661D01*
X9890685Y6639666D01*
X9881105Y6675420D01*
X9880179Y6679593D01*
X9873752Y6716040D01*
X9873008Y6720262D01*
X9870864Y6723976D01*
X9870102Y6726069D01*
X9871738Y6763536D01*
X9888925Y6783571D01*
X9901699Y6792106D01*
X9901701Y6792108D01*
X9905712Y6794788D01*
X9930230Y6831481D01*
X9945930Y6854978D01*
X9961343Y6878045D01*
X9961344Y6878046D01*
X9964024Y6882058D01*
X9984500Y6985000D01*
X9983559Y6989731D01*
X9983559Y6989736D01*
X9980442Y7005406D01*
X9979500Y7014965D01*
X9979500Y7336035D01*
X9980442Y7345594D01*
X9984501Y7366000D01*
X9986183Y7365665D01*
X9997911Y7393978D01*
X10023000Y7407388D01*
X10093105Y7421333D01*
X10093109Y7421334D01*
X10097842Y7422276D01*
X10101854Y7424956D01*
X10101855Y7424957D01*
X10115655Y7434178D01*
X10163802Y7466349D01*
X10181101Y7477908D01*
X10185112Y7480588D01*
X10196671Y7497887D01*
X10202765Y7505312D01*
X10341801Y7644348D01*
X10376449Y7658700D01*
X10701300Y7658700D01*
X10779941Y7674343D01*
X10846610Y7718890D01*
X10891157Y7785559D01*
X10906800Y7864200D01*
X10906800Y8704200D01*
X10891157Y8782841D01*
X10846610Y8849510D01*
X10779941Y8894057D01*
X10738298Y8902341D01*
X10703660Y8909231D01*
X10703656Y8909231D01*
X10701300Y8909700D01*
X10701390Y8910151D01*
X10669916Y8926982D01*
X10658800Y8958060D01*
X10658800Y9111746D01*
X10658986Y9116017D01*
X10662161Y9152310D01*
X10662535Y9156580D01*
X10661425Y9160721D01*
X10661425Y9160726D01*
X10651845Y9196480D01*
X10650919Y9200653D01*
X10646210Y9227362D01*
X10643748Y9241322D01*
X10639659Y9248405D01*
X10634765Y9260221D01*
X10633758Y9263978D01*
X10632648Y9268121D01*
X10630191Y9271631D01*
X10630189Y9271634D01*
X10611564Y9298232D01*
X10608952Y9301962D01*
X10606659Y9305563D01*
X10599564Y9317853D01*
X10593000Y9342351D01*
X10593000Y9423246D01*
X10588707Y9446300D01*
X10581078Y9487257D01*
X10577517Y9506379D01*
X10518816Y9601611D01*
X10455365Y9649860D01*
X10433368Y9666587D01*
X10433367Y9666587D01*
X10429767Y9669325D01*
X10334543Y9696900D01*
X10005654Y9696900D01*
X10003439Y9696487D01*
X10003434Y9696487D01*
X9964820Y9689295D01*
X9922521Y9681417D01*
X9827289Y9622716D01*
X9792639Y9577148D01*
X9765296Y9541190D01*
X9759575Y9533667D01*
X9732000Y9438443D01*
X9732000Y9169554D01*
X9732413Y9167339D01*
X9732413Y9167334D01*
X9741343Y9119390D01*
X9747483Y9086421D01*
X9806184Y8991189D01*
X9855263Y8953869D01*
X9874155Y8921473D01*
X9864607Y8885205D01*
X9852827Y8874123D01*
X9815990Y8849510D01*
X9771443Y8782841D01*
X9755800Y8704200D01*
X9755800Y7983800D01*
X9741448Y7949152D01*
X9706800Y7934800D01*
X8710400Y7934800D01*
X8675752Y7949152D01*
X8661400Y7983800D01*
X8661400Y8590557D01*
X8675752Y8625205D01*
X8697839Y8637919D01*
X8703540Y8639431D01*
X8747153Y8671060D01*
X8790440Y8702452D01*
X8790441Y8702453D01*
X8794102Y8705108D01*
X8854949Y8798983D01*
X8871756Y8879084D01*
X8877429Y8906123D01*
X8877429Y8906125D01*
X8877921Y8908469D01*
X8878000Y8915400D01*
X8857517Y9025379D01*
X8832129Y9066567D01*
X8825783Y9101838D01*
X8827858Y9112268D01*
X8827858Y9112270D01*
X8828799Y9117001D01*
X8823800Y9142133D01*
X8823801Y9142133D01*
X8823800Y9142137D01*
X8817834Y9172128D01*
X8809290Y9215083D01*
X8806611Y9219092D01*
X8806610Y9219095D01*
X8784166Y9252683D01*
X8784165Y9252684D01*
X8774944Y9266486D01*
X8767970Y9276923D01*
X8767967Y9276928D01*
X8756413Y9294219D01*
X8756411Y9294221D01*
X8753731Y9298232D01*
X8736436Y9309789D01*
X8729010Y9315883D01*
X8693384Y9351509D01*
X8687290Y9358934D01*
X8678413Y9372219D01*
X8675733Y9376230D01*
X8654426Y9390467D01*
X8654424Y9390469D01*
X8620685Y9413012D01*
X8592584Y9431789D01*
X8519638Y9446299D01*
X8519634Y9446300D01*
X8519634Y9446299D01*
X8499233Y9450357D01*
X8494502Y9451298D01*
X8489771Y9450357D01*
X8489766Y9450357D01*
X8474101Y9447241D01*
X8464542Y9446299D01*
X8272319Y9446299D01*
X8242660Y9456295D01*
X8236744Y9460794D01*
X8227367Y9467924D01*
X8223023Y9469182D01*
X8223021Y9469183D01*
X8164618Y9486095D01*
X8119912Y9499041D01*
X8115406Y9498651D01*
X8115404Y9498651D01*
X8015188Y9489971D01*
X7981301Y9499784D01*
X7928169Y9540186D01*
X7924567Y9542925D01*
X7920223Y9544183D01*
X7920221Y9544184D01*
X7850446Y9564389D01*
X7817112Y9574042D01*
X7812606Y9573652D01*
X7812604Y9573652D01*
X7710169Y9564780D01*
X7710167Y9564779D01*
X7705659Y9564389D01*
X7661145Y9542630D01*
X7611133Y9518184D01*
X7573702Y9515862D01*
X7559956Y9523202D01*
X7557249Y9525261D01*
X7494567Y9572925D01*
X7490223Y9574183D01*
X7490221Y9574184D01*
X7420446Y9594389D01*
X7387112Y9604042D01*
X7382606Y9603652D01*
X7382604Y9603652D01*
X7346895Y9600559D01*
X7311138Y9611867D01*
X7293850Y9645148D01*
X7306686Y9682638D01*
X7312840Y9689295D01*
X7355608Y9786033D01*
X7358270Y9792054D01*
X7358271Y9792056D01*
X7359710Y9795312D01*
X7365800Y9843520D01*
X7365800Y10208140D01*
X7358518Y10251893D01*
X7352433Y10288448D01*
X7351768Y10292443D01*
X7349798Y10296095D01*
X7331079Y10330787D01*
X7296725Y10394456D01*
X7236213Y10450393D01*
X7214579Y10470391D01*
X7211605Y10473140D01*
X7181361Y10486511D01*
X7108846Y10518570D01*
X7108844Y10518571D01*
X7105588Y10520010D01*
X7057380Y10526100D01*
X6642760Y10526100D01*
X6640773Y10525769D01*
X6640770Y10525769D01*
X6597520Y10518570D01*
X6558457Y10512068D01*
X6456444Y10457025D01*
X6453695Y10454051D01*
X6436069Y10434983D01*
X6402011Y10419282D01*
X6366827Y10432262D01*
X6322605Y10473140D01*
X6292361Y10486511D01*
X6219846Y10518570D01*
X6219844Y10518571D01*
X6216588Y10520010D01*
X6168380Y10526100D01*
X5753760Y10526100D01*
X5751773Y10525769D01*
X5751770Y10525769D01*
X5708520Y10518570D01*
X5669457Y10512068D01*
X5567444Y10457025D01*
X5564695Y10454051D01*
X5547069Y10434983D01*
X5513011Y10419282D01*
X5477827Y10432262D01*
X5433605Y10473140D01*
X5403361Y10486511D01*
X5330846Y10518570D01*
X5330844Y10518571D01*
X5327588Y10520010D01*
X5279380Y10526100D01*
X4864760Y10526100D01*
X4862773Y10525769D01*
X4862770Y10525769D01*
X4819520Y10518570D01*
X4780457Y10512068D01*
X4678444Y10457025D01*
X4599760Y10371905D01*
X4552890Y10265888D01*
X4552443Y10262354D01*
X4552443Y10262352D01*
X4552213Y10260530D01*
X4550320Y10251900D01*
X4547994Y10244547D01*
X4523863Y10215841D01*
X4486500Y10212605D01*
X4468015Y10223342D01*
X4420579Y10267191D01*
X4417605Y10269940D01*
X4358444Y10296095D01*
X4314846Y10315370D01*
X4314844Y10315371D01*
X4311588Y10316810D01*
X4263380Y10322900D01*
X3848760Y10322900D01*
X3846773Y10322569D01*
X3846770Y10322569D01*
X3803520Y10315370D01*
X3764457Y10308868D01*
X3662444Y10253825D01*
X3583760Y10168705D01*
X3582123Y10165002D01*
X3540116Y10069984D01*
X3536890Y10062688D01*
X3530800Y10014480D01*
X3530800Y9649860D01*
X3531131Y9647873D01*
X3531131Y9647870D01*
X3544167Y9569552D01*
X3544832Y9565557D01*
X3599875Y9463544D01*
X3618531Y9446299D01*
X3664344Y9403950D01*
X3684995Y9384860D01*
X3688699Y9383223D01*
X3688698Y9383223D01*
X3694613Y9380608D01*
X3720499Y9353472D01*
X3723800Y9335792D01*
X3723800Y9058254D01*
X3723614Y9053983D01*
X3720693Y9020594D01*
X3720065Y9013421D01*
X3721174Y9009283D01*
X3721174Y9009281D01*
X3730753Y8973533D01*
X3731679Y8969359D01*
X3738107Y8932900D01*
X3738108Y8932897D01*
X3738852Y8928678D01*
X3740996Y8924965D01*
X3742939Y8921600D01*
X3747836Y8909777D01*
X3748842Y8906020D01*
X3748843Y8906017D01*
X3749952Y8901879D01*
X3752410Y8898369D01*
X3773643Y8868044D01*
X3775939Y8864440D01*
X3793834Y8833447D01*
X3796590Y8828673D01*
X3826695Y8803412D01*
X3827775Y8802506D01*
X3830927Y8799618D01*
X4005919Y8624626D01*
X4008806Y8621475D01*
X4034974Y8590289D01*
X4038684Y8588147D01*
X4038685Y8588146D01*
X4070741Y8569638D01*
X4074345Y8567342D01*
X4075889Y8566261D01*
X4108180Y8543651D01*
X4112318Y8542542D01*
X4112321Y8542541D01*
X4116078Y8541535D01*
X4127900Y8536638D01*
X4134979Y8532551D01*
X4139198Y8531807D01*
X4139201Y8531806D01*
X4175660Y8525378D01*
X4179829Y8524453D01*
X4196505Y8519985D01*
X4215582Y8514873D01*
X4215584Y8514873D01*
X4219722Y8513764D01*
X4223987Y8514137D01*
X4223989Y8514137D01*
X4260284Y8517313D01*
X4264555Y8517499D01*
X4336770Y8517499D01*
X4371418Y8503147D01*
X4385767Y8467943D01*
X4385513Y8445508D01*
X4385349Y8431076D01*
X4424435Y8326256D01*
X4427435Y8322871D01*
X4495636Y8245919D01*
X4495639Y8245917D01*
X4498636Y8242535D01*
X4598001Y8191139D01*
X4602498Y8190647D01*
X4604881Y8189927D01*
X4633903Y8166174D01*
X4639716Y8142462D01*
X4639666Y8138068D01*
X4639201Y8096997D01*
X4639157Y8093160D01*
X4624413Y8058677D01*
X4594388Y8044899D01*
X4583334Y8043942D01*
X4558369Y8041780D01*
X4558367Y8041779D01*
X4553859Y8041389D01*
X4453353Y7992261D01*
X4377273Y7910245D01*
X4375598Y7906045D01*
X4375596Y7906043D01*
X4370170Y7892441D01*
X4344001Y7865577D01*
X4311029Y7863531D01*
X4244143Y7882900D01*
X3975254Y7882900D01*
X3973039Y7882487D01*
X3973034Y7882487D01*
X3921710Y7872928D01*
X3892121Y7867417D01*
X3796889Y7808716D01*
X3729175Y7719667D01*
X3701600Y7624443D01*
X3701600Y7295554D01*
X3702013Y7293339D01*
X3702013Y7293334D01*
X3711203Y7243993D01*
X3717083Y7212421D01*
X3775784Y7117189D01*
X3833004Y7073678D01*
X3852949Y7058512D01*
X3864833Y7049475D01*
X3960057Y7021900D01*
X4228946Y7021900D01*
X4231161Y7022313D01*
X4231166Y7022313D01*
X4282490Y7031872D01*
X4312079Y7037383D01*
X4407311Y7096084D01*
X4410052Y7099688D01*
X4413401Y7102725D01*
X4415023Y7100936D01*
X4440185Y7115614D01*
X4476454Y7106071D01*
X4495351Y7073678D01*
X4495800Y7067063D01*
X4495800Y6378454D01*
X4495422Y6372376D01*
X4476835Y6223684D01*
X4462861Y6195114D01*
X4180412Y5912665D01*
X4172986Y5906571D01*
X4155688Y5895012D01*
X4146926Y5881899D01*
X4141449Y5873702D01*
X4100722Y5812749D01*
X4097376Y5807742D01*
X4076900Y5704800D01*
X4077841Y5700069D01*
X4077841Y5700064D01*
X4080958Y5684394D01*
X4081900Y5674835D01*
X4081900Y5426767D01*
X4067548Y5392119D01*
X4058611Y5385055D01*
X4053407Y5381847D01*
X4010689Y5355516D01*
X3942975Y5266467D01*
X3915400Y5171243D01*
X3915400Y4902354D01*
X3915813Y4900139D01*
X3915813Y4900134D01*
X3925372Y4848810D01*
X3930883Y4819221D01*
X3989584Y4723989D01*
X4045310Y4681614D01*
X4072288Y4661100D01*
X4078633Y4656275D01*
X4173857Y4628700D01*
X4502746Y4628700D01*
X4504961Y4629113D01*
X4504966Y4629113D01*
X4556290Y4638672D01*
X4585879Y4644183D01*
X4681111Y4702884D01*
X4685608Y4708798D01*
X4718004Y4727691D01*
X4754271Y4718143D01*
X4829639Y4660833D01*
X4835633Y4656275D01*
X4930857Y4628700D01*
X5259746Y4628700D01*
X5261961Y4629113D01*
X5261966Y4629113D01*
X5313290Y4638672D01*
X5342879Y4644183D01*
X5438111Y4702884D01*
X5505825Y4791933D01*
X5533400Y4887157D01*
X5533400Y5156046D01*
X5530932Y5169302D01*
X5518745Y5234732D01*
X5517917Y5239179D01*
X5459216Y5334411D01*
X5376186Y5397548D01*
X5373768Y5399387D01*
X5373767Y5399387D01*
X5370167Y5402125D01*
X5274943Y5429700D01*
X5271483Y5429700D01*
X5268059Y5430186D01*
X5268113Y5430566D01*
X5260591Y5431634D01*
X5249512Y5434842D01*
X5245006Y5434452D01*
X5245004Y5434452D01*
X5192256Y5429883D01*
X5188028Y5429700D01*
X4946054Y5429700D01*
X4943839Y5429287D01*
X4943834Y5429287D01*
X4901644Y5421429D01*
X4862921Y5414217D01*
X4767689Y5355516D01*
X4764733Y5351628D01*
X4763192Y5349602D01*
X4730796Y5330709D01*
X4694529Y5340257D01*
X4634202Y5386130D01*
X4629241Y5389902D01*
X4610348Y5422298D01*
X4609900Y5428906D01*
X4609900Y5575151D01*
X4624252Y5609799D01*
X4770568Y5756115D01*
X4805216Y5770467D01*
X4827728Y5764989D01*
X4847780Y5754617D01*
X4847784Y5754616D01*
X4851801Y5752538D01*
X4963006Y5740359D01*
X5071140Y5769030D01*
X5080361Y5775717D01*
X5087811Y5781119D01*
X5124285Y5789842D01*
X5139089Y5784975D01*
X5170197Y5768885D01*
X5201801Y5752538D01*
X5313006Y5740359D01*
X5421140Y5769030D01*
X5430361Y5775717D01*
X5437811Y5781119D01*
X5474285Y5789842D01*
X5489089Y5784975D01*
X5520197Y5768885D01*
X5551801Y5752538D01*
X5663006Y5740359D01*
X5771140Y5769030D01*
X5780361Y5775717D01*
X5787811Y5781119D01*
X5824285Y5789842D01*
X5839089Y5784975D01*
X5870197Y5768885D01*
X5901801Y5752538D01*
X6013006Y5740359D01*
X6045758Y5749043D01*
X6082927Y5744051D01*
X6094985Y5734182D01*
X6096635Y5732320D01*
X6096638Y5732318D01*
X6099636Y5728935D01*
X6199001Y5677539D01*
X6246195Y5672371D01*
X6279074Y5654333D01*
X6289860Y5623662D01*
X6289860Y5319354D01*
X6290273Y5317139D01*
X6290273Y5317134D01*
X6299710Y5266467D01*
X6305343Y5236221D01*
X6338314Y5182731D01*
X6344277Y5145706D01*
X6335605Y5127362D01*
X6317435Y5103467D01*
X6289860Y5008243D01*
X6289860Y4679354D01*
X6290273Y4677139D01*
X6290273Y4677134D01*
X6299115Y4629663D01*
X6305343Y4596221D01*
X6364044Y4500989D01*
X6367646Y4498250D01*
X6370659Y4494927D01*
X6383360Y4462013D01*
X6383360Y4191933D01*
X6382957Y4186451D01*
X6381707Y4182810D01*
X6382890Y4151303D01*
X6383326Y4139684D01*
X6383360Y4137846D01*
X6383360Y4110385D01*
X6383773Y4108167D01*
X6383774Y4108157D01*
X6384035Y4106757D01*
X6384830Y4099623D01*
X6385993Y4068640D01*
X6387777Y4064487D01*
X6387778Y4064484D01*
X6392915Y4052528D01*
X6396066Y4042158D01*
X6397380Y4035106D01*
X6399278Y4024913D01*
X6399547Y4024476D01*
X6401341Y3997995D01*
X6396903Y3979292D01*
X6392556Y3960976D01*
X6394874Y3943946D01*
X6405355Y3866935D01*
X6407642Y3850128D01*
X6411508Y3843111D01*
X6453796Y3766348D01*
X6455477Y3763296D01*
X6645610Y3573163D01*
X6715342Y3525327D01*
X6719742Y3524283D01*
X6719744Y3524282D01*
X6819785Y3500541D01*
X6819786Y3500541D01*
X6824189Y3499496D01*
X6899339Y3509724D01*
X6917261Y3508848D01*
X6927413Y3506439D01*
X6934098Y3504853D01*
X6940931Y3502692D01*
X6969731Y3491202D01*
X6976216Y3490566D01*
X6978153Y3490376D01*
X6978157Y3490376D01*
X6979338Y3490260D01*
X6989854Y3490260D01*
X7001168Y3488936D01*
X7008172Y3487274D01*
X7015091Y3485632D01*
X7045804Y3489812D01*
X7052412Y3490260D01*
X7074289Y3490260D01*
X7103947Y3480264D01*
X7177513Y3424324D01*
X7272737Y3396749D01*
X7601626Y3396749D01*
X7603841Y3397162D01*
X7603846Y3397162D01*
X7662487Y3408084D01*
X7684759Y3412232D01*
X7738249Y3445203D01*
X7775274Y3451166D01*
X7793619Y3442494D01*
X7817513Y3424324D01*
X7912737Y3396749D01*
X8241626Y3396749D01*
X8243841Y3397162D01*
X8243846Y3397162D01*
X8302487Y3408084D01*
X8324759Y3412232D01*
X8348818Y3427062D01*
X8416137Y3468557D01*
X8416138Y3468558D01*
X8419991Y3470933D01*
X8422729Y3474534D01*
X8426069Y3477562D01*
X8458981Y3490260D01*
X9822639Y3490260D01*
X9831582Y3489188D01*
X9832699Y3488742D01*
X9839184Y3488106D01*
X9841121Y3487916D01*
X9841125Y3487916D01*
X9842306Y3487800D01*
X9852822Y3487800D01*
X9864136Y3486476D01*
X9867693Y3485632D01*
X9878059Y3483172D01*
X9908772Y3487352D01*
X9915380Y3487800D01*
X10768199Y3487800D01*
X10773681Y3487397D01*
X10777322Y3486147D01*
X10820449Y3487766D01*
X10822286Y3487800D01*
X10849747Y3487800D01*
X10851965Y3488213D01*
X10851975Y3488214D01*
X10853375Y3488475D01*
X10860509Y3489270D01*
X10863250Y3489373D01*
X10886974Y3490263D01*
X10886976Y3490263D01*
X10891492Y3490433D01*
X10895645Y3492217D01*
X10895648Y3492218D01*
X10907604Y3497355D01*
X10917974Y3500506D01*
X10930774Y3502890D01*
X10930775Y3502890D01*
X10935219Y3503718D01*
X10939066Y3506090D01*
X10939070Y3506091D01*
X10957217Y3517278D01*
X10961615Y3519989D01*
X10967981Y3523296D01*
X10974466Y3526082D01*
X10993286Y3534167D01*
X10993290Y3534169D01*
X10996464Y3535533D01*
X11003924Y3541660D01*
X11011361Y3549097D01*
X11020297Y3556161D01*
X11021813Y3557095D01*
X11032477Y3563669D01*
X11051242Y3588346D01*
X11055598Y3593334D01*
X11265399Y3803136D01*
X11300047Y3817488D01*
X11329706Y3807492D01*
X11405030Y3750215D01*
X11408633Y3747475D01*
X11503857Y3719900D01*
X11772746Y3719900D01*
X11774961Y3720313D01*
X11774966Y3720313D01*
X11826290Y3729872D01*
X11855879Y3735383D01*
X11893806Y3758761D01*
X11933146Y3764115D01*
X12017457Y3739700D01*
X12346346Y3739700D01*
X12348561Y3740113D01*
X12348566Y3740113D01*
X12399890Y3749672D01*
X12429479Y3755183D01*
X12482969Y3788154D01*
X12519994Y3794117D01*
X12538338Y3785445D01*
X12555691Y3772250D01*
X12562233Y3767275D01*
X12657457Y3739700D01*
X12986346Y3739700D01*
X12988561Y3740113D01*
X12988566Y3740113D01*
X13065034Y3754355D01*
X13065035Y3754355D01*
X13069479Y3755183D01*
X13073329Y3757556D01*
X13077550Y3759185D01*
X13078129Y3757686D01*
X13108944Y3762646D01*
X13127284Y3753975D01*
X13132229Y3750215D01*
X13132231Y3750214D01*
X13135833Y3747475D01*
X13140179Y3746216D01*
X13140180Y3746216D01*
X13159357Y3740663D01*
X13231057Y3719900D01*
X13499946Y3719900D01*
X13502161Y3720313D01*
X13502166Y3720313D01*
X13553490Y3729872D01*
X13583079Y3735383D01*
X13624393Y3760849D01*
X13674460Y3791710D01*
X13674461Y3791711D01*
X13678311Y3794084D01*
X13681048Y3797683D01*
X13681050Y3797685D01*
X13701105Y3824059D01*
X13733501Y3842952D01*
X13735852Y3843111D01*
X13735844Y3843193D01*
X13738088Y3843400D01*
X13740347Y3843400D01*
X13742565Y3843813D01*
X13742575Y3843814D01*
X13743975Y3844075D01*
X13751109Y3844870D01*
X13753850Y3844973D01*
X13777574Y3845863D01*
X13777576Y3845863D01*
X13782092Y3846033D01*
X13786245Y3847817D01*
X13786248Y3847818D01*
X13798204Y3852955D01*
X13808574Y3856106D01*
X13821374Y3858490D01*
X13821375Y3858490D01*
X13825819Y3859318D01*
X13829666Y3861690D01*
X13829670Y3861691D01*
X13845772Y3871617D01*
X13852215Y3875589D01*
X13858581Y3878896D01*
X13867431Y3882698D01*
X13883886Y3889767D01*
X13883890Y3889769D01*
X13887064Y3891133D01*
X13894524Y3897260D01*
X13901961Y3904697D01*
X13910897Y3911761D01*
X13912960Y3913033D01*
X13923077Y3919269D01*
X13941842Y3943946D01*
X13946198Y3948934D01*
X14092502Y4095239D01*
X14096661Y4098830D01*
X14100122Y4100521D01*
X14103591Y4104260D01*
X14129478Y4132167D01*
X14130754Y4133491D01*
X14150165Y4152902D01*
X14152252Y4155945D01*
X14156735Y4161551D01*
X14162195Y4167436D01*
X14172264Y4178291D01*
X14174745Y4180965D01*
X14177822Y4184282D01*
X14184322Y4200574D01*
X14189427Y4210134D01*
X14196788Y4220865D01*
X14199347Y4224595D01*
X14206505Y4254758D01*
X14208669Y4261601D01*
X14218878Y4287189D01*
X14218879Y4287193D01*
X14220158Y4290399D01*
X14221100Y4300006D01*
X14221100Y4310526D01*
X14222424Y4321840D01*
X14224682Y4331355D01*
X14224682Y4331356D01*
X14225727Y4335759D01*
X14221548Y4366467D01*
X14221100Y4373074D01*
X14221100Y5040507D01*
X14235452Y5075155D01*
X14260541Y5088565D01*
X14313007Y5099001D01*
X14313009Y5099002D01*
X14317741Y5099943D01*
X14384410Y5144490D01*
X14428957Y5211159D01*
X14430244Y5217625D01*
X14440494Y5269159D01*
X14461329Y5300342D01*
X14488552Y5308600D01*
X15238887Y5308600D01*
X15273535Y5294248D01*
X15287887Y5259600D01*
X15287718Y5255534D01*
X15282400Y5191711D01*
X15282339Y5191272D01*
X15282184Y5190775D01*
X15282074Y5189352D01*
X15282074Y5189348D01*
X15280541Y5169419D01*
X15280516Y5169110D01*
X15279297Y5154476D01*
X15278771Y5148166D01*
X15278843Y5147657D01*
X15278833Y5147212D01*
X15270535Y5039337D01*
X15263341Y4953000D01*
X15262427Y4942036D01*
X15262426Y4942034D01*
X15252427Y4822036D01*
X15252426Y4822034D01*
X15242427Y4702036D01*
X15242033Y4702069D01*
X15242033Y4702067D01*
X15242426Y4702034D01*
X15235547Y4619473D01*
X15233288Y4592368D01*
X15232427Y4582037D01*
X15232425Y4582028D01*
X15221592Y4452025D01*
X15220971Y4447329D01*
X15214040Y4409205D01*
X15205823Y4364013D01*
X15204290Y4357872D01*
X15202426Y4352034D01*
X15202196Y4349272D01*
X15201591Y4342015D01*
X15200972Y4337334D01*
X15199205Y4327612D01*
X15199327Y4324868D01*
X15199327Y4324866D01*
X15199479Y4321459D01*
X15199358Y4315214D01*
X15198190Y4301195D01*
X15190674Y4211005D01*
X15190644Y4210662D01*
X15183463Y4131658D01*
X15182053Y4116152D01*
X15181728Y4112579D01*
X15181139Y4108250D01*
X15166214Y4026161D01*
X15164428Y4019248D01*
X15163092Y4015292D01*
X15162816Y4012529D01*
X15161887Y4003239D01*
X15161340Y3999354D01*
X15159205Y3987612D01*
X15159327Y3984867D01*
X15159392Y3983395D01*
X15159197Y3976348D01*
X15157660Y3960976D01*
X15152033Y3904697D01*
X15151888Y3903250D01*
X15151342Y3899371D01*
X15141129Y3843193D01*
X15136214Y3816160D01*
X15134428Y3809248D01*
X15133092Y3805292D01*
X15131887Y3793239D01*
X15131340Y3789354D01*
X15129205Y3777612D01*
X15129327Y3774867D01*
X15129392Y3773395D01*
X15129197Y3766348D01*
X15122104Y3695414D01*
X15121397Y3690687D01*
X15108118Y3624295D01*
X15087257Y3519987D01*
X15086715Y3517278D01*
X15085092Y3511213D01*
X15083092Y3505292D01*
X15082817Y3502536D01*
X15082816Y3502534D01*
X15082105Y3495420D01*
X15081396Y3490686D01*
X15080025Y3483832D01*
X15079485Y3481130D01*
X15079654Y3474848D01*
X15079429Y3468667D01*
X15078847Y3462840D01*
X15072368Y3398056D01*
X15071444Y3392303D01*
X15059280Y3337565D01*
X15058810Y3335830D01*
X15058118Y3334295D01*
X15057573Y3331570D01*
X15054299Y3315201D01*
X15054084Y3314182D01*
X15049908Y3295389D01*
X15049918Y3293711D01*
X15049645Y3291930D01*
X15034943Y3218417D01*
X15034438Y3216175D01*
X15021017Y3162490D01*
X15020344Y3160220D01*
X15019457Y3158360D01*
X15018856Y3155656D01*
X15018855Y3155653D01*
X15015378Y3140005D01*
X15015082Y3138751D01*
X15010555Y3120643D01*
X15010513Y3118588D01*
X15010092Y3116219D01*
X15004944Y3093049D01*
X15001641Y3078187D01*
X14997607Y3060035D01*
X14996024Y3054481D01*
X14993564Y3047452D01*
X14992733Y3039972D01*
X14992609Y3038859D01*
X14991744Y3033649D01*
X14989908Y3025389D01*
X14989923Y3022643D01*
X14989923Y3022639D01*
X14989950Y3017925D01*
X14989651Y3012238D01*
X14982973Y2952136D01*
X14981810Y2945663D01*
X14946877Y2805931D01*
X14946455Y2804354D01*
X14942782Y2791496D01*
X14942051Y2788939D01*
X14918733Y2759567D01*
X14894936Y2753400D01*
X14256561Y2753400D01*
X14221913Y2767752D01*
X14208790Y2791496D01*
X14195693Y2848878D01*
X14187349Y2885435D01*
X14186916Y2886334D01*
X14186658Y2887474D01*
X14185452Y2889979D01*
X14090727Y3086678D01*
X14090724Y3086683D01*
X14089584Y3089050D01*
X14088963Y3089829D01*
X14088457Y3090884D01*
X14086733Y3093046D01*
X14086731Y3093049D01*
X13950608Y3263742D01*
X13948962Y3265806D01*
X13948183Y3266427D01*
X13947456Y3267342D01*
X13945293Y3269067D01*
X13945291Y3269069D01*
X13774607Y3405186D01*
X13774605Y3405187D01*
X13772535Y3406838D01*
X13771634Y3407272D01*
X13770723Y3408001D01*
X13768224Y3409204D01*
X13768220Y3409207D01*
X13644761Y3468661D01*
X13569147Y3505075D01*
X13568176Y3505297D01*
X13567123Y3505806D01*
X13564427Y3506421D01*
X13564425Y3506422D01*
X13351571Y3555005D01*
X13348999Y3555592D01*
X13348001Y3555592D01*
X13346862Y3555854D01*
X13123130Y3555854D01*
X13122157Y3555632D01*
X13120989Y3555634D01*
X13118286Y3555017D01*
X13118285Y3555017D01*
X12905449Y3506439D01*
X12905447Y3506438D01*
X12902865Y3505849D01*
X12901966Y3505416D01*
X12900826Y3505158D01*
X12898324Y3503953D01*
X12898321Y3503952D01*
X12701622Y3409227D01*
X12701617Y3409224D01*
X12699250Y3408084D01*
X12698471Y3407463D01*
X12697416Y3406957D01*
X12695254Y3405233D01*
X12695251Y3405231D01*
X12554898Y3293303D01*
X12522494Y3267462D01*
X12521873Y3266683D01*
X12520958Y3265956D01*
X12519233Y3263793D01*
X12519231Y3263791D01*
X12386502Y3097355D01*
X12381462Y3091035D01*
X12381028Y3090134D01*
X12380299Y3089223D01*
X12379096Y3086724D01*
X12379093Y3086720D01*
X12330503Y2985820D01*
X12283225Y2887647D01*
X12283003Y2886676D01*
X12282494Y2885623D01*
X12281879Y2882927D01*
X12281878Y2882925D01*
X12258270Y2779495D01*
X12236568Y2748909D01*
X12213199Y2741473D01*
X12187835Y2740074D01*
X12185136Y2740000D01*
X12170081Y2740000D01*
X12169760Y2739927D01*
X12169034Y2739886D01*
X12146583Y2739906D01*
X12132617Y2733200D01*
X12130647Y2732254D01*
X12120335Y2728653D01*
X12116750Y2727835D01*
X12103100Y2724721D01*
X12098787Y2721284D01*
X12098785Y2721283D01*
X12089449Y2713843D01*
X12080122Y2707992D01*
X12064384Y2700435D01*
X12053340Y2686625D01*
X12045617Y2678915D01*
X12031788Y2667895D01*
X12029390Y2662923D01*
X12024204Y2652171D01*
X12018338Y2642856D01*
X12007435Y2629222D01*
X12006199Y2623847D01*
X12006197Y2623843D01*
X12003472Y2611993D01*
X11999854Y2601689D01*
X11995557Y2592778D01*
X11994811Y2591232D01*
X11971888Y2568348D01*
X11938397Y2552266D01*
X11917098Y2547439D01*
X11429441Y2548364D01*
X11403999Y2548412D01*
X11376235Y2557102D01*
X11360392Y2568052D01*
X11258146Y2600388D01*
X11233919Y2608050D01*
X11233917Y2608050D01*
X11231256Y2608892D01*
X11223531Y2609500D01*
X11126742Y2609500D01*
X11079523Y2602401D01*
X11029688Y2594909D01*
X11029686Y2594908D01*
X11026065Y2594364D01*
X10948470Y2557103D01*
X10942337Y2554158D01*
X10921033Y2549329D01*
X10851985Y2549460D01*
X10405648Y2550308D01*
X10371027Y2564726D01*
X10359906Y2584917D01*
X10359906Y2585417D01*
X10352254Y2601354D01*
X10348653Y2611665D01*
X10347369Y2617291D01*
X10344721Y2628900D01*
X10341284Y2633213D01*
X10341283Y2633215D01*
X10333843Y2642551D01*
X10327992Y2651878D01*
X10322823Y2662643D01*
X10320435Y2667616D01*
X10306625Y2678660D01*
X10298915Y2686383D01*
X10287895Y2700212D01*
X10272170Y2707797D01*
X10262856Y2713662D01*
X10253531Y2721119D01*
X10249222Y2724565D01*
X10243847Y2725801D01*
X10243843Y2725803D01*
X10231993Y2728528D01*
X10221688Y2732146D01*
X10219503Y2733200D01*
X10205766Y2739826D01*
X10200250Y2739831D01*
X10200249Y2739831D01*
X10194921Y2739835D01*
X10183411Y2739845D01*
X10182561Y2739894D01*
X10182101Y2740000D01*
X6836081Y2740000D01*
X6835760Y2739927D01*
X6835034Y2739886D01*
X6812583Y2739906D01*
X6798617Y2733200D01*
X6796647Y2732254D01*
X6786335Y2728653D01*
X6782750Y2727835D01*
X6769100Y2724721D01*
X6764787Y2721284D01*
X6764785Y2721283D01*
X6755449Y2713843D01*
X6746122Y2707992D01*
X6730384Y2700435D01*
X6719340Y2686625D01*
X6711617Y2678915D01*
X6697788Y2667895D01*
X6695390Y2662923D01*
X6690204Y2652171D01*
X6684338Y2642856D01*
X6673435Y2629222D01*
X6672199Y2623847D01*
X6670321Y2615680D01*
X6648569Y2585130D01*
X6611585Y2578908D01*
X6607797Y2579942D01*
X6543146Y2600388D01*
X6518919Y2608050D01*
X6518917Y2608050D01*
X6516256Y2608892D01*
X6508531Y2609500D01*
X6411742Y2609500D01*
X6364523Y2602401D01*
X6314688Y2594909D01*
X6314686Y2594908D01*
X6311065Y2594364D01*
X6248576Y2564357D01*
X6245896Y2563070D01*
X6224592Y2558241D01*
X5673264Y2559287D01*
X5652423Y2565842D01*
X5651695Y2564357D01*
X5648408Y2565967D01*
X5645392Y2568052D01*
X5641898Y2569157D01*
X5641896Y2569158D01*
X5591391Y2585130D01*
X5590499Y2585412D01*
X5561791Y2609543D01*
X5558555Y2646906D01*
X5582686Y2675614D01*
X5594961Y2680033D01*
X5657941Y2693592D01*
X5661522Y2694363D01*
X5780731Y2761124D01*
X5875040Y2859985D01*
X5883092Y2876100D01*
X5934474Y2978932D01*
X5934475Y2978934D01*
X5936110Y2982207D01*
X5952086Y3078187D01*
X5958228Y3115087D01*
X5958228Y3115092D01*
X5958543Y3116982D01*
X5958600Y3124200D01*
X5938287Y3259312D01*
X5935097Y3265956D01*
X5880730Y3379175D01*
X5880729Y3379177D01*
X5879144Y3382477D01*
X5876660Y3385165D01*
X5876658Y3385167D01*
X5788886Y3480118D01*
X5788884Y3480119D01*
X5786399Y3482808D01*
X5783234Y3484646D01*
X5783232Y3484648D01*
X5671418Y3549594D01*
X5671416Y3549595D01*
X5668253Y3551432D01*
X5664690Y3552258D01*
X5664687Y3552259D01*
X5582483Y3571313D01*
X5535152Y3582284D01*
X5398863Y3572634D01*
X5271437Y3523336D01*
X5269143Y3521527D01*
X5245281Y3515200D01*
X5235830Y3515200D01*
X5211219Y3521829D01*
X5163418Y3549594D01*
X5163416Y3549595D01*
X5160253Y3551432D01*
X5156690Y3552258D01*
X5156687Y3552259D01*
X5074483Y3571313D01*
X5027152Y3582284D01*
X4890863Y3572634D01*
X4763437Y3523336D01*
X4761143Y3521527D01*
X4737281Y3515200D01*
X4727830Y3515200D01*
X4703219Y3521829D01*
X4655418Y3549594D01*
X4655416Y3549595D01*
X4652253Y3551432D01*
X4648690Y3552258D01*
X4648687Y3552259D01*
X4566483Y3571313D01*
X4519152Y3582284D01*
X4382863Y3572634D01*
X4373935Y3569180D01*
X4336443Y3570065D01*
X4322054Y3580452D01*
X4321216Y3581811D01*
X4306062Y3593334D01*
X4235768Y3646787D01*
X4235767Y3646787D01*
X4232167Y3649525D01*
X4136943Y3677100D01*
X3808054Y3677100D01*
X3805839Y3676687D01*
X3805834Y3676687D01*
X3763859Y3668869D01*
X3724921Y3661617D01*
X3671431Y3628646D01*
X3634406Y3622683D01*
X3616062Y3631355D01*
X3592167Y3649525D01*
X3592777Y3650327D01*
X3574571Y3668869D01*
X3518530Y3785575D01*
X3518529Y3785577D01*
X3516944Y3788877D01*
X3514460Y3791565D01*
X3514458Y3791567D01*
X3426686Y3886518D01*
X3426684Y3886519D01*
X3424199Y3889208D01*
X3421034Y3891046D01*
X3421032Y3891048D01*
X3309218Y3955994D01*
X3309216Y3955995D01*
X3306053Y3957832D01*
X3302490Y3958658D01*
X3302487Y3958659D01*
X3214584Y3979034D01*
X3172952Y3988684D01*
X3036663Y3979034D01*
X2981860Y3957832D01*
X2912651Y3931057D01*
X2912650Y3931056D01*
X2909237Y3929736D01*
X2906362Y3927470D01*
X2906361Y3927469D01*
X2839235Y3874552D01*
X2803141Y3864373D01*
X2770419Y3882698D01*
X2759900Y3913033D01*
X2759900Y11402766D01*
X2761465Y11415052D01*
X2763522Y11422993D01*
X2763522Y11422995D01*
X2764217Y11425677D01*
X2764293Y11428448D01*
X2765790Y11483021D01*
X2766187Y11488043D01*
X2766293Y11488852D01*
X2767548Y11495168D01*
X2785011Y11560340D01*
X2789904Y11572154D01*
X2822057Y11627844D01*
X2829844Y11637992D01*
X2875309Y11683457D01*
X2885456Y11691243D01*
X2941145Y11723395D01*
X2952961Y11728289D01*
X3018131Y11745752D01*
X3024433Y11747005D01*
X3025240Y11747111D01*
X3030277Y11747510D01*
X3068710Y11748565D01*
X3087432Y11749078D01*
X3090091Y11749762D01*
X3090093Y11749762D01*
X3098204Y11751848D01*
X3110407Y11753392D01*
X4466919Y11753392D01*
X4467240Y11753465D01*
X4467966Y11753506D01*
X4490417Y11753486D01*
X4506354Y11761138D01*
X4516665Y11764739D01*
X4522135Y11765987D01*
X4533900Y11768671D01*
X4538213Y11772108D01*
X4538215Y11772109D01*
X4547551Y11779549D01*
X4556878Y11785400D01*
X4567643Y11790569D01*
X4572616Y11792957D01*
X4583660Y11806767D01*
X4591383Y11814477D01*
X4605212Y11825497D01*
X4612797Y11841222D01*
X4618662Y11850536D01*
X4626119Y11859861D01*
X4629565Y11864170D01*
X4630801Y11869545D01*
X4630803Y11869549D01*
X4633528Y11881399D01*
X4637146Y11891704D01*
X4637308Y11892039D01*
X4644826Y11907626D01*
X4644845Y11929981D01*
X4644894Y11930831D01*
X4645000Y11931291D01*
X4645000Y11939800D01*
X4659352Y11974448D01*
X4694000Y11988800D01*
X6609000Y11988800D01*
X6643648Y11974448D01*
G37*
G04 #@! TD.AperFunction*
G04 #@! TA.AperFunction,Conductor*
G36*
X4649336Y9635813D02*
G01*
X4696612Y9592112D01*
X4700995Y9588060D01*
X4704698Y9586423D01*
X4803754Y9542630D01*
X4803756Y9542629D01*
X4807012Y9541190D01*
X4855220Y9535100D01*
X4913609Y9535100D01*
X4948257Y9520748D01*
X4962609Y9486100D01*
X4962609Y9200999D01*
X4948257Y9166351D01*
X4913609Y9151999D01*
X4897653Y9151999D01*
X4880892Y9154955D01*
X4879934Y9155304D01*
X4876222Y9157447D01*
X4857626Y9160726D01*
X4792963Y9172128D01*
X4792959Y9172128D01*
X4790857Y9172499D01*
X4427800Y9172499D01*
X4393152Y9186851D01*
X4378800Y9221499D01*
X4378800Y9338630D01*
X4393152Y9373278D01*
X4404532Y9381753D01*
X4436591Y9399051D01*
X4436593Y9399052D01*
X4440156Y9400975D01*
X4518840Y9486095D01*
X4536155Y9525261D01*
X4564270Y9588854D01*
X4564271Y9588856D01*
X4565710Y9592112D01*
X4567461Y9605973D01*
X4586043Y9638549D01*
X4622217Y9648445D01*
X4649336Y9635813D01*
G37*
G04 #@! TD.AperFunction*
M02*
