G04 #@! TF.GenerationSoftware,KiCad,Pcbnew,(5.99.0-8645-g8b3dea7107)*
G04 #@! TF.CreationDate,2021-12-17T21:37:34-08:00*
G04 #@! TF.ProjectId,bomu,626f6d75-2e6b-4696-9361-645f70636258,rev?*
G04 #@! TF.SameCoordinates,PX7b80accPY896b3f8*
G04 #@! TF.FileFunction,Copper,L5,Inr*
G04 #@! TF.FilePolarity,Positive*
%FSLAX46Y46*%
G04 Gerber Fmt 4.6, Leading zero omitted, Abs format (unit mm)*
G04 Created by KiCad (PCBNEW (5.99.0-8645-g8b3dea7107)) date 2021-12-17 21:37:34*
%MOMM*%
%LPD*%
G01*
G04 APERTURE LIST*
G04 #@! TA.AperFunction,ViaPad*
%ADD10C,0.508000*%
G04 #@! TD*
G04 #@! TA.AperFunction,ViaPad*
%ADD11C,0.200000*%
G04 #@! TD*
G04 #@! TA.AperFunction,Conductor*
%ADD12C,0.127000*%
G04 #@! TD*
G04 #@! TA.AperFunction,Conductor*
%ADD13C,0.254000*%
G04 #@! TD*
G04 APERTURE END LIST*
D10*
X14389100Y10414000D03*
X7429500Y10668000D03*
D11*
X3568700Y5013960D03*
X5880100Y5039360D03*
X9258300Y8102600D03*
X10452100Y6629400D03*
X4711700Y9204960D03*
X6235700Y5537200D03*
X7207300Y5650000D03*
X7150100Y5257800D03*
X7346918Y4718018D03*
X7912100Y4267200D03*
X7150100Y4927600D03*
X8801100Y4267200D03*
X8445500Y4267200D03*
X9512300Y4267200D03*
X8166100Y4267200D03*
X9156700Y4267200D03*
X7556500Y4521200D03*
X9867900Y4267200D03*
X10223500Y4267200D03*
X10833100Y4673600D03*
X10502900Y4648200D03*
X11493500Y4673600D03*
X15151100Y4851400D03*
X15100300Y4495800D03*
X15049500Y4140200D03*
X14998700Y3784600D03*
X14947900Y3429000D03*
X14871700Y3073400D03*
X14668500Y2870200D03*
X14312900Y2870200D03*
X14185900Y3149600D03*
X13931900Y3429000D03*
X11823700Y4673600D03*
X12153900Y4673600D03*
X12484100Y4673600D03*
X12814300Y4673600D03*
X13144500Y4673600D03*
X13398500Y4673600D03*
X13398500Y5029200D03*
X13220700Y5207000D03*
X13195300Y3657600D03*
X13830300Y3733800D03*
X14058900Y3911600D03*
X14312900Y4267200D03*
X14389100Y4546600D03*
X14389100Y4876800D03*
X14490700Y5130800D03*
X14820900Y5130800D03*
X15151100Y5130800D03*
X12534900Y3403600D03*
X12941300Y3657600D03*
X13449300Y3657600D03*
X13677900Y3556000D03*
X12763500Y3530600D03*
X12331700Y3200400D03*
X12153900Y2870200D03*
X11823700Y2870200D03*
X11468100Y2870200D03*
X10960100Y2870200D03*
X10452100Y2870200D03*
X9944100Y2870200D03*
X9436100Y2870200D03*
X8928100Y2870200D03*
X8420100Y2870200D03*
X7912100Y2870200D03*
X7404100Y2870200D03*
X6896100Y2870200D03*
X6388100Y2870200D03*
X6134100Y2870200D03*
X6134100Y3124200D03*
X6134100Y3378200D03*
X5880100Y3632200D03*
X5626100Y3886200D03*
X5372100Y3886200D03*
X5118100Y3886200D03*
X4864100Y3886200D03*
X4610100Y3886200D03*
X4610100Y4140200D03*
X5880100Y5613400D03*
X4864100Y5613400D03*
X4610100Y4394200D03*
X4864100Y4394200D03*
X5118100Y4394200D03*
X5372100Y4394200D03*
X5626100Y4648200D03*
X7150100Y3124200D03*
X5372100Y4140200D03*
X4864100Y4140200D03*
X6896100Y3124200D03*
X6642100Y3124200D03*
X6388100Y3124200D03*
X5118100Y4140200D03*
X7404100Y3124200D03*
X7912100Y3124200D03*
X8420100Y3124200D03*
X8928100Y3124200D03*
X9436100Y3124200D03*
X9944100Y3124200D03*
X10452100Y3124200D03*
X10960100Y3124200D03*
X11468100Y3124200D03*
X11976100Y3124200D03*
X7658100Y3124200D03*
X8166100Y3124200D03*
X8674100Y3124200D03*
X9182100Y3124200D03*
X9690100Y3124200D03*
X10198100Y3124200D03*
X10706100Y3124200D03*
X11214100Y3124200D03*
X11722100Y3124200D03*
X14516100Y3124200D03*
X14516100Y3632200D03*
X14516100Y4140200D03*
X14516100Y3886200D03*
X14516100Y3378200D03*
X14516100Y4394200D03*
X14770100Y4394200D03*
X14770100Y4648200D03*
X14516100Y4648200D03*
X14770100Y4902200D03*
X15024100Y4648200D03*
X14770100Y4140200D03*
X14770100Y3886200D03*
X14770100Y3632200D03*
X14770100Y3378200D03*
X14262100Y3378200D03*
X14262100Y3632200D03*
X14262100Y3886200D03*
X14008100Y3632200D03*
X12103100Y3365500D03*
X5880100Y4648200D03*
X5880100Y5410200D03*
X12230100Y5207000D03*
X11722100Y5207000D03*
X11214100Y5207000D03*
X10960100Y5207000D03*
X11468100Y5207000D03*
X11976100Y5207000D03*
X12484100Y5207000D03*
X12738100Y5207000D03*
X12992100Y5207000D03*
X10960100Y5664200D03*
X10960100Y6172200D03*
X10960100Y6680200D03*
X10960100Y7188200D03*
X10960100Y7696200D03*
X10960100Y8204200D03*
X10960100Y8712200D03*
X10960100Y9220200D03*
X11214100Y9474200D03*
X11468100Y9474200D03*
X11976100Y9474200D03*
X12230100Y9474200D03*
X12484100Y9474200D03*
X12738100Y9474200D03*
X12992100Y9474200D03*
X13246100Y9474200D03*
X13500100Y9474200D03*
X10960100Y8966200D03*
X10960100Y8458200D03*
X10960100Y7950200D03*
X10960100Y7442200D03*
X10960100Y6934200D03*
X10960100Y6426200D03*
X10960100Y5918200D03*
X10960100Y5410200D03*
X10960100Y9474200D03*
X13754100Y9474200D03*
X14008100Y9474200D03*
X14262100Y9474200D03*
X14516100Y9474200D03*
X14770100Y9474200D03*
X15024100Y9474200D03*
X12992100Y4902200D03*
X12484100Y4902200D03*
X11976100Y4902200D03*
X11468100Y4902200D03*
X10960100Y4902200D03*
X10960100Y9982200D03*
X11468100Y9982200D03*
X11976100Y9982200D03*
X12484100Y9982200D03*
X12992100Y9982200D03*
X13500100Y9982200D03*
X14008100Y9982200D03*
X14516100Y9982200D03*
X15024100Y9982200D03*
X14770100Y9728200D03*
X14262100Y9728200D03*
X13754100Y9728200D03*
X12738100Y9728200D03*
X12230100Y9728200D03*
X11722100Y9728200D03*
X11722100Y9474200D03*
X11214100Y9728200D03*
X10706100Y9728200D03*
X10706100Y9220200D03*
X4356100Y4394200D03*
X3848100Y4394200D03*
X3340100Y4394200D03*
X2832100Y4394200D03*
X2832100Y4902200D03*
X2832100Y5410200D03*
X2832100Y5918200D03*
X2832100Y6426200D03*
X2832100Y6934200D03*
X2832100Y7442200D03*
X2832100Y7950200D03*
X2832100Y8458200D03*
X2832100Y8966200D03*
X2832100Y9474200D03*
X2832100Y9982200D03*
X2832100Y10490200D03*
X2832100Y10998200D03*
X2832100Y11506200D03*
X3340100Y11506200D03*
X3848100Y11506200D03*
X4356100Y11506200D03*
X4864100Y11506200D03*
X5372100Y11506200D03*
X5880100Y11506200D03*
X6388100Y11506200D03*
X6896100Y11506200D03*
X9867900Y4648200D03*
X10198100Y4648200D03*
X10452100Y5410200D03*
X10452100Y5156200D03*
X10452100Y4902200D03*
X10706100Y4902200D03*
X10706100Y5156200D03*
X10706100Y5410200D03*
X10706100Y5664200D03*
X10706100Y5918200D03*
X10706100Y6172200D03*
X10706100Y6426200D03*
X10706100Y6680200D03*
X10706100Y6934200D03*
X10706100Y7188200D03*
X10706100Y7442200D03*
X11214100Y4902200D03*
X11722100Y4902200D03*
X12230100Y4902200D03*
X12738100Y4902200D03*
X13246100Y4902200D03*
X9436100Y4648200D03*
X7404100Y5156200D03*
X7404100Y5410200D03*
X3568700Y8102600D03*
X4102100Y8102600D03*
X4610100Y10744200D03*
X5118100Y10744200D03*
X5626100Y10744200D03*
X6134100Y10744200D03*
X6642100Y10744200D03*
X10452100Y9982200D03*
X9944100Y9982200D03*
X8420100Y9982200D03*
X8420100Y9474200D03*
X8928100Y9474200D03*
X9436100Y9474200D03*
X9436100Y9982200D03*
X9690100Y9728200D03*
X10198100Y9728200D03*
X8166100Y9728200D03*
X8166100Y10236200D03*
X7658100Y10236200D03*
X7912100Y9982200D03*
X7658100Y9728200D03*
X7658100Y4267200D03*
X10579100Y4267200D03*
X11163300Y4597400D03*
X6235700Y5283200D03*
X6235700Y4902200D03*
X6972300Y3327400D03*
X7277100Y3327400D03*
X7531100Y3327400D03*
X7785100Y3327400D03*
X8039100Y3327400D03*
X8293100Y3327400D03*
X8547100Y3327400D03*
X8801100Y3327400D03*
X9055100Y3327400D03*
X9309100Y3327400D03*
X9817100Y3327400D03*
X10071100Y3327400D03*
X10325100Y3327400D03*
X10579100Y3327400D03*
X10833100Y3327400D03*
X11087100Y3327400D03*
X11341100Y3327400D03*
X11595100Y3327400D03*
X11849100Y3327400D03*
X12357100Y3543300D03*
X6235700Y4521200D03*
X6235700Y4140200D03*
X5626100Y4140200D03*
X5626100Y4394200D03*
X5880100Y4394200D03*
X5880100Y4140200D03*
X5880100Y3886200D03*
X6134100Y3886200D03*
X6108700Y4318000D03*
X6083300Y4749800D03*
X6083300Y5130800D03*
X5753100Y4851400D03*
X5753100Y5232400D03*
X5651500Y5511800D03*
X6134100Y3632200D03*
X6362700Y3632200D03*
X6388100Y3378200D03*
X6616700Y3378200D03*
X9588500Y3327400D03*
X13246100Y9728200D03*
X11595100Y3556000D03*
X8458200Y4559300D03*
X7632700Y4737100D03*
X11290300Y3581400D03*
X8953500Y4572000D03*
X7721600Y8153400D03*
X7950200Y4584700D03*
X11899900Y3581400D03*
X8826500Y9931400D03*
X8572500Y8915400D03*
X6307300Y6350000D03*
X5219700Y5130800D03*
D10*
X4965700Y10058400D03*
X3136900Y3530600D03*
X14795500Y11531600D03*
D11*
X6870700Y9931400D03*
X4127500Y7366000D03*
X6159500Y9931400D03*
X7797300Y8560000D03*
X9207500Y5207000D03*
X4457700Y5029200D03*
X7747000Y6756400D03*
X8293100Y8500000D03*
X7423150Y6496050D03*
D10*
X5499100Y3124200D03*
X4991100Y3124200D03*
X4483100Y3124200D03*
X3975100Y3124200D03*
D11*
X5647300Y6450000D03*
X5317300Y6430000D03*
X4635500Y7747000D03*
D10*
X10299700Y11074400D03*
D11*
X7777300Y8900000D03*
D10*
X8801100Y11074400D03*
D11*
X7787300Y9270000D03*
X4686300Y8483600D03*
X5237300Y8440000D03*
D10*
X13843000Y10972800D03*
D11*
X7357300Y9300000D03*
X6997300Y9280000D03*
D10*
X12882880Y10929620D03*
D11*
X6287300Y5970000D03*
X6667300Y6420000D03*
D12*
X7696200Y8153400D02*
X7569200Y8026400D01*
D13*
X3568700Y4978400D02*
X4000500Y4546600D01*
X10452100Y6908800D02*
X9258300Y8102600D01*
X8839200Y7899400D02*
X9042400Y8102600D01*
X3517900Y8585200D02*
X4137660Y9204960D01*
X3568700Y5013960D02*
X3568700Y4978400D01*
D12*
X7721600Y8153400D02*
X7696200Y8153400D01*
D13*
X7531100Y8026400D02*
X6352540Y9204960D01*
D12*
X7721600Y8153400D02*
X7823200Y8153400D01*
D13*
X4137660Y9204960D02*
X4711700Y9204960D01*
X8077200Y7899400D02*
X8839200Y7899400D01*
X3558540Y5013960D02*
X3517900Y5054600D01*
X5387340Y4546600D02*
X5880100Y5039360D01*
X3517900Y5054600D02*
X3517900Y8585200D01*
X6352540Y9204960D02*
X4711700Y9204960D01*
D12*
X7823200Y8153400D02*
X8077200Y7899400D01*
D13*
X4000500Y4546600D02*
X5387340Y4546600D01*
X10452100Y6629400D02*
X10452100Y6908800D01*
X7569200Y8026400D02*
X7531100Y8026400D01*
X3568700Y5013960D02*
X3558540Y5013960D01*
X9042400Y8102600D02*
X9258300Y8102600D01*
G04 #@! TA.AperFunction,Conductor*
G36*
X6643759Y11961848D02*
G01*
X6658111Y11927158D01*
X6658094Y11907975D01*
X6660483Y11903000D01*
X6665746Y11892039D01*
X6669347Y11881727D01*
X6673279Y11864492D01*
X6676716Y11860179D01*
X6676717Y11860177D01*
X6684157Y11850841D01*
X6690008Y11841514D01*
X6697565Y11825776D01*
X6711375Y11814732D01*
X6719085Y11807009D01*
X6730105Y11793180D01*
X6735519Y11790569D01*
X6745829Y11785596D01*
X6755144Y11779730D01*
X6762987Y11773458D01*
X6768778Y11768827D01*
X6774153Y11767591D01*
X6774157Y11767589D01*
X6786007Y11764864D01*
X6796311Y11761246D01*
X6812234Y11753566D01*
X6817750Y11753561D01*
X6817751Y11753561D01*
X6823079Y11753557D01*
X6834589Y11753547D01*
X6835439Y11753498D01*
X6835899Y11753392D01*
X10435919Y11753392D01*
X10436240Y11753465D01*
X10436966Y11753506D01*
X10459417Y11753486D01*
X10475354Y11761138D01*
X10485665Y11764739D01*
X10491135Y11765987D01*
X10502900Y11768671D01*
X10507213Y11772108D01*
X10507215Y11772109D01*
X10516551Y11779549D01*
X10525878Y11785400D01*
X10536643Y11790569D01*
X10541616Y11792957D01*
X10552660Y11806767D01*
X10560383Y11814477D01*
X10574212Y11825497D01*
X10581797Y11841222D01*
X10587662Y11850536D01*
X10595119Y11859861D01*
X10598565Y11864170D01*
X10599801Y11869545D01*
X10599803Y11869549D01*
X10602528Y11881399D01*
X10606146Y11891704D01*
X10606308Y11892039D01*
X10613826Y11907626D01*
X10613843Y11927242D01*
X10628225Y11961878D01*
X10662843Y11976200D01*
X12705111Y11976200D01*
X12739759Y11961848D01*
X12754111Y11927158D01*
X12754094Y11907975D01*
X12756483Y11903000D01*
X12761746Y11892039D01*
X12765347Y11881727D01*
X12769279Y11864492D01*
X12772716Y11860179D01*
X12772717Y11860177D01*
X12780157Y11850841D01*
X12786008Y11841514D01*
X12793565Y11825776D01*
X12807375Y11814732D01*
X12815085Y11807009D01*
X12826105Y11793180D01*
X12831519Y11790569D01*
X12841829Y11785596D01*
X12851144Y11779730D01*
X12858987Y11773458D01*
X12864778Y11768827D01*
X12870153Y11767591D01*
X12870157Y11767589D01*
X12882007Y11764864D01*
X12892311Y11761246D01*
X12908234Y11753566D01*
X12913750Y11753561D01*
X12913751Y11753561D01*
X12919079Y11753557D01*
X12930589Y11753547D01*
X12931439Y11753498D01*
X12931899Y11753392D01*
X14322179Y11753392D01*
X14356827Y11739040D01*
X14371179Y11704392D01*
X14368898Y11689617D01*
X14341657Y11603482D01*
X14340584Y11466856D01*
X14379732Y11335954D01*
X14381766Y11332909D01*
X14381767Y11332908D01*
X14443074Y11241157D01*
X14455640Y11222351D01*
X14458481Y11220038D01*
X14510157Y11177967D01*
X14561595Y11136089D01*
X14688232Y11084796D01*
X14691880Y11084480D01*
X14820703Y11073323D01*
X14824352Y11073007D01*
X14957922Y11101763D01*
X14961118Y11103553D01*
X14961121Y11103554D01*
X15001703Y11126281D01*
X15038946Y11130689D01*
X15068397Y11107471D01*
X15074402Y11088405D01*
X15076770Y11064732D01*
X15079406Y11038370D01*
X15079629Y11032093D01*
X15079450Y11025849D01*
X15079993Y11023135D01*
X15081395Y11016126D01*
X15082104Y11011392D01*
X15083074Y11001689D01*
X15085073Y10995735D01*
X15086667Y10989760D01*
X15090059Y10972800D01*
X15108082Y10882684D01*
X15108083Y10882681D01*
X15117736Y10834420D01*
X15119940Y10823399D01*
X15121395Y10816122D01*
X15122104Y10811387D01*
X15129174Y10740682D01*
X15129365Y10733547D01*
X15129172Y10729367D01*
X15129667Y10726642D01*
X15129668Y10726633D01*
X15131340Y10717440D01*
X15131887Y10713555D01*
X15133074Y10701689D01*
X15133949Y10699082D01*
X15133951Y10699075D01*
X15134413Y10697700D01*
X15136173Y10690866D01*
X15150926Y10609724D01*
X15151339Y10607451D01*
X15151886Y10603562D01*
X15159174Y10530682D01*
X15159365Y10523547D01*
X15159172Y10519367D01*
X15159667Y10516642D01*
X15159668Y10516633D01*
X15161340Y10507440D01*
X15161887Y10503555D01*
X15163074Y10491689D01*
X15163949Y10489082D01*
X15163951Y10489075D01*
X15164413Y10487700D01*
X15166173Y10480866D01*
X15167874Y10471509D01*
X15181138Y10398557D01*
X15181727Y10394228D01*
X15190630Y10296293D01*
X15190662Y10295927D01*
X15199338Y10191825D01*
X15199455Y10185493D01*
X15199172Y10179367D01*
X15200971Y10169472D01*
X15201591Y10164787D01*
X15202411Y10154948D01*
X15204275Y10149076D01*
X15205779Y10143027D01*
X15208763Y10126615D01*
X15220970Y10059480D01*
X15221591Y10054783D01*
X15228755Y9968817D01*
X15228755Y9968816D01*
X15238755Y9848817D01*
X15238755Y9848816D01*
X15248755Y9728817D01*
X15248755Y9728816D01*
X15258755Y9608817D01*
X15258755Y9608816D01*
X15270525Y9467578D01*
X15270550Y9467267D01*
X15278819Y9359767D01*
X15278829Y9359328D01*
X15278755Y9358816D01*
X15278874Y9357389D01*
X15278874Y9357387D01*
X15280527Y9337554D01*
X15280552Y9337242D01*
X15282170Y9316206D01*
X15282329Y9315694D01*
X15282378Y9315340D01*
X15282415Y9314904D01*
X15271044Y9279167D01*
X15237733Y9261936D01*
X15233684Y9261761D01*
X11107246Y9253886D01*
X11107245Y9253886D01*
X11097500Y9253867D01*
X11097500Y5296000D01*
X15237837Y5296000D01*
X15272485Y5281648D01*
X15286837Y5247000D01*
X15286668Y5242934D01*
X15282400Y5191711D01*
X15282339Y5191272D01*
X15282184Y5190775D01*
X15282074Y5189352D01*
X15282074Y5189348D01*
X15280541Y5169419D01*
X15280516Y5169110D01*
X15278944Y5150239D01*
X15278771Y5148166D01*
X15278843Y5147657D01*
X15278833Y5147212D01*
X15270535Y5039337D01*
X15262427Y4942037D01*
X15262425Y4942028D01*
X15260411Y4917852D01*
X15252483Y4822704D01*
X15252427Y4822036D01*
X15252426Y4822034D01*
X15249428Y4786058D01*
X15244401Y4725720D01*
X15242427Y4702036D01*
X15242426Y4702034D01*
X15236636Y4632547D01*
X15235824Y4622800D01*
X15232427Y4582037D01*
X15232425Y4582028D01*
X15221592Y4452025D01*
X15220971Y4447329D01*
X15205823Y4364013D01*
X15204290Y4357872D01*
X15202426Y4352034D01*
X15202196Y4349272D01*
X15201591Y4342015D01*
X15200972Y4337334D01*
X15199205Y4327612D01*
X15199327Y4324868D01*
X15199327Y4324866D01*
X15199479Y4321458D01*
X15199358Y4315214D01*
X15198778Y4308253D01*
X15190675Y4211017D01*
X15190643Y4210650D01*
X15181728Y4112579D01*
X15181139Y4108250D01*
X15166214Y4026161D01*
X15164428Y4019248D01*
X15163092Y4015292D01*
X15162816Y4012529D01*
X15161887Y4003239D01*
X15161340Y3999354D01*
X15159205Y3987612D01*
X15159327Y3984867D01*
X15159392Y3983395D01*
X15159197Y3976348D01*
X15151888Y3903250D01*
X15151342Y3899371D01*
X15139004Y3831508D01*
X15136214Y3816160D01*
X15134428Y3809248D01*
X15133092Y3805292D01*
X15132816Y3802529D01*
X15131887Y3793239D01*
X15131340Y3789354D01*
X15129205Y3777612D01*
X15129327Y3774867D01*
X15129392Y3773395D01*
X15129197Y3766348D01*
X15122104Y3695414D01*
X15121397Y3690687D01*
X15108118Y3624295D01*
X15087475Y3521079D01*
X15086715Y3517278D01*
X15085092Y3511213D01*
X15083092Y3505292D01*
X15082817Y3502536D01*
X15082816Y3502534D01*
X15082105Y3495420D01*
X15081396Y3490686D01*
X15080025Y3483832D01*
X15079485Y3481130D01*
X15079654Y3474848D01*
X15079429Y3468661D01*
X15072368Y3398056D01*
X15071444Y3392303D01*
X15059280Y3337565D01*
X15058810Y3335830D01*
X15058118Y3334295D01*
X15057573Y3331570D01*
X15054299Y3315201D01*
X15054084Y3314182D01*
X15049908Y3295389D01*
X15049918Y3293711D01*
X15049645Y3291930D01*
X15034944Y3218422D01*
X15034439Y3216180D01*
X15021017Y3162492D01*
X15020343Y3160219D01*
X15019457Y3158360D01*
X15018855Y3155650D01*
X15015378Y3140005D01*
X15015082Y3138751D01*
X15010555Y3120643D01*
X15010513Y3118588D01*
X15010092Y3116219D01*
X15007056Y3102553D01*
X15002842Y3083593D01*
X15001641Y3078187D01*
X14997607Y3060035D01*
X14996024Y3054481D01*
X14993564Y3047452D01*
X14992733Y3039972D01*
X14992609Y3038859D01*
X14991744Y3033649D01*
X14989908Y3025389D01*
X14989923Y3022643D01*
X14989923Y3022639D01*
X14989950Y3017925D01*
X14989651Y3012238D01*
X14982973Y2952136D01*
X14981810Y2945663D01*
X14946877Y2805931D01*
X14946455Y2804354D01*
X14942782Y2791496D01*
X14942051Y2788939D01*
X14918733Y2759567D01*
X14894936Y2753400D01*
X14256561Y2753400D01*
X14221913Y2767752D01*
X14208790Y2791496D01*
X14195693Y2848878D01*
X14187349Y2885435D01*
X14186916Y2886334D01*
X14186658Y2887474D01*
X14185452Y2889979D01*
X14090727Y3086678D01*
X14090724Y3086683D01*
X14089584Y3089050D01*
X14088963Y3089829D01*
X14088457Y3090884D01*
X14086733Y3093046D01*
X14086731Y3093049D01*
X13950608Y3263742D01*
X13948962Y3265806D01*
X13948183Y3266427D01*
X13947456Y3267342D01*
X13945293Y3269067D01*
X13945291Y3269069D01*
X13774607Y3405186D01*
X13774605Y3405187D01*
X13772535Y3406838D01*
X13771634Y3407272D01*
X13770723Y3408001D01*
X13768224Y3409204D01*
X13768220Y3409207D01*
X13631897Y3474856D01*
X13569147Y3505075D01*
X13568176Y3505297D01*
X13567123Y3505806D01*
X13564427Y3506421D01*
X13564425Y3506422D01*
X13351571Y3555005D01*
X13348999Y3555592D01*
X13348001Y3555592D01*
X13346862Y3555854D01*
X13123130Y3555854D01*
X13122157Y3555632D01*
X13120989Y3555634D01*
X13118286Y3555017D01*
X13118285Y3555017D01*
X12905449Y3506439D01*
X12905447Y3506438D01*
X12902865Y3505849D01*
X12901966Y3505416D01*
X12900826Y3505158D01*
X12898324Y3503953D01*
X12898321Y3503952D01*
X12701622Y3409227D01*
X12701617Y3409224D01*
X12699250Y3408084D01*
X12698471Y3407463D01*
X12697416Y3406957D01*
X12695254Y3405233D01*
X12695251Y3405231D01*
X12554898Y3293303D01*
X12522494Y3267462D01*
X12521873Y3266683D01*
X12520958Y3265956D01*
X12519233Y3263793D01*
X12519231Y3263791D01*
X12386502Y3097355D01*
X12381462Y3091035D01*
X12381028Y3090134D01*
X12380299Y3089223D01*
X12379096Y3086724D01*
X12379093Y3086720D01*
X12330503Y2985820D01*
X12283225Y2887647D01*
X12283003Y2886676D01*
X12282494Y2885623D01*
X12281879Y2882927D01*
X12281878Y2882925D01*
X12258270Y2779495D01*
X12236568Y2748909D01*
X12213199Y2741473D01*
X12187835Y2740074D01*
X12185136Y2740000D01*
X12170081Y2740000D01*
X12169760Y2739927D01*
X12169034Y2739886D01*
X12146583Y2739906D01*
X12130647Y2732254D01*
X12120335Y2728653D01*
X12114865Y2727405D01*
X12103100Y2724721D01*
X12098787Y2721284D01*
X12098785Y2721283D01*
X12089449Y2713843D01*
X12080122Y2707992D01*
X12064384Y2700435D01*
X12053340Y2686625D01*
X12045617Y2678915D01*
X12031788Y2667895D01*
X12029390Y2662923D01*
X12024204Y2652171D01*
X12018338Y2642856D01*
X12007435Y2629222D01*
X12006199Y2623847D01*
X12006197Y2623843D01*
X12003472Y2611993D01*
X11999854Y2601689D01*
X11995557Y2592778D01*
X11994811Y2591232D01*
X11971887Y2568348D01*
X11912305Y2539737D01*
X11891001Y2534908D01*
X11592747Y2535474D01*
X11422252Y2535797D01*
X11394486Y2544488D01*
X11388571Y2548576D01*
X11360392Y2568052D01*
X11258146Y2600388D01*
X11233919Y2608050D01*
X11233917Y2608050D01*
X11231256Y2608892D01*
X11223531Y2609500D01*
X11126742Y2609500D01*
X11079523Y2602401D01*
X11029688Y2594909D01*
X11029686Y2594908D01*
X11026065Y2594364D01*
X11022762Y2592778D01*
X10916241Y2541627D01*
X10894937Y2536798D01*
X10610454Y2537338D01*
X10419499Y2537700D01*
X10391731Y2546392D01*
X10391325Y2546673D01*
X10382995Y2552430D01*
X10378697Y2555401D01*
X10359904Y2583186D01*
X10359906Y2585417D01*
X10352254Y2601354D01*
X10348653Y2611665D01*
X10347369Y2617291D01*
X10344721Y2628900D01*
X10341284Y2633213D01*
X10341283Y2633215D01*
X10333843Y2642551D01*
X10327992Y2651878D01*
X10322823Y2662643D01*
X10320435Y2667616D01*
X10306625Y2678660D01*
X10298915Y2686383D01*
X10287895Y2700212D01*
X10272170Y2707797D01*
X10262856Y2713662D01*
X10253531Y2721119D01*
X10249222Y2724565D01*
X10243847Y2725801D01*
X10243843Y2725803D01*
X10231993Y2728528D01*
X10221688Y2732146D01*
X10221464Y2732254D01*
X10205766Y2739826D01*
X10200250Y2739831D01*
X10200249Y2739831D01*
X10194921Y2739835D01*
X10183411Y2739845D01*
X10182561Y2739894D01*
X10182101Y2740000D01*
X6836081Y2740000D01*
X6835760Y2739927D01*
X6835034Y2739886D01*
X6812583Y2739906D01*
X6796647Y2732254D01*
X6786335Y2728653D01*
X6780865Y2727405D01*
X6769100Y2724721D01*
X6764787Y2721284D01*
X6764785Y2721283D01*
X6755449Y2713843D01*
X6746122Y2707992D01*
X6730384Y2700435D01*
X6719340Y2686625D01*
X6711617Y2678915D01*
X6697788Y2667895D01*
X6695390Y2662923D01*
X6690204Y2652171D01*
X6684338Y2642856D01*
X6673435Y2629222D01*
X6672199Y2623847D01*
X6670321Y2615680D01*
X6648569Y2585130D01*
X6611585Y2578908D01*
X6607797Y2579942D01*
X6543146Y2600388D01*
X6518919Y2608050D01*
X6518917Y2608050D01*
X6516256Y2608892D01*
X6508531Y2609500D01*
X6411742Y2609500D01*
X6364523Y2602401D01*
X6314688Y2594909D01*
X6314686Y2594908D01*
X6311065Y2594364D01*
X6307762Y2592778D01*
X6219802Y2550540D01*
X6198498Y2545711D01*
X5691516Y2546673D01*
X5663751Y2555364D01*
X5645392Y2568052D01*
X5641898Y2569157D01*
X5641896Y2569158D01*
X5607793Y2579943D01*
X5590499Y2585412D01*
X5561791Y2609543D01*
X5558555Y2646906D01*
X5582686Y2675614D01*
X5594961Y2680033D01*
X5657941Y2693592D01*
X5661522Y2694363D01*
X5780731Y2761124D01*
X5875040Y2859985D01*
X5881729Y2873371D01*
X5934474Y2978932D01*
X5934475Y2978934D01*
X5936110Y2982207D01*
X5951110Y3072323D01*
X5958228Y3115087D01*
X5958228Y3115092D01*
X5958543Y3116982D01*
X5958600Y3124200D01*
X5944606Y3217283D01*
X5938832Y3255689D01*
X5938831Y3255691D01*
X5938287Y3259312D01*
X5934891Y3266385D01*
X5880730Y3379175D01*
X5880729Y3379177D01*
X5879144Y3382477D01*
X5876660Y3385165D01*
X5876658Y3385167D01*
X5788886Y3480118D01*
X5788884Y3480119D01*
X5786399Y3482808D01*
X5783234Y3484646D01*
X5783232Y3484648D01*
X5671418Y3549594D01*
X5671416Y3549595D01*
X5668253Y3551432D01*
X5664690Y3552258D01*
X5664687Y3552259D01*
X5576784Y3572634D01*
X5535152Y3582284D01*
X5398863Y3572634D01*
X5344060Y3551432D01*
X5274856Y3524659D01*
X5274855Y3524658D01*
X5271437Y3523336D01*
X5268558Y3521067D01*
X5265379Y3519253D01*
X5264337Y3521079D01*
X5234833Y3512767D01*
X5215995Y3519055D01*
X5163418Y3549594D01*
X5163416Y3549595D01*
X5160253Y3551432D01*
X5156690Y3552258D01*
X5156687Y3552259D01*
X5068784Y3572634D01*
X5027152Y3582284D01*
X4890863Y3572634D01*
X4836060Y3551432D01*
X4766856Y3524659D01*
X4766855Y3524658D01*
X4763437Y3523336D01*
X4760558Y3521067D01*
X4757379Y3519253D01*
X4756337Y3521079D01*
X4726833Y3512767D01*
X4707995Y3519055D01*
X4655418Y3549594D01*
X4655416Y3549595D01*
X4652253Y3551432D01*
X4648690Y3552258D01*
X4648687Y3552259D01*
X4560784Y3572634D01*
X4519152Y3582284D01*
X4382863Y3572634D01*
X4328060Y3551432D01*
X4258856Y3524659D01*
X4258855Y3524658D01*
X4255437Y3523336D01*
X4252558Y3521067D01*
X4249379Y3519253D01*
X4248337Y3521079D01*
X4218833Y3512767D01*
X4199995Y3519055D01*
X4147418Y3549594D01*
X4147416Y3549595D01*
X4144253Y3551432D01*
X4140690Y3552258D01*
X4140687Y3552259D01*
X4052784Y3572634D01*
X4011152Y3582284D01*
X3874863Y3572634D01*
X3820060Y3551432D01*
X3750851Y3524657D01*
X3750850Y3524656D01*
X3747437Y3523336D01*
X3744565Y3521072D01*
X3744560Y3521069D01*
X3672981Y3464640D01*
X3636886Y3454460D01*
X3604165Y3472784D01*
X3594310Y3511163D01*
X3596027Y3521482D01*
X3596027Y3521485D01*
X3596343Y3523382D01*
X3596400Y3530600D01*
X3581569Y3629247D01*
X3576632Y3662089D01*
X3576631Y3662091D01*
X3576087Y3665712D01*
X3542569Y3735514D01*
X3518530Y3785575D01*
X3518529Y3785577D01*
X3516944Y3788877D01*
X3514460Y3791565D01*
X3514458Y3791567D01*
X3426686Y3886518D01*
X3426684Y3886519D01*
X3424199Y3889208D01*
X3421034Y3891046D01*
X3421032Y3891048D01*
X3338167Y3939179D01*
X6583332Y3939179D01*
X6834779Y3687732D01*
X7117614Y3970567D01*
X7225104Y3970567D01*
X7226300Y3964555D01*
X7226300Y3619500D01*
X7658100Y3619500D01*
X7658100Y3975100D01*
X7874000Y3975100D01*
X7874000Y3619500D01*
X8305800Y3619500D01*
X8305800Y3975100D01*
X7874000Y3975100D01*
X7658100Y3975100D01*
X7226300Y3975100D01*
X7226300Y3971062D01*
X7225104Y3970567D01*
X7117614Y3970567D01*
X7140108Y3993061D01*
X6888661Y4244508D01*
X6583332Y3939179D01*
X3338167Y3939179D01*
X3309218Y3955994D01*
X3309216Y3955995D01*
X3306053Y3957832D01*
X3302490Y3958658D01*
X3302487Y3958659D01*
X3214584Y3979034D01*
X3172952Y3988684D01*
X3036663Y3979034D01*
X2981860Y3957832D01*
X2912651Y3931057D01*
X2912650Y3931056D01*
X2909237Y3929736D01*
X2906362Y3927470D01*
X2906361Y3927469D01*
X2839235Y3874552D01*
X2803141Y3864373D01*
X2770419Y3882698D01*
X2759900Y3913033D01*
X2759900Y4368800D01*
X11468100Y4368800D01*
X11468100Y3937000D01*
X11823700Y3937000D01*
X11823700Y4318000D01*
X11976100Y4318000D01*
X11976100Y3962400D01*
X12407900Y3962400D01*
X12407900Y4318000D01*
X12611100Y4318000D01*
X12611100Y3962400D01*
X13042900Y3962400D01*
X13042900Y4318000D01*
X12611100Y4318000D01*
X12407900Y4318000D01*
X11976100Y4318000D01*
X11823700Y4318000D01*
X11823700Y4368800D01*
X13195300Y4368800D01*
X13195300Y3937000D01*
X13550900Y3937000D01*
X13550900Y4368800D01*
X13195300Y4368800D01*
X11823700Y4368800D01*
X11468100Y4368800D01*
X2759900Y4368800D01*
X2759900Y4976676D01*
X4156749Y4976676D01*
X4195835Y4871856D01*
X4198835Y4868471D01*
X4267036Y4791519D01*
X4267039Y4791517D01*
X4270036Y4788135D01*
X4369401Y4736739D01*
X4480606Y4724560D01*
X4588740Y4753231D01*
X4636869Y4788135D01*
X4675640Y4816252D01*
X4675641Y4816253D01*
X4679302Y4818908D01*
X4740149Y4912783D01*
X4760670Y5010585D01*
X4762629Y5019923D01*
X4762629Y5019925D01*
X4763121Y5022269D01*
X4763200Y5029200D01*
X4754060Y5078276D01*
X4918749Y5078276D01*
X4957835Y4973456D01*
X4960835Y4970071D01*
X5029036Y4893119D01*
X5029039Y4893117D01*
X5032036Y4889735D01*
X5131401Y4838339D01*
X5242606Y4826160D01*
X5350740Y4854831D01*
X5398869Y4889735D01*
X5437640Y4917852D01*
X5437641Y4917853D01*
X5441302Y4920508D01*
X5502149Y5014383D01*
X5510587Y5054600D01*
X6515100Y5054600D01*
X6515100Y4622800D01*
X6870700Y4622800D01*
X6870700Y5054600D01*
X6515100Y5054600D01*
X5510587Y5054600D01*
X5525121Y5123869D01*
X5525200Y5130800D01*
X5520790Y5154476D01*
X8906549Y5154476D01*
X8945635Y5049656D01*
X8948635Y5046271D01*
X9016836Y4969319D01*
X9016839Y4969317D01*
X9019836Y4965935D01*
X9119201Y4914539D01*
X9230406Y4902360D01*
X9338540Y4931031D01*
X9386669Y4965935D01*
X9425440Y4994052D01*
X9425441Y4994053D01*
X9429102Y4996708D01*
X9489949Y5090583D01*
X9511097Y5191376D01*
X9512429Y5197723D01*
X9512429Y5197725D01*
X9512921Y5200069D01*
X9513000Y5207000D01*
X9492517Y5316979D01*
X9433816Y5412211D01*
X9344767Y5479925D01*
X9340423Y5481183D01*
X9340421Y5481184D01*
X9270646Y5501389D01*
X9237312Y5511042D01*
X9232806Y5510652D01*
X9232804Y5510652D01*
X9130369Y5501780D01*
X9130367Y5501779D01*
X9125859Y5501389D01*
X9025353Y5452261D01*
X8949273Y5370245D01*
X8907818Y5266339D01*
X8907528Y5240779D01*
X8906719Y5169419D01*
X8906549Y5154476D01*
X5520790Y5154476D01*
X5504717Y5240779D01*
X5446016Y5336011D01*
X5356967Y5403725D01*
X5352623Y5404983D01*
X5352621Y5404984D01*
X5282846Y5425189D01*
X5249512Y5434842D01*
X5245006Y5434452D01*
X5245004Y5434452D01*
X5142569Y5425580D01*
X5142567Y5425579D01*
X5138059Y5425189D01*
X5037553Y5376061D01*
X5034476Y5372744D01*
X4987035Y5321601D01*
X4961473Y5294045D01*
X4959798Y5289848D01*
X4959798Y5289847D01*
X4954453Y5276449D01*
X4920018Y5190139D01*
X4919565Y5150239D01*
X4918846Y5086785D01*
X4918749Y5078276D01*
X4754060Y5078276D01*
X4742717Y5139179D01*
X4684016Y5234411D01*
X4594967Y5302125D01*
X4590623Y5303383D01*
X4590621Y5303384D01*
X4520846Y5323589D01*
X4487512Y5333242D01*
X4483006Y5332852D01*
X4483004Y5332852D01*
X4380569Y5323980D01*
X4380567Y5323979D01*
X4376059Y5323589D01*
X4275553Y5274461D01*
X4272476Y5271144D01*
X4210758Y5204610D01*
X4199473Y5192445D01*
X4158018Y5088539D01*
X4156749Y4976676D01*
X2759900Y4976676D01*
X2759900Y6377476D01*
X5016349Y6377476D01*
X5055435Y6272656D01*
X5058435Y6269271D01*
X5126636Y6192319D01*
X5126639Y6192317D01*
X5129636Y6188935D01*
X5229001Y6137539D01*
X5340206Y6125360D01*
X5448340Y6154031D01*
X5453177Y6157539D01*
X5472781Y6171756D01*
X5509255Y6180479D01*
X5524060Y6175612D01*
X5531515Y6171756D01*
X5559001Y6157539D01*
X5670206Y6145360D01*
X5778340Y6174031D01*
X5803557Y6192319D01*
X5865240Y6237052D01*
X5865241Y6237053D01*
X5868902Y6239708D01*
X5887789Y6268846D01*
X5906065Y6297043D01*
X5917877Y6315267D01*
X5948765Y6336536D01*
X5985646Y6329734D01*
X6006360Y6298412D01*
X6006349Y6297476D01*
X6007929Y6293239D01*
X6007929Y6293238D01*
X6045435Y6192656D01*
X6043425Y6191906D01*
X6047829Y6162402D01*
X6036211Y6140940D01*
X6029073Y6133245D01*
X5987618Y6029339D01*
X5986349Y5917476D01*
X6025435Y5812656D01*
X6028435Y5809271D01*
X6096636Y5732319D01*
X6096639Y5732317D01*
X6099636Y5728935D01*
X6199001Y5677539D01*
X6310206Y5665360D01*
X6326484Y5669676D01*
X6515015Y5669676D01*
X6516325Y5664200D01*
X6515100Y5664200D01*
X6515100Y5257800D01*
X6870700Y5257800D01*
X6870700Y5664200D01*
X6528236Y5664200D01*
X6515015Y5669676D01*
X6326484Y5669676D01*
X6418340Y5694031D01*
X6428540Y5701428D01*
X6439665Y5709496D01*
X6476140Y5718219D01*
X6480266Y5715686D01*
X6493588Y5747848D01*
X6499469Y5752867D01*
X6499911Y5753188D01*
X6508902Y5759708D01*
X6569749Y5853583D01*
X6592721Y5963069D01*
X6592800Y5970000D01*
X6581749Y6029339D01*
X6575216Y6064413D01*
X6582982Y6101104D01*
X6614416Y6121557D01*
X6628720Y6122094D01*
X6690206Y6115360D01*
X6798340Y6144031D01*
X6823672Y6162402D01*
X6885240Y6207052D01*
X6885241Y6207053D01*
X6888902Y6209708D01*
X6949749Y6303583D01*
X6971410Y6406821D01*
X6972229Y6410723D01*
X6972229Y6410725D01*
X6972721Y6413069D01*
X6972800Y6420000D01*
X6968418Y6443526D01*
X7122199Y6443526D01*
X7161285Y6338706D01*
X7164285Y6335321D01*
X7232486Y6258369D01*
X7232489Y6258367D01*
X7235486Y6254985D01*
X7334851Y6203589D01*
X7446056Y6191410D01*
X7554190Y6220081D01*
X7602319Y6254985D01*
X7641090Y6283102D01*
X7641091Y6283103D01*
X7644752Y6285758D01*
X7705599Y6379633D01*
X7712713Y6413541D01*
X7733874Y6444503D01*
X7760966Y6450983D01*
X7760896Y6451913D01*
X7765409Y6452253D01*
X7769906Y6451760D01*
X7878040Y6480431D01*
X7883769Y6484586D01*
X7964940Y6543452D01*
X7964941Y6543453D01*
X7968602Y6546108D01*
X8029449Y6639983D01*
X8049184Y6734042D01*
X8051929Y6747123D01*
X8051929Y6747125D01*
X8052421Y6749469D01*
X8052500Y6756400D01*
X8032017Y6866379D01*
X7973316Y6961611D01*
X7884267Y7029325D01*
X7879923Y7030583D01*
X7879921Y7030584D01*
X7810146Y7050789D01*
X7776812Y7060442D01*
X7772306Y7060052D01*
X7772304Y7060052D01*
X7669869Y7051180D01*
X7669867Y7051179D01*
X7665359Y7050789D01*
X7564853Y7001661D01*
X7488773Y6919645D01*
X7487098Y6915448D01*
X7487098Y6915447D01*
X7451842Y6827078D01*
X7425672Y6800215D01*
X7410559Y6796419D01*
X7392229Y6794832D01*
X7346019Y6790830D01*
X7346017Y6790829D01*
X7341509Y6790439D01*
X7241003Y6741311D01*
X7237926Y6737994D01*
X7176657Y6671944D01*
X7164923Y6659295D01*
X7163248Y6655098D01*
X7163248Y6655097D01*
X7159132Y6644780D01*
X7123468Y6555389D01*
X7123180Y6529979D01*
X7122284Y6450983D01*
X7122199Y6443526D01*
X6968418Y6443526D01*
X6952317Y6529979D01*
X6893616Y6625211D01*
X6804567Y6692925D01*
X6800223Y6694183D01*
X6800221Y6694184D01*
X6730446Y6714389D01*
X6697112Y6724042D01*
X6692606Y6723652D01*
X6692604Y6723652D01*
X6590169Y6714780D01*
X6590167Y6714779D01*
X6585659Y6714389D01*
X6485153Y6665261D01*
X6482076Y6661944D01*
X6466144Y6644769D01*
X6432058Y6629127D01*
X6416591Y6631027D01*
X6341460Y6652783D01*
X6341459Y6652783D01*
X6337112Y6654042D01*
X6332606Y6653652D01*
X6332604Y6653652D01*
X6230169Y6644780D01*
X6230167Y6644779D01*
X6225659Y6644389D01*
X6125153Y6595261D01*
X6122076Y6591944D01*
X6079558Y6546108D01*
X6049073Y6513245D01*
X6047399Y6509050D01*
X6047395Y6509043D01*
X6038110Y6485770D01*
X6011941Y6458907D01*
X5974441Y6458417D01*
X5947578Y6484586D01*
X5944427Y6494956D01*
X5932317Y6559979D01*
X5873616Y6655211D01*
X5784567Y6722925D01*
X5780223Y6724183D01*
X5780221Y6724184D01*
X5710446Y6744389D01*
X5677112Y6754042D01*
X5672606Y6753652D01*
X5672604Y6753652D01*
X5570169Y6744780D01*
X5570167Y6744779D01*
X5565659Y6744389D01*
X5561592Y6742401D01*
X5488047Y6706452D01*
X5452899Y6703408D01*
X5347112Y6734042D01*
X5342606Y6733652D01*
X5342604Y6733652D01*
X5240169Y6724780D01*
X5240167Y6724779D01*
X5235659Y6724389D01*
X5135153Y6675261D01*
X5132076Y6671944D01*
X5120343Y6659295D01*
X5059073Y6593245D01*
X5057398Y6589048D01*
X5057398Y6589047D01*
X5047338Y6563832D01*
X5017618Y6489339D01*
X5017192Y6451760D01*
X5016424Y6384062D01*
X5016349Y6377476D01*
X2759900Y6377476D01*
X2759900Y7313476D01*
X3826549Y7313476D01*
X3865635Y7208656D01*
X3868635Y7205271D01*
X3936836Y7128319D01*
X3936839Y7128317D01*
X3939836Y7124935D01*
X4039201Y7073539D01*
X4150406Y7061360D01*
X4258540Y7090031D01*
X4306669Y7124935D01*
X4345440Y7153052D01*
X4345441Y7153053D01*
X4349102Y7155708D01*
X4409949Y7249583D01*
X4432921Y7359069D01*
X4433000Y7366000D01*
X4420932Y7430796D01*
X4428697Y7467485D01*
X4460132Y7487939D01*
X4491616Y7483290D01*
X4547201Y7454539D01*
X4658406Y7442360D01*
X4766540Y7471031D01*
X4783444Y7483290D01*
X4853440Y7534052D01*
X4853441Y7534053D01*
X4857102Y7536708D01*
X4917949Y7630583D01*
X4940921Y7740069D01*
X4941000Y7747000D01*
X4920517Y7856979D01*
X4861816Y7952211D01*
X4772767Y8019925D01*
X4768423Y8021183D01*
X4768421Y8021184D01*
X4698646Y8041389D01*
X4665312Y8051042D01*
X4660806Y8050652D01*
X4660804Y8050652D01*
X4558369Y8041780D01*
X4558367Y8041779D01*
X4553859Y8041389D01*
X4453353Y7992261D01*
X4377273Y7910245D01*
X4335818Y7806339D01*
X4334549Y7694476D01*
X4336130Y7690236D01*
X4336241Y7689600D01*
X4328059Y7653000D01*
X4296394Y7632905D01*
X4266969Y7637251D01*
X4264767Y7638925D01*
X4157312Y7670042D01*
X4152806Y7669652D01*
X4152804Y7669652D01*
X4050369Y7660780D01*
X4050367Y7660779D01*
X4045859Y7660389D01*
X3945353Y7611261D01*
X3869273Y7529245D01*
X3827818Y7425339D01*
X3826549Y7313476D01*
X2759900Y7313476D01*
X2759900Y8431076D01*
X4385349Y8431076D01*
X4424435Y8326256D01*
X4427435Y8322871D01*
X4495636Y8245919D01*
X4495639Y8245917D01*
X4498636Y8242535D01*
X4598001Y8191139D01*
X4709206Y8178960D01*
X4817340Y8207631D01*
X4865469Y8242535D01*
X4904240Y8270652D01*
X4904241Y8270653D01*
X4907902Y8273308D01*
X4910038Y8276604D01*
X4944039Y8291741D01*
X4979051Y8278301D01*
X4981991Y8275259D01*
X5046636Y8202319D01*
X5046639Y8202317D01*
X5049636Y8198935D01*
X5149001Y8147539D01*
X5260206Y8135360D01*
X5368340Y8164031D01*
X5398243Y8185717D01*
X5455240Y8227052D01*
X5455241Y8227053D01*
X5458902Y8229708D01*
X5519749Y8323583D01*
X5542721Y8433069D01*
X5542800Y8440000D01*
X5522317Y8549979D01*
X5463616Y8645211D01*
X5374567Y8712925D01*
X5370223Y8714183D01*
X5370221Y8714184D01*
X5319536Y8728861D01*
X5267112Y8744042D01*
X5262606Y8743652D01*
X5262604Y8743652D01*
X5160169Y8734780D01*
X5160167Y8734779D01*
X5155659Y8734389D01*
X5055153Y8685261D01*
X5015624Y8642647D01*
X5014657Y8641605D01*
X4980572Y8625964D01*
X4945409Y8639005D01*
X4937021Y8649218D01*
X4923558Y8671060D01*
X4912616Y8688811D01*
X4823567Y8756525D01*
X4819223Y8757783D01*
X4819221Y8757784D01*
X4749446Y8777989D01*
X4716112Y8787642D01*
X4711606Y8787252D01*
X4711604Y8787252D01*
X4609169Y8778380D01*
X4609167Y8778379D01*
X4604659Y8777989D01*
X4504153Y8728861D01*
X4501076Y8725544D01*
X4463709Y8685261D01*
X4428073Y8646845D01*
X4386618Y8542939D01*
X4386052Y8493069D01*
X4385513Y8445508D01*
X4385349Y8431076D01*
X2759900Y8431076D01*
X2759900Y9993656D01*
X4510784Y9993656D01*
X4549932Y9862754D01*
X4551966Y9859709D01*
X4551967Y9859708D01*
X4581852Y9814983D01*
X4625840Y9749151D01*
X4628681Y9746838D01*
X4724885Y9668515D01*
X4731795Y9662889D01*
X4858432Y9611596D01*
X4862080Y9611280D01*
X4990903Y9600123D01*
X4994552Y9599807D01*
X5128122Y9628563D01*
X5247331Y9695324D01*
X5341640Y9794185D01*
X5374380Y9859708D01*
X5383958Y9878876D01*
X5858549Y9878876D01*
X5897635Y9774056D01*
X5900635Y9770671D01*
X5968836Y9693719D01*
X5968839Y9693717D01*
X5971836Y9690335D01*
X6071201Y9638939D01*
X6182406Y9626760D01*
X6290540Y9655431D01*
X6343082Y9693535D01*
X6377440Y9718452D01*
X6377441Y9718453D01*
X6381102Y9721108D01*
X6441949Y9814983D01*
X6455355Y9878876D01*
X6569749Y9878876D01*
X6608835Y9774056D01*
X6611835Y9770671D01*
X6680036Y9693719D01*
X6680039Y9693717D01*
X6683036Y9690335D01*
X6782401Y9638939D01*
X6811335Y9635770D01*
X6830947Y9633622D01*
X6863827Y9615583D01*
X6874321Y9579578D01*
X6856282Y9546698D01*
X6847141Y9540897D01*
X6815153Y9525261D01*
X6739073Y9443245D01*
X6697618Y9339339D01*
X6697567Y9334816D01*
X6696649Y9253886D01*
X6696349Y9227476D01*
X6735435Y9122656D01*
X6738435Y9119271D01*
X6806636Y9042319D01*
X6806639Y9042317D01*
X6809636Y9038935D01*
X6909001Y8987539D01*
X7020206Y8975360D01*
X7128340Y9004031D01*
X7132001Y9006686D01*
X7132005Y9006688D01*
X7165272Y9030813D01*
X7201746Y9039536D01*
X7216551Y9034669D01*
X7269001Y9007539D01*
X7380206Y8995360D01*
X7416036Y9004860D01*
X7453205Y8999868D01*
X7475957Y8970055D01*
X7477591Y8956941D01*
X7476421Y8853779D01*
X7476349Y8847476D01*
X7515435Y8742656D01*
X7518436Y8739271D01*
X7520766Y8735392D01*
X7519240Y8734475D01*
X7529282Y8705395D01*
X7525883Y8690186D01*
X7502108Y8630594D01*
X7497618Y8619339D01*
X7496349Y8507476D01*
X7535435Y8402656D01*
X7538435Y8399271D01*
X7606636Y8322319D01*
X7606639Y8322317D01*
X7609636Y8318935D01*
X7709001Y8267539D01*
X7820206Y8255360D01*
X7928340Y8284031D01*
X7986637Y8326309D01*
X8023111Y8335032D01*
X8052074Y8319143D01*
X8102436Y8262319D01*
X8102439Y8262317D01*
X8105436Y8258935D01*
X8204801Y8207539D01*
X8316006Y8195360D01*
X8424140Y8224031D01*
X8467340Y8255360D01*
X8511040Y8287052D01*
X8511041Y8287053D01*
X8514702Y8289708D01*
X8575549Y8383583D01*
X8598521Y8493069D01*
X8598600Y8500000D01*
X8596583Y8510834D01*
X8590120Y8545532D01*
X8587114Y8561670D01*
X8594879Y8598359D01*
X8622728Y8618004D01*
X8699167Y8638271D01*
X8699170Y8638272D01*
X8703540Y8639431D01*
X8747153Y8671060D01*
X8790440Y8702452D01*
X8790441Y8702453D01*
X8794102Y8705108D01*
X8854949Y8798983D01*
X8871756Y8879084D01*
X8877429Y8906123D01*
X8877429Y8906125D01*
X8877921Y8908469D01*
X8878000Y8915400D01*
X8857517Y9025379D01*
X8798816Y9120611D01*
X8709767Y9188325D01*
X8705423Y9189583D01*
X8705421Y9189584D01*
X8635646Y9209789D01*
X8602312Y9219442D01*
X8597806Y9219052D01*
X8597804Y9219052D01*
X8495369Y9210180D01*
X8495367Y9210179D01*
X8490859Y9209789D01*
X8390353Y9160661D01*
X8387276Y9157344D01*
X8337516Y9103701D01*
X8314273Y9078645D01*
X8272818Y8974739D01*
X8272616Y8956941D01*
X8271892Y8893069D01*
X8271549Y8862876D01*
X8273129Y8858639D01*
X8273907Y8854181D01*
X8271605Y8853779D01*
X8270547Y8824459D01*
X8243089Y8798913D01*
X8230210Y8796013D01*
X8215969Y8794780D01*
X8215967Y8794779D01*
X8211459Y8794389D01*
X8134995Y8757013D01*
X8097566Y8754691D01*
X8069456Y8779516D01*
X8065522Y8811097D01*
X8082229Y8890723D01*
X8082229Y8890725D01*
X8082721Y8893069D01*
X8082800Y8900000D01*
X8062317Y9009979D01*
X8036823Y9051339D01*
X8030859Y9088363D01*
X8037417Y9103701D01*
X8067287Y9149785D01*
X8069749Y9153583D01*
X8083303Y9218183D01*
X8092229Y9260723D01*
X8092229Y9260725D01*
X8092721Y9263069D01*
X8092800Y9270000D01*
X8072317Y9379979D01*
X8013616Y9475211D01*
X7924567Y9542925D01*
X7920223Y9544183D01*
X7920221Y9544184D01*
X7850446Y9564389D01*
X7817112Y9574042D01*
X7812606Y9573652D01*
X7812604Y9573652D01*
X7710169Y9564780D01*
X7710167Y9564779D01*
X7705659Y9564389D01*
X7701592Y9562401D01*
X7611133Y9518184D01*
X7573702Y9515862D01*
X7559956Y9523202D01*
X7557249Y9525261D01*
X7494567Y9572925D01*
X7490223Y9574183D01*
X7490221Y9574184D01*
X7420446Y9594389D01*
X7387112Y9604042D01*
X7382606Y9603652D01*
X7382604Y9603652D01*
X7280169Y9594780D01*
X7280167Y9594779D01*
X7275659Y9594389D01*
X7271592Y9592401D01*
X7183192Y9549191D01*
X7145761Y9546869D01*
X7139658Y9549438D01*
X7138166Y9550189D01*
X7134567Y9552925D01*
X7130226Y9554182D01*
X7130224Y9554183D01*
X7034918Y9581782D01*
X7005629Y9605205D01*
X7001482Y9642478D01*
X7019780Y9668514D01*
X7060718Y9698203D01*
X7088640Y9718452D01*
X7088641Y9718453D01*
X7092302Y9721108D01*
X7153149Y9814983D01*
X7166555Y9878876D01*
X8525549Y9878876D01*
X8564635Y9774056D01*
X8567635Y9770671D01*
X8635836Y9693719D01*
X8635839Y9693717D01*
X8638836Y9690335D01*
X8738201Y9638939D01*
X8849406Y9626760D01*
X8957540Y9655431D01*
X9010082Y9693535D01*
X9044440Y9718452D01*
X9044441Y9718453D01*
X9048102Y9721108D01*
X9108949Y9814983D01*
X9129542Y9913132D01*
X9131429Y9922123D01*
X9131429Y9922125D01*
X9131921Y9924469D01*
X9132000Y9931400D01*
X9111517Y10041379D01*
X9052816Y10136611D01*
X8963767Y10204325D01*
X8959423Y10205583D01*
X8959421Y10205584D01*
X8889646Y10225789D01*
X8856312Y10235442D01*
X8851806Y10235052D01*
X8851804Y10235052D01*
X8749369Y10226180D01*
X8749367Y10226179D01*
X8744859Y10225789D01*
X8644353Y10176661D01*
X8641276Y10173344D01*
X8613150Y10143023D01*
X8568273Y10094645D01*
X8526818Y9990739D01*
X8526173Y9933849D01*
X8525938Y9913132D01*
X8525549Y9878876D01*
X7166555Y9878876D01*
X7173742Y9913132D01*
X7175629Y9922123D01*
X7175629Y9922125D01*
X7176121Y9924469D01*
X7176200Y9931400D01*
X7155717Y10041379D01*
X7097016Y10136611D01*
X7007967Y10204325D01*
X7003623Y10205583D01*
X7003621Y10205584D01*
X6933846Y10225789D01*
X6900512Y10235442D01*
X6896006Y10235052D01*
X6896004Y10235052D01*
X6793569Y10226180D01*
X6793567Y10226179D01*
X6789059Y10225789D01*
X6688553Y10176661D01*
X6685476Y10173344D01*
X6657350Y10143023D01*
X6612473Y10094645D01*
X6571018Y9990739D01*
X6570373Y9933849D01*
X6570138Y9913132D01*
X6569749Y9878876D01*
X6455355Y9878876D01*
X6462542Y9913132D01*
X6464429Y9922123D01*
X6464429Y9922125D01*
X6464921Y9924469D01*
X6465000Y9931400D01*
X6444517Y10041379D01*
X6385816Y10136611D01*
X6296767Y10204325D01*
X6292423Y10205583D01*
X6292421Y10205584D01*
X6222646Y10225789D01*
X6189312Y10235442D01*
X6184806Y10235052D01*
X6184804Y10235052D01*
X6082369Y10226180D01*
X6082367Y10226179D01*
X6077859Y10225789D01*
X5977353Y10176661D01*
X5974276Y10173344D01*
X5946150Y10143023D01*
X5901273Y10094645D01*
X5859818Y9990739D01*
X5859173Y9933849D01*
X5858938Y9913132D01*
X5858549Y9878876D01*
X5383958Y9878876D01*
X5401074Y9913132D01*
X5401075Y9913134D01*
X5402710Y9916407D01*
X5415568Y9993656D01*
X5424828Y10049287D01*
X5424828Y10049292D01*
X5425143Y10051182D01*
X5425200Y10058400D01*
X5407423Y10176647D01*
X5405432Y10189889D01*
X5405431Y10189891D01*
X5404887Y10193512D01*
X5392335Y10219651D01*
X5347330Y10313375D01*
X5347329Y10313377D01*
X5345744Y10316677D01*
X5343260Y10319365D01*
X5343258Y10319367D01*
X5255486Y10414318D01*
X5255484Y10414319D01*
X5252999Y10417008D01*
X5249834Y10418846D01*
X5249832Y10418848D01*
X5138018Y10483794D01*
X5138016Y10483795D01*
X5134853Y10485632D01*
X5131290Y10486458D01*
X5131287Y10486459D01*
X5043384Y10506834D01*
X5001752Y10516484D01*
X4865463Y10506834D01*
X4810660Y10485632D01*
X4741451Y10458857D01*
X4741450Y10458856D01*
X4738037Y10457536D01*
X4630739Y10372949D01*
X4553056Y10260552D01*
X4511857Y10130282D01*
X4510784Y9993656D01*
X2759900Y9993656D01*
X2759900Y11009656D01*
X8346184Y11009656D01*
X8385332Y10878754D01*
X8387366Y10875709D01*
X8387367Y10875708D01*
X8419558Y10827532D01*
X8461240Y10765151D01*
X8464081Y10762838D01*
X8544090Y10697700D01*
X8567195Y10678889D01*
X8693832Y10627596D01*
X8697480Y10627280D01*
X8826303Y10616123D01*
X8829952Y10615807D01*
X8963522Y10644563D01*
X9082731Y10711324D01*
X9177040Y10810185D01*
X9187344Y10830807D01*
X9236474Y10929132D01*
X9236475Y10929134D01*
X9238110Y10932407D01*
X9250968Y11009656D01*
X9844784Y11009656D01*
X9883932Y10878754D01*
X9885966Y10875709D01*
X9885967Y10875708D01*
X9918158Y10827532D01*
X9959840Y10765151D01*
X9962681Y10762838D01*
X10042690Y10697700D01*
X10065795Y10678889D01*
X10192432Y10627596D01*
X10196080Y10627280D01*
X10324903Y10616123D01*
X10328552Y10615807D01*
X10462122Y10644563D01*
X10581331Y10711324D01*
X10675640Y10810185D01*
X10685944Y10830807D01*
X10702967Y10864876D01*
X12427964Y10864876D01*
X12467112Y10733974D01*
X12469146Y10730929D01*
X12469147Y10730928D01*
X12525659Y10646353D01*
X12543020Y10620371D01*
X12545861Y10618058D01*
X12593098Y10579601D01*
X12648975Y10534109D01*
X12775612Y10482816D01*
X12779260Y10482500D01*
X12908083Y10471343D01*
X12911732Y10471027D01*
X13045302Y10499783D01*
X13164511Y10566544D01*
X13258820Y10665405D01*
X13263670Y10675111D01*
X13318254Y10784352D01*
X13318255Y10784354D01*
X13319890Y10787627D01*
X13322442Y10802958D01*
X13342289Y10834779D01*
X13378824Y10843246D01*
X13410645Y10823399D01*
X13417723Y10808950D01*
X13427232Y10777154D01*
X13429266Y10774109D01*
X13429267Y10774108D01*
X13492891Y10678889D01*
X13503140Y10663551D01*
X13505981Y10661238D01*
X13561784Y10615807D01*
X13609095Y10577289D01*
X13735732Y10525996D01*
X13739380Y10525680D01*
X13868203Y10514523D01*
X13871852Y10514207D01*
X14005422Y10542963D01*
X14124631Y10609724D01*
X14218940Y10708585D01*
X14234978Y10740682D01*
X14278374Y10827532D01*
X14278375Y10827534D01*
X14280010Y10830807D01*
X14296921Y10932407D01*
X14302128Y10963687D01*
X14302128Y10963692D01*
X14302443Y10965582D01*
X14302500Y10972800D01*
X14288595Y11065287D01*
X14282732Y11104289D01*
X14282731Y11104291D01*
X14282187Y11107912D01*
X14268657Y11136089D01*
X14224630Y11227775D01*
X14224629Y11227777D01*
X14223044Y11231077D01*
X14220560Y11233765D01*
X14220558Y11233767D01*
X14132786Y11328718D01*
X14132784Y11328719D01*
X14130299Y11331408D01*
X14127134Y11333246D01*
X14127132Y11333248D01*
X14015318Y11398194D01*
X14015316Y11398195D01*
X14012153Y11400032D01*
X14008590Y11400858D01*
X14008587Y11400859D01*
X13920684Y11421234D01*
X13879052Y11430884D01*
X13742763Y11421234D01*
X13687960Y11400032D01*
X13618751Y11373257D01*
X13618750Y11373256D01*
X13615337Y11371936D01*
X13508039Y11287349D01*
X13430356Y11174952D01*
X13406966Y11100992D01*
X13403658Y11090533D01*
X13379527Y11061825D01*
X13342164Y11058589D01*
X13312768Y11084097D01*
X13264510Y11184595D01*
X13264509Y11184597D01*
X13262924Y11187897D01*
X13260440Y11190585D01*
X13260438Y11190587D01*
X13172666Y11285538D01*
X13172664Y11285539D01*
X13170179Y11288228D01*
X13167014Y11290066D01*
X13167012Y11290068D01*
X13055198Y11355014D01*
X13055196Y11355015D01*
X13052033Y11356852D01*
X13048470Y11357678D01*
X13048467Y11357679D01*
X12960564Y11378054D01*
X12918932Y11387704D01*
X12782643Y11378054D01*
X12727840Y11356852D01*
X12658631Y11330077D01*
X12658630Y11330076D01*
X12655217Y11328756D01*
X12547919Y11244169D01*
X12470236Y11131772D01*
X12429037Y11001502D01*
X12429008Y10997836D01*
X12429008Y10997835D01*
X12428796Y10970865D01*
X12427964Y10864876D01*
X10702967Y10864876D01*
X10735074Y10929132D01*
X10735075Y10929134D01*
X10736710Y10932407D01*
X10750645Y11016126D01*
X10758828Y11065287D01*
X10758828Y11065292D01*
X10759143Y11067182D01*
X10759200Y11074400D01*
X10742633Y11184595D01*
X10739432Y11205889D01*
X10739431Y11205891D01*
X10738887Y11209512D01*
X10737301Y11212815D01*
X10681330Y11329375D01*
X10681329Y11329377D01*
X10679744Y11332677D01*
X10677260Y11335365D01*
X10677258Y11335367D01*
X10589486Y11430318D01*
X10589484Y11430319D01*
X10586999Y11433008D01*
X10583834Y11434846D01*
X10583832Y11434848D01*
X10472018Y11499794D01*
X10472016Y11499795D01*
X10468853Y11501632D01*
X10465290Y11502458D01*
X10465287Y11502459D01*
X10377384Y11522834D01*
X10335752Y11532484D01*
X10199463Y11522834D01*
X10144660Y11501632D01*
X10075451Y11474857D01*
X10075450Y11474856D01*
X10072037Y11473536D01*
X10059111Y11463346D01*
X9971295Y11394117D01*
X9964739Y11388949D01*
X9887056Y11276552D01*
X9845857Y11146282D01*
X9845828Y11142616D01*
X9845828Y11142615D01*
X9845556Y11107912D01*
X9844784Y11009656D01*
X9250968Y11009656D01*
X9252045Y11016126D01*
X9260228Y11065287D01*
X9260228Y11065292D01*
X9260543Y11067182D01*
X9260600Y11074400D01*
X9244033Y11184595D01*
X9240832Y11205889D01*
X9240831Y11205891D01*
X9240287Y11209512D01*
X9238701Y11212815D01*
X9182730Y11329375D01*
X9182729Y11329377D01*
X9181144Y11332677D01*
X9178660Y11335365D01*
X9178658Y11335367D01*
X9090886Y11430318D01*
X9090884Y11430319D01*
X9088399Y11433008D01*
X9085234Y11434846D01*
X9085232Y11434848D01*
X8973418Y11499794D01*
X8973416Y11499795D01*
X8970253Y11501632D01*
X8966690Y11502458D01*
X8966687Y11502459D01*
X8878784Y11522834D01*
X8837152Y11532484D01*
X8700863Y11522834D01*
X8646060Y11501632D01*
X8576851Y11474857D01*
X8576850Y11474856D01*
X8573437Y11473536D01*
X8560511Y11463346D01*
X8472695Y11394117D01*
X8466139Y11388949D01*
X8388456Y11276552D01*
X8347257Y11146282D01*
X8347228Y11142616D01*
X8347228Y11142615D01*
X8346956Y11107912D01*
X8346184Y11009656D01*
X2759900Y11009656D01*
X2759900Y11402766D01*
X2761465Y11415052D01*
X2763522Y11422993D01*
X2763522Y11422995D01*
X2764217Y11425677D01*
X2764418Y11433008D01*
X2765790Y11483021D01*
X2766187Y11488043D01*
X2766293Y11488852D01*
X2767548Y11495168D01*
X2785011Y11560340D01*
X2789904Y11572154D01*
X2822057Y11627844D01*
X2829844Y11637992D01*
X2875309Y11683457D01*
X2885456Y11691243D01*
X2941145Y11723395D01*
X2952961Y11728289D01*
X3018131Y11745752D01*
X3024433Y11747005D01*
X3025240Y11747111D01*
X3030277Y11747510D01*
X3068710Y11748565D01*
X3087432Y11749078D01*
X3090091Y11749762D01*
X3090093Y11749762D01*
X3098204Y11751848D01*
X3110407Y11753392D01*
X4466919Y11753392D01*
X4467240Y11753465D01*
X4467966Y11753506D01*
X4490417Y11753486D01*
X4506354Y11761138D01*
X4516665Y11764739D01*
X4522135Y11765987D01*
X4533900Y11768671D01*
X4538213Y11772108D01*
X4538215Y11772109D01*
X4547551Y11779549D01*
X4556878Y11785400D01*
X4567643Y11790569D01*
X4572616Y11792957D01*
X4583660Y11806767D01*
X4591383Y11814477D01*
X4605212Y11825497D01*
X4612797Y11841222D01*
X4618662Y11850536D01*
X4626119Y11859861D01*
X4629565Y11864170D01*
X4630801Y11869545D01*
X4630803Y11869549D01*
X4633528Y11881399D01*
X4637146Y11891704D01*
X4637308Y11892039D01*
X4644826Y11907626D01*
X4644843Y11927242D01*
X4659225Y11961878D01*
X4693843Y11976200D01*
X6609111Y11976200D01*
X6643759Y11961848D01*
G37*
G04 #@! TD.AperFunction*
M02*
