G04 #@! TF.GenerationSoftware,KiCad,Pcbnew,(5.99.0-8645-g8b3dea7107)*
G04 #@! TF.CreationDate,2021-12-17T21:37:34-08:00*
G04 #@! TF.ProjectId,bomu,626f6d75-2e6b-4696-9361-645f70636258,rev?*
G04 #@! TF.SameCoordinates,PX7b80accPY896b3f8*
G04 #@! TF.FileFunction,Copper,L2,Inr*
G04 #@! TF.FilePolarity,Positive*
%FSLAX46Y46*%
G04 Gerber Fmt 4.6, Leading zero omitted, Abs format (unit mm)*
G04 Created by KiCad (PCBNEW (5.99.0-8645-g8b3dea7107)) date 2021-12-17 21:37:34*
%MOMM*%
%LPD*%
G01*
G04 APERTURE LIST*
G04 #@! TA.AperFunction,ViaPad*
%ADD10C,0.508000*%
G04 #@! TD*
G04 #@! TA.AperFunction,ViaPad*
%ADD11C,0.200000*%
G04 #@! TD*
G04 #@! TA.AperFunction,Conductor*
%ADD12C,0.254000*%
G04 #@! TD*
G04 #@! TA.AperFunction,Conductor*
%ADD13C,0.381000*%
G04 #@! TD*
G04 APERTURE END LIST*
D10*
X7073900Y6197600D03*
X14389100Y10414000D03*
X7429500Y10668000D03*
X4965700Y10058400D03*
X3136900Y3530600D03*
X14795500Y11531600D03*
D11*
X6870700Y9931400D03*
X4127500Y7366000D03*
X6159500Y9931400D03*
X7797300Y8560000D03*
X9207500Y5207000D03*
X4457700Y5029200D03*
X7747000Y6756400D03*
D10*
X5499100Y3124200D03*
X4991100Y3124200D03*
X4483100Y3124200D03*
X3975100Y3124200D03*
X12738100Y10960100D03*
X13703300Y11531600D03*
X11772900Y11531600D03*
X6921500Y8229600D03*
D11*
X11544300Y9982200D03*
X12738100Y9982200D03*
D12*
X7747000Y6756400D02*
X7747000Y5740400D01*
X7747000Y5740400D02*
X8280400Y5207000D01*
X8280400Y5207000D02*
X9207500Y5207000D01*
D13*
X3136900Y10845800D02*
X3136900Y3530600D01*
X4965700Y10058400D02*
X4965700Y10871200D01*
X3517900Y11226800D02*
X3136900Y10845800D01*
X4965700Y10871200D02*
X4610100Y11226800D01*
X4610100Y11226800D02*
X3517900Y11226800D01*
D12*
X4127500Y7950200D02*
X4127500Y7366000D01*
X13525500Y10414000D02*
X8648700Y10414000D01*
X6870700Y9931400D02*
X6870700Y9702800D01*
X8648700Y10414000D02*
X8166100Y9931400D01*
X9207500Y5207000D02*
X9207500Y7366000D01*
X13667740Y10551160D02*
X13662660Y10551160D01*
X4127500Y7366000D02*
X4127500Y5359400D01*
X6108700Y9931400D02*
X4127500Y7950200D01*
X4127500Y5359400D02*
X4457700Y5029200D01*
X8166100Y9931400D02*
X6870700Y9931400D01*
X7912100Y8661400D02*
X7898700Y8661400D01*
X6202680Y9931400D02*
X6159500Y9931400D01*
X14648180Y11531600D02*
X13667740Y10551160D01*
X9207500Y7366000D02*
X7912100Y8661400D01*
X6870700Y9702800D02*
X7404100Y9169400D01*
X7404100Y9169400D02*
X7912100Y8661400D01*
X14795500Y11531600D02*
X14648180Y11531600D01*
X13662660Y10551160D02*
X13525500Y10414000D01*
X6159500Y9931400D02*
X6108700Y9931400D01*
X6159500Y9931400D02*
X6870700Y9931400D01*
X7898700Y8661400D02*
X7797300Y8560000D01*
M02*
