G04 #@! TF.GenerationSoftware,KiCad,Pcbnew,(5.99.0-8645-g8b3dea7107)*
G04 #@! TF.CreationDate,2021-12-17T21:37:34-08:00*
G04 #@! TF.ProjectId,bomu,626f6d75-2e6b-4696-9361-645f70636258,rev?*
G04 #@! TF.SameCoordinates,PX7b80accPY896b3f8*
G04 #@! TF.FileFunction,Soldermask,Top*
G04 #@! TF.FilePolarity,Negative*
%FSLAX46Y46*%
G04 Gerber Fmt 4.6, Leading zero omitted, Abs format (unit mm)*
G04 Created by KiCad (PCBNEW (5.99.0-8645-g8b3dea7107)) date 2021-12-17 21:37:34*
%MOMM*%
%LPD*%
G01*
G04 APERTURE LIST*
%ADD10R,0.800000X0.800000*%
%ADD11C,1.000000*%
%ADD12C,2.200000*%
G04 APERTURE END LIST*
G36*
X3604260Y2865020D02*
G01*
X2603500Y3873400D01*
X2603300Y4114000D01*
X3603300Y4114000D01*
X3604260Y2865020D01*
G37*
G36*
X3603300Y10363900D02*
G01*
X2603300Y10363900D01*
X2603500Y10604500D01*
X3604260Y11612880D01*
X3603300Y10363900D01*
G37*
G36*
X3603300Y9363900D02*
G01*
X2603300Y9363900D01*
X2603300Y10363900D01*
X3603300Y10363900D01*
X3603300Y9363900D01*
G37*
G36*
X3603300Y4114000D02*
G01*
X2603300Y4114000D01*
X2603300Y5114000D01*
X3603300Y5114000D01*
X3603300Y4114000D01*
G37*
G36*
X11103300Y9364000D02*
G01*
X3603300Y9364000D01*
X3603300Y11614000D01*
X11103300Y11614000D01*
X11103300Y9364000D01*
G37*
G36*
X11103300Y7364000D02*
G01*
X3603300Y7364000D01*
X3603300Y9114000D01*
X11103300Y9114000D01*
X11103300Y7364000D01*
G37*
G36*
X11103300Y5348000D02*
G01*
X3603300Y5348000D01*
X3603300Y7098000D01*
X11103300Y7098000D01*
X11103300Y5348000D01*
G37*
G36*
X11103300Y2864000D02*
G01*
X3603300Y2864000D01*
X3603300Y5114000D01*
X11103300Y5114000D01*
X11103300Y2864000D01*
G37*
D10*
X14668500Y11224200D03*
X12738100Y11217000D03*
X11772900Y11217000D03*
X13703300Y11242400D03*
X14693900Y10160000D03*
X11772900Y10185400D03*
X12738100Y10185400D03*
D11*
X4445000Y2159000D03*
X5445000Y2159000D03*
X6445000Y2159000D03*
D12*
X18542000Y11176000D03*
D11*
X11668000Y12446000D03*
X12668000Y12446000D03*
X10668000Y12446000D03*
X12160000Y2159000D03*
X10160000Y2159000D03*
X11160000Y2159000D03*
D12*
X18542000Y3556000D03*
D11*
X5572000Y12446000D03*
X6572000Y12446000D03*
X4572000Y12446000D03*
M02*
