M48
INCH,TZ
T1C0.0197
T2C0.0866
%
G90
G05
T1
X206Y4900
X206Y850
X600Y4900
X600Y850
X994Y4900
X994Y850
X1750Y850
X1800Y4900
X2144Y850
X2194Y4900
X2537Y850
X2587Y4900
X4000Y850
X4200Y4900
X4394Y850
X4594Y4900
X4787Y850
X4987Y4900
X6406Y5787
X6406Y5394
X6406Y5000
X6406Y987
X6406Y594
X6406Y200
T2
X7300Y4400
X7300Y1400
T0
M30
