G04 #@! TF.GenerationSoftware,KiCad,Pcbnew,(6.0.0-rc2-14-ga17a58203b)*
G04 #@! TF.CreationDate,2021-12-23T13:58:55-08:00*
G04 #@! TF.ProjectId,bomu,626f6d75-2e6b-4696-9361-645f70636258,rev?*
G04 #@! TF.SameCoordinates,PX7b80accPY896b3f8*
G04 #@! TF.FileFunction,Copper,L4,Inr*
G04 #@! TF.FilePolarity,Positive*
%FSLAX46Y46*%
G04 Gerber Fmt 4.6, Leading zero omitted, Abs format (unit mm)*
G04 Created by KiCad (PCBNEW (6.0.0-rc2-14-ga17a58203b)) date 2021-12-23 13:58:55*
%MOMM*%
%LPD*%
G01*
G04 APERTURE LIST*
G04 #@! TA.AperFunction,ViaPad*
%ADD10C,0.508000*%
G04 #@! TD*
G04 #@! TA.AperFunction,ViaPad*
%ADD11C,0.200000*%
G04 #@! TD*
G04 #@! TA.AperFunction,Conductor*
%ADD12C,0.254000*%
G04 #@! TD*
G04 #@! TA.AperFunction,Conductor*
%ADD13C,0.203200*%
G04 #@! TD*
G04 #@! TA.AperFunction,Conductor*
%ADD14C,0.127000*%
G04 #@! TD*
G04 APERTURE END LIST*
D10*
X14389100Y10414000D03*
X7429500Y10668000D03*
D11*
X8826500Y9931400D03*
X8572500Y8915400D03*
X6307300Y6350000D03*
X5219700Y5130800D03*
D10*
X4965700Y10058400D03*
X3136900Y3530600D03*
X14795500Y11531600D03*
D11*
X6870700Y9931400D03*
X4127500Y7366000D03*
X6159500Y9931400D03*
X7797300Y8560000D03*
X9207500Y5207000D03*
X4457700Y5029200D03*
X7747000Y6756400D03*
X8293100Y8500000D03*
X7423150Y6496050D03*
D10*
X5499100Y3124200D03*
X4991100Y3124200D03*
X4483100Y3124200D03*
X3975100Y3124200D03*
D11*
X5647300Y6450000D03*
X5317300Y6430000D03*
X4635500Y7747000D03*
D10*
X10299700Y11074400D03*
D11*
X7777300Y8900000D03*
D10*
X8801100Y11074400D03*
D11*
X7787300Y9270000D03*
D10*
X7073900Y6197600D03*
D11*
X4686300Y8483600D03*
D10*
X6921500Y8229600D03*
D11*
X5237300Y8440000D03*
D10*
X13843000Y10972800D03*
D11*
X7357300Y9300000D03*
X6997300Y9280000D03*
D10*
X12882880Y10929620D03*
D11*
X6287300Y5970000D03*
X6667300Y6420000D03*
D12*
X8826500Y9067800D02*
X8826500Y9931400D01*
X8572500Y8915400D02*
X8674100Y8915400D01*
X8674100Y8915400D02*
X8826500Y9067800D01*
D13*
X5219700Y5816600D02*
X5336184Y5933084D01*
X5729884Y5933084D02*
X6146800Y6350000D01*
D12*
X5219700Y5130800D02*
X5219700Y5816600D01*
D13*
X6146800Y6350000D02*
X6197600Y6350000D01*
X5336184Y5933084D02*
X5729884Y5933084D01*
X6197600Y6350000D02*
X6307303Y6350000D01*
D12*
X8293100Y8242300D02*
X8293100Y8500000D01*
X7416800Y6578600D02*
X7416800Y7366000D01*
X7416800Y7366000D02*
X8293100Y8242300D01*
D13*
X7416800Y6578600D02*
X7416800Y6502400D01*
D14*
X10299700Y11074400D02*
X10223500Y10998200D01*
X9664700Y10513794D02*
X9410906Y10260000D01*
X8117300Y9880000D02*
X8117300Y9240000D01*
X9664700Y10998200D02*
X9664700Y10513794D01*
X8497300Y10260000D02*
X8117300Y9880000D01*
X10223500Y10998200D02*
X9664700Y10998200D01*
X8117300Y9240000D02*
X7777300Y8900000D01*
X9410906Y10260000D02*
X8497300Y10260000D01*
X7787300Y9319600D02*
X7787300Y9270000D01*
X9410700Y10619006D02*
X9307294Y10515600D01*
X8215094Y10515600D02*
X7556500Y9857006D01*
X7556500Y9857006D02*
X7556500Y9550400D01*
X9410700Y10998200D02*
X9410700Y10619006D01*
X8877300Y10998200D02*
X9410700Y10998200D01*
X7556500Y9550400D02*
X7787300Y9319600D01*
X9307294Y10515600D02*
X8215094Y10515600D01*
X8801100Y11074400D02*
X8877300Y10998200D01*
X7073900Y6197600D02*
X7073900Y6502400D01*
X7073900Y6502400D02*
X6413500Y7162800D01*
X4851400Y7935694D02*
X4851400Y8318500D01*
X4851400Y8318500D02*
X4686300Y8483600D01*
X5624294Y7162800D02*
X4851400Y7935694D01*
X6413500Y7162800D02*
X5624294Y7162800D01*
X7264400Y7886700D02*
X6794500Y7416800D01*
X5729506Y7416800D02*
X5105400Y8040906D01*
X5237300Y8440000D02*
X5226900Y8440000D01*
X5105400Y8040906D02*
X5105400Y8318500D01*
X5226900Y8440000D02*
X5105400Y8318500D01*
X6921500Y8229600D02*
X7264400Y7886700D01*
X6794500Y7416800D02*
X5729506Y7416800D01*
X13578840Y10261600D02*
X10988040Y10261600D01*
X10746740Y10502900D02*
X10746740Y11249660D01*
X10518140Y11478260D02*
X7586980Y11478260D01*
X13843000Y10972800D02*
X13843000Y10525760D01*
X13843000Y10525760D02*
X13578840Y10261600D01*
X7241540Y10147300D02*
X7241540Y9415760D01*
X7586980Y11478260D02*
X6967220Y10858500D01*
X6967220Y10421620D02*
X7241540Y10147300D01*
X6967220Y10858500D02*
X6967220Y10421620D01*
X10988040Y10261600D02*
X10746740Y10502900D01*
X10746740Y11249660D02*
X10518140Y11478260D01*
X7241540Y9415760D02*
X7357300Y9300000D01*
X6993780Y9280000D02*
X6860540Y9413240D01*
X6581140Y10848340D02*
X7421880Y11689080D01*
X6860540Y9413240D02*
X6860540Y9499600D01*
X6997300Y9280000D02*
X6993780Y9280000D01*
X7421880Y11689080D02*
X12123420Y11689080D01*
X6581140Y9779000D02*
X6581140Y10848340D01*
X6860540Y9499600D02*
X6581140Y9779000D01*
X12123420Y11689080D02*
X12882880Y10929620D01*
M02*
