G04 #@! TF.GenerationSoftware,KiCad,Pcbnew,(5.99.0-8645-g8b3dea7107)*
G04 #@! TF.CreationDate,2021-12-17T21:37:34-08:00*
G04 #@! TF.ProjectId,bomu,626f6d75-2e6b-4696-9361-645f70636258,rev?*
G04 #@! TF.SameCoordinates,PX7b80accPY896b3f8*
G04 #@! TF.FileFunction,Copper,L1,Top*
G04 #@! TF.FilePolarity,Positive*
%FSLAX46Y46*%
G04 Gerber Fmt 4.6, Leading zero omitted, Abs format (unit mm)*
G04 Created by KiCad (PCBNEW (5.99.0-8645-g8b3dea7107)) date 2021-12-17 21:37:34*
%MOMM*%
%LPD*%
G01*
G04 APERTURE LIST*
G04 #@! TA.AperFunction,SMDPad,CuDef*
%ADD10R,0.800000X0.800000*%
G04 #@! TD*
G04 #@! TA.AperFunction,ViaPad*
%ADD11C,0.508000*%
G04 #@! TD*
G04 #@! TA.AperFunction,ViaPad*
%ADD12C,0.200000*%
G04 #@! TD*
G04 #@! TA.AperFunction,Conductor*
%ADD13C,0.254000*%
G04 #@! TD*
G04 #@! TA.AperFunction,Conductor*
%ADD14C,0.381000*%
G04 #@! TD*
G04 APERTURE END LIST*
G36*
X3603300Y4114000D02*
G01*
X2603300Y4114000D01*
X2603300Y5114000D01*
X3603300Y5114000D01*
X3603300Y4114000D01*
G37*
G36*
X3603300Y9363900D02*
G01*
X2603300Y9363900D01*
X2603300Y10363900D01*
X3603300Y10363900D01*
X3603300Y9363900D01*
G37*
G36*
X3603300Y10363900D02*
G01*
X2603300Y10363900D01*
X2603500Y10604500D01*
X3604260Y11612880D01*
X3603300Y10363900D01*
G37*
G36*
X3604260Y2865020D02*
G01*
X2603500Y3873400D01*
X2603300Y4114000D01*
X3603300Y4114000D01*
X3604260Y2865020D01*
G37*
G04 #@! TA.AperFunction,SMDPad,CuDef*
G36*
X11103300Y9364000D02*
G01*
X3603300Y9364000D01*
X3603300Y11614000D01*
X11103300Y11614000D01*
X11103300Y9364000D01*
G37*
G04 #@! TD.AperFunction*
G04 #@! TA.AperFunction,SMDPad,CuDef*
G36*
X11103300Y7364000D02*
G01*
X3603300Y7364000D01*
X3603300Y9114000D01*
X11103300Y9114000D01*
X11103300Y7364000D01*
G37*
G04 #@! TD.AperFunction*
G04 #@! TA.AperFunction,SMDPad,CuDef*
G36*
X11103300Y5348000D02*
G01*
X3603300Y5348000D01*
X3603300Y7098000D01*
X11103300Y7098000D01*
X11103300Y5348000D01*
G37*
G04 #@! TD.AperFunction*
G04 #@! TA.AperFunction,SMDPad,CuDef*
G36*
X11103300Y2864000D02*
G01*
X3603300Y2864000D01*
X3603300Y5114000D01*
X11103300Y5114000D01*
X11103300Y2864000D01*
G37*
G04 #@! TD.AperFunction*
D10*
X14668500Y11224200D03*
X12738100Y11217000D03*
X11772900Y11217000D03*
X13703300Y11242400D03*
X14693900Y10160000D03*
X11772900Y10185400D03*
X12738100Y10185400D03*
D11*
X7073900Y6197600D03*
X14389100Y10414000D03*
X7429500Y10668000D03*
X14795500Y11531600D03*
X5499100Y3124200D03*
X4991100Y3124200D03*
X4483100Y3124200D03*
X3975100Y3124200D03*
X12738100Y10960100D03*
X13703300Y11531600D03*
X11772900Y11531600D03*
X6921500Y8229600D03*
D12*
X11544300Y9982200D03*
X12738100Y9982200D03*
D13*
X14643100Y10160000D02*
X14389100Y10414000D01*
X14693900Y10160000D02*
X14643100Y10160000D01*
X7353300Y10591800D02*
X7429500Y10668000D01*
X7353300Y10489000D02*
X7353300Y10591800D01*
X14668500Y11404600D02*
X14795500Y11531600D01*
X14668500Y11224200D02*
X14668500Y11404600D01*
D14*
X7353300Y3989000D02*
X7353300Y3937000D01*
X6540500Y3124200D02*
X5499100Y3124200D01*
X7353300Y3937000D02*
X6540500Y3124200D01*
D13*
X12738100Y11217000D02*
X12738100Y10960100D01*
X13703300Y11242400D02*
X13703300Y11531600D01*
X11772900Y11217000D02*
X11772900Y11531600D01*
X7353300Y6223000D02*
X6946900Y6223000D01*
X6946900Y6223000D02*
X6921500Y6248400D01*
X7353300Y8239000D02*
X6930900Y8239000D01*
X6930900Y8239000D02*
X6921500Y8229600D01*
X11747500Y10185400D02*
X11544300Y9982200D01*
X11772900Y10185400D02*
X11747500Y10185400D01*
X12738100Y10185400D02*
X12738100Y9982200D01*
M02*
