M48
INCH,TZ
T1C0.0039
%
G90
G05
T1
X1115Y4530
X1115Y4330
X1115Y4130
X1115Y3930
X1115Y3730
X1115Y3530
X1115Y3330
X1115Y3130
X1115Y2930
X1115Y2730
X1115Y2530
X1115Y2330
X1115Y2130
X1115Y1930
X1115Y1730
X1315Y4530
X1315Y1730
X1405Y3190
X1405Y1974
X1515Y4530
X1515Y1730
X1615Y3190
X1715Y4530
X1715Y1730
X1815Y4230
X1815Y1630
X1855Y3624
X1915Y4530
X1915Y2210
X1915Y1730
X1915Y1530
X2015Y4230
X2015Y1630
X2115Y4530
X2115Y1730
X2115Y1530
X2215Y4230
X2215Y1830
X2215Y1630
X2225Y2170
X2265Y2060
X2265Y1910
X2315Y4530
X2315Y2210
X2315Y1730
X2315Y1430
X2415Y4230
X2415Y1530
X2415Y1330
X2415Y1230
X2415Y1130
X2455Y2180
X2455Y2080
X2455Y1930
X2455Y1780
X2455Y1630
X2505Y1430
X2515Y4530
X2515Y1130
X2605Y1330
X2615Y4230
X2715Y4530
X2715Y1130
X2745Y1310
X2815Y2070
X2815Y1940
X2838Y2224
X2892Y1857
X2915Y2130
X2915Y2030
X2915Y1130
X2965Y1310
X2975Y1780
X3005Y1865
X3015Y4030
X3015Y3830
X3015Y1680
X3047Y3208
X3115Y3930
X3115Y1680
X3115Y1130
X3130Y1805
X3165Y1310
X3215Y4030
X3215Y3830
X3215Y1680
X3315Y3930
X3315Y3730
X3315Y1130
X3325Y1680
X3330Y1795
X3365Y1310
X3465Y1680
X3515Y3730
X3515Y1130
X3525Y1800
X3565Y1310
X3605Y1680
X3645Y3190
X3715Y3930
X3715Y3730
X3715Y1830
X3715Y1130
X3745Y1680
X3775Y1310
X3815Y3830
X3885Y1830
X3885Y1680
X3915Y3930
X3915Y1130
X3965Y1310
X4015Y3830
X4015Y1830
X4025Y1680
X4115Y3930
X4115Y2610
X4115Y2130
X4115Y2030
X4115Y1930
X4115Y1130
X4135Y1830
X4165Y1680
X4165Y1310
X4215Y3830
X4215Y3630
X4215Y2830
X4215Y2630
X4215Y2430
X4215Y2230
X4215Y2030
X4265Y1840
X4315Y3930
X4315Y3730
X4315Y3530
X4315Y3330
X4315Y3130
X4315Y2930
X4315Y2730
X4315Y2530
X4315Y2330
X4315Y2130
X4315Y1930
X4315Y1130
X4365Y1310
X4395Y1810
X4415Y3830
X4415Y2050
X4445Y1410
X4515Y3930
X4515Y3730
X4515Y1930
X4515Y1130
X4525Y1840
X4565Y1400
X4615Y3830
X4615Y2050
X4655Y1840
X4655Y1130
X4685Y1410
X4685Y1325
X4715Y3930
X4715Y3730
X4715Y1930
X4785Y1840
X4785Y1130
X4815Y3830
X4815Y2050
X4845Y1415
X4915Y3930
X4915Y3730
X4915Y1930
X4915Y1840
X5015Y3830
X5015Y2050
X5045Y1840
X5115Y3930
X5115Y3730
X5115Y1930
X5175Y1840
X5205Y2050
X5215Y3830
X5275Y1980
X5275Y1840
X5315Y3930
X5315Y3730
X5415Y3830
X5515Y3930
X5515Y3730
X5535Y1540
X5535Y1310
X5605Y1240
X5615Y3830
X5635Y1680
X5635Y1130
X5665Y1920
X5665Y1790
X5705Y2020
X5715Y3930
X5715Y3730
X5715Y1830
X5715Y1730
X5755Y1410
X5775Y1130
X5815Y3830
X5855Y1210
X5885Y1350
X5895Y1470
X5915Y3930
X5915Y3730
X5925Y1590
X5945Y1770
X5965Y2020
X5965Y1910
T0
M30
