G04 #@! TF.GenerationSoftware,KiCad,Pcbnew,(6.0.0-rc2-14-ga17a58203b)*
G04 #@! TF.CreationDate,2021-12-23T13:58:56-08:00*
G04 #@! TF.ProjectId,bomu,626f6d75-2e6b-4696-9361-645f70636258,rev?*
G04 #@! TF.SameCoordinates,PX7b80accPY896b3f8*
G04 #@! TF.FileFunction,Profile,NP*
%FSLAX46Y46*%
G04 Gerber Fmt 4.6, Leading zero omitted, Abs format (unit mm)*
G04 Created by KiCad (PCBNEW (6.0.0-rc2-14-ga17a58203b)) date 2021-12-23 13:58:56*
%MOMM*%
%LPD*%
G01*
G04 APERTURE LIST*
G04 #@! TA.AperFunction,Profile*
%ADD10C,0.010000*%
G04 #@! TD*
G04 #@! TA.AperFunction,Profile*
%ADD11C,0.050000*%
G04 #@! TD*
G04 APERTURE END LIST*
D10*
X11704100Y6378000D02*
G75*
G03*
X12904100Y6378000I600000J0D01*
G01*
X12904100Y8078000D02*
G75*
G03*
X11704100Y8078000I-600000J0D01*
G01*
D11*
X14034900Y2553400D02*
G75*
G03*
X12434900Y2553400I-800000J0D01*
G01*
X14034900Y2553400D02*
X15059900Y2553400D01*
X3059900Y11953400D02*
G75*
G03*
X2559900Y11453400I0J-500000D01*
G01*
X2559900Y11453400D02*
X2559900Y3053400D01*
X15559900Y7253400D02*
X15559900Y7383400D01*
X15559900Y7383400D02*
X15559900Y7523400D01*
X15559900Y7523400D02*
X15559900Y7653400D01*
X15559900Y7653400D02*
X15559900Y7793400D01*
X15559900Y7793400D02*
X15549900Y7923400D01*
X15549900Y7923400D02*
X15549900Y8063400D01*
X15549900Y8063400D02*
X15549900Y8193400D01*
X15549900Y8193400D02*
X15539900Y8323400D01*
X15539900Y8323400D02*
X15539900Y8463400D01*
X15539900Y8463400D02*
X15529900Y8593400D01*
X15529900Y8593400D02*
X15519900Y8723400D01*
X15519900Y8723400D02*
X15519900Y8853400D01*
X15519900Y8853400D02*
X15509900Y8983400D01*
X15509900Y8983400D02*
X15499900Y9103400D01*
X15499900Y9103400D02*
X15489900Y9233400D01*
X15489900Y9233400D02*
X15479900Y9353400D01*
X15479900Y9353400D02*
X15469900Y9483400D01*
X15469900Y9483400D02*
X15459900Y9603400D01*
X15459900Y9603400D02*
X15449900Y9723400D01*
X15449900Y9723400D02*
X15439900Y9843400D01*
X15439900Y9843400D02*
X15429900Y9963400D01*
X15429900Y9963400D02*
X15419900Y10083400D01*
X15419900Y10083400D02*
X15399900Y10193400D01*
X15399900Y10193400D02*
X15389900Y10313400D01*
X15389900Y10313400D02*
X15379900Y10423400D01*
X15379900Y10423400D02*
X15359900Y10533400D01*
X15359900Y10533400D02*
X15349900Y10633400D01*
X15349900Y10633400D02*
X15329900Y10743400D01*
X15329900Y10743400D02*
X15319900Y10843400D01*
X15319900Y10843400D02*
X15299900Y10943400D01*
X15299900Y10943400D02*
X15279900Y11043400D01*
X15279900Y11043400D02*
X15269900Y11143400D01*
X15269900Y11143400D02*
X15249900Y11233400D01*
X15249900Y11233400D02*
X15229900Y11333400D01*
X15229900Y11333400D02*
X15209900Y11413400D01*
X15209900Y11413400D02*
X15189900Y11503400D01*
X15189900Y11503400D02*
X15179900Y11593400D01*
X15179900Y11593400D02*
X15159900Y11673400D01*
X15159900Y11673400D02*
X15139900Y11753400D01*
X15139900Y11753400D02*
X15119900Y11823400D01*
X15119900Y11823400D02*
X15089900Y11903400D01*
X15089900Y11903400D02*
X15059900Y11953400D01*
X15059900Y2553400D02*
X15089900Y2603400D01*
X15089900Y2603400D02*
X15119900Y2683400D01*
X15119900Y2683400D02*
X15139900Y2753400D01*
X15139900Y2753400D02*
X15159900Y2833400D01*
X15159900Y2833400D02*
X15179900Y2913400D01*
X15179900Y2913400D02*
X15189900Y3003400D01*
X15189900Y3003400D02*
X15209900Y3093400D01*
X15209900Y3093400D02*
X15229900Y3173400D01*
X15229900Y3173400D02*
X15249900Y3273400D01*
X15249900Y3273400D02*
X15269900Y3363400D01*
X15269900Y3363400D02*
X15279900Y3463400D01*
X15279900Y3463400D02*
X15299900Y3563400D01*
X15299900Y3563400D02*
X15319900Y3663400D01*
X15319900Y3663400D02*
X15329900Y3763400D01*
X15329900Y3763400D02*
X15349900Y3873400D01*
X15349900Y3873400D02*
X15359900Y3973400D01*
X15359900Y3973400D02*
X15379900Y4083400D01*
X15379900Y4083400D02*
X15389900Y4193400D01*
X15389900Y4193400D02*
X15399900Y4313400D01*
X15399900Y4313400D02*
X15419900Y4423400D01*
X15419900Y4423400D02*
X15429900Y4543400D01*
X15429900Y4543400D02*
X15439900Y4663400D01*
X15439900Y4663400D02*
X15449900Y4783400D01*
X15449900Y4783400D02*
X15459900Y4903400D01*
X15459900Y4903400D02*
X15469900Y5023400D01*
X15469900Y5023400D02*
X15479900Y5153400D01*
X15479900Y5153400D02*
X15489900Y5273400D01*
X15489900Y5273400D02*
X15499900Y5403400D01*
X15499900Y5403400D02*
X15509900Y5523400D01*
X15509900Y5523400D02*
X15519900Y5653400D01*
X15519900Y5653400D02*
X15519900Y5783400D01*
X15519900Y5783400D02*
X15529900Y5913400D01*
X15529900Y5913400D02*
X15539900Y6043400D01*
X15539900Y6043400D02*
X15539900Y6183400D01*
X15539900Y6183400D02*
X15549900Y6313400D01*
X15549900Y6313400D02*
X15549900Y6443400D01*
X15549900Y6443400D02*
X15549900Y6583400D01*
X15549900Y6583400D02*
X15559900Y6713400D01*
X15559900Y6713400D02*
X15559900Y6853400D01*
X15559900Y6853400D02*
X15559900Y6983400D01*
X15559900Y6983400D02*
X15559900Y7123400D01*
X15559900Y7123400D02*
X15559900Y7253400D01*
X2559900Y3053400D02*
G75*
G03*
X3059900Y2553400I500000J0D01*
G01*
D10*
X12904100Y8078000D02*
X12904100Y6378000D01*
X11704100Y8078000D02*
X11704100Y6378000D01*
D11*
X1758544Y12346457D02*
X1758544Y2258543D01*
X10160000Y1758544D02*
X10160000Y2540000D01*
X12192000Y1758544D02*
X12192000Y2540000D01*
X16509991Y12346447D02*
G75*
G03*
X16009991Y12846447I-500000J0D01*
G01*
X20320000Y15240000D02*
X20320000Y0D01*
X0Y15240000D02*
X20320000Y15240000D01*
X12192000Y1758544D02*
X16010001Y1758544D01*
X6858000Y1758544D02*
X6858000Y2540000D01*
X3059913Y2553411D02*
X4318000Y2553411D01*
X10414000Y12846456D02*
X10414000Y11953392D01*
X0Y12700000D02*
X0Y0D01*
X4318000Y1758544D02*
X4318000Y2540000D01*
X4445000Y12846456D02*
X4445000Y11953392D01*
X2258553Y12846447D02*
G75*
G03*
X1758553Y12346447I0J-500000D01*
G01*
X12954000Y12846456D02*
X12954000Y11953392D01*
X16010001Y12846456D02*
X12954000Y12846456D01*
X1758553Y2258553D02*
G75*
G03*
X2258553Y1758553I500000J0D01*
G01*
X6858000Y11953392D02*
X10414000Y11953392D01*
X2258543Y1758544D02*
X4318000Y1758544D01*
X0Y12700000D02*
X0Y15240000D01*
X12954000Y11953392D02*
X15059889Y11953392D01*
X12192000Y2540000D02*
X12434900Y2540000D01*
X6858000Y2540000D02*
X10160000Y2540000D01*
X16009991Y1758552D02*
G75*
G03*
X16509992Y2258553I0J500001D01*
G01*
X2258543Y12846456D02*
X4445000Y12846456D01*
X3059913Y11953392D02*
X4445000Y11953392D01*
X16510000Y2258543D02*
X16510000Y12346457D01*
X6858000Y12846456D02*
X10414000Y12846456D01*
X20320000Y0D02*
X0Y0D01*
X6858000Y12846456D02*
X6858000Y11953392D01*
X6858000Y1758544D02*
X10160000Y1758544D01*
M02*
