G04 #@! TF.GenerationSoftware,KiCad,Pcbnew,(6.0.0-rc2-14-ga17a58203b)*
G04 #@! TF.CreationDate,2021-12-23T13:58:55-08:00*
G04 #@! TF.ProjectId,bomu,626f6d75-2e6b-4696-9361-645f70636258,rev?*
G04 #@! TF.SameCoordinates,PX7b80accPY896b3f8*
G04 #@! TF.FileFunction,Legend,Top*
G04 #@! TF.FilePolarity,Positive*
%FSLAX46Y46*%
G04 Gerber Fmt 4.6, Leading zero omitted, Abs format (unit mm)*
G04 Created by KiCad (PCBNEW (6.0.0-rc2-14-ga17a58203b)) date 2021-12-23 13:58:55*
%MOMM*%
%LPD*%
G01*
G04 APERTURE LIST*
%ADD10C,0.250000*%
G04 APERTURE END LIST*
D10*
X11698480Y4211629D02*
X11841338Y4164010D01*
X11888957Y4116391D01*
X11936576Y4021153D01*
X11936576Y3878296D01*
X11888957Y3783058D01*
X11841338Y3735439D01*
X11746100Y3687820D01*
X11365147Y3687820D01*
X11365147Y4687820D01*
X11698480Y4687820D01*
X11793719Y4640200D01*
X11841338Y4592581D01*
X11888957Y4497343D01*
X11888957Y4402105D01*
X11841338Y4306867D01*
X11793719Y4259248D01*
X11698480Y4211629D01*
X11365147Y4211629D01*
X12555623Y4687820D02*
X12746100Y4687820D01*
X12841338Y4640200D01*
X12936576Y4544962D01*
X12984195Y4354486D01*
X12984195Y4021153D01*
X12936576Y3830677D01*
X12841338Y3735439D01*
X12746100Y3687820D01*
X12555623Y3687820D01*
X12460385Y3735439D01*
X12365147Y3830677D01*
X12317528Y4021153D01*
X12317528Y4354486D01*
X12365147Y4544962D01*
X12460385Y4640200D01*
X12555623Y4687820D01*
X13412766Y3687820D02*
X13412766Y4687820D01*
X13746100Y3973534D01*
X14079433Y4687820D01*
X14079433Y3687820D01*
X14555623Y4687820D02*
X14555623Y3878296D01*
X14603242Y3783058D01*
X14650861Y3735439D01*
X14746100Y3687820D01*
X14936576Y3687820D01*
X15031814Y3735439D01*
X15079433Y3783058D01*
X15127052Y3878296D01*
X15127052Y4687820D01*
M02*
