G04 #@! TF.GenerationSoftware,KiCad,Pcbnew,(6.0.0-0)*
G04 #@! TF.CreationDate,2022-02-18T09:46:44-08:00*
G04 #@! TF.ProjectId,bomu,626f6d75-2e6b-4696-9361-645f70636258,rev?*
G04 #@! TF.SameCoordinates,PX7b80accPY896b3f8*
G04 #@! TF.FileFunction,Paste,Bot*
G04 #@! TF.FilePolarity,Positive*
%FSLAX46Y46*%
G04 Gerber Fmt 4.6, Leading zero omitted, Abs format (unit mm)*
G04 Created by KiCad (PCBNEW (6.0.0-0)) date 2022-02-18 09:46:44*
%MOMM*%
%LPD*%
G01*
G04 APERTURE LIST*
G04 Aperture macros list*
%AMRoundRect*
0 Rectangle with rounded corners*
0 $1 Rounding radius*
0 $2 $3 $4 $5 $6 $7 $8 $9 X,Y pos of 4 corners*
0 Add a 4 corners polygon primitive as box body*
4,1,4,$2,$3,$4,$5,$6,$7,$8,$9,$2,$3,0*
0 Add four circle primitives for the rounded corners*
1,1,$1+$1,$2,$3*
1,1,$1+$1,$4,$5*
1,1,$1+$1,$6,$7*
1,1,$1+$1,$8,$9*
0 Add four rect primitives between the rounded corners*
20,1,$1+$1,$2,$3,$4,$5,0*
20,1,$1+$1,$4,$5,$6,$7,0*
20,1,$1+$1,$6,$7,$8,$9,0*
20,1,$1+$1,$8,$9,$2,$3,0*%
G04 Aperture macros list end*
%ADD10RoundRect,0.147500X0.172500X-0.147500X0.172500X0.147500X-0.172500X0.147500X-0.172500X-0.147500X0*%
%ADD11RoundRect,0.079500X0.079500X0.100500X-0.079500X0.100500X-0.079500X-0.100500X0.079500X-0.100500X0*%
%ADD12RoundRect,0.079500X0.100500X-0.079500X0.100500X0.079500X-0.100500X0.079500X-0.100500X-0.079500X0*%
%ADD13RoundRect,0.079500X-0.100500X0.079500X-0.100500X-0.079500X0.100500X-0.079500X0.100500X0.079500X0*%
%ADD14C,0.200000*%
%ADD15R,0.740000X0.840000*%
%ADD16R,0.750000X1.400000*%
%ADD17RoundRect,0.147500X-0.172500X0.147500X-0.172500X-0.147500X0.172500X-0.147500X0.172500X0.147500X0*%
%ADD18RoundRect,0.079500X-0.079500X-0.100500X0.079500X-0.100500X0.079500X0.100500X-0.079500X0.100500X0*%
%ADD19RoundRect,0.079500X0.014849X-0.127279X0.127279X-0.014849X-0.014849X0.127279X-0.127279X0.014849X0*%
%ADD20R,0.650000X0.800000*%
%ADD21R,1.600000X0.800000*%
%ADD22RoundRect,0.147500X-0.147500X-0.172500X0.147500X-0.172500X0.147500X0.172500X-0.147500X0.172500X0*%
G04 APERTURE END LIST*
D10*
X5067300Y10030600D03*
X5067300Y11000600D03*
D11*
X3680900Y5029200D03*
X4370900Y5029200D03*
X3299900Y3276600D03*
X3989900Y3276600D03*
X10187500Y9296400D03*
X9497500Y9296400D03*
D12*
X11137900Y10892011D03*
X11137900Y11582011D03*
D13*
X8039100Y11597200D03*
X8039100Y10907200D03*
D14*
X8090100Y6044999D03*
X8090100Y6394999D03*
X8090100Y6744999D03*
X8090100Y7094999D03*
X8090100Y7444999D03*
X8090100Y7794999D03*
X8090100Y8144999D03*
X8090100Y8494999D03*
X8090100Y8844999D03*
X8090100Y9194999D03*
X7740100Y6744999D03*
X7740100Y7094999D03*
X7740100Y7444999D03*
X7740100Y7794999D03*
X7740100Y8144999D03*
X7740100Y8494999D03*
X7740100Y8844999D03*
X7740100Y9194999D03*
X7390100Y6044999D03*
X7390100Y6394999D03*
X7390100Y7094999D03*
X7390100Y7444999D03*
X7390100Y7794999D03*
X7390100Y8144999D03*
X7390100Y8494999D03*
X7390100Y8844999D03*
X7390100Y9194999D03*
X7040100Y6744999D03*
X7040100Y7094999D03*
X7040100Y7444999D03*
X7040100Y7794999D03*
X7040100Y8144999D03*
X7040100Y8494999D03*
X7040100Y8844999D03*
X7040100Y9194999D03*
X6690100Y6044999D03*
X6690100Y6394999D03*
X6690100Y6744999D03*
X6690100Y7094999D03*
X6690100Y7444999D03*
X6690100Y7794999D03*
X6690100Y8144999D03*
X6690100Y8494999D03*
X6690100Y8844999D03*
X6690100Y9194999D03*
X6340100Y6044999D03*
X6340100Y6394999D03*
X6340100Y6744999D03*
X6340100Y7094999D03*
X6340100Y7444999D03*
X6340100Y7794999D03*
X6340100Y8144999D03*
X6340100Y8494999D03*
X6340100Y8844999D03*
X6340100Y9194999D03*
X5990100Y6044999D03*
X5990100Y6394999D03*
X5990100Y6744999D03*
X5990100Y7094999D03*
X5990100Y7444999D03*
X5990100Y7794999D03*
X5990100Y8144999D03*
X5990100Y8494999D03*
X5990100Y8844999D03*
X5990100Y9194999D03*
X5640100Y6044999D03*
X5640100Y6394999D03*
X5640100Y7094999D03*
X5640100Y7444999D03*
X5640100Y7794999D03*
X5640100Y8144999D03*
X5640100Y8494999D03*
X5640100Y8844999D03*
X5640100Y9194999D03*
X5290100Y6044999D03*
X5290100Y6394999D03*
X5290100Y6744999D03*
X5290100Y7094999D03*
X5290100Y7444999D03*
X5290100Y7794999D03*
X5290100Y8144999D03*
X5290100Y8494999D03*
X5290100Y8844999D03*
X5290100Y9194999D03*
X4940100Y6044999D03*
X4940100Y6394999D03*
X4940100Y6744999D03*
X4940100Y7094999D03*
X4940100Y7444999D03*
X4940100Y7794999D03*
X4940100Y8144999D03*
X4940100Y8494999D03*
X4940100Y8844999D03*
X4940100Y9194999D03*
D15*
X9201300Y6854200D03*
X9201300Y8284200D03*
X10331300Y8284200D03*
X10331300Y6854200D03*
D10*
X5956300Y10030600D03*
X5956300Y11000600D03*
D16*
X10267700Y11074400D03*
X8807700Y11074400D03*
D17*
X6845300Y11000600D03*
X6845300Y10030600D03*
D18*
X5767900Y5029200D03*
X5077900Y5029200D03*
D12*
X6690360Y4811200D03*
X6690360Y5501200D03*
D19*
X7330552Y4437492D03*
X6842648Y3949588D03*
D18*
X8913300Y9931400D03*
X9603300Y9931400D03*
D13*
X4102100Y7427400D03*
X4102100Y8117400D03*
D11*
X8109780Y3797249D03*
X7419780Y3797249D03*
X12164500Y4140200D03*
X12854500Y4140200D03*
D12*
X11645900Y4125400D03*
X11645900Y4815400D03*
X13373100Y4815400D03*
X13373100Y4125400D03*
D20*
X13914100Y5689800D03*
X14864100Y5689800D03*
D21*
X14389100Y8889800D03*
D10*
X4051300Y9827400D03*
X4051300Y10797400D03*
D22*
X7325500Y5181600D03*
X8295500Y5181600D03*
D18*
X9395900Y5207000D03*
X10085900Y5207000D03*
D11*
X10263700Y5867400D03*
X9573700Y5867400D03*
M02*
