G04 #@! TF.GenerationSoftware,KiCad,Pcbnew,(6.0.0-0)*
G04 #@! TF.CreationDate,2022-02-18T23:14:37-08:00*
G04 #@! TF.ProjectId,bomu,626f6d75-2e6b-4696-9361-645f70636258,rev?*
G04 #@! TF.SameCoordinates,PX7b80accPY896b3f8*
G04 #@! TF.FileFunction,Copper,L5,Inr*
G04 #@! TF.FilePolarity,Positive*
%FSLAX46Y46*%
G04 Gerber Fmt 4.6, Leading zero omitted, Abs format (unit mm)*
G04 Created by KiCad (PCBNEW (6.0.0-0)) date 2022-02-18 23:14:37*
%MOMM*%
%LPD*%
G01*
G04 APERTURE LIST*
G04 #@! TA.AperFunction,ViaPad*
%ADD10C,0.508000*%
G04 #@! TD*
G04 #@! TA.AperFunction,ViaPad*
%ADD11C,0.200000*%
G04 #@! TD*
G04 #@! TA.AperFunction,Conductor*
%ADD12C,0.254000*%
G04 #@! TD*
G04 #@! TA.AperFunction,Conductor*
%ADD13C,0.127000*%
G04 #@! TD*
G04 APERTURE END LIST*
D10*
X14389100Y10414000D03*
X7429500Y10668000D03*
D11*
X9258300Y8102600D03*
X10452100Y6629400D03*
X4711700Y9204960D03*
X7207300Y5650000D03*
X7912100Y4267200D03*
X8801100Y4267200D03*
X7556500Y4521200D03*
X9867900Y4267200D03*
X10223500Y4267200D03*
X10833100Y4673600D03*
X10502900Y4648200D03*
X11493500Y4673600D03*
X15151100Y4851400D03*
X15100300Y4495800D03*
X15049500Y4038600D03*
X14947900Y3429000D03*
X14871700Y3073400D03*
X14668500Y2870200D03*
X14312900Y2870200D03*
X14236700Y3149600D03*
X11823700Y4673600D03*
X12153900Y4673600D03*
X12484100Y4673600D03*
X12814300Y4673600D03*
X13144500Y4673600D03*
X13398500Y4673600D03*
X13398500Y5029200D03*
X13220700Y5207000D03*
X14058900Y3911600D03*
X14312900Y4267200D03*
X14389100Y4546600D03*
X14389100Y4876800D03*
X14490700Y5130800D03*
X15151100Y5130800D03*
X12153900Y2870200D03*
X11823700Y2870200D03*
X11468100Y2870200D03*
X10960100Y2870200D03*
X10452100Y2870200D03*
X9944100Y2870200D03*
X9436100Y2870200D03*
X8928100Y2870200D03*
X8420100Y2870200D03*
X7912100Y2870200D03*
X7404100Y2870200D03*
X6896100Y2870200D03*
X6388100Y2870200D03*
X6134100Y2870200D03*
X6134100Y3124200D03*
X6134100Y3378200D03*
X5880100Y3632200D03*
X5372100Y3886200D03*
X4864100Y3886200D03*
X4610100Y4140200D03*
X5880100Y5613400D03*
X4864100Y5613400D03*
X4864100Y4394200D03*
X5372100Y4394200D03*
X5626100Y4648200D03*
X5118100Y4140200D03*
X14617700Y3581400D03*
X14516100Y4394200D03*
X14516100Y4648200D03*
X14973300Y3733800D03*
X14058900Y3327400D03*
X11899900Y3365500D03*
X12230100Y5207000D03*
X11722100Y5207000D03*
X11214100Y5207000D03*
X12738100Y5207000D03*
X11468100Y9474200D03*
X11976100Y9474200D03*
X12484100Y9474200D03*
X12992100Y9474200D03*
X13500100Y9474200D03*
X10960100Y8966200D03*
X10960100Y8458200D03*
X10960100Y7950200D03*
X10960100Y7442200D03*
X10960100Y6934200D03*
X10960100Y6426200D03*
X10960100Y5918200D03*
X10960100Y5410200D03*
X10960100Y9474200D03*
X14008100Y9474200D03*
X14516100Y9474200D03*
X15024100Y9474200D03*
X12992100Y4902200D03*
X12484100Y4902200D03*
X11976100Y4902200D03*
X11468100Y4902200D03*
X10960100Y4902200D03*
X10960100Y9982200D03*
X11468100Y9982200D03*
X11976100Y9982200D03*
X12484100Y9982200D03*
X12992100Y9982200D03*
X13500100Y9982200D03*
X14008100Y9982200D03*
X14516100Y9982200D03*
X15024100Y9982200D03*
X14770100Y9728200D03*
X14262100Y9728200D03*
X13754100Y9728200D03*
X12738100Y9728200D03*
X12230100Y9728200D03*
X11722100Y9728200D03*
X11214100Y9728200D03*
X10706100Y9728200D03*
X10706100Y9220200D03*
X4356100Y4394200D03*
X3848100Y4394200D03*
X3340100Y4394200D03*
X2832100Y4394200D03*
X2832100Y4902200D03*
X2832100Y5410200D03*
X2832100Y5918200D03*
X2832100Y6426200D03*
X2832100Y6934200D03*
X2832100Y7442200D03*
X2832100Y7950200D03*
X2832100Y8458200D03*
X2832100Y8966200D03*
X2832100Y9474200D03*
X2832100Y9982200D03*
X2832100Y10490200D03*
X2832100Y10998200D03*
X2832100Y11506200D03*
X3340100Y11506200D03*
X3848100Y11506200D03*
X4356100Y11506200D03*
X4864100Y11506200D03*
X5372100Y11506200D03*
X5880100Y11506200D03*
X6388100Y11506200D03*
X6896100Y11506200D03*
X9867900Y4648200D03*
X10198100Y4648200D03*
X10452100Y5410200D03*
X10452100Y5156200D03*
X10452100Y4902200D03*
X10706100Y5156200D03*
X10706100Y5664200D03*
X10706100Y6172200D03*
X10706100Y6680200D03*
X10706100Y7188200D03*
X9436100Y4648200D03*
X7404100Y5156200D03*
X7404100Y5410200D03*
X3568700Y8102600D03*
X4102100Y8102600D03*
X4610100Y10744200D03*
X5118100Y10744200D03*
X5626100Y10744200D03*
X6134100Y10744200D03*
X6642100Y10744200D03*
X10452100Y9982200D03*
X9944100Y9982200D03*
X8420100Y9982200D03*
X8420100Y9474200D03*
X8928100Y9474200D03*
X9436100Y9474200D03*
X9436100Y9982200D03*
X9690100Y9728200D03*
X10198100Y9728200D03*
X8166100Y9728200D03*
X8166100Y10236200D03*
X7658100Y10236200D03*
X7912100Y9982200D03*
X7658100Y9728200D03*
X7658100Y4267200D03*
X10579100Y4267200D03*
X11163300Y4597400D03*
X6235700Y5283200D03*
X6235700Y4902200D03*
X6972300Y3327400D03*
X7531100Y3327400D03*
X8039100Y3327400D03*
X8547100Y3327400D03*
X9055100Y3327400D03*
X10071100Y3327400D03*
X10579100Y3327400D03*
X11087100Y3327400D03*
X12306300Y3594100D03*
X6235700Y4521200D03*
X6235700Y4140200D03*
X5626100Y4140200D03*
X5880100Y4394200D03*
X6134100Y3886200D03*
X5753100Y4851400D03*
X5753100Y5232400D03*
X5651500Y5511800D03*
X6362700Y3632200D03*
X6616700Y3378200D03*
X9588500Y3327400D03*
X13246100Y9728200D03*
X7346918Y4718018D03*
X8445500Y4267200D03*
X11595100Y3556000D03*
X3568700Y5013960D03*
X8458200Y4559300D03*
X8166100Y4267200D03*
X7150100Y4927600D03*
X7150100Y5257800D03*
X7632700Y4737100D03*
X11290300Y3581400D03*
X9156700Y4267200D03*
X9512300Y4267200D03*
X8953500Y4572000D03*
X7739369Y8147712D03*
X6235700Y5537200D03*
X7950200Y4584700D03*
X11899900Y3581400D03*
X8826500Y9931400D03*
X8572500Y8915400D03*
X6307300Y6350000D03*
X5219700Y5130800D03*
D10*
X4965700Y10058400D03*
X3136900Y3530600D03*
X14795500Y11531600D03*
D11*
X6870700Y9931400D03*
X6159500Y9931400D03*
X7797300Y8560000D03*
X9207500Y5207000D03*
X4457700Y5029200D03*
X7747000Y6756400D03*
X4127500Y7366000D03*
X8293100Y8500000D03*
X7423150Y6496050D03*
D10*
X5499100Y3124200D03*
X4991100Y3124200D03*
X4483100Y3124200D03*
X3975100Y3124200D03*
D11*
X5647300Y6450000D03*
X5317300Y6430000D03*
X4635500Y7747000D03*
D10*
X10299700Y11074400D03*
D11*
X7777300Y8900000D03*
D10*
X8801100Y11074400D03*
D11*
X7787300Y9270000D03*
X4932500Y8490800D03*
X5295900Y8483600D03*
D10*
X13843000Y10972800D03*
D11*
X7357300Y9300000D03*
X6997300Y9280000D03*
D10*
X12882880Y10929620D03*
D11*
X6287300Y5970000D03*
X6667300Y6420000D03*
D12*
X3568700Y4978400D02*
X4000500Y4546600D01*
X10452100Y6908800D02*
X9258300Y8102600D01*
X8839200Y7899400D02*
X9042400Y8102600D01*
X3517900Y8585200D02*
X4137660Y9204960D01*
X3568700Y5013960D02*
X3568700Y4978400D01*
X7531100Y8026400D02*
X6352540Y9204960D01*
D13*
X7739369Y8147712D02*
X7828888Y8147712D01*
D12*
X4137660Y9204960D02*
X4711700Y9204960D01*
X8077200Y7899400D02*
X8839200Y7899400D01*
X3558540Y5013960D02*
X3517900Y5054600D01*
X5387340Y4546600D02*
X5880100Y5039360D01*
D13*
X7828888Y8147712D02*
X8077200Y7899400D01*
D12*
X3517900Y5054600D02*
X3517900Y8585200D01*
X6352540Y9204960D02*
X4711700Y9204960D01*
D13*
X7739369Y8147712D02*
X7690512Y8147712D01*
D12*
X4000500Y4546600D02*
X5387340Y4546600D01*
X10452100Y6629400D02*
X10452100Y6908800D01*
X7569200Y8026400D02*
X7531100Y8026400D01*
X3568700Y5013960D02*
X3558540Y5013960D01*
D13*
X7690512Y8147712D02*
X7569200Y8026400D01*
D12*
X9042400Y8102600D02*
X9258300Y8102600D01*
G04 #@! TA.AperFunction,Conductor*
G36*
X6661244Y11885648D02*
G01*
X6670749Y11872249D01*
X6671923Y11869810D01*
X6673150Y11864430D01*
X6676589Y11860115D01*
X6676590Y11860112D01*
X6684039Y11850764D01*
X6689889Y11841439D01*
X6697453Y11825687D01*
X6711277Y11814632D01*
X6718989Y11806906D01*
X6730015Y11793069D01*
X6745753Y11785478D01*
X6755064Y11779615D01*
X6768715Y11768698D01*
X6774091Y11767462D01*
X6774093Y11767461D01*
X6781607Y11765734D01*
X6785962Y11764732D01*
X6796264Y11761115D01*
X6812202Y11753427D01*
X6817718Y11753422D01*
X6817719Y11753422D01*
X6835190Y11753407D01*
X6835221Y11753405D01*
X6835277Y11753392D01*
X6852123Y11753392D01*
X6903204Y11753347D01*
X6903449Y11753347D01*
X6903524Y11753383D01*
X6903605Y11753392D01*
X10408123Y11753392D01*
X10459449Y11753347D01*
X10464423Y11755736D01*
X10464425Y11755736D01*
X10475398Y11761005D01*
X10485711Y11764607D01*
X10491269Y11765875D01*
X10502962Y11768542D01*
X10507277Y11771981D01*
X10507280Y11771982D01*
X10516628Y11779431D01*
X10525953Y11785281D01*
X10536728Y11790455D01*
X10541705Y11792845D01*
X10552760Y11806669D01*
X10560486Y11814381D01*
X10574323Y11825407D01*
X10581914Y11841146D01*
X10587777Y11850456D01*
X10598694Y11864107D01*
X10599931Y11869487D01*
X10601304Y11872327D01*
X10629306Y11897275D01*
X10645420Y11900000D01*
X12722596Y11900000D01*
X12757244Y11885648D01*
X12766749Y11872249D01*
X12767923Y11869810D01*
X12769150Y11864430D01*
X12772589Y11860115D01*
X12772590Y11860112D01*
X12780039Y11850764D01*
X12785889Y11841439D01*
X12793453Y11825687D01*
X12807277Y11814632D01*
X12814989Y11806906D01*
X12826015Y11793069D01*
X12841753Y11785478D01*
X12851064Y11779615D01*
X12864715Y11768698D01*
X12870091Y11767462D01*
X12870093Y11767461D01*
X12877607Y11765734D01*
X12881962Y11764732D01*
X12892264Y11761115D01*
X12908202Y11753427D01*
X12913718Y11753422D01*
X12913719Y11753422D01*
X12931190Y11753407D01*
X12931221Y11753405D01*
X12931277Y11753392D01*
X12948123Y11753392D01*
X12999204Y11753347D01*
X12999449Y11753347D01*
X12999524Y11753383D01*
X12999605Y11753392D01*
X14320354Y11753392D01*
X14355002Y11739040D01*
X14369354Y11704392D01*
X14364709Y11683568D01*
X14356390Y11665849D01*
X14336360Y11537210D01*
X14336812Y11533753D01*
X14336812Y11533750D01*
X14341944Y11494509D01*
X14353241Y11408119D01*
X14405674Y11288955D01*
X14407920Y11286283D01*
X14407922Y11286280D01*
X14476078Y11205200D01*
X14489446Y11189297D01*
X14597820Y11117156D01*
X14601152Y11116115D01*
X14648794Y11101231D01*
X14722087Y11078333D01*
X14725577Y11078269D01*
X14752114Y11077783D01*
X14852255Y11075947D01*
X14977860Y11110191D01*
X14980831Y11112015D01*
X14980833Y11112016D01*
X15000147Y11123875D01*
X15037184Y11129774D01*
X15067543Y11107757D01*
X15074543Y11086994D01*
X15079297Y11039453D01*
X15079520Y11033177D01*
X15079328Y11026459D01*
X15079872Y11023739D01*
X15081395Y11016120D01*
X15082103Y11011391D01*
X15083136Y11001065D01*
X15084012Y10998457D01*
X15085291Y10994646D01*
X15086887Y10988661D01*
X15108204Y10882072D01*
X15108206Y10882066D01*
X15121396Y10816117D01*
X15122105Y10811382D01*
X15129079Y10741637D01*
X15129270Y10734502D01*
X15129061Y10729979D01*
X15129557Y10727252D01*
X15129557Y10727248D01*
X15131339Y10717446D01*
X15131886Y10713561D01*
X15131898Y10713446D01*
X15133136Y10701065D01*
X15134011Y10698459D01*
X15134587Y10696744D01*
X15136345Y10689916D01*
X15147149Y10630497D01*
X15151341Y10607441D01*
X15151888Y10603550D01*
X15159079Y10531637D01*
X15159270Y10524502D01*
X15159061Y10519979D01*
X15159557Y10517252D01*
X15159557Y10517248D01*
X15161339Y10507446D01*
X15161886Y10503561D01*
X15163136Y10491065D01*
X15164011Y10488459D01*
X15164587Y10486744D01*
X15166345Y10479916D01*
X15174181Y10436821D01*
X15181139Y10398552D01*
X15181728Y10394222D01*
X15190634Y10296255D01*
X15190664Y10295909D01*
X15199249Y10192892D01*
X15199366Y10186575D01*
X15199061Y10179979D01*
X15200972Y10169468D01*
X15201591Y10164787D01*
X15202463Y10154323D01*
X15204470Y10148002D01*
X15205976Y10141944D01*
X15220971Y10059474D01*
X15221592Y10054777D01*
X15232463Y9924323D01*
X15242463Y9804323D01*
X15250731Y9705112D01*
X15262463Y9564323D01*
X15270520Y9467634D01*
X15270545Y9467323D01*
X15278768Y9360430D01*
X15278779Y9359955D01*
X15278704Y9359435D01*
X15278825Y9357985D01*
X15278825Y9357980D01*
X15280521Y9337636D01*
X15280546Y9337323D01*
X15282218Y9315581D01*
X15280768Y9315469D01*
X15274097Y9283227D01*
X15242756Y9262631D01*
X15233659Y9261761D01*
X11107246Y9253886D01*
X11107245Y9253886D01*
X11097500Y9253867D01*
X11097500Y5296000D01*
X15237837Y5296000D01*
X15272485Y5281648D01*
X15286837Y5247000D01*
X15286668Y5242931D01*
X15282455Y5192373D01*
X15282390Y5191900D01*
X15282232Y5191395D01*
X15280535Y5169328D01*
X15278719Y5147541D01*
X15278793Y5147021D01*
X15278782Y5146546D01*
X15270547Y5039497D01*
X15270522Y5039186D01*
X15262478Y4942655D01*
X15262478Y4942654D01*
X15252478Y4822655D01*
X15252478Y4822654D01*
X15242478Y4702655D01*
X15242478Y4702654D01*
X15232478Y4582655D01*
X15232478Y4582654D01*
X15221592Y4452020D01*
X15220971Y4447323D01*
X15206017Y4365079D01*
X15204485Y4358940D01*
X15203323Y4355301D01*
X15202478Y4352654D01*
X15202248Y4349889D01*
X15201592Y4342015D01*
X15200972Y4337330D01*
X15199093Y4326995D01*
X15199215Y4324254D01*
X15199388Y4320365D01*
X15199267Y4314118D01*
X15190670Y4210956D01*
X15190638Y4210589D01*
X15181727Y4112572D01*
X15181138Y4108243D01*
X15166386Y4027105D01*
X15164599Y4020190D01*
X15163154Y4015911D01*
X15162878Y4013154D01*
X15162878Y4013152D01*
X15161887Y4003239D01*
X15161342Y3999363D01*
X15159093Y3986995D01*
X15159215Y3984254D01*
X15159296Y3982433D01*
X15159101Y3975381D01*
X15155263Y3937000D01*
X15151886Y3903237D01*
X15151340Y3899354D01*
X15147206Y3876617D01*
X15136386Y3817105D01*
X15134599Y3810190D01*
X15133154Y3805911D01*
X15132878Y3803154D01*
X15132878Y3803152D01*
X15131887Y3793239D01*
X15131342Y3789363D01*
X15129093Y3776995D01*
X15129215Y3774254D01*
X15129296Y3772433D01*
X15129101Y3765379D01*
X15122104Y3695412D01*
X15121396Y3690682D01*
X15108240Y3624905D01*
X15086931Y3518355D01*
X15086930Y3518352D01*
X15085305Y3512281D01*
X15084041Y3508538D01*
X15083154Y3505911D01*
X15082879Y3503161D01*
X15082878Y3503156D01*
X15082105Y3495420D01*
X15081396Y3490684D01*
X15079362Y3480515D01*
X15079544Y3473748D01*
X15079319Y3467568D01*
X15077683Y3451204D01*
X15072368Y3398056D01*
X15071444Y3392302D01*
X15059449Y3338325D01*
X15058949Y3336477D01*
X15058240Y3334905D01*
X15057696Y3332184D01*
X15054299Y3315201D01*
X15054084Y3314182D01*
X15049772Y3294777D01*
X15049782Y3293057D01*
X15049491Y3291162D01*
X15034945Y3218432D01*
X15034434Y3216158D01*
X15021218Y3163293D01*
X15020501Y3160875D01*
X15019592Y3158968D01*
X15018990Y3156259D01*
X15018989Y3156256D01*
X15015380Y3140012D01*
X15015084Y3138757D01*
X15010403Y3120034D01*
X15010359Y3117920D01*
X15009916Y3115427D01*
X15002057Y3080062D01*
X14997862Y3061184D01*
X14996283Y3055641D01*
X14993633Y3048070D01*
X14992975Y3042146D01*
X14992611Y3038870D01*
X14991744Y3033650D01*
X14989772Y3024777D01*
X14989787Y3022030D01*
X14989787Y3022027D01*
X14989817Y3016724D01*
X14989518Y3011038D01*
X14982972Y2952130D01*
X14981809Y2945658D01*
X14963493Y2872394D01*
X14946878Y2805933D01*
X14946460Y2804371D01*
X14943170Y2792854D01*
X14942051Y2788938D01*
X14918732Y2759566D01*
X14894936Y2753400D01*
X14254687Y2753400D01*
X14220039Y2767752D01*
X14207558Y2788990D01*
X14171987Y2914010D01*
X14171367Y2916189D01*
X14150557Y2957980D01*
X14089768Y3080062D01*
X14089765Y3080067D01*
X14088759Y3082087D01*
X13977075Y3229982D01*
X13840116Y3354836D01*
X13838193Y3356026D01*
X13838190Y3356029D01*
X13684476Y3451204D01*
X13682548Y3452398D01*
X13680434Y3453217D01*
X13680432Y3453218D01*
X13511850Y3518527D01*
X13511847Y3518528D01*
X13509735Y3519346D01*
X13391298Y3541486D01*
X13329786Y3552985D01*
X13329782Y3552985D01*
X13327564Y3553400D01*
X13142236Y3553400D01*
X13140018Y3552985D01*
X13140014Y3552985D01*
X13078502Y3541486D01*
X12960065Y3519346D01*
X12957953Y3518528D01*
X12957950Y3518527D01*
X12789368Y3453218D01*
X12789366Y3453217D01*
X12787252Y3452398D01*
X12785324Y3451204D01*
X12631610Y3356029D01*
X12631607Y3356026D01*
X12629684Y3354836D01*
X12492725Y3229982D01*
X12381041Y3082087D01*
X12380035Y3080067D01*
X12380032Y3080062D01*
X12319243Y2957980D01*
X12298433Y2916189D01*
X12297813Y2914010D01*
X12258429Y2775590D01*
X12235144Y2746192D01*
X12211300Y2740000D01*
X12197877Y2740000D01*
X12146551Y2740045D01*
X12141577Y2737656D01*
X12141575Y2737656D01*
X12130602Y2732387D01*
X12120289Y2728785D01*
X12119737Y2728659D01*
X12103038Y2724850D01*
X12098723Y2721411D01*
X12098720Y2721410D01*
X12089372Y2713961D01*
X12080047Y2708111D01*
X12064295Y2700547D01*
X12053240Y2686723D01*
X12045514Y2679011D01*
X12031677Y2667985D01*
X12029089Y2662619D01*
X12024086Y2652247D01*
X12018223Y2642936D01*
X12007306Y2629285D01*
X12006069Y2623907D01*
X12006069Y2623906D01*
X12005999Y2623601D01*
X12005758Y2623263D01*
X12003668Y2618939D01*
X12002933Y2619294D01*
X11984249Y2593049D01*
X11958153Y2585580D01*
X11601113Y2586258D01*
X11308832Y2586813D01*
X11294150Y2589094D01*
X11233933Y2608138D01*
X11233931Y2608138D01*
X11231270Y2608980D01*
X11228490Y2609199D01*
X11228489Y2609199D01*
X11227203Y2609300D01*
X11224663Y2609500D01*
X11126150Y2609500D01*
X11075506Y2601886D01*
X11029661Y2594994D01*
X11029659Y2594993D01*
X11026038Y2594449D01*
X11021410Y2592226D01*
X11000109Y2587399D01*
X10393056Y2588551D01*
X10358436Y2602968D01*
X10349529Y2619120D01*
X10348470Y2618610D01*
X10346077Y2623582D01*
X10344850Y2628962D01*
X10341411Y2633277D01*
X10341410Y2633280D01*
X10333961Y2642628D01*
X10328111Y2651953D01*
X10322937Y2662728D01*
X10320547Y2667705D01*
X10306723Y2678760D01*
X10299011Y2686486D01*
X10287985Y2700323D01*
X10272246Y2707914D01*
X10262936Y2713777D01*
X10249285Y2724694D01*
X10243909Y2725930D01*
X10243907Y2725931D01*
X10236393Y2727658D01*
X10232038Y2728660D01*
X10221736Y2732277D01*
X10205798Y2739965D01*
X10200282Y2739970D01*
X10200281Y2739970D01*
X10182810Y2739985D01*
X10182779Y2739987D01*
X10182723Y2740000D01*
X10165877Y2740000D01*
X10114796Y2740045D01*
X10114551Y2740045D01*
X10114476Y2740009D01*
X10114395Y2740000D01*
X6863877Y2740000D01*
X6812551Y2740045D01*
X6807577Y2737656D01*
X6807575Y2737656D01*
X6796602Y2732387D01*
X6786289Y2728785D01*
X6785737Y2728659D01*
X6769038Y2724850D01*
X6764723Y2721411D01*
X6764720Y2721410D01*
X6755372Y2713961D01*
X6746047Y2708111D01*
X6730295Y2700547D01*
X6719240Y2686723D01*
X6711514Y2679011D01*
X6697677Y2667985D01*
X6695089Y2662619D01*
X6690086Y2652247D01*
X6684223Y2642936D01*
X6673306Y2629285D01*
X6672070Y2623910D01*
X6671809Y2623370D01*
X6643808Y2598422D01*
X6627601Y2595697D01*
X6565368Y2595815D01*
X6550686Y2598096D01*
X6518934Y2608138D01*
X6518930Y2608139D01*
X6516270Y2608980D01*
X6509663Y2609500D01*
X6411150Y2609500D01*
X6326849Y2596826D01*
X6319472Y2596281D01*
X5661297Y2597530D01*
X5626676Y2611948D01*
X5612390Y2646623D01*
X5626808Y2681244D01*
X5648501Y2693804D01*
X5678090Y2701871D01*
X5678098Y2701874D01*
X5681460Y2702791D01*
X5684431Y2704615D01*
X5684433Y2704616D01*
X5787259Y2767752D01*
X5792406Y2770912D01*
X5879772Y2867433D01*
X5936537Y2984596D01*
X5938712Y2997520D01*
X5957824Y3111119D01*
X5957824Y3111122D01*
X5958137Y3112981D01*
X5958274Y3124200D01*
X5939818Y3253075D01*
X5885932Y3371590D01*
X5868086Y3392302D01*
X5803230Y3467571D01*
X5800950Y3470217D01*
X5691701Y3541028D01*
X5651719Y3552985D01*
X5570312Y3577331D01*
X5570309Y3577331D01*
X5566970Y3578330D01*
X5502428Y3578725D01*
X5440274Y3579105D01*
X5440272Y3579105D01*
X5436783Y3579126D01*
X5311605Y3543350D01*
X5308655Y3541489D01*
X5308649Y3541486D01*
X5271479Y3518033D01*
X5234518Y3511681D01*
X5218684Y3518353D01*
X5183701Y3541028D01*
X5143719Y3552985D01*
X5062312Y3577331D01*
X5062309Y3577331D01*
X5058970Y3578330D01*
X4994428Y3578725D01*
X4932274Y3579105D01*
X4932272Y3579105D01*
X4928783Y3579126D01*
X4803605Y3543350D01*
X4800655Y3541489D01*
X4800649Y3541486D01*
X4763479Y3518033D01*
X4726518Y3511681D01*
X4710684Y3518353D01*
X4675701Y3541028D01*
X4635719Y3552985D01*
X4554312Y3577331D01*
X4554309Y3577331D01*
X4550970Y3578330D01*
X4486428Y3578725D01*
X4424274Y3579105D01*
X4424272Y3579105D01*
X4420783Y3579126D01*
X4295605Y3543350D01*
X4292655Y3541489D01*
X4292649Y3541486D01*
X4255479Y3518033D01*
X4218518Y3511681D01*
X4202684Y3518353D01*
X4167701Y3541028D01*
X4127719Y3552985D01*
X4046312Y3577331D01*
X4046309Y3577331D01*
X4042970Y3578330D01*
X3978428Y3578725D01*
X3916274Y3579105D01*
X3916272Y3579105D01*
X3912783Y3579126D01*
X3787605Y3543350D01*
X3784654Y3541488D01*
X3692297Y3483215D01*
X3677500Y3473879D01*
X3675476Y3471587D01*
X3639942Y3460110D01*
X3606556Y3477193D01*
X3595029Y3512881D01*
X3595551Y3517086D01*
X3595624Y3517517D01*
X3595625Y3517525D01*
X3595937Y3519381D01*
X3596074Y3530600D01*
X3577618Y3659475D01*
X3523732Y3777990D01*
X3513946Y3789348D01*
X3441030Y3873971D01*
X3438750Y3876617D01*
X3342228Y3939179D01*
X6583332Y3939179D01*
X6834779Y3687732D01*
X7117614Y3970567D01*
X7225104Y3970567D01*
X7226300Y3964555D01*
X7226300Y3619500D01*
X7658100Y3619500D01*
X7874000Y3619500D01*
X8305800Y3619500D01*
X8305800Y3937000D01*
X11468100Y3937000D01*
X11823700Y3937000D01*
X13195300Y3937000D01*
X13550900Y3937000D01*
X13550900Y4368800D01*
X13195300Y4368800D01*
X13195300Y3937000D01*
X11823700Y3937000D01*
X11823700Y3962400D01*
X11976100Y3962400D01*
X12407900Y3962400D01*
X12611100Y3962400D01*
X13042900Y3962400D01*
X13042900Y4318000D01*
X12611100Y4318000D01*
X12611100Y3962400D01*
X12407900Y3962400D01*
X12407900Y4318000D01*
X11976100Y4318000D01*
X11976100Y3962400D01*
X11823700Y3962400D01*
X11823700Y4368800D01*
X11468100Y4368800D01*
X11468100Y3937000D01*
X8305800Y3937000D01*
X8305800Y3975100D01*
X7874000Y3975100D01*
X7874000Y3619500D01*
X7658100Y3619500D01*
X7658100Y3975100D01*
X7226300Y3975100D01*
X7226300Y3971062D01*
X7225104Y3970567D01*
X7117614Y3970567D01*
X7140108Y3993061D01*
X6888661Y4244508D01*
X6583332Y3939179D01*
X3342228Y3939179D01*
X3329501Y3947428D01*
X3313433Y3952233D01*
X3208112Y3983731D01*
X3208109Y3983731D01*
X3204770Y3984730D01*
X3140228Y3985125D01*
X3078074Y3985505D01*
X3078072Y3985505D01*
X3074583Y3985526D01*
X3063761Y3982433D01*
X2993667Y3962400D01*
X2949405Y3949750D01*
X2946454Y3947888D01*
X2869523Y3899348D01*
X2839300Y3880279D01*
X2839265Y3880335D01*
X2804973Y3869258D01*
X2771586Y3886340D01*
X2759900Y3918100D01*
X2759900Y4622800D01*
X6515100Y4622800D01*
X6870700Y4622800D01*
X6870700Y5054600D01*
X6515100Y5054600D01*
X6515100Y4622800D01*
X2759900Y4622800D01*
X2759900Y5029200D01*
X4152564Y5029200D01*
X4156283Y5008106D01*
X4169720Y4931906D01*
X4170966Y4924837D01*
X4223952Y4833062D01*
X4305132Y4764944D01*
X4309157Y4763479D01*
X4309159Y4763478D01*
X4400683Y4730167D01*
X4404714Y4728700D01*
X4510686Y4728700D01*
X4514717Y4730167D01*
X4606241Y4763478D01*
X4606243Y4763479D01*
X4610268Y4764944D01*
X4691448Y4833062D01*
X4744434Y4924837D01*
X4745681Y4931906D01*
X4759117Y5008106D01*
X4762836Y5029200D01*
X4744921Y5130800D01*
X4914564Y5130800D01*
X4915308Y5126581D01*
X4928504Y5051745D01*
X4932966Y5026437D01*
X4985952Y4934662D01*
X5067132Y4866544D01*
X5071157Y4865079D01*
X5071159Y4865078D01*
X5159125Y4833062D01*
X5166714Y4830300D01*
X5272686Y4830300D01*
X5280275Y4833062D01*
X5368241Y4865078D01*
X5368243Y4865079D01*
X5372268Y4866544D01*
X5453448Y4934662D01*
X5506434Y5026437D01*
X5510897Y5051745D01*
X5524092Y5126581D01*
X5524836Y5130800D01*
X5511400Y5207000D01*
X8902364Y5207000D01*
X8920766Y5102637D01*
X8973752Y5010862D01*
X9054932Y4942744D01*
X9058957Y4941279D01*
X9058959Y4941278D01*
X9150483Y4907967D01*
X9154514Y4906500D01*
X9260486Y4906500D01*
X9264517Y4907967D01*
X9356041Y4941278D01*
X9356043Y4941279D01*
X9360068Y4942744D01*
X9441248Y5010862D01*
X9494234Y5102637D01*
X9512636Y5207000D01*
X9499895Y5279259D01*
X9494978Y5307144D01*
X9494234Y5311363D01*
X9441248Y5403138D01*
X9360068Y5471256D01*
X9356043Y5472721D01*
X9356041Y5472722D01*
X9264517Y5506033D01*
X9264516Y5506033D01*
X9260486Y5507500D01*
X9154514Y5507500D01*
X9150484Y5506033D01*
X9150483Y5506033D01*
X9058959Y5472722D01*
X9058957Y5472721D01*
X9054932Y5471256D01*
X8973752Y5403138D01*
X8920766Y5311363D01*
X8920022Y5307144D01*
X8915105Y5279259D01*
X8902364Y5207000D01*
X5511400Y5207000D01*
X5508166Y5225338D01*
X5507178Y5230944D01*
X5506434Y5235163D01*
X5453448Y5326938D01*
X5372268Y5395056D01*
X5368243Y5396521D01*
X5368241Y5396522D01*
X5276717Y5429833D01*
X5276716Y5429833D01*
X5272686Y5431300D01*
X5166714Y5431300D01*
X5162684Y5429833D01*
X5162683Y5429833D01*
X5071159Y5396522D01*
X5071157Y5396521D01*
X5067132Y5395056D01*
X4985952Y5326938D01*
X4932966Y5235163D01*
X4932222Y5230944D01*
X4931234Y5225338D01*
X4914564Y5130800D01*
X4744921Y5130800D01*
X4744434Y5133563D01*
X4691448Y5225338D01*
X4610268Y5293456D01*
X4606243Y5294921D01*
X4606241Y5294922D01*
X4514717Y5328233D01*
X4514716Y5328233D01*
X4510686Y5329700D01*
X4404714Y5329700D01*
X4400684Y5328233D01*
X4400683Y5328233D01*
X4309159Y5294922D01*
X4309157Y5294921D01*
X4305132Y5293456D01*
X4223952Y5225338D01*
X4170966Y5133563D01*
X4152564Y5029200D01*
X2759900Y5029200D01*
X2759900Y6430000D01*
X5012164Y6430000D01*
X5030566Y6325637D01*
X5032709Y6321926D01*
X5032709Y6321925D01*
X5033509Y6320540D01*
X5083552Y6233862D01*
X5164732Y6165744D01*
X5168757Y6164279D01*
X5168759Y6164278D01*
X5260283Y6130967D01*
X5264314Y6129500D01*
X5370286Y6129500D01*
X5374317Y6130967D01*
X5465841Y6164278D01*
X5465843Y6164279D01*
X5469868Y6165744D01*
X5473151Y6168498D01*
X5476865Y6170643D01*
X5477547Y6169461D01*
X5508108Y6179099D01*
X5520595Y6176331D01*
X5594314Y6149500D01*
X5700286Y6149500D01*
X5717442Y6155744D01*
X5795841Y6184278D01*
X5795843Y6184279D01*
X5799868Y6185744D01*
X5881048Y6253862D01*
X5883191Y6257573D01*
X5883193Y6257576D01*
X5919501Y6320464D01*
X5949254Y6343294D01*
X5986436Y6338399D01*
X6009266Y6308646D01*
X6010191Y6304476D01*
X6020566Y6245637D01*
X6022708Y6241927D01*
X6045864Y6201819D01*
X6050758Y6164637D01*
X6045863Y6152821D01*
X6000566Y6074363D01*
X5982164Y5970000D01*
X6000566Y5865637D01*
X6053552Y5773862D01*
X6134732Y5705744D01*
X6138757Y5704279D01*
X6138759Y5704278D01*
X6230283Y5670967D01*
X6234314Y5669500D01*
X6340286Y5669500D01*
X6340805Y5669689D01*
X6511733Y5669689D01*
X6512456Y5664200D01*
X6515100Y5664200D01*
X6515100Y5257800D01*
X6870700Y5257800D01*
X6870700Y5664200D01*
X6524984Y5664200D01*
X6511733Y5669689D01*
X6340805Y5669689D01*
X6439868Y5705744D01*
X6442505Y5707957D01*
X6476311Y5712409D01*
X6475984Y5713200D01*
X6490336Y5747848D01*
X6493488Y5750736D01*
X6517761Y5771103D01*
X6517764Y5771106D01*
X6521048Y5773862D01*
X6574034Y5865637D01*
X6592436Y5970000D01*
X6584652Y6014147D01*
X6576216Y6061991D01*
X6584334Y6098605D01*
X6615963Y6118756D01*
X6624472Y6119500D01*
X6720286Y6119500D01*
X6724317Y6120967D01*
X6815841Y6154278D01*
X6815843Y6154279D01*
X6819868Y6155744D01*
X6901048Y6223862D01*
X6944955Y6299912D01*
X6951891Y6311925D01*
X6951891Y6311926D01*
X6954034Y6315637D01*
X6956252Y6328213D01*
X6971692Y6415781D01*
X6972436Y6420000D01*
X6959026Y6496050D01*
X7118014Y6496050D01*
X7118758Y6491831D01*
X7132234Y6415407D01*
X7136416Y6391687D01*
X7138559Y6387976D01*
X7138559Y6387975D01*
X7147439Y6372595D01*
X7189402Y6299912D01*
X7270582Y6231794D01*
X7274607Y6230329D01*
X7274609Y6230328D01*
X7366133Y6197017D01*
X7370164Y6195550D01*
X7476136Y6195550D01*
X7480167Y6197017D01*
X7571691Y6230328D01*
X7571693Y6230329D01*
X7575718Y6231794D01*
X7656898Y6299912D01*
X7709884Y6391687D01*
X7714066Y6415408D01*
X7734216Y6447038D01*
X7762322Y6455900D01*
X7799986Y6455900D01*
X7815650Y6461601D01*
X7895541Y6490678D01*
X7895543Y6490679D01*
X7899568Y6492144D01*
X7980748Y6560262D01*
X8021693Y6631181D01*
X8031591Y6648325D01*
X8031591Y6648326D01*
X8033734Y6652037D01*
X8052136Y6756400D01*
X8042935Y6808582D01*
X8034478Y6856544D01*
X8033734Y6860763D01*
X7980748Y6952538D01*
X7899568Y7020656D01*
X7895543Y7022121D01*
X7895541Y7022122D01*
X7804017Y7055433D01*
X7804016Y7055433D01*
X7799986Y7056900D01*
X7694014Y7056900D01*
X7689984Y7055433D01*
X7689983Y7055433D01*
X7598459Y7022122D01*
X7598457Y7022121D01*
X7594432Y7020656D01*
X7513252Y6952538D01*
X7460266Y6860763D01*
X7459521Y6856540D01*
X7459521Y6856539D01*
X7456084Y6837043D01*
X7435934Y6805412D01*
X7407828Y6796550D01*
X7370164Y6796550D01*
X7366134Y6795083D01*
X7366133Y6795083D01*
X7274609Y6761772D01*
X7274607Y6761771D01*
X7270582Y6760306D01*
X7189402Y6692188D01*
X7184164Y6683115D01*
X7143351Y6612424D01*
X7136416Y6600413D01*
X7118014Y6496050D01*
X6959026Y6496050D01*
X6954034Y6524363D01*
X6901048Y6616138D01*
X6819868Y6684256D01*
X6815843Y6685721D01*
X6815841Y6685722D01*
X6724317Y6719033D01*
X6724316Y6719033D01*
X6720286Y6720500D01*
X6614314Y6720500D01*
X6610284Y6719033D01*
X6610283Y6719033D01*
X6518762Y6685723D01*
X6518761Y6685722D01*
X6514732Y6684256D01*
X6511445Y6681498D01*
X6461620Y6639690D01*
X6425853Y6628412D01*
X6413368Y6631180D01*
X6360286Y6650500D01*
X6254314Y6650500D01*
X6250284Y6649033D01*
X6250283Y6649033D01*
X6158759Y6615722D01*
X6158757Y6615721D01*
X6154732Y6614256D01*
X6073552Y6546138D01*
X6071409Y6542427D01*
X6071407Y6542424D01*
X6035099Y6479536D01*
X6005346Y6456706D01*
X5968164Y6461601D01*
X5945334Y6491354D01*
X5944408Y6495528D01*
X5937561Y6534363D01*
X5934034Y6554363D01*
X5881048Y6646138D01*
X5799868Y6714256D01*
X5795843Y6715721D01*
X5795841Y6715722D01*
X5704317Y6749033D01*
X5704316Y6749033D01*
X5700286Y6750500D01*
X5594314Y6750500D01*
X5590284Y6749033D01*
X5590283Y6749033D01*
X5498759Y6715722D01*
X5498757Y6715721D01*
X5494732Y6714256D01*
X5491449Y6711502D01*
X5487735Y6709357D01*
X5487053Y6710539D01*
X5456492Y6700901D01*
X5444005Y6703669D01*
X5370286Y6730500D01*
X5264314Y6730500D01*
X5260284Y6729033D01*
X5260283Y6729033D01*
X5168759Y6695722D01*
X5168757Y6695721D01*
X5164732Y6694256D01*
X5083552Y6626138D01*
X5054755Y6576260D01*
X5039677Y6550143D01*
X5030566Y6534363D01*
X5012164Y6430000D01*
X2759900Y6430000D01*
X2759900Y7366000D01*
X3822364Y7366000D01*
X3840766Y7261637D01*
X3893752Y7169862D01*
X3974932Y7101744D01*
X3978957Y7100279D01*
X3978959Y7100278D01*
X4070483Y7066967D01*
X4074514Y7065500D01*
X4180486Y7065500D01*
X4184517Y7066967D01*
X4276041Y7100278D01*
X4276043Y7100279D01*
X4280068Y7101744D01*
X4361248Y7169862D01*
X4414234Y7261637D01*
X4432636Y7366000D01*
X4421928Y7426730D01*
X4430046Y7463344D01*
X4461675Y7483495D01*
X4486943Y7481284D01*
X4506750Y7474075D01*
X4582514Y7446500D01*
X4688486Y7446500D01*
X4764250Y7474075D01*
X4784041Y7481278D01*
X4784043Y7481279D01*
X4788068Y7482744D01*
X4869248Y7550862D01*
X4922234Y7642637D01*
X4940636Y7747000D01*
X4922234Y7851363D01*
X4869248Y7943138D01*
X4788068Y8011256D01*
X4784043Y8012721D01*
X4784041Y8012722D01*
X4692517Y8046033D01*
X4692516Y8046033D01*
X4688486Y8047500D01*
X4582514Y8047500D01*
X4578484Y8046033D01*
X4578483Y8046033D01*
X4486959Y8012722D01*
X4486957Y8012721D01*
X4482932Y8011256D01*
X4401752Y7943138D01*
X4348766Y7851363D01*
X4330364Y7747000D01*
X4331108Y7742781D01*
X4331108Y7742780D01*
X4341072Y7686270D01*
X4332954Y7649656D01*
X4301325Y7629505D01*
X4276057Y7631716D01*
X4184517Y7665033D01*
X4184516Y7665033D01*
X4180486Y7666500D01*
X4074514Y7666500D01*
X4070484Y7665033D01*
X4070483Y7665033D01*
X3978959Y7631722D01*
X3978957Y7631721D01*
X3974932Y7630256D01*
X3893752Y7562138D01*
X3840766Y7470363D01*
X3822364Y7366000D01*
X2759900Y7366000D01*
X2759900Y8490800D01*
X4627364Y8490800D01*
X4645766Y8386437D01*
X4698752Y8294662D01*
X4779932Y8226544D01*
X4783957Y8225079D01*
X4783959Y8225078D01*
X4875483Y8191767D01*
X4879514Y8190300D01*
X4985486Y8190300D01*
X5085068Y8226544D01*
X5085723Y8227093D01*
X5121360Y8231787D01*
X5136223Y8224049D01*
X5136335Y8224243D01*
X5140050Y8222098D01*
X5143332Y8219344D01*
X5147357Y8217879D01*
X5147359Y8217878D01*
X5234718Y8186083D01*
X5242914Y8183100D01*
X5348886Y8183100D01*
X5357082Y8186083D01*
X5444441Y8217878D01*
X5444443Y8217879D01*
X5448468Y8219344D01*
X5529648Y8287462D01*
X5582634Y8379237D01*
X5584648Y8390656D01*
X5600292Y8479381D01*
X5601036Y8483600D01*
X5591835Y8535782D01*
X5583378Y8583744D01*
X5582634Y8587963D01*
X5529648Y8679738D01*
X5448468Y8747856D01*
X5444443Y8749321D01*
X5444441Y8749322D01*
X5352917Y8782633D01*
X5352916Y8782633D01*
X5348886Y8784100D01*
X5242914Y8784100D01*
X5238884Y8782633D01*
X5238883Y8782633D01*
X5216914Y8774637D01*
X5143332Y8747856D01*
X5142677Y8747307D01*
X5107040Y8742613D01*
X5092177Y8750351D01*
X5092065Y8750157D01*
X5088350Y8752302D01*
X5085068Y8755056D01*
X5081043Y8756521D01*
X5081041Y8756522D01*
X4989517Y8789833D01*
X4989516Y8789833D01*
X4985486Y8791300D01*
X4879514Y8791300D01*
X4875484Y8789833D01*
X4875483Y8789833D01*
X4783959Y8756522D01*
X4783957Y8756521D01*
X4779932Y8755056D01*
X4698752Y8686938D01*
X4677240Y8649678D01*
X4648973Y8600717D01*
X4645766Y8595163D01*
X4645022Y8590944D01*
X4640310Y8564219D01*
X4627364Y8490800D01*
X2759900Y8490800D01*
X2759900Y10064010D01*
X4506560Y10064010D01*
X4507012Y10060553D01*
X4507012Y10060550D01*
X4519852Y9962366D01*
X4523441Y9934919D01*
X4575874Y9815755D01*
X4578120Y9813083D01*
X4578122Y9813080D01*
X4657397Y9718772D01*
X4659646Y9716097D01*
X4768020Y9643956D01*
X4892287Y9605133D01*
X4895777Y9605069D01*
X4922314Y9604583D01*
X5022455Y9602747D01*
X5148060Y9636991D01*
X5151031Y9638815D01*
X5151033Y9638816D01*
X5256032Y9703286D01*
X5259006Y9705112D01*
X5346372Y9801633D01*
X5403137Y9918796D01*
X5405258Y9931400D01*
X5854364Y9931400D01*
X5872766Y9827037D01*
X5925752Y9735262D01*
X6006932Y9667144D01*
X6010957Y9665679D01*
X6010959Y9665678D01*
X6092298Y9636074D01*
X6106514Y9630900D01*
X6212486Y9630900D01*
X6226702Y9636074D01*
X6308041Y9665678D01*
X6308043Y9665679D01*
X6312068Y9667144D01*
X6393248Y9735262D01*
X6446234Y9827037D01*
X6464636Y9931400D01*
X6565564Y9931400D01*
X6583966Y9827037D01*
X6636952Y9735262D01*
X6718132Y9667144D01*
X6722157Y9665679D01*
X6722159Y9665678D01*
X6775386Y9646306D01*
X6817714Y9630900D01*
X6822004Y9630900D01*
X6822934Y9630736D01*
X6854564Y9610586D01*
X6862682Y9573972D01*
X6844175Y9544920D01*
X6844732Y9544256D01*
X6842199Y9542130D01*
X6842195Y9542128D01*
X6793660Y9501402D01*
X6763552Y9476138D01*
X6710566Y9384363D01*
X6709822Y9380144D01*
X6705914Y9357980D01*
X6692164Y9280000D01*
X6710566Y9175637D01*
X6763552Y9083862D01*
X6844732Y9015744D01*
X6848757Y9014279D01*
X6848759Y9014278D01*
X6940283Y8980967D01*
X6944314Y8979500D01*
X7050286Y8979500D01*
X7054317Y8980967D01*
X7145838Y9014277D01*
X7145839Y9014278D01*
X7149868Y9015744D01*
X7161420Y9025437D01*
X7197187Y9036713D01*
X7209673Y9033945D01*
X7300281Y9000967D01*
X7300286Y9000966D01*
X7304314Y8999500D01*
X7410286Y8999500D01*
X7415402Y9001362D01*
X7416327Y9001322D01*
X7418535Y9001711D01*
X7418621Y9001222D01*
X7452869Y8999728D01*
X7478206Y8972079D01*
X7480418Y8946810D01*
X7472164Y8900000D01*
X7472908Y8895781D01*
X7489709Y8800500D01*
X7490566Y8795637D01*
X7492709Y8791925D01*
X7524316Y8737179D01*
X7529211Y8699996D01*
X7524316Y8688179D01*
X7510566Y8664363D01*
X7492164Y8560000D01*
X7492908Y8555781D01*
X7503889Y8493507D01*
X7510566Y8455637D01*
X7563552Y8363862D01*
X7644732Y8295744D01*
X7648757Y8294279D01*
X7648759Y8294278D01*
X7675059Y8284706D01*
X7744314Y8259500D01*
X7850286Y8259500D01*
X7919541Y8284706D01*
X7945841Y8294278D01*
X7945843Y8294279D01*
X7949868Y8295744D01*
X7982046Y8322744D01*
X8017812Y8334022D01*
X8051078Y8316705D01*
X8055974Y8309712D01*
X8059352Y8303862D01*
X8140532Y8235744D01*
X8144557Y8234279D01*
X8144559Y8234278D01*
X8235759Y8201085D01*
X8240114Y8199500D01*
X8346086Y8199500D01*
X8350441Y8201085D01*
X8441641Y8234278D01*
X8441643Y8234279D01*
X8445668Y8235744D01*
X8526848Y8303862D01*
X8579834Y8395637D01*
X8598236Y8500000D01*
X8587788Y8559253D01*
X8595906Y8595867D01*
X8625542Y8614746D01*
X8625486Y8614900D01*
X8626179Y8615152D01*
X8626180Y8615153D01*
X8688705Y8637909D01*
X8721041Y8649678D01*
X8721043Y8649679D01*
X8725068Y8651144D01*
X8806248Y8719262D01*
X8853005Y8800248D01*
X8857091Y8807325D01*
X8857091Y8807326D01*
X8859234Y8811037D01*
X8877636Y8915400D01*
X8859234Y9019763D01*
X8806248Y9111538D01*
X8725068Y9179656D01*
X8721043Y9181121D01*
X8721041Y9181122D01*
X8629517Y9214433D01*
X8629516Y9214433D01*
X8625486Y9215900D01*
X8519514Y9215900D01*
X8515484Y9214433D01*
X8515483Y9214433D01*
X8423959Y9181122D01*
X8423957Y9181121D01*
X8419932Y9179656D01*
X8338752Y9111538D01*
X8285766Y9019763D01*
X8267364Y8915400D01*
X8270080Y8900000D01*
X8277812Y8856147D01*
X8269694Y8819533D01*
X8240058Y8800654D01*
X8240114Y8800500D01*
X8239421Y8800248D01*
X8239420Y8800247D01*
X8140532Y8764256D01*
X8139006Y8762976D01*
X8102858Y8758215D01*
X8073104Y8781044D01*
X8067282Y8814055D01*
X8081692Y8895780D01*
X8081692Y8895781D01*
X8082436Y8900000D01*
X8068907Y8976728D01*
X8064778Y9000144D01*
X8064034Y9004363D01*
X8036623Y9051840D01*
X8031728Y9089022D01*
X8036623Y9100840D01*
X8041586Y9109435D01*
X8074034Y9165637D01*
X8092436Y9270000D01*
X8074034Y9374363D01*
X8021048Y9466138D01*
X7939868Y9534256D01*
X7935843Y9535721D01*
X7935841Y9535722D01*
X7844317Y9569033D01*
X7844316Y9569033D01*
X7840286Y9570500D01*
X7734314Y9570500D01*
X7730284Y9569033D01*
X7730283Y9569033D01*
X7638759Y9535722D01*
X7638757Y9535721D01*
X7634732Y9534256D01*
X7621673Y9523298D01*
X7585906Y9512020D01*
X7558679Y9523298D01*
X7548904Y9531501D01*
X7509868Y9564256D01*
X7505843Y9565721D01*
X7505841Y9565722D01*
X7414317Y9599033D01*
X7414316Y9599033D01*
X7410286Y9600500D01*
X7304314Y9600500D01*
X7300284Y9599033D01*
X7300283Y9599033D01*
X7208762Y9565723D01*
X7208761Y9565722D01*
X7204732Y9564256D01*
X7193180Y9554563D01*
X7157413Y9543287D01*
X7144927Y9546055D01*
X7054318Y9579033D01*
X7054315Y9579033D01*
X7050286Y9580500D01*
X7045996Y9580500D01*
X7045066Y9580664D01*
X7013436Y9600814D01*
X7005318Y9637428D01*
X7023825Y9666480D01*
X7023268Y9667144D01*
X7025375Y9668912D01*
X7025801Y9669270D01*
X7025805Y9669272D01*
X7074340Y9709998D01*
X7104448Y9735262D01*
X7157434Y9827037D01*
X7175836Y9931400D01*
X8521364Y9931400D01*
X8539766Y9827037D01*
X8592752Y9735262D01*
X8673932Y9667144D01*
X8677957Y9665679D01*
X8677959Y9665678D01*
X8759298Y9636074D01*
X8773514Y9630900D01*
X8879486Y9630900D01*
X8893702Y9636074D01*
X8975041Y9665678D01*
X8975043Y9665679D01*
X8979068Y9667144D01*
X9060248Y9735262D01*
X9113234Y9827037D01*
X9131636Y9931400D01*
X9113234Y10035763D01*
X9060248Y10127538D01*
X8979068Y10195656D01*
X8975043Y10197121D01*
X8975041Y10197122D01*
X8883517Y10230433D01*
X8883516Y10230433D01*
X8879486Y10231900D01*
X8773514Y10231900D01*
X8769484Y10230433D01*
X8769483Y10230433D01*
X8677959Y10197122D01*
X8677957Y10197121D01*
X8673932Y10195656D01*
X8592752Y10127538D01*
X8539766Y10035763D01*
X8521364Y9931400D01*
X7175836Y9931400D01*
X7157434Y10035763D01*
X7104448Y10127538D01*
X7023268Y10195656D01*
X7019243Y10197121D01*
X7019241Y10197122D01*
X6927717Y10230433D01*
X6927716Y10230433D01*
X6923686Y10231900D01*
X6817714Y10231900D01*
X6813684Y10230433D01*
X6813683Y10230433D01*
X6722159Y10197122D01*
X6722157Y10197121D01*
X6718132Y10195656D01*
X6636952Y10127538D01*
X6583966Y10035763D01*
X6565564Y9931400D01*
X6464636Y9931400D01*
X6446234Y10035763D01*
X6393248Y10127538D01*
X6312068Y10195656D01*
X6308043Y10197121D01*
X6308041Y10197122D01*
X6216517Y10230433D01*
X6216516Y10230433D01*
X6212486Y10231900D01*
X6106514Y10231900D01*
X6102484Y10230433D01*
X6102483Y10230433D01*
X6010959Y10197122D01*
X6010957Y10197121D01*
X6006932Y10195656D01*
X5925752Y10127538D01*
X5872766Y10035763D01*
X5854364Y9931400D01*
X5405258Y9931400D01*
X5405312Y9931720D01*
X5424424Y10045319D01*
X5424424Y10045322D01*
X5424737Y10047181D01*
X5424874Y10058400D01*
X5406418Y10187275D01*
X5352532Y10305790D01*
X5346221Y10313115D01*
X5269830Y10401771D01*
X5267550Y10404417D01*
X5158301Y10475228D01*
X5114059Y10488459D01*
X5036912Y10511531D01*
X5036909Y10511531D01*
X5033570Y10512530D01*
X4969028Y10512925D01*
X4906874Y10513305D01*
X4906872Y10513305D01*
X4903383Y10513326D01*
X4869216Y10503561D01*
X4798625Y10483386D01*
X4778205Y10477550D01*
X4668100Y10408079D01*
X4581919Y10310497D01*
X4526590Y10192649D01*
X4526053Y10189200D01*
X4521049Y10157060D01*
X4506560Y10064010D01*
X2759900Y10064010D01*
X2759900Y11080010D01*
X8341960Y11080010D01*
X8342412Y11076553D01*
X8342412Y11076550D01*
X8355246Y10978410D01*
X8358841Y10950919D01*
X8411274Y10831755D01*
X8413520Y10829083D01*
X8413522Y10829080D01*
X8490020Y10738076D01*
X8495046Y10732097D01*
X8603420Y10659956D01*
X8727687Y10621133D01*
X8731177Y10621069D01*
X8757714Y10620583D01*
X8857855Y10618747D01*
X8983460Y10652991D01*
X8986431Y10654815D01*
X8986433Y10654816D01*
X9091432Y10719286D01*
X9094406Y10721112D01*
X9181772Y10817633D01*
X9238537Y10934796D01*
X9240712Y10947720D01*
X9259824Y11061319D01*
X9259824Y11061322D01*
X9260137Y11063181D01*
X9260274Y11074400D01*
X9259471Y11080010D01*
X9840560Y11080010D01*
X9841012Y11076553D01*
X9841012Y11076550D01*
X9853846Y10978410D01*
X9857441Y10950919D01*
X9909874Y10831755D01*
X9912120Y10829083D01*
X9912122Y10829080D01*
X9988620Y10738076D01*
X9993646Y10732097D01*
X10102020Y10659956D01*
X10226287Y10621133D01*
X10229777Y10621069D01*
X10256314Y10620583D01*
X10356455Y10618747D01*
X10482060Y10652991D01*
X10485031Y10654815D01*
X10485033Y10654816D01*
X10590032Y10719286D01*
X10593006Y10721112D01*
X10680372Y10817633D01*
X10737137Y10934796D01*
X10737210Y10935230D01*
X12423740Y10935230D01*
X12424192Y10931773D01*
X12424192Y10931770D01*
X12430212Y10885735D01*
X12440621Y10806139D01*
X12493054Y10686975D01*
X12495300Y10684303D01*
X12495302Y10684300D01*
X12574577Y10589992D01*
X12576826Y10587317D01*
X12685200Y10515176D01*
X12809467Y10476353D01*
X12812957Y10476289D01*
X12839494Y10475803D01*
X12939635Y10473967D01*
X13065240Y10508211D01*
X13068211Y10510035D01*
X13068213Y10510036D01*
X13173212Y10574506D01*
X13176186Y10576332D01*
X13263552Y10672853D01*
X13320317Y10790016D01*
X13322596Y10803563D01*
X13342496Y10835350D01*
X13379045Y10843756D01*
X13410832Y10823856D01*
X13415766Y10815172D01*
X13453174Y10730155D01*
X13455420Y10727483D01*
X13455422Y10727480D01*
X13518808Y10652074D01*
X13536946Y10630497D01*
X13645320Y10558356D01*
X13769587Y10519533D01*
X13773077Y10519469D01*
X13799614Y10518983D01*
X13899755Y10517147D01*
X14025360Y10551391D01*
X14028331Y10553215D01*
X14028333Y10553216D01*
X14133332Y10617686D01*
X14136306Y10619512D01*
X14223672Y10716033D01*
X14280437Y10833196D01*
X14283345Y10850477D01*
X14301724Y10959719D01*
X14301724Y10959722D01*
X14302037Y10961581D01*
X14302174Y10972800D01*
X14283718Y11101675D01*
X14229832Y11220190D01*
X14223521Y11227515D01*
X14147130Y11316171D01*
X14144850Y11318817D01*
X14035601Y11389628D01*
X14018538Y11394731D01*
X13914212Y11425931D01*
X13914209Y11425931D01*
X13910870Y11426930D01*
X13846328Y11427325D01*
X13784174Y11427705D01*
X13784172Y11427705D01*
X13780683Y11427726D01*
X13745851Y11417771D01*
X13665236Y11394731D01*
X13655505Y11391950D01*
X13545400Y11322479D01*
X13459219Y11224897D01*
X13403890Y11107049D01*
X13403353Y11103599D01*
X13402984Y11101231D01*
X13383472Y11069203D01*
X13347029Y11060352D01*
X13315001Y11079864D01*
X13309961Y11088488D01*
X13299263Y11112016D01*
X13269712Y11177010D01*
X13263401Y11184335D01*
X13187010Y11272991D01*
X13184730Y11275637D01*
X13075481Y11346448D01*
X13030624Y11359863D01*
X12954092Y11382751D01*
X12954089Y11382751D01*
X12950750Y11383750D01*
X12886208Y11384145D01*
X12824054Y11384525D01*
X12824052Y11384525D01*
X12820563Y11384546D01*
X12695385Y11348770D01*
X12585280Y11279299D01*
X12582970Y11276683D01*
X12502648Y11185735D01*
X12499099Y11181717D01*
X12443770Y11063869D01*
X12443233Y11060420D01*
X12425685Y10947720D01*
X12423740Y10935230D01*
X10737210Y10935230D01*
X10739312Y10947720D01*
X10758424Y11061319D01*
X10758424Y11061322D01*
X10758737Y11063181D01*
X10758874Y11074400D01*
X10740418Y11203275D01*
X10686532Y11321790D01*
X10680221Y11329115D01*
X10603830Y11417771D01*
X10601550Y11420417D01*
X10492301Y11491228D01*
X10476233Y11496033D01*
X10370912Y11527531D01*
X10370909Y11527531D01*
X10367570Y11528530D01*
X10303028Y11528925D01*
X10240874Y11529305D01*
X10240872Y11529305D01*
X10237383Y11529326D01*
X10112205Y11493550D01*
X10002100Y11424079D01*
X9915919Y11326497D01*
X9860590Y11208649D01*
X9860053Y11205200D01*
X9845117Y11109274D01*
X9840560Y11080010D01*
X9259471Y11080010D01*
X9241818Y11203275D01*
X9187932Y11321790D01*
X9181621Y11329115D01*
X9105230Y11417771D01*
X9102950Y11420417D01*
X8993701Y11491228D01*
X8977633Y11496033D01*
X8872312Y11527531D01*
X8872309Y11527531D01*
X8868970Y11528530D01*
X8804428Y11528925D01*
X8742274Y11529305D01*
X8742272Y11529305D01*
X8738783Y11529326D01*
X8613605Y11493550D01*
X8503500Y11424079D01*
X8417319Y11326497D01*
X8361990Y11208649D01*
X8361453Y11205200D01*
X8346517Y11109274D01*
X8341960Y11080010D01*
X2759900Y11080010D01*
X2759900Y11425114D01*
X2761146Y11436095D01*
X2763807Y11447665D01*
X2763807Y11447667D01*
X2765043Y11453042D01*
X2763826Y11458422D01*
X2763835Y11463942D01*
X2763847Y11463942D01*
X2763457Y11475858D01*
X2773369Y11538440D01*
X2778107Y11553021D01*
X2813672Y11622821D01*
X2822683Y11635223D01*
X2878077Y11690617D01*
X2890479Y11699628D01*
X2960279Y11735193D01*
X2974860Y11739931D01*
X3037059Y11749782D01*
X3048646Y11749383D01*
X3048646Y11749503D01*
X3054165Y11749494D01*
X3059542Y11748257D01*
X3076896Y11752184D01*
X3087711Y11753392D01*
X4439123Y11753392D01*
X4490449Y11753347D01*
X4495423Y11755736D01*
X4495425Y11755736D01*
X4506398Y11761005D01*
X4516711Y11764607D01*
X4522269Y11765875D01*
X4533962Y11768542D01*
X4538277Y11771981D01*
X4538280Y11771982D01*
X4547628Y11779431D01*
X4556953Y11785281D01*
X4567728Y11790455D01*
X4572705Y11792845D01*
X4583760Y11806669D01*
X4591486Y11814381D01*
X4605323Y11825407D01*
X4612914Y11841146D01*
X4618777Y11850456D01*
X4629694Y11864107D01*
X4630931Y11869487D01*
X4632304Y11872327D01*
X4660306Y11897275D01*
X4676420Y11900000D01*
X6626596Y11900000D01*
X6661244Y11885648D01*
G37*
G04 #@! TD.AperFunction*
M02*
